<svg xmlns="http://www.w3.org/2000/svg" xmlns:xlink="http://www.w3.org/1999/xlink" width="584" height="490.135" viewBox="0 0 584 490.135">
  <defs>
    <clipPath id="clip-path">
      <rect id="Прямоугольник_89" data-name="Прямоугольник 89" width="584" height="490.135" fill="#fa4616"/>
    </clipPath>
  </defs>
  <g id="Сгруппировать_159" data-name="Сгруппировать 159" opacity="0.1">
    <g id="Сгруппировать_157" data-name="Сгруппировать 157" clip-path="url(#clip-path)">
      <path id="Контур_178" data-name="Контур 178" d="M65.161.229a.1.1,0,0,0,.1-.1.1.1,0,0,0-.1-.1.092.092,0,0,0-.092.1.1.1,0,0,0,.092.1" transform="translate(106.709 0.059)" fill="#fa4616"/>
      <path id="Контур_179" data-name="Контур 179" d="M78.167.229a.1.1,0,0,0,.1-.1.094.094,0,0,0-.1-.1.092.092,0,0,0-.092.1.1.1,0,0,0,.092.1" transform="translate(128.037 0.059)" fill="#fa4616"/>
      <path id="Контур_180" data-name="Контур 180" d="M91.179.229a.1.1,0,0,0,.092-.1.092.092,0,0,0-.092-.1.1.1,0,0,0-.1.1.1.1,0,0,0,.1.1" transform="translate(149.366 0.059)" fill="#fa4616"/>
      <path id="Контур_181" data-name="Контур 181" d="M104.242.383a.193.193,0,0,0,.19-.193.19.19,0,1,0-.38,0,.193.193,0,0,0,.19.193" transform="translate(170.638)" fill="#fa4616"/>
      <path id="Контур_182" data-name="Контур 182" d="M117.248.383a.19.19,0,0,0,.19-.193.189.189,0,0,0-.19-.19.193.193,0,0,0-.19.19.193.193,0,0,0,.19.193" transform="translate(191.967)" fill="#fa4616"/>
      <path id="Контур_183" data-name="Контур 183" d="M130.2.229a.1.1,0,0,0,.092-.1.092.092,0,0,0-.092-.1.1.1,0,0,0-.1.1.1.1,0,0,0,.1.1" transform="translate(213.357 0.059)" fill="#fa4616"/>
      <path id="Контур_184" data-name="Контур 184" d="M143.2.229a.1.1,0,0,0,.092-.1.092.092,0,1,0-.185,0,.1.1,0,0,0,.092.1" transform="translate(234.689 0.059)" fill="#fa4616"/>
      <path id="Контур_185" data-name="Контур 185" d="M156.206.229a.1.1,0,0,0,.1-.1.1.1,0,0,0-.1-.1.094.094,0,0,0-.092.1.1.1,0,0,0,.092.1" transform="translate(256.016 0.059)" fill="#fa4616"/>
      <path id="Контур_186" data-name="Контур 186" d="M65.161,13.233a.1.1,0,0,0,.1-.1.1.1,0,0,0-.1-.1.092.092,0,0,0-.092.1.094.094,0,0,0,.092.1" transform="translate(106.709 21.39)" fill="#fa4616"/>
      <path id="Контур_187" data-name="Контур 187" d="M78.167,13.233a.1.1,0,0,0,.1-.1.094.094,0,0,0-.1-.1.092.092,0,0,0-.092.1.094.094,0,0,0,.092.1" transform="translate(128.037 21.39)" fill="#fa4616"/>
      <path id="Контур_188" data-name="Контур 188" d="M91.179,13.233a.094.094,0,0,0,.092-.1.092.092,0,0,0-.092-.1.1.1,0,0,0-.1.1.1.1,0,0,0,.1.1" transform="translate(149.366 21.39)" fill="#fa4616"/>
      <path id="Контур_189" data-name="Контур 189" d="M104.242,13.389a.191.191,0,0,0,.19-.19.19.19,0,1,0-.38,0,.191.191,0,0,0,.19.19" transform="translate(170.638 21.329)" fill="#fa4616"/>
      <path id="Контур_190" data-name="Контур 190" d="M117.248,13.389a.188.188,0,0,0,.19-.19.19.19,0,0,0-.19-.193.193.193,0,0,0-.19.193.191.191,0,0,0,.19.19" transform="translate(191.967 21.329)" fill="#fa4616"/>
      <path id="Контур_191" data-name="Контур 191" d="M130.2,13.233a.094.094,0,0,0,.092-.1.092.092,0,0,0-.092-.1.1.1,0,0,0-.1.1.1.1,0,0,0,.1.1" transform="translate(213.357 21.39)" fill="#fa4616"/>
      <path id="Контур_192" data-name="Контур 192" d="M143.2,13.233a.094.094,0,0,0,.092-.1.092.092,0,1,0-.185,0,.094.094,0,0,0,.092.1" transform="translate(234.689 21.39)" fill="#fa4616"/>
      <path id="Контур_193" data-name="Контур 193" d="M156.206,13.233a.1.1,0,0,0,.1-.1.1.1,0,0,0-.1-.1.094.094,0,0,0-.092.1.1.1,0,0,0,.092.1" transform="translate(256.016 21.39)" fill="#fa4616"/>
      <path id="Контур_194" data-name="Контур 194" d="M39.148,26.24a.1.1,0,0,0,.1-.1.1.1,0,0,0-.1-.092.09.09,0,0,0-.092.092.1.1,0,0,0,.092.1" transform="translate(64.049 42.72)" fill="#fa4616"/>
      <path id="Контур_195" data-name="Контур 195" d="M52.215,26.394a.19.19,0,0,0,.19-.193.187.187,0,0,0-.19-.187.19.19,0,0,0-.19.187.193.193,0,0,0,.19.193" transform="translate(85.317 42.661)" fill="#fa4616"/>
      <path id="Контур_196" data-name="Контур 196" d="M65.342,26.7a.381.381,0,1,0-.383-.38.381.381,0,0,0,.383.38" transform="translate(106.528 42.54)" fill="#fa4616"/>
      <path id="Контур_197" data-name="Контур 197" d="M78.463,27.014a.573.573,0,1,0-.568-.573.571.571,0,0,0,.568.573" transform="translate(127.742 42.422)" fill="#fa4616"/>
      <path id="Контур_198" data-name="Контур 198" d="M91.535,27.166a.667.667,0,1,0-.671-.668.666.666,0,0,0,.671.668" transform="translate(149.011 42.364)" fill="#fa4616"/>
      <path id="Контур_199" data-name="Контур 199" d="M104.537,27.166a.667.667,0,1,0-.665-.668.666.666,0,0,0,.665.668" transform="translate(170.343 42.364)" fill="#fa4616"/>
      <path id="Контур_200" data-name="Контур 200" d="M117.543,27.166a.667.667,0,1,0-.665-.668.663.663,0,0,0,.665.668" transform="translate(191.672 42.364)" fill="#fa4616"/>
      <path id="Контур_201" data-name="Контур 201" d="M130.494,27.014a.573.573,0,1,0-.573-.573.57.57,0,0,0,.573.573" transform="translate(213.061 42.422)" fill="#fa4616"/>
      <path id="Контур_202" data-name="Контур 202" d="M143.439,26.856a.475.475,0,1,0-.475-.478.474.474,0,0,0,.475.478" transform="translate(234.451 42.484)" fill="#fa4616"/>
      <path id="Контур_203" data-name="Контур 203" d="M156.325,26.55a.286.286,0,1,0-.282-.288.287.287,0,0,0,.282.288" transform="translate(255.898 42.6)" fill="#fa4616"/>
      <path id="Контур_204" data-name="Контур 204" d="M169.27,26.394a.194.194,0,0,0,.2-.193.192.192,0,0,0-.2-.187.186.186,0,0,0-.185.187.189.189,0,0,0,.185.193" transform="translate(277.288 42.661)" fill="#fa4616"/>
      <path id="Контур_205" data-name="Контур 205" d="M182.224,26.24a.1.1,0,0,0,.092-.1.09.09,0,0,0-.092-.092.1.1,0,0,0-.1.092.1.1,0,0,0,.1.1" transform="translate(298.674 42.72)" fill="#fa4616"/>
      <path id="Контур_206" data-name="Контур 206" d="M26.144,39.246a.1.1,0,1,0-.1-.1.095.095,0,0,0,.1.1" transform="translate(42.719 64.049)" fill="#fa4616"/>
      <path id="Контур_207" data-name="Контур 207" d="M39.329,39.71a.381.381,0,1,0-.383-.383.381.381,0,0,0,.383.383" transform="translate(63.869 63.87)" fill="#fa4616"/>
      <path id="Контур_208" data-name="Контур 208" d="M52.51,40.175a.668.668,0,1,0-.665-.668.668.668,0,0,0,.665.668" transform="translate(85.022 63.693)" fill="#fa4616"/>
      <path id="Контур_209" data-name="Контур 209" d="M65.753,40.791a1.048,1.048,0,1,0-1.045-1.051,1.047,1.047,0,0,0,1.045,1.051" transform="translate(106.117 63.457)" fill="#fa4616"/>
      <path id="Контур_210" data-name="Контур 210" d="M78.937,41.256a1.334,1.334,0,1,0-1.331-1.336,1.339,1.339,0,0,0,1.331,1.336" transform="translate(127.268 63.28)" fill="#fa4616"/>
      <path id="Контур_211" data-name="Контур 211" d="M92.005,41.41a1.43,1.43,0,1,0-1.428-1.431,1.428,1.428,0,0,0,1.428,1.431" transform="translate(148.54 63.221)" fill="#fa4616"/>
      <path id="Контур_212" data-name="Контур 212" d="M105.011,41.41a1.43,1.43,0,1,0-1.428-1.431,1.428,1.428,0,0,0,1.428,1.431" transform="translate(169.869 63.221)" fill="#fa4616"/>
      <path id="Контур_213" data-name="Контур 213" d="M118.017,41.41a1.43,1.43,0,1,0-1.428-1.431,1.428,1.428,0,0,0,1.428,1.431" transform="translate(191.198 63.221)" fill="#fa4616"/>
      <path id="Контур_214" data-name="Контур 214" d="M130.968,41.256a1.334,1.334,0,1,0-1.336-1.336,1.338,1.338,0,0,0,1.336,1.336" transform="translate(212.587 63.28)" fill="#fa4616"/>
      <path id="Контур_215" data-name="Контур 215" d="M143.793,40.791a1.048,1.048,0,1,0-1.045-1.051,1.047,1.047,0,0,0,1.045,1.051" transform="translate(234.097 63.457)" fill="#fa4616"/>
      <path id="Контур_216" data-name="Контур 216" d="M156.62,40.325a.76.76,0,1,0-.758-.76.761.761,0,0,0,.758.76" transform="translate(255.603 63.636)" fill="#fa4616"/>
      <path id="Контур_217" data-name="Контур 217" d="M169.45,39.864a.477.477,0,1,0-.475-.478.478.478,0,0,0,.475.478" transform="translate(277.107 63.811)" fill="#fa4616"/>
      <path id="Контур_218" data-name="Контур 218" d="M182.281,39.4a.191.191,0,0,0,.19-.19.193.193,0,0,0-.19-.193.19.19,0,0,0-.19.193.188.188,0,0,0,.19.19" transform="translate(298.616 63.988)" fill="#fa4616"/>
      <path id="Контур_219" data-name="Контур 219" d="M195.226,39.246a.1.1,0,1,0,0-.19.1.1,0,0,0,0,.19" transform="translate(320.006 64.049)" fill="#fa4616"/>
      <path id="Контур_220" data-name="Контур 220" d="M13.135,52.253a.1.1,0,0,0,.1-.1.094.094,0,1,0-.187,0,.094.094,0,0,0,.092.1" transform="translate(21.39 85.38)" fill="#fa4616"/>
      <path id="Контур_221" data-name="Контур 221" d="M26.323,52.717a.381.381,0,1,0-.383-.383.381.381,0,0,0,.383.383" transform="translate(42.54 85.201)" fill="#fa4616"/>
      <path id="Контур_222" data-name="Контур 222" d="M39.68,53.641a.952.952,0,1,0-.948-.95.952.952,0,0,0,.948.95" transform="translate(63.518 84.847)" fill="#fa4616"/>
      <path id="Контур_223" data-name="Контур 223" d="M53.042,54.568a1.523,1.523,0,1,0-1.521-1.523,1.524,1.524,0,0,0,1.521,1.523" transform="translate(84.491 84.492)" fill="#fa4616"/>
      <path id="Контур_224" data-name="Контур 224" d="M66.4,55.495A2.095,2.095,0,1,0,64.311,53.4,2.092,2.092,0,0,0,66.4,55.495" transform="translate(105.466 84.137)" fill="#fa4616"/>
      <path id="Контур_225" data-name="Контур 225" d="M79.647,56.111a2.475,2.475,0,1,0-2.474-2.474,2.475,2.475,0,0,0,2.474,2.474" transform="translate(126.558 83.9)" fill="#fa4616"/>
      <path id="Контур_226" data-name="Контур 226" d="M92.717,56.269A2.573,2.573,0,1,0,90.143,53.7a2.571,2.571,0,0,0,2.574,2.574" transform="translate(147.828 83.84)" fill="#fa4616"/>
      <path id="Контур_227" data-name="Контур 227" d="M105.723,56.269a2.573,2.573,0,1,0-2.574-2.574,2.576,2.576,0,0,0,2.574,2.574" transform="translate(169.157 83.84)" fill="#fa4616"/>
      <path id="Контур_228" data-name="Контур 228" d="M118.668,56.111a2.475,2.475,0,1,0-2.476-2.474,2.472,2.472,0,0,0,2.476,2.474" transform="translate(190.547 83.9)" fill="#fa4616"/>
      <path id="Контур_229" data-name="Контур 229" d="M131.5,55.647a2.189,2.189,0,1,0-2.191-2.189,2.192,2.192,0,0,0,2.191,2.189" transform="translate(212.056 84.079)" fill="#fa4616"/>
      <path id="Контур_230" data-name="Контур 230" d="M144.269,55.032a1.81,1.81,0,1,0-1.811-1.811,1.812,1.812,0,0,0,1.811,1.811" transform="translate(233.621 84.314)" fill="#fa4616"/>
      <path id="Контур_231" data-name="Контур 231" d="M156.976,54.262a1.334,1.334,0,1,0-1.331-1.336,1.337,1.337,0,0,0,1.331,1.336" transform="translate(255.247 84.609)" fill="#fa4616"/>
      <path id="Контур_232" data-name="Контур 232" d="M169.744,53.641a.952.952,0,1,0-.948-.95.949.949,0,0,0,.948.95" transform="translate(276.814 84.847)" fill="#fa4616"/>
      <path id="Контур_233" data-name="Контур 233" d="M182.519,53.024a.572.572,0,1,0-.573-.57.573.573,0,0,0,.573.57" transform="translate(298.379 85.081)" fill="#fa4616"/>
      <path id="Контур_234" data-name="Контур 234" d="M195.287,52.409a.191.191,0,0,0,0-.383.191.191,0,0,0,0,.383" transform="translate(319.945 85.319)" fill="#fa4616"/>
      <path id="Контур_235" data-name="Контур 235" d="M208.232,52.253a.1.1,0,0,0,.1-.1.1.1,0,0,0-.1-.1.1.1,0,0,0-.092.1.1.1,0,0,0,.092.1" transform="translate(341.335 85.38)" fill="#fa4616"/>
      <path id="Контур_236" data-name="Контур 236" d="M13.253,65.57a.286.286,0,1,0-.282-.288.286.286,0,0,0,.282.288" transform="translate(21.272 106.591)" fill="#fa4616"/>
      <path id="Контур_237" data-name="Контур 237" d="M26.675,66.646a.95.95,0,1,0-.95-.95.95.95,0,0,0,.95.95" transform="translate(42.187 106.177)" fill="#fa4616"/>
      <path id="Контур_238" data-name="Контур 238" d="M40.216,68.037a1.808,1.808,0,1,0-1.811-1.811,1.811,1.811,0,0,0,1.811,1.811" transform="translate(62.981 105.644)" fill="#fa4616"/>
      <path id="Контур_239" data-name="Контур 239" d="M53.753,69.428a2.666,2.666,0,1,0-2.666-2.669,2.665,2.665,0,0,0,2.666,2.669" transform="translate(83.779 105.111)" fill="#fa4616"/>
      <path id="Контур_240" data-name="Контур 240" d="M67.174,70.506a3.332,3.332,0,1,0-3.332-3.334,3.332,3.332,0,0,0,3.332,3.334" transform="translate(104.696 104.698)" fill="#fa4616"/>
      <path id="Контур_241" data-name="Контур 241" d="M80.473,71.279a3.808,3.808,0,1,0-3.8-3.809,3.809,3.809,0,0,0,3.8,3.809" transform="translate(125.732 104.403)" fill="#fa4616"/>
      <path id="Контур_242" data-name="Контур 242" d="M93.543,71.435a3.9,3.9,0,1,0-3.9-3.907,3.906,3.906,0,0,0,3.9,3.907" transform="translate(147.002 104.342)" fill="#fa4616"/>
      <path id="Контур_243" data-name="Контур 243" d="M106.549,71.435a3.9,3.9,0,1,0-3.9-3.907,3.906,3.906,0,0,0,3.9,3.907" transform="translate(168.331 104.342)" fill="#fa4616"/>
      <path id="Контур_244" data-name="Контур 244" d="M119.375,70.971a3.618,3.618,0,1,0-3.614-3.619,3.617,3.617,0,0,0,3.614,3.619" transform="translate(189.84 104.521)" fill="#fa4616"/>
      <path id="Контур_245" data-name="Контур 245" d="M132.15,70.352a3.237,3.237,0,1,0-3.239-3.239,3.237,3.237,0,0,0,3.239,3.239" transform="translate(211.405 104.757)" fill="#fa4616"/>
      <path id="Контур_246" data-name="Контур 246" d="M144.8,69.428a2.666,2.666,0,1,0-2.666-2.669,2.668,2.668,0,0,0,2.666,2.669" transform="translate(233.09 105.111)" fill="#fa4616"/>
      <path id="Контур_247" data-name="Контур 247" d="M157.392,68.347a2,2,0,1,0-2-2,2,2,0,0,0,2,2" transform="translate(254.83 105.525)" fill="#fa4616"/>
      <path id="Контур_248" data-name="Контур 248" d="M170.039,67.418a1.427,1.427,0,1,0-1.423-1.428,1.422,1.422,0,0,0,1.423,1.428" transform="translate(276.518 105.88)" fill="#fa4616"/>
      <path id="Контур_249" data-name="Контур 249" d="M182.694,66.494a.857.857,0,1,0-.855-.858.854.854,0,0,0,.855.858" transform="translate(298.203 106.236)" fill="#fa4616"/>
      <path id="Контур_250" data-name="Контур 250" d="M195.464,65.877a.477.477,0,1,0,0-.953.477.477,0,0,0,0,.953" transform="translate(319.768 106.471)" fill="#fa4616"/>
      <path id="Контур_251" data-name="Контур 251" d="M208.293,65.413a.19.19,0,1,0-.19-.19.192.192,0,0,0,.19.19" transform="translate(341.274 106.65)" fill="#fa4616"/>
      <path id="Контур_252" data-name="Контур 252" d="M.131,78.265a.1.1,0,1,0-.1-.1.095.095,0,0,0,.1.1" transform="translate(0.059 128.037)" fill="#fa4616"/>
      <path id="Контур_253" data-name="Контур 253" d="M13.432,79.035a.57.57,0,1,0-.57-.57.57.57,0,0,0,.57.57" transform="translate(21.093 127.742)" fill="#fa4616"/>
      <path id="Контур_254" data-name="Контур 254" d="M27.031,80.58a1.523,1.523,0,1,0-1.523-1.523,1.522,1.522,0,0,0,1.523,1.523" transform="translate(41.831 127.15)" fill="#fa4616"/>
      <path id="Контур_255" data-name="Контур 255" d="M40.747,82.436a2.668,2.668,0,1,0-2.666-2.669,2.666,2.666,0,0,0,2.666,2.669" transform="translate(62.45 126.44)" fill="#fa4616"/>
      <path id="Контур_256" data-name="Контур 256" d="M54.46,84.285a3.808,3.808,0,1,0-3.8-3.807,3.809,3.809,0,0,0,3.8,3.807" transform="translate(83.072 125.732)" fill="#fa4616"/>
      <path id="Контур_257" data-name="Контур 257" d="M68.121,85.982a4.855,4.855,0,1,0-4.857-4.855,4.854,4.854,0,0,0,4.857,4.855" transform="translate(103.749 125.081)" fill="#fa4616"/>
      <path id="Контур_258" data-name="Контур 258" d="M81.423,86.755a5.331,5.331,0,1,0-5.333-5.333,5.328,5.328,0,0,0,5.333,5.333" transform="translate(124.782 124.786)" fill="#fa4616"/>
      <path id="Контур_259" data-name="Контур 259" d="M94.491,86.909a5.426,5.426,0,1,0-5.43-5.428,5.427,5.427,0,0,0,5.43,5.428" transform="translate(146.054 124.727)" fill="#fa4616"/>
      <path id="Контур_260" data-name="Контур 260" d="M107.437,86.755a5.331,5.331,0,1,0-5.333-5.333,5.331,5.331,0,0,0,5.333,5.333" transform="translate(167.443 124.786)" fill="#fa4616"/>
      <path id="Контур_261" data-name="Контур 261" d="M120.2,86.138a4.951,4.951,0,1,0-4.95-4.953,4.955,4.955,0,0,0,4.95,4.953" transform="translate(189.01 125.022)" fill="#fa4616"/>
      <path id="Контур_262" data-name="Контур 262" d="M132.742,84.9a4.19,4.19,0,1,0-4.192-4.19,4.189,4.189,0,0,0,4.192,4.19" transform="translate(210.813 125.494)" fill="#fa4616"/>
      <path id="Контур_263" data-name="Контур 263" d="M145.214,83.515a3.333,3.333,0,1,0-3.332-3.334,3.332,3.332,0,0,0,3.332,3.334" transform="translate(232.676 126.027)" fill="#fa4616"/>
      <path id="Контур_264" data-name="Контур 264" d="M157.745,82.281a2.571,2.571,0,1,0-2.569-2.574,2.576,2.576,0,0,0,2.569,2.574" transform="translate(254.478 126.501)" fill="#fa4616"/>
      <path id="Контур_265" data-name="Контур 265" d="M170.277,81.043a1.808,1.808,0,1,0-1.806-1.808,1.81,1.81,0,0,0,1.806,1.808" transform="translate(276.281 126.973)" fill="#fa4616"/>
      <path id="Контур_266" data-name="Контур 266" d="M182.875,79.963a1.142,1.142,0,1,0-1.146-1.143,1.141,1.141,0,0,0,1.146,1.143" transform="translate(298.023 127.388)" fill="#fa4616"/>
      <path id="Контур_267" data-name="Контур 267" d="M195.582,79.194a.668.668,0,1,0-.665-.668.663.663,0,0,0,.665.668" transform="translate(319.65 127.682)" fill="#fa4616"/>
      <path id="Контур_268" data-name="Контур 268" d="M208.35,78.576a.286.286,0,1,0,0-.573.286.286,0,0,0,0,.573" transform="translate(341.217 127.919)" fill="#fa4616"/>
      <path id="Контур_269" data-name="Контур 269" d="M221.244,78.265a.1.1,0,0,0,0-.19.1.1,0,1,0,0,.19" transform="translate(362.664 128.037)" fill="#fa4616"/>
      <path id="Контур_270" data-name="Контур 270" d="M.19,91.428a.189.189,0,0,0,.19-.19.192.192,0,0,0-.19-.193.192.192,0,0,0-.19.193.189.189,0,0,0,.19.19" transform="translate(0 149.307)" fill="#fa4616"/>
      <path id="Контур_271" data-name="Контур 271" d="M13.668,92.662a.953.953,0,1,0-.95-.95.95.95,0,0,0,.95.95" transform="translate(20.857 148.833)" fill="#fa4616"/>
      <path id="Контур_272" data-name="Контур 272" d="M27.385,94.514a2.095,2.095,0,1,0-2.093-2.093,2.093,2.093,0,0,0,2.093,2.093" transform="translate(41.477 148.125)" fill="#fa4616"/>
      <path id="Контур_273" data-name="Контур 273" d="M41.339,96.983a3.618,3.618,0,1,0-3.619-3.617,3.618,3.618,0,0,0,3.619,3.617" transform="translate(61.858 147.179)" fill="#fa4616"/>
      <path id="Контур_274" data-name="Контур 274" d="M55.347,99.609a5.238,5.238,0,1,0-5.232-5.235,5.238,5.238,0,0,0,5.232,5.235" transform="translate(82.185 146.174)" fill="#fa4616"/>
      <path id="Контур_275" data-name="Контур 275" d="M69.127,101.614a6.474,6.474,0,1,0-6.476-6.473,6.474,6.474,0,0,0,6.476,6.473" transform="translate(102.743 145.404)" fill="#fa4616"/>
      <path id="Контур_276" data-name="Контур 276" d="M82.485,102.541a7.046,7.046,0,1,0-7.043-7.046,7.047,7.047,0,0,0,7.043,7.046" transform="translate(123.72 145.05)" fill="#fa4616"/>
      <path id="Контур_277" data-name="Контур 277" d="M95.5,102.541a7.046,7.046,0,1,0-7.049-7.046,7.046,7.046,0,0,0,7.049,7.046" transform="translate(145.048 145.05)" fill="#fa4616"/>
      <path id="Контур_278" data-name="Контур 278" d="M108.381,102.231a6.855,6.855,0,1,0-6.853-6.856,6.859,6.859,0,0,0,6.853,6.856" transform="translate(166.499 145.17)" fill="#fa4616"/>
      <path id="Контур_279" data-name="Контур 279" d="M120.974,101.148a6.187,6.187,0,1,0-6.188-6.188,6.191,6.191,0,0,0,6.188,6.188" transform="translate(188.241 145.585)" fill="#fa4616"/>
      <path id="Контур_280" data-name="Контур 280" d="M133.334,99.454a5.143,5.143,0,1,0-5.145-5.14,5.141,5.141,0,0,0,5.145,5.14" transform="translate(210.221 146.231)" fill="#fa4616"/>
      <path id="Контур_281" data-name="Контур 281" d="M145.569,97.446a3.9,3.9,0,1,0-3.9-3.9,3.906,3.906,0,0,0,3.9,3.9" transform="translate(232.321 147.003)" fill="#fa4616"/>
      <path id="Контур_282" data-name="Контур 282" d="M157.981,95.9a2.951,2.951,0,1,0-2.949-2.951,2.955,2.955,0,0,0,2.949,2.951" transform="translate(254.242 147.594)" fill="#fa4616"/>
      <path id="Контур_283" data-name="Контур 283" d="M170.455,94.514a2.095,2.095,0,1,0-2.093-2.093,2.1,2.1,0,0,0,2.093,2.093" transform="translate(276.102 148.125)" fill="#fa4616"/>
      <path id="Контур_284" data-name="Контур 284" d="M182.993,93.278a1.333,1.333,0,1,0-1.336-1.331,1.33,1.33,0,0,0,1.336,1.331" transform="translate(297.905 148.597)" fill="#fa4616"/>
      <path id="Контур_285" data-name="Контур 285" d="M195.643,92.35a.76.76,0,1,0-.763-.758.759.759,0,0,0,.763.758" transform="translate(319.59 148.953)" fill="#fa4616"/>
      <path id="Контур_286" data-name="Контур 286" d="M208.41,91.737a.381.381,0,1,0-.378-.383.383.383,0,0,0,.378.383" transform="translate(341.158 149.191)" fill="#fa4616"/>
      <path id="Контур_287" data-name="Контур 287" d="M221.244,91.271a.092.092,0,0,0,.092-.092.1.1,0,0,0-.092-.1.1.1,0,0,0-.1.1.1.1,0,0,0,.1.092" transform="translate(362.664 149.366)" fill="#fa4616"/>
      <path id="Контур_288" data-name="Контур 288" d="M.19,104.434a.188.188,0,0,0,.19-.19.193.193,0,0,0-.19-.193.193.193,0,0,0-.19.193.188.188,0,0,0,.19.19" transform="translate(0 170.636)" fill="#fa4616"/>
      <path id="Контур_289" data-name="Контур 289" d="M13.788,105.978a1.143,1.143,0,1,0-1.143-1.146,1.146,1.146,0,0,0,1.143,1.146" transform="translate(20.737 170.048)" fill="#fa4616"/>
      <path id="Контур_290" data-name="Контур 290" d="M27.622,108.136a2.475,2.475,0,1,0-2.474-2.474,2.472,2.472,0,0,0,2.474,2.474" transform="translate(41.241 169.218)" fill="#fa4616"/>
      <path id="Контур_291" data-name="Контур 291" d="M41.871,111.38a4.476,4.476,0,1,0-4.475-4.475,4.475,4.475,0,0,0,4.475,4.475" transform="translate(61.327 167.975)" fill="#fa4616"/>
      <path id="Контур_292" data-name="Контур 292" d="M56.116,114.623a6.476,6.476,0,1,0-6.47-6.476,6.475,6.475,0,0,0,6.47,6.476" transform="translate(81.416 166.733)" fill="#fa4616"/>
      <path id="Контур_293" data-name="Контур 293" d="M70.132,117.244a8.093,8.093,0,1,0-8.094-8.094,8.1,8.1,0,0,0,8.094,8.094" transform="translate(101.738 165.73)" fill="#fa4616"/>
      <path id="Контур_294" data-name="Контур 294" d="M83.548,118.325a8.759,8.759,0,1,0-8.754-8.759,8.756,8.756,0,0,0,8.754,8.759" transform="translate(122.657 165.315)" fill="#fa4616"/>
      <path id="Контур_295" data-name="Контур 295" d="M96.559,118.325a8.759,8.759,0,1,0-8.759-8.759,8.759,8.759,0,0,0,8.759,8.759" transform="translate(143.986 165.315)" fill="#fa4616"/>
      <path id="Контур_296" data-name="Контур 296" d="M109.268,117.555a8.284,8.284,0,1,0-8.281-8.287,8.284,8.284,0,0,0,8.281,8.287" transform="translate(165.612 165.612)" fill="#fa4616"/>
      <path id="Контур_297" data-name="Контур 297" d="M121.623,115.853a7.235,7.235,0,1,0-7.233-7.236,7.238,7.238,0,0,0,7.233,7.236" transform="translate(187.592 166.263)" fill="#fa4616"/>
      <path id="Контур_298" data-name="Контур 298" d="M133.69,113.386a5.713,5.713,0,1,0-5.718-5.713,5.717,5.717,0,0,0,5.718,5.713" transform="translate(209.865 167.207)" fill="#fa4616"/>
      <path id="Контур_299" data-name="Контур 299" d="M145.806,111.069a4.283,4.283,0,1,0-4.285-4.285,4.286,4.286,0,0,0,4.285,4.285" transform="translate(232.084 168.096)" fill="#fa4616"/>
      <path id="Контур_300" data-name="Контур 300" d="M158.042,109.065a3.048,3.048,0,1,0-3.047-3.046,3.046,3.046,0,0,0,3.047,3.046" transform="translate(254.181 168.862)" fill="#fa4616"/>
      <path id="Контур_301" data-name="Контур 301" d="M170.455,107.521a2.095,2.095,0,1,0-2.093-2.1,2.1,2.1,0,0,0,2.093,2.1" transform="translate(276.102 169.456)" fill="#fa4616"/>
      <path id="Контур_302" data-name="Контур 302" d="M182.993,106.285a1.333,1.333,0,1,0-1.336-1.333,1.331,1.331,0,0,0,1.336,1.333" transform="translate(297.905 169.928)" fill="#fa4616"/>
      <path id="Контур_303" data-name="Контур 303" d="M195.7,105.511a.855.855,0,1,0-.855-.855.858.858,0,0,0,.855.855" transform="translate(319.532 170.225)" fill="#fa4616"/>
      <path id="Контур_304" data-name="Контур 304" d="M208.41,104.743a.381.381,0,1,0-.378-.383.383.383,0,0,0,.378.383" transform="translate(341.158 170.52)" fill="#fa4616"/>
      <path id="Контур_305" data-name="Контур 305" d="M221.244,104.276a.094.094,0,0,0,.092-.1.09.09,0,0,0-.092-.092.1.1,0,0,0-.1.092.1.1,0,0,0,.1.1" transform="translate(362.664 170.699)" fill="#fa4616"/>
      <path id="Контур_306" data-name="Контур 306" d="M.19,117.441a.191.191,0,1,0-.19-.193.19.19,0,0,0,.19.193" transform="translate(0 191.967)" fill="#fa4616"/>
      <path id="Контур_307" data-name="Контур 307" d="M13.788,118.982a1.142,1.142,0,1,0-1.143-1.146,1.145,1.145,0,0,0,1.143,1.146" transform="translate(20.737 191.376)" fill="#fa4616"/>
      <path id="Контур_308" data-name="Контур 308" d="M27.741,121.454a2.666,2.666,0,1,0-2.666-2.669,2.666,2.666,0,0,0,2.666,2.669" transform="translate(41.121 190.43)" fill="#fa4616"/>
      <path id="Контур_309" data-name="Контур 309" d="M41.99,124.7a4.666,4.666,0,1,0-4.667-4.667A4.667,4.667,0,0,0,41.99,124.7" transform="translate(61.207 189.187)" fill="#fa4616"/>
      <path id="Контур_310" data-name="Контур 310" d="M56.71,129.169a7.426,7.426,0,1,0-7.426-7.426,7.425,7.425,0,0,0,7.426,7.426" transform="translate(80.822 187.472)" fill="#fa4616"/>
      <path id="Контур_311" data-name="Контур 311" d="M71.139,132.877a9.712,9.712,0,1,0-9.715-9.715,9.718,9.718,0,0,0,9.715,9.715" transform="translate(100.731 186.053)" fill="#fa4616"/>
      <path id="Контур_312" data-name="Контур 312" d="M84.676,134.263a10.568,10.568,0,1,0-10.57-10.57,10.571,10.571,0,0,0,10.57,10.57" transform="translate(121.529 185.522)" fill="#fa4616"/>
      <path id="Контур_313" data-name="Контур 313" d="M97.684,134.263a10.568,10.568,0,1,0-10.57-10.57,10.571,10.571,0,0,0,10.57,10.57" transform="translate(142.861 185.522)" fill="#fa4616"/>
      <path id="Контур_314" data-name="Контур 314" d="M110.159,132.877a9.712,9.712,0,1,0-9.715-9.715,9.713,9.713,0,0,0,9.715,9.715" transform="translate(164.721 186.053)" fill="#fa4616"/>
      <path id="Контур_315" data-name="Контур 315" d="M122.1,130.1a8,8,0,1,0-8-8,8,8,0,0,0,8,8" transform="translate(187.118 187.116)" fill="#fa4616"/>
      <path id="Контур_316" data-name="Контур 316" d="M133.8,126.705a5.906,5.906,0,1,0-5.9-5.908,5.907,5.907,0,0,0,5.9,5.908" transform="translate(209.75 188.418)" fill="#fa4616"/>
      <path id="Контур_317" data-name="Контур 317" d="M145.866,124.231a4.38,4.38,0,1,0-4.382-4.382,4.377,4.377,0,0,0,4.382,4.382" transform="translate(232.024 189.366)" fill="#fa4616"/>
      <path id="Контур_318" data-name="Контур 318" d="M158.042,122.072a3.048,3.048,0,1,0-3.047-3.049,3.045,3.045,0,0,0,3.047,3.049" transform="translate(254.181 190.193)" fill="#fa4616"/>
      <path id="Контур_319" data-name="Контур 319" d="M170.455,120.529a2.1,2.1,0,1,0-2.093-2.1,2.1,2.1,0,0,0,2.093,2.1" transform="translate(276.102 190.784)" fill="#fa4616"/>
      <path id="Контур_320" data-name="Контур 320" d="M182.993,119.292a1.333,1.333,0,1,0-1.336-1.336,1.333,1.333,0,0,0,1.336,1.336" transform="translate(297.905 191.258)" fill="#fa4616"/>
      <path id="Контур_321" data-name="Контур 321" d="M195.643,118.364a.76.76,0,1,0-.763-.763.762.762,0,0,0,.763.763" transform="translate(319.59 191.614)" fill="#fa4616"/>
      <path id="Контур_322" data-name="Контур 322" d="M208.41,117.745a.379.379,0,1,0,0-.758.379.379,0,0,0,0,.758" transform="translate(341.158 191.85)" fill="#fa4616"/>
      <path id="Контур_323" data-name="Контур 323" d="M221.244,117.285a.093.093,0,0,0,.092-.1.092.092,0,0,0-.092-.092.1.1,0,0,0-.1.092.1.1,0,0,0,.1.1" transform="translate(362.664 192.028)" fill="#fa4616"/>
      <path id="Контур_324" data-name="Контур 324" d="M.19,130.448a.191.191,0,0,0,0-.383.191.191,0,0,0,0,.383" transform="translate(0 213.297)" fill="#fa4616"/>
      <path id="Контур_325" data-name="Контур 325" d="M13.727,131.834a1.047,1.047,0,1,0-1.045-1.051,1.052,1.052,0,0,0,1.045,1.051" transform="translate(20.798 212.766)" fill="#fa4616"/>
      <path id="Контур_326" data-name="Контур 326" d="M27.682,134.3a2.57,2.57,0,1,0-2.571-2.571,2.573,2.573,0,0,0,2.571,2.571" transform="translate(41.18 211.818)" fill="#fa4616"/>
      <path id="Контур_327" data-name="Контур 327" d="M41.99,137.7a4.665,4.665,0,1,0-4.667-4.667A4.667,4.667,0,0,0,41.99,137.7" transform="translate(61.207 210.518)" fill="#fa4616"/>
      <path id="Контур_328" data-name="Контур 328" d="M56.71,142.178a7.427,7.427,0,1,0-7.426-7.429,7.428,7.428,0,0,0,7.426,7.429" transform="translate(80.822 208.801)" fill="#fa4616"/>
      <path id="Контур_329" data-name="Контур 329" d="M71.67,147.275A10.57,10.57,0,1,0,61.1,136.7a10.572,10.572,0,0,0,10.57,10.573" transform="translate(100.2 206.851)" fill="#fa4616"/>
      <path id="Контур_330" data-name="Контур 330" d="M85.859,150.358a12.472,12.472,0,1,0-12.474-12.476,12.481,12.481,0,0,0,12.474,12.476" transform="translate(120.346 205.669)" fill="#fa4616"/>
      <path id="Контур_331" data-name="Контур 331" d="M98.867,150.358a12.472,12.472,0,1,0-12.474-12.476,12.476,12.476,0,0,0,12.474,12.476" transform="translate(141.678 205.669)" fill="#fa4616"/>
      <path id="Контур_332" data-name="Контур 332" d="M110.866,147.734a10.854,10.854,0,1,0-10.853-10.855,10.853,10.853,0,0,0,10.853,10.855" transform="translate(164.014 206.674)" fill="#fa4616"/>
      <path id="Контур_333" data-name="Контур 333" d="M122.335,143.719a8.378,8.378,0,1,0-8.379-8.379,8.377,8.377,0,0,0,8.379,8.379" transform="translate(186.88 208.21)" fill="#fa4616"/>
      <path id="Контур_334" data-name="Контур 334" d="M133.8,139.709a5.9,5.9,0,1,0-5.9-5.906,5.906,5.906,0,0,0,5.9,5.906" transform="translate(209.75 209.749)" fill="#fa4616"/>
      <path id="Контур_335" data-name="Контур 335" d="M145.806,137.082a4.283,4.283,0,1,0-4.285-4.285,4.284,4.284,0,0,0,4.285,4.285" transform="translate(232.084 210.756)" fill="#fa4616"/>
      <path id="Контур_336" data-name="Контур 336" d="M157.923,134.769a2.856,2.856,0,1,0-2.856-2.859,2.857,2.857,0,0,0,2.856,2.859" transform="translate(254.299 211.643)" fill="#fa4616"/>
      <path id="Контур_337" data-name="Контур 337" d="M170.337,133.224a1.9,1.9,0,1,0-1.9-1.906,1.907,1.907,0,0,0,1.9,1.906" transform="translate(276.22 212.231)" fill="#fa4616"/>
      <path id="Контур_338" data-name="Контур 338" d="M182.875,131.99a1.143,1.143,0,1,0-1.146-1.146,1.144,1.144,0,0,0,1.146,1.146" transform="translate(298.023 212.705)" fill="#fa4616"/>
      <path id="Контур_339" data-name="Контур 339" d="M195.582,131.22a.668.668,0,1,0-.665-.668.663.663,0,0,0,.665.668" transform="translate(319.65 213.001)" fill="#fa4616"/>
      <path id="Контур_340" data-name="Контур 340" d="M208.35,130.6a.288.288,0,1,0,0-.576.288.288,0,0,0,0,.576" transform="translate(341.217 213.237)" fill="#fa4616"/>
      <path id="Контур_341" data-name="Контур 341" d="M221.244,130.289a.092.092,0,0,0,.092-.1.09.09,0,0,0-.092-.092.1.1,0,0,0-.1.092.1.1,0,0,0,.1.1" transform="translate(362.664 213.358)" fill="#fa4616"/>
      <path id="Контур_342" data-name="Контур 342" d="M.131,143.3a.1.1,0,0,0,.1-.1.1.1,0,0,0-.19,0,.1.1,0,0,0,.1.1" transform="translate(0.059 234.687)" fill="#fa4616"/>
      <path id="Контур_343" data-name="Контур 343" d="M13.491,144.221a.665.665,0,1,0-.665-.665.665.665,0,0,0,.665.665" transform="translate(21.034 234.331)" fill="#fa4616"/>
      <path id="Контур_344" data-name="Контур 344" d="M27.385,146.54a2.095,2.095,0,1,0-2.093-2.1,2.1,2.1,0,0,0,2.093,2.1" transform="translate(41.477 233.444)" fill="#fa4616"/>
      <path id="Контур_345" data-name="Контур 345" d="M41.635,149.781a4.095,4.095,0,1,0-4.095-4.095,4.093,4.093,0,0,0,4.095,4.095" transform="translate(61.563 232.201)" fill="#fa4616"/>
      <path id="Контур_346" data-name="Контур 346" d="M56.472,154.564a7.045,7.045,0,1,0-7.043-7.046,7.047,7.047,0,0,0,7.043,7.046" transform="translate(81.06 230.369)" fill="#fa4616"/>
      <path id="Контур_347" data-name="Контур 347" d="M71.67,160.28a10.57,10.57,0,1,0-10.57-10.57,10.571,10.571,0,0,0,10.57,10.57" transform="translate(100.2 228.178)" fill="#fa4616"/>
      <path id="Контур_348" data-name="Контур 348" d="M85.859,163.364A12.472,12.472,0,1,0,73.385,150.89a12.478,12.478,0,0,0,12.474,12.474" transform="translate(120.346 226.997)" fill="#fa4616"/>
      <path id="Контур_349" data-name="Контур 349" d="M98.867,163.364A12.472,12.472,0,1,0,86.393,150.89a12.474,12.474,0,0,0,12.474,12.474" transform="translate(141.678 226.997)" fill="#fa4616"/>
      <path id="Контур_350" data-name="Контур 350" d="M111.753,163.056a12.282,12.282,0,1,0-12.281-12.281,12.282,12.282,0,0,0,12.281,12.281" transform="translate(163.127 227.115)" fill="#fa4616"/>
      <path id="Контур_351" data-name="Контур 351" d="M122.393,156.884a8.475,8.475,0,1,0-8.472-8.477,8.476,8.476,0,0,0,8.472,8.477" transform="translate(186.822 229.48)" fill="#fa4616"/>
      <path id="Контур_352" data-name="Контур 352" d="M133.747,152.558a5.807,5.807,0,1,0-5.81-5.808,5.806,5.806,0,0,0,5.81,5.808" transform="translate(209.808 231.14)" fill="#fa4616"/>
      <path id="Контур_353" data-name="Контур 353" d="M145.45,149.163a3.713,3.713,0,1,0-3.712-3.712,3.71,3.71,0,0,0,3.712,3.712" transform="translate(232.44 232.439)" fill="#fa4616"/>
      <path id="Контур_354" data-name="Контур 354" d="M157.625,147a2.381,2.381,0,1,0-2.376-2.381A2.382,2.382,0,0,0,157.625,147" transform="translate(254.597 233.267)" fill="#fa4616"/>
      <path id="Контур_355" data-name="Контур 355" d="M170.039,145.459a1.428,1.428,0,1,0-1.423-1.428,1.424,1.424,0,0,0,1.423,1.428" transform="translate(276.518 233.859)" fill="#fa4616"/>
      <path id="Контур_356" data-name="Контур 356" d="M182.694,144.533a.857.857,0,1,0-.855-.858.854.854,0,0,0,.855.858" transform="translate(298.203 234.215)" fill="#fa4616"/>
      <path id="Контур_357" data-name="Контур 357" d="M195.464,143.914a.475.475,0,1,0,0-.95.475.475,0,1,0,0,.95" transform="translate(319.768 234.451)" fill="#fa4616"/>
      <path id="Контур_358" data-name="Контур 358" d="M208.293,143.454a.191.191,0,0,0,.2-.19.193.193,0,1,0-.385,0,.189.189,0,0,0,.19.19" transform="translate(341.274 234.626)" fill="#fa4616"/>
      <path id="Контур_359" data-name="Контур 359" d="M221.244,143.3a.094.094,0,0,0,.092-.1.092.092,0,0,0-.092-.1.1.1,0,0,0-.1.1.1.1,0,0,0,.1.1" transform="translate(362.664 234.687)" fill="#fa4616"/>
      <path id="Контур_360" data-name="Контур 360" d="M13.253,156.615a.286.286,0,1,0-.282-.288.286.286,0,0,0,.282.288" transform="translate(21.272 255.898)" fill="#fa4616"/>
      <path id="Контур_361" data-name="Контур 361" d="M26.8,158a1.143,1.143,0,1,0-1.143-1.146A1.145,1.145,0,0,0,26.8,158" transform="translate(42.067 255.365)" fill="#fa4616"/>
      <path id="Контур_362" data-name="Контур 362" d="M40.687,160.317a2.57,2.57,0,1,0-2.569-2.574,2.576,2.576,0,0,0,2.569,2.574" transform="translate(62.511 254.479)" fill="#fa4616"/>
      <path id="Контур_363" data-name="Контур 363" d="M55.172,164.176a4.951,4.951,0,1,0-4.95-4.952,4.953,4.953,0,0,0,4.95,4.952" transform="translate(82.361 252.999)" fill="#fa4616"/>
      <path id="Контур_364" data-name="Контур 364" d="M70.309,169.732a8.378,8.378,0,1,0-8.379-8.379,8.376,8.376,0,0,0,8.379,8.379" transform="translate(101.561 250.87)" fill="#fa4616"/>
      <path id="Контур_365" data-name="Контур 365" d="M85.859,176.368a12.471,12.471,0,1,0-12.474-12.474,12.478,12.478,0,0,0,12.474,12.474" transform="translate(120.346 248.328)" fill="#fa4616"/>
      <path id="Контур_366" data-name="Контур 366" d="M98.867,176.368a12.471,12.471,0,1,0-12.474-12.474,12.474,12.474,0,0,0,12.474,12.474" transform="translate(141.678 248.328)" fill="#fa4616"/>
      <path id="Контур_367" data-name="Контур 367" d="M111.873,176.368A12.471,12.471,0,1,0,99.4,163.894a12.474,12.474,0,0,0,12.474,12.474" transform="translate(163.007 248.328)" fill="#fa4616"/>
      <path id="Контур_368" data-name="Контур 368" d="M122.393,169.888a8.474,8.474,0,1,0-8.472-8.477,8.476,8.476,0,0,0,8.472,8.477" transform="translate(186.822 250.811)" fill="#fa4616"/>
      <path id="Контур_369" data-name="Контур 369" d="M133.216,164.176a4.951,4.951,0,1,0-4.955-4.952,4.952,4.952,0,0,0,4.955,4.952" transform="translate(210.339 252.999)" fill="#fa4616"/>
      <path id="Контур_370" data-name="Контур 370" d="M144.8,160.473a2.666,2.666,0,1,0-2.666-2.669,2.668,2.668,0,0,0,2.666,2.669" transform="translate(233.09 254.419)" fill="#fa4616"/>
      <path id="Контур_371" data-name="Контур 371" d="M157.036,158.465a1.428,1.428,0,1,0-1.428-1.431,1.428,1.428,0,0,0,1.428,1.431" transform="translate(255.186 255.188)" fill="#fa4616"/>
      <path id="Контур_372" data-name="Контур 372" d="M169.686,157.539a.857.857,0,1,0-.855-.858.86.86,0,0,0,.855.858" transform="translate(276.871 255.544)" fill="#fa4616"/>
      <path id="Контур_373" data-name="Контур 373" d="M182.458,156.92a.475.475,0,1,0-.475-.478.475.475,0,0,0,.475.478" transform="translate(298.439 255.78)" fill="#fa4616"/>
      <path id="Контур_374" data-name="Контур 374" d="M195.287,156.461a.191.191,0,0,0,0-.383.191.191,0,0,0,0,.383" transform="translate(319.945 255.957)" fill="#fa4616"/>
      <path id="Контур_375" data-name="Контур 375" d="M208.232,156.3a.1.1,0,0,0,.1-.1.1.1,0,0,0-.1-.092.1.1,0,0,0-.092.092.094.094,0,0,0,.092.1" transform="translate(341.335 256.016)" fill="#fa4616"/>
      <path id="Контур_376" data-name="Контур 376" d="M26.2,169.466a.191.191,0,0,0,.19-.19.19.19,0,1,0-.38,0,.189.189,0,0,0,.19.19" transform="translate(42.659 277.284)" fill="#fa4616"/>
      <path id="Контур_377" data-name="Контур 377" d="M39.622,170.544a.855.855,0,1,0-.855-.858.856.856,0,0,0,.855.858" transform="translate(63.575 276.874)" fill="#fa4616"/>
      <path id="Контур_378" data-name="Контур 378" d="M53.219,172.09a1.81,1.81,0,1,0-1.806-1.811,1.811,1.811,0,0,0,1.806,1.811" transform="translate(84.314 276.281)" fill="#fa4616"/>
      <path id="Контур_379" data-name="Контур 379" d="M67.174,174.558a3.332,3.332,0,1,0-3.332-3.334,3.33,3.33,0,0,0,3.332,3.334" transform="translate(104.696 275.336)" fill="#fa4616"/>
      <path id="Контур_380" data-name="Контур 380" d="M82.19,179.807a6.569,6.569,0,1,0-6.568-6.571,6.574,6.574,0,0,0,6.568,6.571" transform="translate(124.015 273.324)" fill="#fa4616"/>
      <path id="Контур_381" data-name="Контур 381" d="M98.334,187.988a11.616,11.616,0,1,0-11.616-11.616,11.616,11.616,0,0,0,11.616,11.616" transform="translate(142.211 270.19)" fill="#fa4616"/>
      <path id="Контур_382" data-name="Контур 382" d="M111.459,188.3a11.806,11.806,0,1,0-11.808-11.808A11.811,11.811,0,0,0,111.459,188.3" transform="translate(163.421 270.072)" fill="#fa4616"/>
      <path id="Контур_383" data-name="Контур 383" d="M122.924,184.281a9.33,9.33,0,1,0-9.327-9.329,9.329,9.329,0,0,0,9.327,9.329" transform="translate(186.291 271.608)" fill="#fa4616"/>
      <path id="Контур_384" data-name="Контур 384" d="M132.034,174.1a3.048,3.048,0,1,0-3.052-3.046,3.048,3.048,0,0,0,3.052,3.046" transform="translate(211.521 275.51)" fill="#fa4616"/>
      <path id="Контур_385" data-name="Контур 385" d="M143.856,171.008a1.142,1.142,0,1,0-1.146-1.143,1.146,1.146,0,0,0,1.146,1.143" transform="translate(234.034 276.695)" fill="#fa4616"/>
      <path id="Контур_386" data-name="Контур 386" d="M156.5,170.08a.57.57,0,1,0-.573-.57.572.572,0,0,0,.573.57" transform="translate(255.718 277.05)" fill="#fa4616"/>
      <path id="Контур_387" data-name="Контур 387" d="M169.33,169.621a.286.286,0,1,0-.282-.285.286.286,0,0,0,.282.285" transform="translate(277.227 277.227)" fill="#fa4616"/>
      <path id="Контур_388" data-name="Контур 388" d="M182.224,169.31a.1.1,0,0,0,0-.19.1.1,0,1,0,0,.19" transform="translate(298.674 277.345)" fill="#fa4616"/>
      <path id="Контур_389" data-name="Контур 389" d="M195.226,169.31a.1.1,0,1,0,0-.19.1.1,0,0,0,0,.19" transform="translate(320.006 277.345)" fill="#fa4616"/>
      <path id="Контур_390" data-name="Контур 390" d="M109.742,196.827a9.046,9.046,0,1,0-9.044-9.044,9.041,9.041,0,0,0,9.044,9.044" transform="translate(165.138 293.115)" fill="#fa4616"/>
      <path id="Контур_391" data-name="Контур 391" d="M122.866,197.137a9.236,9.236,0,1,0-9.234-9.237,9.237,9.237,0,0,0,9.234,9.237" transform="translate(186.349 292.998)" fill="#fa4616"/>
    </g>
  </g>
</svg>
