<svg id="Сгруппировать_564" data-name="Сгруппировать 564" xmlns="http://www.w3.org/2000/svg" xmlns:xlink="http://www.w3.org/1999/xlink" width="104.75" height="125.607" viewBox="0 0 104.75 125.607">
  <defs>
    <clipPath id="clip-path">
      <rect id="Прямоугольник_289" data-name="Прямоугольник 289" width="104.75" height="125.607" fill="#fa4616"/>
    </clipPath>
  </defs>
  <g id="Сгруппировать_563" data-name="Сгруппировать 563" clip-path="url(#clip-path)">
    <path id="Контур_846" data-name="Контур 846" d="M68.7,103.638H3.618V20.553H68.7v3.4a2.182,2.182,0,0,0,1.948,2.536,2.155,2.155,0,0,0,1.67-2.373V10.772A10.783,10.783,0,0,0,61.546,0H10.771A10.783,10.783,0,0,0,0,10.772V114.837a10.783,10.783,0,0,0,10.771,10.771H61.546a10.783,10.783,0,0,0,10.771-10.771V100.881A2.3,2.3,0,0,0,70.278,98.3a2.293,2.293,0,0,0-1.579,2.769ZM3.618,10.772a7.152,7.152,0,0,1,7.152-7.152H61.546A7.152,7.152,0,0,1,68.7,10.772v6.162H3.618ZM68.7,114.837a7.152,7.152,0,0,1-7.152,7.152H10.771a7.152,7.152,0,0,1-7.152-7.152v-7.581H68.7Z" transform="translate(0 -0.001)" fill="#fa4616"/>
    <path id="Контур_847" data-name="Контур 847" d="M109.852,369.151H100.93a1.809,1.809,0,1,0,0,3.618h8.922a1.809,1.809,0,1,0,0-3.618" transform="translate(-69.233 -257.839)" fill="#fa4616"/>
    <path id="Контур_848" data-name="Контур 848" d="M88.209,29.508H104.8a1.809,1.809,0,1,0,0-3.618H88.209a1.809,1.809,0,1,0,0,3.618" transform="translate(-60.347 -18.083)" fill="#fa4616"/>
    <path id="Контур_849" data-name="Контур 849" d="M188.415,124.774c-.058-1.844-.745-3.025-2.7-3.315-.738-.109-1.421-.6-2.159-.7a5.562,5.562,0,0,1-4.942-4.466,2.621,2.621,0,0,1,.04-2.05c.843-1.7,1.614-3.44,2.485-5.127a2.146,2.146,0,0,0-.3-2.666,41.207,41.207,0,0,0-5.729-5.53,2,2,0,0,0-2.446-.2,28.76,28.76,0,0,0-2.575,1.351c-2.253,1.592-4.5,1.958-6.981.477a2.678,2.678,0,0,1-1.42-1.461c-.632-1.88-1.327-3.738-1.98-5.611a1.746,1.746,0,0,0-1.475-1.373,31.948,31.948,0,0,0-8.7.131,1.814,1.814,0,0,0-1.6,1.392A24.32,24.32,0,0,0,146.9,98.88a5.636,5.636,0,0,1-4.471,4.941,2.564,2.564,0,0,1-2.024-.046c-1.773-.887-3.586-1.7-5.371-2.561a1.8,1.8,0,0,0-2.12.152,47.815,47.815,0,0,0-5.723,5.544,1.7,1.7,0,0,0-.229,2.192c.849,1.459,1.589,2.982,2.472,4.419a2.8,2.8,0,0,1,.194,3.259,11.528,11.528,0,0,0-1,2.726,1.83,1.83,0,0,1-1.353,1.342c-1.9.578-3.774,1.221-5.668,1.811a1.723,1.723,0,0,0-1.371,1.466,26.742,26.742,0,0,0,.107,8.818,1.8,1.8,0,0,0,1.43,1.565c1.177.329,2.308.844,3.5,1.106a6.69,6.69,0,0,1,3.515,1.862,4.7,4.7,0,0,1,1.432,3.321,2.195,2.195,0,0,1-.217,1.029c-.857,1.742-1.683,3.5-2.508,5.256-.195.416-.334.857-.428,1.1a1.955,1.955,0,0,0,.516,1.464,30.4,30.4,0,0,0,4.4,4.534c2.755,2.2,2.233,2.346,5.471.587a8.5,8.5,0,0,0,1.018-.509,5.8,5.8,0,0,1,6.966-.485,2.645,2.645,0,0,1,1.413,1.461c.634,1.879,1.364,3.726,2,5.6a1.909,1.909,0,0,0,1.852,1.434,58.151,58.151,0,0,0,7.077,0c1.822-.093,2.918-.8,3.2-2.679.1-.7.548-1.342.665-2.04a5.547,5.547,0,0,1,4.291-4.967,2.987,2.987,0,0,1,2.386.008c1.65.85,3.364,1.575,5.015,2.423a2.029,2.029,0,0,0,2.543-.227,39.8,39.8,0,0,0,5.712-5.9,1.816,1.816,0,0,0,.173-2.215,25.9,25.9,0,0,0-1.493-2.926,5.645,5.645,0,0,1-.376-6.747,2.607,2.607,0,0,1,1.477-1.407c1.838-.624,3.648-1.329,5.487-1.949a2.1,2.1,0,0,0,1.573-2.042c.147-2.279.062-4.553-.01-6.832m-34.142,18.07a14.738,14.738,0,0,1-14.759-14.594,14.739,14.739,0,1,1,29.474.14,14.617,14.617,0,0,1-14.715,14.453" transform="translate(-83.757 -65.561)" fill="#fa4616"/>
    <path id="Контур_850" data-name="Контур 850" d="M190.7,328.247l-.075,0a50.956,50.956,0,0,1-8.947-1.237,1.809,1.809,0,1,1,.822-3.524,47.324,47.324,0,0,0,8.309,1.146,1.809,1.809,0,0,1-.109,3.616" transform="translate(-125.918 -225.91)" fill="#fa4616"/>
    <path id="Контур_851" data-name="Контур 851" d="M137.673,306.975a1.8,1.8,0,0,1-.752-.173,38.878,38.878,0,0,1-7.746-4.827,1.809,1.809,0,1,1,2.265-2.822,35.266,35.266,0,0,0,7.025,4.377,1.81,1.81,0,0,1-.792,3.446" transform="translate(-89.751 -208.67)" fill="#fa4616"/>
    <path id="Контур_852" data-name="Контур 852" d="M99.859,264.38a1.806,1.806,0,0,1-1.421-.711,39.3,39.3,0,0,1-4.65-7.847,1.809,1.809,0,0,1,3.305-1.474,35.649,35.649,0,0,0,4.22,7.124,1.809,1.809,0,0,1-1.455,2.908" transform="translate(-65.398 -176.904)" fill="#fa4616"/>
    <path id="Контур_853" data-name="Контур 853" d="M84.754,209.294A1.81,1.81,0,0,1,83,207.843a43.277,43.277,0,0,1-.853-9.006v-.044a1.809,1.809,0,1,1,3.618.037v.044a39.654,39.654,0,0,0,.781,8.251,1.812,1.812,0,0,1-1.793,2.168" transform="translate(-57.376 -137.6)" fill="#fa4616"/>
    <path id="Контур_854" data-name="Контур 854" d="M87.295,152.849a1.788,1.788,0,0,1-.382-.045,1.809,1.809,0,0,1-1.367-2.163,41.572,41.572,0,0,1,2.959-8.612,1.809,1.809,0,0,1,3.271,1.547,37.941,37.941,0,0,0-2.7,7.861,1.81,1.81,0,0,1-1.781,1.411" transform="translate(-59.72 -98.479)" fill="#fa4616"/>
    <path id="Контур_855" data-name="Контур 855" d="M111.953,106.007a1.81,1.81,0,0,1-1.393-2.94,37.878,37.878,0,0,1,6.534-6.4,1.809,1.809,0,1,1,2.2,2.873,34.264,34.264,0,0,0-5.908,5.784,1.807,1.807,0,0,1-1.432.678" transform="translate(-76.945 -67.261)" fill="#fa4616"/>
    <path id="Контур_856" data-name="Контур 856" d="M157.42,79.065A1.809,1.809,0,0,1,156.7,75.6a43.214,43.214,0,0,1,8.653-2.773,1.809,1.809,0,1,1,.743,3.541,39.592,39.592,0,0,0-7.927,2.538,1.808,1.808,0,0,1-.752.156" transform="translate(-108.701 -50.842)" fill="#fa4616"/>
  </g>
</svg>
