<svg id="Сгруппировать_399" data-name="Сгруппировать 399" xmlns="http://www.w3.org/2000/svg" xmlns:xlink="http://www.w3.org/1999/xlink" width="102.595" height="102.595" viewBox="0 0 102.595 102.595">
  <defs>
    <clipPath id="clip-path">
      <rect id="Прямоугольник_215" data-name="Прямоугольник 215" width="102.595" height="102.595" fill="#fa4616"/>
    </clipPath>
  </defs>
  <g id="Сгруппировать_398" data-name="Сгруппировать 398" transform="translate(0 0)" clip-path="url(#clip-path)">
    <path id="Контур_660" data-name="Контур 660" d="M57.5,29.383A18.682,18.682,0,1,1,38.821,10.7,18.678,18.678,0,0,1,57.5,29.383" transform="translate(12.475 6.629)" fill="#fa4616"/>
    <path id="Контур_661" data-name="Контур 661" d="M98.561,31.329a51.325,51.325,0,0,0-94.528,0A51.264,51.264,0,0,0,14.987,87.534L15,87.55l.019.019v0l.105.1a51.256,51.256,0,0,0,72.246.089l0,0,.191-.191.028-.028.047-.047h0A51.345,51.345,0,0,0,98.561,31.329M92.3,68.618a44.289,44.289,0,0,1-7.38,11.833A33.983,33.983,0,0,0,67.7,55.514a25.48,25.48,0,0,1-32.8,0,33.992,33.992,0,0,0-17.23,24.938A44.494,44.494,0,1,1,92.3,68.618" transform="translate(0 0)" fill="#fa4616"/>
  </g>
</svg>
