<svg xmlns="http://www.w3.org/2000/svg" xmlns:xlink="http://www.w3.org/1999/xlink" width="256.971" height="190.773" viewBox="0 0 256.971 190.773">
  <defs>
    <clipPath id="clip-path">
      <rect id="Прямоугольник_225" data-name="Прямоугольник 225" width="256.971" height="190.773" fill="none"/>
    </clipPath>
  </defs>
  <g id="Сгруппировать_424" data-name="Сгруппировать 424" clip-path="url(#clip-path)">
    <path id="Контур_678" data-name="Контур 678" d="M124.605,146.51l-49.98,20.015a7.037,7.037,0,1,1-5.232-13.066l49.98-20.015a7.037,7.037,0,0,1,5.232,13.066M54.158,128.8a7.013,7.013,0,0,1,3.852-3.765l91.56-36.66a7.035,7.035,0,1,1,5.228,13.062l-91.557,36.66a7.034,7.034,0,0,1-9.084-9.3M46.625,96.6l91.56-36.664A7.037,7.037,0,0,1,143.417,73l-91.56,36.664A7.037,7.037,0,0,1,46.625,96.6M35.244,68.174,126.8,31.514a7.035,7.035,0,0,1,5.232,13.062l-91.56,36.66a7.035,7.035,0,1,1-5.228-13.062M161.918,190.518a22.528,22.528,0,0,1,.765-2.862L190.5,104.9,151.57,7.676A12.061,12.061,0,0,0,135.892.962L7.58,52.344A12.058,12.058,0,0,0,.866,68.019L49.752,190.1" transform="translate(0 0.253)" fill="#001a26"/>
    <rect id="Прямоугольник_224" data-name="Прямоугольник 224" width="129.953" height="127.786" transform="translate(100.506 15.337)" fill="#fff"/>
    <path id="Контур_679" data-name="Контур 679" d="M114.326,138.975H57.176a7.469,7.469,0,0,1,0-14.939h57.15a7.469,7.469,0,0,1,0,14.939M51.9,93.72a7.436,7.436,0,0,1,5.279-2.188H161.87a7.468,7.468,0,1,1,0,14.935H57.176A7.466,7.466,0,0,1,51.9,93.72m5.279-34.7H161.87a7.469,7.469,0,0,1,0,14.939H57.176a7.469,7.469,0,0,1,0-14.939m0-32.5H161.87a7.468,7.468,0,1,1,0,14.935H57.176a7.468,7.468,0,1,1,0-14.935M195.683,190.773V12.8A12.8,12.8,0,0,0,182.882,0H36.16a12.8,12.8,0,0,0-12.8,12.8V189.69" transform="translate(61.288 0.001)" fill="#001a26"/>
    <path id="Контур_680" data-name="Контур 680" d="M221.047,60.406,13.8,60.069,13.694,49.7H221.047Z" transform="translate(35.922 130.366)" fill="#001a26"/>
  </g>
</svg>
