<svg xmlns="http://www.w3.org/2000/svg" viewBox="0 0 450.68 344.18"><defs><style>.cls-1{fill:#fa4616;}.cls-2{fill:#002234;}</style></defs><title>icon-cloud-consulting</title><g id="Слой_2" data-name="Слой 2"><g id="Layer_1" data-name="Layer 1"><path class="cls-1" d="M7.13,269.41a6.89,6.89,0,0,1-4.73-1.83c-4.07-3.56-1.93-9.23-1-11.65,1.24-3.27,3.34-7.65,6.25-13.72,3.94-8.2,9.32-19.43,15.7-34.47,2.18-5.15,4.33-10.38,6.4-15.62A35.92,35.92,0,0,1,1.54,157V36a36,36,0,0,1,36-36H253.12a36,36,0,0,1,36,36V157a36,36,0,0,1-36,36l-44.18,0c-31.69,0-67.61,0-107.34,0H98.42c-30.29,29.63-53.22,50.77-68.16,62.85C18.61,265.29,11.83,269.41,7.13,269.41ZM37.55,11a25,25,0,0,0-25,25V157a24.84,24.84,0,0,0,7.32,17.68A25.63,25.63,0,0,0,37.45,182l8,0-2.87,7.45c-2.9,7.55-6,15.13-9.11,22.54C27,227.3,21.53,238.67,17.55,247c-1.28,2.67-2.53,5.29-3.59,7.59,9.61-6.69,31-24.54,78.37-71L93.94,182h7.67c39.72,0,75.64,0,107.33,0l44.18,0a25,25,0,0,0,25-25V36a25,25,0,0,0-25-25Z"/><path class="cls-1" d="M418,280a5.4,5.4,0,0,0,2.06-.41,5.49,5.49,0,0,0,3-7.16q-1.1-2.7-2.17-5.42a38.42,38.42,0,0,0,7.17-2.4,5.5,5.5,0,0,0-4.54-10,25.88,25.88,0,0,1-10.35,2.32,5.51,5.51,0,0,0-5.12,7.48c1.57,4.06,3.18,8.16,4.82,12.18A5.49,5.49,0,0,0,418,280Z"/><path class="cls-1" d="M379.62,279A5.5,5.5,0,1,0,372,287c6.95,6.64,13.47,12.78,19.39,18.24a5.5,5.5,0,1,0,7.46-8.08C393,291.73,386.51,285.63,379.62,279Z"/><path class="cls-1" d="M358.34,258.43a5.49,5.49,0,0,0-3.85-1.57l-23.38,0a5.5,5.5,0,0,0,0,11h0l21.13,0,.66.64a5.49,5.49,0,0,0,7.68-7.86Z"/><path class="cls-1" d="M304.58,256.9H278.05a5.5,5.5,0,0,0,0,11h26.54a5.5,5.5,0,1,0,0-11Z"/><path class="cls-1" d="M251.51,256.88H225a5.5,5.5,0,0,0,0,11h26.54a5.5,5.5,0,1,0,0-11Z"/><path class="cls-1" d="M198.43,256.87h-.87a25.06,25.06,0,0,1-18.64-8.34,5.5,5.5,0,1,0-8.19,7.34,36.06,36.06,0,0,0,26.83,12h.87a5.5,5.5,0,0,0,0-11Z"/><path class="cls-1" d="M441.16,245.12a5.92,5.92,0,0,0,1.43.19,5.5,5.5,0,0,0,5.31-4.08,36,36,0,0,0,1.23-9.37v-18.5a5.5,5.5,0,0,0-11,0v18.5a25.09,25.09,0,0,1-.85,6.52A5.5,5.5,0,0,0,441.16,245.12Z"/><path class="cls-1" d="M172.55,227.6V201.07a5.5,5.5,0,0,0-11,0V227.6a5.5,5.5,0,0,0,11,0Z"/><path class="cls-1" d="M443.63,154.79a5.5,5.5,0,0,0-5.5,5.5v26.54a5.5,5.5,0,1,0,11,0V160.29A5.5,5.5,0,0,0,443.63,154.79Z"/><path class="cls-1" d="M438.13,110.86v22.9a5.5,5.5,0,0,0,11,0v-22.9a35.6,35.6,0,0,0-.25-4.27A5.5,5.5,0,1,0,438,107.88,26.78,26.78,0,0,1,438.13,110.86Z"/><path class="cls-1" d="M426.88,90a5.42,5.42,0,0,0,3,.91,5.5,5.5,0,0,0,3-10.09,35.85,35.85,0,0,0-19.8-5.93h-8.77a5.5,5.5,0,0,0,0,11h8.77A24.92,24.92,0,0,1,426.88,90Z"/><path class="cls-1" d="M351.29,85.85h26.54a5.5,5.5,0,0,0,0-11H351.29a5.5,5.5,0,0,0,0,11Z"/><path class="cls-1" d="M332.26,80.35a5.5,5.5,0,0,0-5.5-5.5H300.22a5.5,5.5,0,0,0,0,11h26.54A5.5,5.5,0,0,0,332.26,80.35Z"/><path class="cls-1" d="M444.69,320.5h0l0-.08-1.49-3.12h0l-.11-.23c-2.6-5.42-5.84-12.18-9.58-20.48a5.5,5.5,0,1,0-10,4.52c3.79,8.42,7.06,15.24,9.69,20.72l1.21,2.52c.8,1.68,1.59,3.34,2.3,4.88-.52-.36-1.07-.75-1.63-1.16l-.85-.62-1.21-.9-.88-.66-1.46-1.14c-.27-.2-.53-.4-.8-.62q-5-3.92-11.35-9.4a5.5,5.5,0,0,0-7.18,8.33c9.2,7.93,16.22,13.42,21.47,16.8l.1.06c5.63,3.6,8.46,4.26,10.57,4.26a7.08,7.08,0,0,0,7.26-7.35C450.68,333.39,448.79,329.08,444.69,320.5Z"/><path class="cls-2" d="M218,92.27a22.52,22.52,0,0,0-14.28-3.12,38.76,38.76,0,0,0-38.87-41.43h-.13A40.43,40.43,0,0,0,129.54,69a26.7,26.7,0,0,0-16-6.37c-9.06-.35-15.41,4.38-18.12,6.41a35.84,35.84,0,0,0-13,20.18A27.2,27.2,0,0,0,66.3,99.38c-2.39,3.19-7.61,11.7-4.52,21.67,2.73,8.84,11,15.3,21,16.47H205.67a1.87,1.87,0,0,0,.34,0c1.47-.23,14.5-2.61,20-14.38C231.06,112.14,227.48,98.3,218,92.27Z"/></g></g></svg>