<svg id="Сгруппировать_576" data-name="Сгруппировать 576" xmlns="http://www.w3.org/2000/svg" xmlns:xlink="http://www.w3.org/1999/xlink" width="102.171" height="119.719" viewBox="0 0 102.171 119.719">
  <defs>
    <clipPath id="clip-path">
      <rect id="Прямоугольник_295" data-name="Прямоугольник 295" width="102.171" height="119.72" fill="none"/>
    </clipPath>
  </defs>
  <g id="Сгруппировать_575" data-name="Сгруппировать 575" clip-path="url(#clip-path)">
    <path id="Контур_905" data-name="Контур 905" d="M88.654,166.407a1.778,1.778,0,0,1-1.778-1.778V127.5a35.587,35.587,0,0,1,1.288-11.921A38.279,38.279,0,0,1,95.158,102.4a50.306,50.306,0,0,1,15.6-13.7,48,48,0,0,1,11.184-4.431,1.778,1.778,0,1,1,.886,3.443,44.485,44.485,0,0,0-10.356,4.1A46.676,46.676,0,0,0,98,104.531a35.189,35.189,0,0,0-6.418,12.019,32.05,32.05,0,0,0-1.154,10.783c0,.036,0,.073,0,.109v37.187a1.778,1.778,0,0,1-1.778,1.778" transform="translate(-58.749 -56.989)" fill="#fa4616"/>
    <path id="Контур_906" data-name="Контур 906" d="M123.388,130.577a1.778,1.778,0,0,1-1.778-1.778V50.36c0-.055,0-.109.007-.163a16.71,16.71,0,0,0-1.1-7.711,17.02,17.02,0,0,0-6.092-7.548,18.43,18.43,0,0,0-7.419-3.151,1.778,1.778,0,1,1,.654-3.5A21.958,21.958,0,0,1,116.5,32.05a20.025,20.025,0,0,1,8.666,18.39V128.8a1.778,1.778,0,0,1-1.778,1.778" transform="translate(-71.435 -19.126)" fill="#fa4616"/>
    <path id="Контур_907" data-name="Контур 907" d="M215.175,331.537a1.778,1.778,0,0,1-1.778-1.778v-5.172a1.778,1.778,0,0,1,3.556,0v5.172a1.778,1.778,0,0,1-1.778,1.778" transform="translate(-144.416 -218.461)" fill="#fa4616"/>
    <path id="Контур_908" data-name="Контур 908" d="M100.878,200.8A1.778,1.778,0,0,1,99.1,199.02V190.27a17.91,17.91,0,0,0-.186-2.019,1.778,1.778,0,0,1,3.516-.529,21.5,21.5,0,0,1,.224,2.456c0,.02,0,.04,0,.061v8.781a1.778,1.778,0,0,1-1.778,1.778m-5-20.779a1.772,1.772,0,0,1-1.275-.539,26.693,26.693,0,0,0-3.888-3.225,32.349,32.349,0,0,0-4.621-2.7,1.778,1.778,0,0,1,1.553-3.2,36.068,36.068,0,0,1,5.106,2.989,30.217,30.217,0,0,1,4.4,3.662,1.778,1.778,0,0,1-1.275,3.017m-19.3-10.27a1.78,1.78,0,0,1-.554-.089q-.724-.238-1.5-.484c-2.3-.732-4.334-1.331-6.3-1.909-.921-.271-1.822-.537-2.722-.807a1.778,1.778,0,1,1,1.024-3.4c.893.269,1.788.532,2.7.8,1.982.584,4.032,1.188,6.372,1.932q.789.251,1.526.493a1.778,1.778,0,0,1-.553,3.468m-20.989-6.815a1.778,1.778,0,0,1-.658-.127l-.444-.178a27.845,27.845,0,0,1-9.309-5.857l-.133-.129a1.778,1.778,0,0,1,2.47-2.558l.136.132a24.474,24.474,0,0,0,8.166,5.115l.433.173a1.778,1.778,0,0,1-.659,3.43" transform="translate(-30.119 -103.939)" fill="#fa4616"/>
    <path id="Контур_909" data-name="Контур 909" d="M30.159,116.8a1.778,1.778,0,0,1-1.762-1.555,18.1,18.1,0,0,1,.2-5.709,1.778,1.778,0,0,1,3.491.674,14.542,14.542,0,0,0-.164,4.589,1.781,1.781,0,0,1-1.766,2" transform="translate(-19.124 -73.156)" fill="#fa4616"/>
    <path id="Контур_910" data-name="Контур 910" d="M266.713,234.363a1.778,1.778,0,0,1-1.778-1.778V202.493a29.458,29.458,0,0,1,.433-5.572,31.426,31.426,0,0,1,7.53-15.3,1.778,1.778,0,1,1,2.667,2.352,27.875,27.875,0,0,0-6.695,13.558,26,26,0,0,0-.38,4.928v30.124a1.778,1.778,0,0,1-1.778,1.778" transform="translate(-179.291 -122.506)" fill="#fa4616"/>
    <path id="Контур_911" data-name="Контур 911" d="M196.868,79.419V58.77a2.009,2.009,0,0,1,2.842,0l8.9,8.9a2.01,2.01,0,0,1,0,2.842l-8.9,8.9a2.009,2.009,0,0,1-2.842,0" transform="translate(-133.23 -39.374)" fill="#fa4616"/>
    <path id="Контур_912" data-name="Контур 912" d="M21.238,102.044H.589a2.009,2.009,0,0,1,0-2.842l8.9-8.9a2.01,2.01,0,0,1,2.842,0l8.9,8.9a2.009,2.009,0,0,1,0,2.842" transform="translate(0 -60.711)" fill="#fa4616"/>
    <path id="Контур_913" data-name="Контур 913" d="M89.231.589V21.238a2.009,2.009,0,0,1-2.842,0l-8.9-8.9a2.01,2.01,0,0,1,0-2.842l8.9-8.9a2.009,2.009,0,0,1,2.842,0" transform="translate(-52.04)" fill="#fa4616"/>
    <path id="Контур_914" data-name="Контур 914" d="M279.287,180.4l-14.6-14.6a2.009,2.009,0,0,1,2.009-2.009h12.592A2.009,2.009,0,0,1,281.3,165.8V178.39a2.009,2.009,0,0,1-2.009,2.009" transform="translate(-179.126 -110.844)" fill="#fa4616"/>
    <path id="Контур_915" data-name="Контур 915" d="M97,336.164H6.047a5.527,5.527,0,0,0,0,11.054H97a5.527,5.527,0,0,0,0-11.054" transform="translate(-0.352 -227.499)" fill="#fa4616"/>
  </g>
</svg>
