<svg xmlns="http://www.w3.org/2000/svg" viewBox="0 0 440.41 389.66"><defs><style>.cls-1{fill:#002234;}.cls-2{fill:#fa4616;}</style></defs><title>icon-cyber security</title><g id="Слой_2" data-name="Слой 2"><g id="Layer_1" data-name="Layer 1"><path class="cls-1" d="M274.84,87.78a18.28,18.28,0,0,1-1.64-6.37c6.48,0,13,0,19.43.08,8.22.06,13.81,5.61,13.83,13.8,0,8.55,0,17.09,0,25.63,0,5.62,2.7,8.37,8.21,8.38,9.76,0,19.53,0,29.29,0a3.35,3.35,0,0,0,3.38-1.79,8.43,8.43,0,0,1,9.75-3.81,8.53,8.53,0,0,1,6.23,8.12,8.64,8.64,0,0,1-5.73,8.5,8.42,8.42,0,0,1-10-3.22,3.56,3.56,0,0,0-3.45-1.7q-15.08.07-30.14,0c-8.16,0-13.76-5.6-13.78-13.83,0-8.55.09-17.09.09-25.63,0-5.55-2.78-8.33-8.29-8.33C286.29,87.66,280.57,87.74,274.84,87.78Z"/><path class="cls-1" d="M354.57,142.61a10.07,10.07,0,0,1-8.43-4.5c-.53-.78-.85-.92-2-.93-10.18,0-20.48,0-30.16,0-9.12,0-15.5-6.42-15.52-15.58,0-4.62,0-9.31,0-13.85,0-3.93,0-7.85,0-11.78,0-2.28-.53-4-1.57-5s-2.71-1.57-5-1.57h0c-4,0-8,0-11.93.08l-5.23,0h-1.1l-.49-1a19.61,19.61,0,0,1-1.81-7l-.19-1.92,8,0,13.37,0c9.14.06,15.54,6.45,15.57,15.55,0,4.86,0,9.8,0,14.58,0,3.68,0,7.37,0,11,0,4.64,1.93,6.62,6.46,6.63,3.63,0,7.26,0,10.89,0,6,0,12.27,0,18.41,0,1.1,0,1.39-.14,1.87-1A10.17,10.17,0,0,1,357.51,122a10.29,10.29,0,0,1,7.51,9.77A10.44,10.44,0,0,1,358.11,142,10.76,10.76,0,0,1,354.57,142.61Zm-10.38-8.93a5.24,5.24,0,0,1,4.85,2.48,6.65,6.65,0,0,0,7.92,2.53,7,7,0,0,0-.4-13.28,6.67,6.67,0,0,0-7.77,3,5.08,5.08,0,0,1-4.82,2.64h-.07c-6.12,0-12.36,0-18.39,0h-10.9c-6.51,0-9.95-3.51-9.95-10.13q0-5.53,0-11.07c0-4.77,0-9.7,0-14.55,0-7.17-4.88-12-12.09-12.06l-13.36,0-4.06,0A15.73,15.73,0,0,0,276,86l4.08,0c3.92,0,8-.08,11.95-.08h0c3.23,0,5.73.88,7.45,2.6s2.59,4.24,2.59,7.48c0,3.93,0,7.86,0,11.8,0,4.53,0,9.22,0,13.82,0,7.22,4.85,12.08,12,12.09,9.67,0,20,0,30.13,0Z"/><path class="cls-1" d="M242.51,43.77a16.58,16.58,0,0,1,1.77-6.39c10.22,0,20.44,0,30.66.13a2.72,2.72,0,0,0,2.46-1.39c2.59-3.54,6.33-4.75,10.13-3.42a8.74,8.74,0,0,1-.47,16.57c-4,1.15-7.64-.31-10-4.21a2.5,2.5,0,0,0-2.44-1.4Q258.54,43.75,242.51,43.77Z"/><path class="cls-1" d="M284.5,51.4c-3.58,0-6.8-1.9-9-5.42-.34-.56-.45-.57-.94-.57-8.32.05-16.78.07-25,.09l-9,0,.12-1.86a18.23,18.23,0,0,1,1.94-7l.49-1,8.23,0c7.71,0,15.68,0,23.52.1.4,0,.53,0,1-.68,3-4.12,7.55-5.63,12.12-4A10.49,10.49,0,0,1,287.55,51,11,11,0,0,1,284.5,51.4Zm-9.89-9.49a4.21,4.21,0,0,1,3.9,2.23c1.95,3.17,4.81,4.39,8.06,3.45A7,7,0,0,0,287,34.35c-3.12-1.09-6-.1-8.14,2.8a4.47,4.47,0,0,1-3.89,2.11c-7.83-.06-15.8-.08-23.5-.1l-6,0a15.08,15.08,0,0,0-.9,2.87h5.12c8.18,0,16.63,0,24.95-.09Z"/><path class="cls-1" d="M317.06,282a20.24,20.24,0,0,1-6.44-2.58c2.86-2.84,5.75-5.66,8.58-8.54,3.44-3.5,3.44-7.62-.1-11.16-5.91-5.9-11.92-11.69-17.83-17.58-6.68-6.65-6.66-14.36,0-21q10.35-10.36,20.72-20.69a3.37,3.37,0,0,0,1.19-3.4,8.4,8.4,0,0,1,4.79-9.29,8.53,8.53,0,0,1,10,2,8.44,8.44,0,0,1,1.31,10.14,8.33,8.33,0,0,1-9.55,4.19,3.47,3.47,0,0,0-3.89,1.2c-6.73,6.81-13.53,13.54-20.28,20.33-4.1,4.12-4.1,8.1,0,12.21,5.86,5.81,11.8,11.55,17.64,17.38,6.33,6.32,6.32,14.07.08,20.38C321.22,277.71,319.15,279.88,317.06,282Z"/><path class="cls-1" d="M317.65,284l-.94-.2a22.07,22.07,0,0,1-7-2.79l-1.91-1.17,1.59-1.57L312,275.6c2-1.93,4-3.92,5.92-5.9,2.8-2.85,2.77-5.85-.08-8.7-3-3-6.16-6.09-9.18-9.05-2.85-2.79-5.79-5.67-8.66-8.53-3.61-3.6-5.52-7.66-5.52-11.74s1.9-8.14,5.49-11.74c6.36-6.37,13.57-13.6,20.73-20.7.73-.73.84-1,.7-1.86a10.15,10.15,0,0,1,5.76-11.17,10.31,10.31,0,0,1,12.06,2.33,10.37,10.37,0,0,1-10,17.24c-1-.27-1.32-.16-2.19.72-4.1,4.15-8.29,8.33-12.34,12.38-2.65,2.65-5.31,5.3-7.95,8-1.71,1.72-2.57,3.36-2.56,4.88s.87,3.15,2.59,4.85c2.65,2.64,5.36,5.3,8,7.87,3.17,3.11,6.45,6.33,9.65,9.52,7,7,7.07,15.78.09,22.85-1.43,1.45-2.88,2.94-4.27,4.39l-2,2.06ZM313.53,279a18.43,18.43,0,0,0,3,1.07l1.29-1.34c1.4-1.45,2.85-3,4.3-4.42,5.55-5.63,5.53-12.32-.07-17.91-3.19-3.18-6.47-6.39-9.63-9.5-2.63-2.58-5.35-5.24-8-7.88-2.4-2.38-3.62-4.85-3.62-7.33s1.19-5,3.58-7.36l8-8c4-4,8.23-8.22,12.32-12.35a5.17,5.17,0,0,1,5.57-1.66,6.63,6.63,0,0,0,7.58-3.35,7,7,0,0,0-9.07-9.67,6.65,6.65,0,0,0-3.81,7.41,5.14,5.14,0,0,1-1.69,4.94c-7.15,7.1-14.35,14.32-20.71,20.69-3,3-4.47,6.09-4.47,9.26s1.51,6.3,4.49,9.27,5.8,5.73,8.64,8.51c3,3,6.15,6,9.2,9.07,4.2,4.2,4.24,9.42.11,13.63-2,2-4,4-6,5.94Z"/><path class="cls-1" d="M375.44,330.88a13.61,13.61,0,0,1-3.85-5.16q15-14.89,29.94-29.78c6.25-6.23,12.46-12.49,18.73-18.7a3.38,3.38,0,0,0,1.15-3.41,8.4,8.4,0,0,1,4.83-9.26,8.57,8.57,0,0,1,10.24,2.16,8.68,8.68,0,0,1-8.76,14.1c-1.2-.3-2-.39-3,.59Q400.13,306.19,375.44,330.88Z"/><path class="cls-1" d="M375.59,333.21l-1.22-.95a15.07,15.07,0,0,1-4.36-5.8l-.53-1.11,10.08-10,20.73-20.63,7.26-7.26c3.76-3.76,7.64-7.64,11.48-11.44a1.71,1.71,0,0,0,.66-1.87,10.13,10.13,0,0,1,5.8-11.15,10.34,10.34,0,0,1,12.28,2.57,10.43,10.43,0,0,1-10.48,17c-1-.24-1-.2-1.32.12-13.48,13.57-27.21,27.34-40.5,40.65Zm-1.86-7.15a11.65,11.65,0,0,0,1.66,2.39l7.6-7.62c13.29-13.31,27-27.08,40.5-40.64a4.33,4.33,0,0,1,4.66-1.06,6.93,6.93,0,0,0,7-11.23,6.83,6.83,0,0,0-8.2-1.75,6.63,6.63,0,0,0-3.84,7.38,5.12,5.12,0,0,1-1.65,5c-3.83,3.8-7.71,7.68-11.46,11.43l-7.27,7.27Q392.4,307.5,382,317.81Z"/><path class="cls-1" d="M346,300.41c-1.87-1.06-3.81-2-5.07-3.89,7.25-7.2,14.48-14.43,21.77-21.6,1-.95.89-1.83.71-3a8.65,8.65,0,0,1,5.38-9.52,8.74,8.74,0,0,1,10.11,2.78,8.57,8.57,0,0,1-.06,10.69,8.32,8.32,0,0,1-9.31,3,2.35,2.35,0,0,0-2.71.62Q356.48,290,346,300.41Z"/><path class="cls-1" d="M346.34,302.59l-1.62-.91a14.29,14.29,0,0,1-5.2-4.17l-.82-1.2,6.17-6.14c5.44-5.42,11.07-11,16.64-16.49.32-.32.38-.41.21-1.51a10.42,10.42,0,0,1,6.45-11.4,10.53,10.53,0,0,1,12.15,3.32,10.39,10.39,0,0,1-.07,12.86,10.09,10.09,0,0,1-11.14,3.57c-.67-.18-.71-.15-1,.16-5.29,5.36-10.69,10.79-15.92,16Zm-3-6a13.81,13.81,0,0,0,2.38,1.62l4-4c5.22-5.24,10.62-10.67,15.91-16a4.08,4.08,0,0,1,4.42-1.08,6.58,6.58,0,0,0,7.47-2.36,6.8,6.8,0,0,0,.06-8.53,7,7,0,0,0-8.08-2.23,6.86,6.86,0,0,0-4.29,7.63,4.67,4.67,0,0,1-1.23,4.52c-5.56,5.47-11.18,11.06-16.62,16.48Z"/><path class="cls-2" d="M387.82,346.45h0l-16-16c-27.24-27.11-55.41-55.14-82.79-83-5.77-5.88-13.21-11.61-24.62-9.58a4.66,4.66,0,0,1-4.57-1.5,99.41,99.41,0,0,0,6.93-9.94,80.81,80.81,0,0,1,7-9.91c6.92-7.89,12.41-22.57,16.79-44.87l0-.11A163.38,163.38,0,0,0,293,140v-.12c-.13-2.9-.35-5.84-.63-8.72a167.06,167.06,0,0,0-4.64-25.79l0-.08c-.89-3.18-1.91-6.39-3-9.52a151.55,151.55,0,0,0-28.49-48.75A143.93,143.93,0,0,0,239.85,31.3a5,5,0,0,0-6.48,7.62,134.25,134.25,0,0,1,15.3,14.74,141.46,141.46,0,0,1,26.57,45.48c1,2.9,2,5.88,2.79,8.84a156.37,156.37,0,0,1,4.36,24.19c.26,2.69.46,5.43.59,8.14a153.49,153.49,0,0,1-2.27,29.48c-4,20.21-8.84,33.71-14.48,40.15a88.22,88.22,0,0,0-7.93,11.12,83.59,83.59,0,0,1-6.82,9.69c-3.32,3.84-3.32,7.55,0,11.35,4.12,4.73,9.06,6.63,14.67,5.63s9.84.74,15.73,6.74c27.41,27.91,55.6,56,82.86,83.1q7.42,7.38,14.84,14.77c-8.31,8.13-16.88,16.7-26.13,26.09-38.23-38.32-75.78-75.81-104.32-104.29a3.12,3.12,0,0,1-.24-.27h0c0-1.33,0-2.58,0-3.79a23.62,23.62,0,0,1,.09-4.27c1.55-9.56-5-14.74-7.19-16.45l-.14-.11a6.06,6.06,0,0,0-8.46,0c-8.08,7.4-17.57,13.23-25.83,18L201,270.19c-3,1.3-6,2.51-9.11,3.61-.8.28-17.94,6.29-36,7.75-31.68,2.58-70-9.05-95.29-29a152.13,152.13,0,0,1-16.46-15.28c-1.34-1.47-2.64-3-3.92-4.52a5.29,5.29,0,0,0-6.54-.09,5.36,5.36,0,0,0-.13,7.71q1.57,1.86,3.21,3.64a162.56,162.56,0,0,0,17.66,16.41C79,279.83,115.17,291.9,147.07,291.9c3.25,0,6.46-.12,9.6-.38,17.3-1.4,33.8-6.7,37.69-8l.83-.29h0c3.31-1.18,6.62-2.49,9.82-3.89l6.68-3.1.38-.2c8-4.55,17.07-10.1,25.3-17.15a5.63,5.63,0,0,1,1.67,5.32,30.92,30.92,0,0,0-.21,6.23c0,1.06.08,2.07,0,3a9.88,9.88,0,0,0,3.17,7.78c28.87,28.82,67,66.88,105.69,105.67a8.12,8.12,0,0,0,5.71,2.78h0a8,8,0,0,0,5.64-2.76c10.23-10.41,19.63-19.79,28.72-28.67a7.43,7.43,0,0,0,0-11.78Z"/><path class="cls-2" d="M101.93,250.74A116.25,116.25,0,0,0,196.77,247c19.11-9.48,34.2-22.32,44.88-38.18,10.58-15.71,16.93-34.56,18.88-56v-.08a107,107,0,0,0,0-15.91c-1-17.16-5.5-32.67-13.32-46.12C234.81,69.36,219,53.52,200.2,43.6s-40.72-14-65.29-12.3A107.24,107.24,0,0,0,59,69.55c-14.45,16.84-23.58,35.13-27.16,54.36s-1.61,39.55,5.89,60.28A111.77,111.77,0,0,0,101.93,250.74ZM66.56,76.06c18.11-21.13,41.35-32.83,69.06-34.79,3.38-.23,6.71-.35,10-.35,40.56,0,71.81,18.4,93,54.79,7,12.09,11.06,26.12,12,41.71v.08a96.4,96.4,0,0,1,0,14.42C247,191.68,227.35,220.66,192.33,238a106.22,106.22,0,0,1-86.68,3.42,101.86,101.86,0,0,1-58.54-60.68C33.25,142.5,39.8,107.27,66.56,76.06Z"/><path class="cls-2" d="M355.16,380.13Z"/><path class="cls-2" d="M248.87,274Z"/><path class="cls-2" d="M258.68,235.13Z"/><path class="cls-1" d="M89.84,132.69c0-10.18,0-20.37,0-30.55a3,3,0,0,1,1.57-2.93,85.65,85.65,0,0,1,25.77-10.44,116.1,116.1,0,0,1,31.24-3.28c16.45.52,32.31,3.64,47,11.38,1.45.76,2.8,1.68,4.22,2.49a2.75,2.75,0,0,1,1.39,2.71c0,6.81,0,13.61,0,20.42,0,12.19-.19,24.39.06,36.58.22,10.86-3.8,20-10.48,28.12-8.76,10.7-19.87,18.5-31.72,25.34-3.91,2.26-8,4.28-12,6.2a2.66,2.66,0,0,1-2.47.17c-14.22-6.6-27.43-14.73-38.7-25.74-5.61-5.47-10.34-11.63-13.29-19a32.79,32.79,0,0,1-2.52-12.24Q89.82,147.31,89.84,132.69Zm7,1.44q0,13.56,0,27.11a26.53,26.53,0,0,0,.81,6.46c1.87,7.54,6.24,13.62,11.54,19.05,10.12,10.38,22.26,17.91,35.12,24.37a2.55,2.55,0,0,0,2.47-.14q6.38-3.14,12.43-6.86c10.29-6.35,20-13.41,27.37-23.19,4.36-5.77,7.37-12.12,7.39-19.5.07-18.57,0-37.13.05-55.69a2.4,2.4,0,0,0-1.46-2.43,89.33,89.33,0,0,0-21.88-8,113.72,113.72,0,0,0-41.84-1.62,92.76,92.76,0,0,0-30.26,9.4,2.81,2.81,0,0,0-1.77,2.9C96.89,115.4,96.85,124.77,96.85,134.13Z"/><path class="cls-1" d="M145.37,221.13a4.35,4.35,0,0,1-1.85-.42c-16-7.43-28.87-16-39.26-26.12-6.48-6.33-11-12.77-13.75-19.69a34.43,34.43,0,0,1-2.66-13q0-10.38,0-20.77V125.42c0-7.63,0-15.51,0-23.27a5,5,0,0,1,2.5-4.63,87.55,87.55,0,0,1,26.36-10.69,118.15,118.15,0,0,1,31.78-3.33c18.49.58,34.16,4.37,47.91,11.6.93.49,1.81,1,2.67,1.56.53.33,1.06.66,1.61,1a4.69,4.69,0,0,1,2.39,4.46c0,5,0,10.16,0,15.11v5.29c0,3.7,0,7.4,0,11.11,0,8.34-.08,17,.1,25.43.22,10.54-3.36,20.16-10.94,29.42-7.7,9.42-17.65,17.38-32.26,25.81-3.46,2-7.23,3.94-12.2,6.28A5.41,5.41,0,0,1,145.37,221.13Zm-.59-133.69a114.52,114.52,0,0,0-27.15,3.28A83.55,83.55,0,0,0,92.46,100.9a1.11,1.11,0,0,0-.64,1.23c0,7.77,0,15.66,0,23.29v15.74q0,10.38,0,20.76a30.53,30.53,0,0,0,2.38,11.5c2.55,6.39,6.75,12.38,12.83,18.31,10,9.82,22.53,18.11,38.14,25.35.15.07.22.1.78-.16,4.87-2.29,8.54-4.17,11.9-6.12,14.17-8.18,23.78-15.86,31.17-24.88,6.95-8.49,10.23-17.26,10-26.8-.18-8.52-.14-17.18-.1-25.54,0-3.7,0-7.4,0-11.09v-5.28c0-5,0-10.1,0-15.15,0-.73-.13-.81-.39-1-.58-.33-1.14-.68-1.71-1-.83-.52-1.62-1-2.44-1.43-13.19-6.94-28.29-10.58-46.16-11.15C147.15,87.46,146,87.44,144.78,87.44Zm.58,125.94a4.23,4.23,0,0,1-1.94-.48c-15.41-7.74-26.74-15.6-35.66-24.75-6.48-6.65-10.31-13-12-20a28.32,28.32,0,0,1-.87-6.94q0-9.69,0-19.36v-7.75c0-2.32,0-4.65,0-7,0-6.92,0-14.08,0-21.11a4.77,4.77,0,0,1,2.84-4.69,94.36,94.36,0,0,1,30.91-9.6,116.23,116.23,0,0,1,42.57,1.65,91.1,91.1,0,0,1,22.37,8.13,4.4,4.4,0,0,1,2.52,4.2c0,7.58,0,15.16,0,22.74,0,10.8,0,22,0,33,0,7-2.57,13.78-7.79,20.7-8,10.64-18.62,17.94-27.92,23.68-4,2.47-8.25,4.81-12.6,7A5.16,5.16,0,0,1,145.36,213.38Zm.29-118.84a117.13,117.13,0,0,0-16.52,1.18,90.24,90.24,0,0,0-29.62,9.19c-.65.34-.69.45-.69,1.11.05,7,0,14.21,0,21.14,0,2.32,0,4.65,0,7v7.75q0,9.68,0,19.36a24.44,24.44,0,0,0,.75,6c1.55,6.25,5.06,12,11,18.14,8.6,8.82,19.59,16.43,34.59,24,.12.06.19.1.68-.15,4.24-2.08,8.37-4.36,12.27-6.77,9-5.54,19.2-12.57,26.82-22.68,4.75-6.29,7-12.11,7-18.31,0-11,0-22.14,0-32.94,0-7.58,0-15.16,0-22.75a1.09,1.09,0,0,0-.05-.42h0a1.16,1.16,0,0,0-.34-.23,86.93,86.93,0,0,0-21.4-7.77A109,109,0,0,0,145.65,94.54Z"/><path class="cls-1" d="M181.45,138.13c0,6.18-.21,12.36.06,18.53.29,6.91-2.15,12.66-6.43,17.85-5.88,7.12-13.21,12.48-21,17.27-2.46,1.51-5,2.89-7.57,4.21a2,2,0,0,1-2,.08c-9.59-4.91-18.53-10.74-26.08-18.51a33.38,33.38,0,0,1-8-12.29,19.23,19.23,0,0,1-1-6.29c0-14.13,0-28.26,0-42.39a2.32,2.32,0,0,1,1.56-2.43,77.17,77.17,0,0,1,23.38-6.54,88.15,88.15,0,0,1,31,1.55,72.55,72.55,0,0,1,14.85,5.08,2.07,2.07,0,0,1,1.35,2.15C181.43,123.65,181.45,130.89,181.45,138.13Z"/><path class="cls-2" d="M27.47,226.84a4,4,0,0,1-3.4-1.88,163.13,163.13,0,0,1-8-14.33,4,4,0,1,1,7.18-3.53c2.28,4.64,4.83,9.22,7.57,13.62a4,4,0,0,1-1.27,5.51A3.9,3.9,0,0,1,27.47,226.84ZM13.38,198.17a4,4,0,0,1-3.75-2.62,160.2,160.2,0,0,1-4.88-15.66,4,4,0,1,1,7.75-2,150.41,150.41,0,0,0,4.64,14.87,4,4,0,0,1-2.37,5.14A4,4,0,0,1,13.38,198.17ZM5.47,167.22a4,4,0,0,1-3.95-3.42A157.7,157.7,0,0,1,0,147.45a4,4,0,0,1,8-.31,144.49,144.49,0,0,0,1.44,15.5,4,4,0,0,1-3.38,4.53A3.92,3.92,0,0,1,5.47,167.22ZM4.24,135.3H4A4,4,0,0,1,.25,131a147.5,147.5,0,0,1,2-16.3,4,4,0,1,1,7.87,1.43,139,139,0,0,0-1.92,15.43A4,4,0,0,1,4.24,135.3ZM10,103.89a4.17,4.17,0,0,1-1.16-.17,4,4,0,0,1-2.67-5,141.08,141.08,0,0,1,5.69-15.45,4,4,0,0,1,7.33,3.21,134.67,134.67,0,0,0-5.37,14.56A4,4,0,0,1,10,103.89Zm12.8-29.24a4,4,0,0,1-3.44-6,134.85,134.85,0,0,1,8.23-12.33l1-1.33a4,4,0,0,1,6.34,4.89c-.32.41-.64.83-1,1.25a125.45,125.45,0,0,0-7.74,11.58A4,4,0,0,1,22.78,74.65Zm19.5-25.28a4,4,0,0,1-2.84-6.81,136.56,136.56,0,0,1,12.27-11,4,4,0,0,1,5,6.28A127.81,127.81,0,0,0,45.12,48.19,4,4,0,0,1,42.28,49.37Zm25-19.83a4,4,0,0,1-2.1-7.41,145.69,145.69,0,0,1,14.47-7.81,4,4,0,0,1,3.4,7.24,139,139,0,0,0-13.67,7.38A3.92,3.92,0,0,1,67.29,29.54Zm155.83-.21a4,4,0,0,1-2-.55c-1-.59-2-1.17-3.06-1.74a4,4,0,0,1,3.87-7c1.08.6,2.17,1.21,3.23,1.83a4,4,0,0,1-2,7.46Zm-17.51-8.82a3.94,3.94,0,0,1-1.57-.32,154.41,154.41,0,0,0-14.62-5.39,4,4,0,1,1,2.37-7.64,162.07,162.07,0,0,1,15.39,5.67,4,4,0,0,1-1.57,7.68ZM96.19,16A4,4,0,0,1,94.9,8.18a152.38,152.38,0,0,1,15.81-4.45,4,4,0,0,1,1.75,7.81,143.12,143.12,0,0,0-15,4.21A4.15,4.15,0,0,1,96.19,16ZM175.12,11a4.34,4.34,0,0,1-.8-.08,151,151,0,0,0-15.41-2.28,4,4,0,0,1,.76-8A162,162,0,0,1,175.9,3.1a4,4,0,0,1-.78,7.93ZM127.35,9a4,4,0,0,1-.45-8,157.06,157.06,0,0,1,16.38-1h0a4,4,0,0,1,0,8,149.17,149.17,0,0,0-15.54,1Z"/></g></g></svg>