<svg xmlns="http://www.w3.org/2000/svg" xmlns:xlink="http://www.w3.org/1999/xlink" width="105.913" height="132.068" viewBox="0 0 105.913 132.068">
  <defs>
    <clipPath id="clip-path">
      <rect id="Прямоугольник_304" data-name="Прямоугольник 304" width="105.913" height="132.068" fill="none"/>
    </clipPath>
  </defs>
  <g id="Сгруппировать_433" data-name="Сгруппировать 433" transform="translate(5.078 19.797)">
    <g id="Сгруппировать_592" data-name="Сгруппировать 592" transform="translate(-5.078 -19.797)">
      <g id="Сгруппировать_591" data-name="Сгруппировать 591" clip-path="url(#clip-path)">
        <path id="Контур_999" data-name="Контур 999" d="M130.539,25.092a.837.837,0,0,1-.772-1.036l1.949-8.172-6.381-5.463a.837.837,0,0,1,.476-1.472l8.378-.671L137.415.518a.838.838,0,0,1,1.549,0l3.226,7.759,8.378.671a.837.837,0,0,1,.476,1.472l-6.382,5.463,1.949,8.172a.834.834,0,0,1-1.248.912l-7.177-4.38-7.165,4.38a.884.884,0,0,1-.482.124" transform="translate(-84.748)" fill="#fa4616"/>
        <path id="Контур_1000" data-name="Контур 1000" d="M234.063,45.037a.5.5,0,0,1-.459-.618l1.16-4.881-3.809-3.267a.52.52,0,0,1-.153-.536.527.527,0,0,1,.442-.341l5-.4,1.931-4.633a.514.514,0,0,1,.459-.312.522.522,0,0,1,.465.312l1.925,4.633,5,.4a.519.519,0,0,1,.436.341.507.507,0,0,1-.147.536L242.5,39.538l1.166,4.881a.5.5,0,0,1-.748.548l-4.286-2.62-4.28,2.62a.5.5,0,0,1-.288.071" transform="translate(-156.411 -20.365)" fill="#fa4616"/>
        <path id="Контур_1001" data-name="Контур 1001" d="M55.434,45.037a.5.5,0,0,1-.459-.618l1.16-4.881-3.809-3.267a.509.509,0,0,1-.153-.536.527.527,0,0,1,.442-.341l5-.4,1.931-4.633A.514.514,0,0,1,60,30.048a.522.522,0,0,1,.465.312l1.925,4.633,5,.4a.519.519,0,0,1,.436.341.507.507,0,0,1-.147.536l-3.815,3.267,1.166,4.881a.526.526,0,0,1-.194.524.511.511,0,0,1-.554.024L60,42.347l-4.28,2.62a.5.5,0,0,1-.288.071" transform="translate(-35.345 -20.365)" fill="#fa4616"/>
        <path id="Контур_1002" data-name="Контур 1002" d="M136.138,362.618A16.837,16.837,0,0,1,121.861,350.2H107.143a16.828,16.828,0,0,1-14.289,12.416,2.238,2.238,0,0,0-1.972,2.214v3.474A1.113,1.113,0,0,0,92,369.418h44.991a1.113,1.113,0,0,0,1.119-1.113v-3.474a2.229,2.229,0,0,0-1.972-2.214" transform="translate(-61.595 -237.35)" fill="#fa4616"/>
        <path id="Контур_1003" data-name="Контур 1003" d="M81.933,120.118l7.653-1.466a.578.578,0,0,0,.33-.235l3.762-6.829c.059-.106.153-.106.212,0l3.762,6.829a.56.56,0,0,0,.33.235l7.654,1.472c.123.024.147.112.064.206l-5.322,5.687a.514.514,0,0,0-.13.383l.971,7.73c.012.124-.065.177-.177.13l-7.059-3.309a.523.523,0,0,0-.4,0l-7.059,3.309c-.106.053-.188-.006-.171-.13l.965-7.73a.534.534,0,0,0-.123-.383l-5.328-5.687c-.082-.094-.053-.182.065-.212M86.908,172.3h13.765c.736-9.661,5.987-14.035,12.693-25.009,8.072-10.721,13.435-27.888,13.877-47.405a2.222,2.222,0,0,0-2.232-2.284H62.557a2.241,2.241,0,0,0-1.6.671,2.265,2.265,0,0,0-.636,1.613c.448,19.546,5.834,36.743,13.924,47.458,6.688,10.933,11.928,15.307,12.664,24.957" transform="translate(-40.882 -66.152)" fill="#fa4616"/>
        <path id="Контур_1004" data-name="Контур 1004" d="M72.959,241.815a2.727,2.727,0,0,1-1.648-.553c-1.158-.874-2.33-1.77-3.483-2.663a2.739,2.739,0,0,1,3.354-4.332c1.136.88,2.29,1.762,3.43,2.622a2.739,2.739,0,0,1-1.652,4.925" transform="translate(-45.25 -158.386)" fill="#fa4616"/>
        <path id="Контур_1005" data-name="Контур 1005" d="M16.748,171.65a2.729,2.729,0,0,1-1.735-.62c-1.463-1.2-2.942-2.432-4.4-3.665-1.015-.86-2.084-1.777-3.032-2.65a2.739,2.739,0,1,1,3.711-4.03c.875.806,1.894,1.678,2.864,2.5,1.431,1.213,2.887,2.427,4.327,3.607a2.739,2.739,0,0,1-1.738,4.858m-12.8-13.945a2.74,2.74,0,0,1-2.557-1.756A18.489,18.489,0,0,1,0,149.295a11.815,11.815,0,0,1,.958-4.765,2.739,2.739,0,0,1,5.019,2.2,6.372,6.372,0,0,0-.5,2.569A13.77,13.77,0,0,0,6.5,153.981a2.741,2.741,0,0,1-2.556,3.724" transform="translate(0 -96.843)" fill="#fa4616"/>
        <path id="Контур_1006" data-name="Контур 1006" d="M27.413,129.126a2.739,2.739,0,0,1-.8-5.36c.433-.132.766-.212.968-.256a14.458,14.458,0,0,1,4.383-.262,2.739,2.739,0,0,1-.5,5.456,8.942,8.942,0,0,0-2.72.16c-.052.011-.248.056-.537.143a2.734,2.734,0,0,1-.8.119" transform="translate(-16.723 -83.489)" fill="#fa4616"/>
        <path id="Контур_1007" data-name="Контур 1007" d="M236.918,241.816a2.739,2.739,0,0,1-1.652-4.925c1.14-.86,2.294-1.743,3.43-2.622a2.739,2.739,0,1,1,3.354,4.332c-1.153.893-2.325,1.789-3.483,2.663a2.728,2.728,0,0,1-1.648.553" transform="translate(-158.714 -158.387)" fill="#fa4616"/>
        <path id="Контур_1008" data-name="Контур 1008" d="M270.931,171.649a2.739,2.739,0,0,1-1.738-4.858c1.44-1.18,2.9-2.394,4.327-3.607.97-.822,1.988-1.694,2.864-2.5a2.739,2.739,0,0,1,3.711,4.03c-.948.873-2.017,1.789-3.032,2.649-1.455,1.233-2.934,2.466-4.4,3.665a2.728,2.728,0,0,1-1.735.62m12.8-13.945a2.741,2.741,0,0,1-2.556-3.724,13.77,13.77,0,0,0,1.025-4.687,6.372,6.372,0,0,0-.5-2.568,2.739,2.739,0,0,1,5.019-2.2,11.814,11.814,0,0,1,.958,4.764,18.489,18.489,0,0,1-1.391,6.654,2.741,2.741,0,0,1-2.557,1.756" transform="translate(-181.766 -96.843)" fill="#fa4616"/>
        <path id="Контур_1009" data-name="Контур 1009" d="M280.681,129.125a2.738,2.738,0,0,1-.8-.119c-.288-.088-.484-.132-.537-.143a8.926,8.926,0,0,0-2.72-.16,2.739,2.739,0,0,1-.5-5.456,14.432,14.432,0,0,1,4.382.262c.2.044.536.124.969.256a2.739,2.739,0,0,1-.8,5.36" transform="translate(-185.458 -83.489)" fill="#fa4616"/>
      </g>
    </g>
  </g>
</svg>
