<svg id="Сгруппировать_588" data-name="Сгруппировать 588" xmlns="http://www.w3.org/2000/svg" xmlns:xlink="http://www.w3.org/1999/xlink" width="101.207" height="130.883" viewBox="0 0 101.207 130.883">
  <defs>
    <clipPath id="clip-path">
      <rect id="Прямоугольник_302" data-name="Прямоугольник 302" width="101.207" height="130.883" fill="none"/>
    </clipPath>
  </defs>
  <g id="Сгруппировать_587" data-name="Сгруппировать 587" clip-path="url(#clip-path)">
    <path id="Контур_980" data-name="Контур 980" d="M37.81,36.433l-.067,0a2.341,2.341,0,0,1-1.852-.912,1.2,1.2,0,0,1-.225-.814c.164-1.834.389-3.52.686-5.153a1.2,1.2,0,1,1,2.365.431c-.238,1.308-.427,2.654-.575,4.092a1.2,1.2,0,0,1-.331,2.357m76.177,0a1.2,1.2,0,0,1-.066-2.4h.008c-.1-.975-.217-1.881-.349-2.75a1.2,1.2,0,1,1,2.376-.362c.179,1.175.327,2.411.454,3.78a1.2,1.2,0,0,1-.205.79,2.13,2.13,0,0,1-1.648.909q-.251.018-.5.032l-.068,0m-71.11-.144a1.2,1.2,0,0,1-.89-2.012A20.773,20.773,0,0,1,42.4,31.2q.048-.258.1-.516.066-.364.137-.722a1.2,1.2,0,0,1,2.358.469q-.067.338-.13.68-.048.263-.1.527a16.7,16.7,0,0,0-.378,3.02c0,.051,0,.1,0,.152a1.2,1.2,0,0,1-.267.78,2.157,2.157,0,0,1-.691.563,1.194,1.194,0,0,1-.551.135m66.095-.162a1.2,1.2,0,0,1-.846-.348,2.172,2.172,0,0,1-.181-.2,1.2,1.2,0,0,1-.251-.639,43.417,43.417,0,0,0-.667-4.786,1.2,1.2,0,0,1,2.358-.471,45.484,45.484,0,0,1,.676,4.736,1.2,1.2,0,0,1-1.09,1.711m.846-2.056h0m3.9-6.746a1.2,1.2,0,0,1-1.158-.882,38.514,38.514,0,0,0-1.609-4.662,1.2,1.2,0,0,1,2.215-.933,40.9,40.9,0,0,1,1.711,4.954,1.2,1.2,0,0,1-.837,1.479,1.218,1.218,0,0,1-.322.044m-68.565-.831a1.2,1.2,0,0,1-1.132-1.607,29.013,29.013,0,0,1,2.221-4.815,1.2,1.2,0,0,1,2.078,1.209A26.6,26.6,0,0,0,46.284,25.7a1.2,1.2,0,0,1-1.132.8m61.7-.277a1.2,1.2,0,0,1-1.129-.79,25.376,25.376,0,0,0-2.079-4.382A1.2,1.2,0,0,1,105.7,19.8a27.775,27.775,0,0,1,2.278,4.8,1.2,1.2,0,0,1-1.129,1.614m-68.117-.19a1.2,1.2,0,0,1-1.149-1.557,36.714,36.714,0,0,1,1.9-4.9A1.2,1.2,0,1,1,41.658,20.6a34.366,34.366,0,0,0-1.777,4.58,1.2,1.2,0,0,1-1.148.847m71.009-8.036a1.2,1.2,0,0,1-1.025-.573,28.589,28.589,0,0,0-2.9-3.925,1.2,1.2,0,1,1,1.8-1.589,31,31,0,0,1,3.14,4.255,1.2,1.2,0,0,1-1.023,1.832M50.278,17.78a1.2,1.2,0,0,1-.887-2.012A24.668,24.668,0,0,1,53.4,12.241a1.2,1.2,0,1,1,1.384,1.965,22.267,22.267,0,0,0-3.617,3.182,1.2,1.2,0,0,1-.888.392m51.324-.2a1.2,1.2,0,0,1-.874-.376,23.331,23.331,0,0,0-3.671-3.138,1.2,1.2,0,1,1,1.369-1.977,25.752,25.752,0,0,1,4.049,3.463,1.2,1.2,0,0,1-.873,2.028m-58.51-.711a1.2,1.2,0,0,1-.994-1.877,31.431,31.431,0,0,1,3.324-4.11,1.2,1.2,0,1,1,1.733,1.666,28.961,28.961,0,0,0-3.068,3.8,1.2,1.2,0,0,1-1,.527m15.423-4.943a1.2,1.2,0,0,1-.491-2.3,32.421,32.421,0,0,1,3.442-1.3c.5-.158,1.014-.31,1.525-.45a1.2,1.2,0,1,1,.637,2.318c-.481.132-.965.275-1.437.425A30.069,30.069,0,0,0,59,11.823a1.2,1.2,0,0,1-.489.1m34.8-.14a1.2,1.2,0,0,1-.49-.105,29.6,29.6,0,0,0-4.614-1.6,1.2,1.2,0,0,1,.605-2.326A31.969,31.969,0,0,1,93.8,9.487a1.2,1.2,0,0,1-.491,2.3m9.724-1.385a1.2,1.2,0,0,1-.746-.26,29.076,29.076,0,0,0-4.069-2.695A1.2,1.2,0,0,1,99.379,5.34a31.465,31.465,0,0,1,4.406,2.919,1.2,1.2,0,0,1-.748,2.144M50.12,9.575A1.2,1.2,0,0,1,49.411,7.4a31.836,31.836,0,0,1,4.516-2.742A1.2,1.2,0,1,1,55,6.809a29.475,29.475,0,0,0-4.175,2.535,1.2,1.2,0,0,1-.708.231M68.286,9.19A1.2,1.2,0,0,1,68.11,6.8,49.321,49.321,0,0,1,73.3,6.31a1.2,1.2,0,0,1,.1,2.4,47,47,0,0,0-4.939.465,1.245,1.245,0,0,1-.179.013m15.228-.022a1.247,1.247,0,0,1-.154-.01c-.364-.047-.74-.09-1.119-.13-1.316-.137-2.614-.237-3.856-.3a1.2,1.2,0,1,1,.114-2.4c1.288.061,2.631.164,3.993.306.4.042.792.087,1.174.136a1.2,1.2,0,0,1-.151,2.394M94.17,5.5a1.2,1.2,0,0,1-.416-.075c-.31-.114-.628-.227-.945-.334-1.252-.424-2.531-.8-3.8-1.128a1.2,1.2,0,1,1,.6-2.329c1.327.34,2.664.736,3.974,1.18.337.114.676.234,1.006.356A1.2,1.2,0,0,1,94.17,5.5m-35-.483A1.2,1.2,0,0,1,58.8,2.668c.7-.228,1.419-.441,2.145-.635.962-.256,1.935-.492,2.892-.7a1.2,1.2,0,0,1,.512,2.349c-.922.2-1.859.428-2.785.674-.683.182-1.361.382-2.015.6a1.206,1.206,0,0,1-.374.06M84.324,2.976a1.209,1.209,0,0,1-.185-.014c-1.629-.251-3.292-.426-4.944-.518a1.2,1.2,0,0,1,.135-2.4c1.73.1,3.471.279,5.177.543a1.2,1.2,0,0,1-.182,2.39M69.1,2.835A1.2,1.2,0,0,1,68.948.441C70.676.216,72.419.068,74.127,0a1.2,1.2,0,0,1,.094,2.4c-1.637.064-3.306.206-4.963.422a1.225,1.225,0,0,1-.157.01" transform="translate(-25.576 0)" fill="#fa4616"/>
    <path id="Контур_981" data-name="Контур 981" d="M213.1,194.6a1.2,1.2,0,0,1-.144-2.4,13.4,13.4,0,0,0,4.453-1.34,1.2,1.2,0,0,1,1.088,2.144,15.788,15.788,0,0,1-5.248,1.583,1.181,1.181,0,0,1-.148.009m-5.082,0h-.046l-5.087-.193a1.2,1.2,0,1,1,.091-2.4l5.087.193a1.2,1.2,0,0,1-.045,2.4m-10.174-.386H197.8l-4.053-.154a1.2,1.2,0,1,1,.091-2.4l4.053.154a1.2,1.2,0,0,1-.045,2.4m24.129-4.147a1.2,1.2,0,0,1-.891-2.008,13.182,13.182,0,0,0,2.456-3.941,1.2,1.2,0,0,1,2.231.9,15.58,15.58,0,0,1-2.9,4.657,1.2,1.2,0,0,1-.892.4" transform="translate(-138.124 -131.502)" fill="#fa4616"/>
    <path id="Контур_982" data-name="Контур 982" d="M296.565,135.731h-10.1a1.433,1.433,0,0,1-1.433-1.433c.444-2.814.666-5.194.785-6.966a39.607,39.607,0,0,0-.259-9.838c-.183-1.016-.385-1.84-.527-2.378a1.462,1.462,0,0,1,.42-1.013,1.429,1.429,0,0,1,1.013-.42h10.1A1.433,1.433,0,0,1,298,115.116V134.3a1.433,1.433,0,0,1-1.433,1.433" transform="translate(-204.419 -81.532)" fill="#fa4616"/>
    <path id="Контур_983" data-name="Контур 983" d="M28.425,135.731h10.1a1.433,1.433,0,0,0,1.433-1.433c-.444-2.814-.666-5.194-.785-6.966a39.6,39.6,0,0,1,.259-9.838c.183-1.016.385-1.84.527-2.378a1.462,1.462,0,0,0-.42-1.013,1.429,1.429,0,0,0-1.013-.42h-10.1a1.433,1.433,0,0,0-1.433,1.433V134.3a1.433,1.433,0,0,0,1.433,1.433" transform="translate(-19.358 -81.532)" fill="#fa4616"/>
    <path id="Контур_984" data-name="Контур 984" d="M125.382,95.913c-.577.876-1.244,1.805-2.015,2.76-.581.72-1.159,1.377-1.721,1.976l-.38.413v.011c-.686.763-1.705,1.881-2.214,2.388-1.4,1.394-4.076,3.243-8.87,4.136l-.035.007a18.827,18.827,0,0,1-3.656.313,20.024,20.024,0,0,1-11.244-3.886,22.43,22.43,0,0,1-7.286-8.567l-.083-.148a40.542,40.542,0,0,1-2.939-5.434,46.043,46.043,0,0,1-2.421-28.071c1.7-7.426,5.967-12.493,12.68-15.06a30.817,30.817,0,0,1,11.139-2.024,39.468,39.468,0,0,1,7.818.823C123.278,47.392,128.8,52.772,131.039,62a42.964,42.964,0,0,1,.412,17.472,51.016,51.016,0,0,1-1.838,7.624,1.5,1.5,0,0,0,2.729.848,50.468,50.468,0,0,0,1.926-8.028,46.8,46.8,0,0,0-.457-18.588c-2.49-10.268-8.913-16.516-19.091-18.571a36.516,36.516,0,0,0-20.54,1.333c-7.655,2.927-12.514,8.676-14.441,17.087a48.891,48.891,0,0,0,2.6,29.869,43.394,43.394,0,0,0,3.1,5.746,25.28,25.28,0,0,0,8.182,9.581,22.75,22.75,0,0,0,12.841,4.4l.256,0a21.633,21.633,0,0,0,3.957-.363l.034-.006c5.509-1.026,8.674-3.241,10.36-4.918.8-.8,2.543-2.747,2.686-2.907.813-.912,1.274-1.419,1.834-2.108a36.172,36.172,0,0,0,2.322-3.2,1.5,1.5,0,0,0-.443-1.655,1.533,1.533,0,0,0-2.082.3" transform="translate(-56.306 -30.044)" fill="#fa4616"/>
    <path id="Контур_985" data-name="Контур 985" d="M176.689,204.854c0,2.8-3.181,5.062-7.106,5.062s-7.106-2.266-7.106-5.062,3.181-5.062,7.106-5.062,7.106,2.266,7.106,5.062" transform="translate(-116.526 -143.288)" fill="#fa4616"/>
    <path id="Контур_986" data-name="Контур 986" d="M101.181,306.54a1.437,1.437,0,0,0-.7-.95L65.721,286.02a1.437,1.437,0,0,0-2.128,1.048,14.679,14.679,0,0,1-1.419,4.523,11.859,11.859,0,0,1-3.3,4.288,12.521,12.521,0,0,1-5.1,2.264,16.145,16.145,0,0,1-3.164.443,16.148,16.148,0,0,1-3.165-.443,12.523,12.523,0,0,1-5.1-2.264,11.859,11.859,0,0,1-3.3-4.288,14.669,14.669,0,0,1-1.419-4.523,1.437,1.437,0,0,0-2.128-1.048L.732,305.59a1.438,1.438,0,0,0-.453,2.1,34.261,34.261,0,0,0,4.472,4.98,41.834,41.834,0,0,0,4.22,3.319,64.467,64.467,0,0,0,6.866,4.475,52.866,52.866,0,0,0,8.782,3.7,76.183,76.183,0,0,0,12.09,3.464,64.42,64.42,0,0,0,7.02.92,1.443,1.443,0,0,0,.434-2.852,61.479,61.479,0,0,1-6.921-.893,72.906,72.906,0,0,1-11.667-3.351,50.624,50.624,0,0,1-8.354-3.507,61.142,61.142,0,0,1-6.57-4.287,39.6,39.6,0,0,1-3.959-3.107,31.4,31.4,0,0,1-3.1-3.274l31.589-17.786a17.488,17.488,0,0,0,1.287,3.392,14.639,14.639,0,0,0,4.095,5.254,15.259,15.259,0,0,0,6.2,2.8,19.023,19.023,0,0,0,3.746.524h.013l.033,0c.023,0,.046,0,.07,0h.053l.053,0a19.03,19.03,0,0,0,3.723-.523,15.258,15.258,0,0,0,6.2-2.8,14.639,14.639,0,0,0,4.095-5.254,17.477,17.477,0,0,0,1.287-3.392l31.589,17.786a31.386,31.386,0,0,1-2.891,3.078,1.446,1.446,0,0,0,2.022,2.055,31.381,31.381,0,0,0,4.184-4.718,1.7,1.7,0,0,0,.247-1.154" transform="translate(0 -204.997)" fill="#fa4616"/>
    <path id="Контур_987" data-name="Контур 987" d="M223.252,355.891a1.489,1.489,0,0,0-1.367-1.677c-.373-.055-.719-.305-1.092-.356a2.812,2.812,0,0,1-2.5-2.259,1.326,1.326,0,0,1,.02-1.037c.426-.861.816-1.74,1.257-2.593a1.085,1.085,0,0,0-.154-1.348,20.826,20.826,0,0,0-2.9-2.8,1.012,1.012,0,0,0-1.237-.1,14.5,14.5,0,0,0-1.3.684,2.971,2.971,0,0,1-3.531.241,1.354,1.354,0,0,1-.718-.739c-.32-.951-.671-1.891-1-2.838a.883.883,0,0,0-.746-.694,16.161,16.161,0,0,0-4.4.066.917.917,0,0,0-.81.7,12.337,12.337,0,0,0-.52,1.647,2.85,2.85,0,0,1-2.261,2.5,1.3,1.3,0,0,1-1.024-.023c-.9-.449-1.813-.858-2.716-1.3a.912.912,0,0,0-1.072.077,24.175,24.175,0,0,0-2.894,2.8.858.858,0,0,0-.116,1.109c.429.738.8,1.509,1.25,2.235a1.414,1.414,0,0,1,.1,1.648,5.831,5.831,0,0,0-.506,1.378.925.925,0,0,1-.684.678c-.96.292-1.909.618-2.867.916a.871.871,0,0,0-.693.742,13.528,13.528,0,0,0,.054,4.46.912.912,0,0,0,.723.792c.6.166,1.167.427,1.769.559a3.384,3.384,0,0,1,1.778.942,2.375,2.375,0,0,1,.724,1.679,1.111,1.111,0,0,1-.11.52c-.433.881-.851,1.77-1.268,2.658-.1.21-.169.434-.216.558a.989.989,0,0,0,.261.74,15.381,15.381,0,0,0,2.226,2.293c1.393,1.111,1.129,1.186,2.767.3a4.234,4.234,0,0,0,.515-.258,2.936,2.936,0,0,1,3.523-.245,1.337,1.337,0,0,1,.715.739c.321.95.689,1.884,1.011,2.834a.966.966,0,0,0,.937.725,29.451,29.451,0,0,0,3.579,0,1.468,1.468,0,0,0,1.618-1.355c.053-.353.277-.679.336-1.032a2.805,2.805,0,0,1,2.171-2.512,1.511,1.511,0,0,1,1.207,0c.834.43,1.7.8,2.537,1.225a1.026,1.026,0,0,0,1.286-.115,20.132,20.132,0,0,0,2.889-2.984.919.919,0,0,0,.087-1.12,13.146,13.146,0,0,0-.755-1.48,2.855,2.855,0,0,1-.19-3.412,1.319,1.319,0,0,1,.747-.712c.929-.315,1.845-.672,2.775-.986a1.06,1.06,0,0,0,.8-1.033c.075-1.152.031-2.3-.005-3.455m-17.267,9.139a7.453,7.453,0,0,1-7.464-7.381,7.454,7.454,0,1,1,14.906.071,7.392,7.392,0,0,1-7.442,7.31" transform="translate(-135.267 -244.029)" fill="#fa4616"/>
  </g>
</svg>
