<svg xmlns="http://www.w3.org/2000/svg" xmlns:xlink="http://www.w3.org/1999/xlink" width="83.677" height="106.5" viewBox="0 0 83.677 106.5">
  <defs>
    <clipPath id="clip-path">
      <rect id="Прямоугольник_210" data-name="Прямоугольник 210" width="83.677" height="106.5" fill="#fa4616"/>
    </clipPath>
  </defs>
  <g id="Сгруппировать_388" data-name="Сгруппировать 388" transform="translate(0 0)">
    <g id="Сгруппировать_387" data-name="Сгруппировать 387" transform="translate(0 0)" clip-path="url(#clip-path)">
      <path id="Контур_656" data-name="Контур 656" d="M30.4,63.456A4.506,4.506,0,1,0,25.9,58.95,4.512,4.512,0,0,0,30.4,63.456" transform="translate(11.351 23.863)" fill="#fa4616"/>
      <path id="Контур_657" data-name="Контур 657" d="M63.56,30.61C62.06,26.2,57.829,16.589,46.785,4.337a13.118,13.118,0,0,0-19.491,0c-11.748,13.04-15.79,22.9-17.034,26.781,9.979-4.013,19-6.085,27.516-6.321A51.61,51.61,0,0,1,63.56,30.61" transform="translate(4.498 -0.001)" fill="#fa4616"/>
      <rect id="Прямоугольник_209" data-name="Прямоугольник 209" width="67.726" height="5.234" transform="translate(7.673 101.266)" fill="#fa4616"/>
      <path id="Контур_658" data-name="Контур 658" d="M5.335,79.763H73.061V43.625H5.335ZM39.417,56.8a6.887,6.887,0,1,1-6.888,6.888A6.9,6.9,0,0,1,39.417,56.8" transform="translate(2.338 19.121)" fill="#fa4616"/>
      <path id="Контур_659" data-name="Контур 659" d="M81.426,52.907c-3.279-7.916-7.935-10.423-15.783-12.165A39.651,39.651,0,0,1,61.895,46.7,1.19,1.19,0,0,1,60,45.266a37.518,37.518,0,0,0,3.927-6.422q.7-1.458,1.282-2.98c.8-2.091,1.339-3.425,1.733-4.4a17.916,17.916,0,0,0,1.5-5.563l.229-1.355a51.617,51.617,0,0,0-8.265-3.77l0,0a26.929,26.929,0,0,1-5.424,15.085c-3.777,5.054-8.552,7.836-13.441,7.836s-9.661-2.782-13.44-7.836a27.261,27.261,0,0,1-5.391-14.2h0q-3.989,1.282-8.185,3.022a7.906,7.906,0,0,0,.9,3.679c.459.982,1.228,2.621,2.521,6.024a37.983,37.983,0,0,0,1.97,4.325v0l.058.108,0,.009A38.4,38.4,0,0,0,22.584,43l1.653,2.3a1.19,1.19,0,1,1-1.93,1.391l-1.654-2.294a39.9,39.9,0,0,1-2.372-3.7C10.123,42.462,5.573,44.891,2.248,52.91-2.288,63.864.715,75.2,5.293,82.838V52.452a1.191,1.191,0,0,1,1.189-1.191H76.592a1.191,1.191,0,0,1,1.191,1.191V83.807c4.906-7.619,8.38-19.469,3.643-30.9" transform="translate(0 9.104)" fill="#fa4616"/>
    </g>
  </g>
</svg>
