<svg id="Сгруппировать_574" data-name="Сгруппировать 574" xmlns="http://www.w3.org/2000/svg" xmlns:xlink="http://www.w3.org/1999/xlink" width="89.478" height="119.066" viewBox="0 0 89.478 119.066">
  <defs>
    <clipPath id="clip-path">
      <rect id="Прямоугольник_294" data-name="Прямоугольник 294" width="89.478" height="119.066" fill="none"/>
    </clipPath>
  </defs>
  <g id="Сгруппировать_573" data-name="Сгруппировать 573" clip-path="url(#clip-path)">
    <path id="Контур_900" data-name="Контур 900" d="M81.578,21.975c-.111,1.166-.251,2.8-.426,4.433a3.046,3.046,0,0,0,1.613,3.122c1.451.9,2.937,1.767,4.3,2.788,2.5,1.872,3.044,4.151,1.663,6.944A29,29,0,0,1,86.5,42.979a4.333,4.333,0,0,0-.024,5.47A29.13,29.13,0,0,1,88.8,52.343,4.927,4.927,0,0,1,87.255,59a23.294,23.294,0,0,1-3.637,2.356A4.142,4.142,0,0,0,81.19,66.2a22.643,22.643,0,0,1,.4,4.511c-.092,2.986-1.525,4.838-4.429,5.453a29.664,29.664,0,0,1-3.908.483c-2.94.222-3.63.724-4.583,3.458-.433,1.241-.814,2.508-1.35,3.7-1.4,3.125-3.546,4.166-6.885,3.3a45.293,45.293,0,0,1-4.29-1.466,3.584,3.584,0,0,0-4.282.985,31.379,31.379,0,0,1-3.547,3.418c-2.4,1.906-4.589,1.922-7.019.059a23.956,23.956,0,0,1-3.436-3.242A3.959,3.959,0,0,0,32.9,85.772a35.558,35.558,0,0,1-3.532,1.247c-3.579,1.018-5.855-.056-7.311-3.453a25,25,0,0,1-1.326-3.711c-.557-2.215-2.042-3.049-4.158-3.194a33.707,33.707,0,0,1-4.108-.471A5.1,5.1,0,0,1,7.9,70.668a30.667,30.667,0,0,1,.393-4.509,4.172,4.172,0,0,0-2.479-4.825,22.722,22.722,0,0,1-3.164-2C-.2,57.239-.722,54.909.939,51.767A21.843,21.843,0,0,1,2.8,48.744c1.592-2.095,1.473-4.073-.068-6.136A21.187,21.187,0,0,1,.8,39.4c-1.449-2.9-.94-5.149,1.647-7.112A34.845,34.845,0,0,1,6.26,29.834a3.593,3.593,0,0,0,2.055-3.882,44.053,44.053,0,0,1-.415-5.1c-.025-3.093,1.486-4.917,4.528-5.547a24.84,24.84,0,0,1,3.908-.487c2.288-.1,3.862-.968,4.452-3.358a21.442,21.442,0,0,1,1.429-3.88c1.447-3.106,3.6-4.1,6.926-3.2,1.456.394,2.866.961,4.291,1.467a3.441,3.441,0,0,0,4.107-.964c.65-.741,1.368-1.422,2.07-2.116C43.316-.9,46.091-.92,49.782,2.689a17.484,17.484,0,0,1,1.646,1.7c1.5,1.93,3.321,2.094,5.448,1.2A24.614,24.614,0,0,1,60.6,4.3c3.123-.753,5.261.251,6.643,3.149A21.911,21.911,0,0,1,68.71,11.53c.577,2.3,2.088,3.178,4.3,3.274a29.109,29.109,0,0,1,3.13.357c4.015.613,5.477,2.329,5.434,6.813m-3.755.689c.155-3.379-.224-3.81-3.189-4.072-.916-.081-1.827-.228-2.743-.29-3.554-.241-5.633-2.2-6.591-5.539-.309-1.073-.708-2.12-1.068-3.179a2.282,2.282,0,0,0-3.1-1.62A35.092,35.092,0,0,0,57.4,9.243c-3.13,1.278-5.782.536-8.108-1.782C48.272,6.439,47.245,5.419,46.2,4.415a1.9,1.9,0,0,0-2.953.014c-1.041,1.005-2.068,2.025-3.093,3.048-2.265,2.261-4.863,3.015-7.926,1.813-1.163-.456-2.338-.89-3.531-1.259C26.987,7.5,25.74,7.963,25.17,9.8c-.389,1.256-.857,2.486-1.282,3.731a6.393,6.393,0,0,1-5.756,4.678c-1.307.138-2.612.3-3.919.434-1.847.2-2.955.991-2.62,3.069.157.971.167,1.966.328,2.937.589,3.55-.411,6.361-3.657,8.2-1.029.583-2.012,1.249-3.02,1.87-1.5.922-1.891,2.1-.9,3.643.679,1.05,1.312,2.129,2,3.173a7.015,7.015,0,0,1,.036,8.316q-.595.908-1.181,1.823c-2.124,3.312-2,3.862,1.311,5.87.844.512,1.69,1.023,2.5,1.581a6.435,6.435,0,0,1,3.02,6.237c-.131,1.439-.345,2.874-.415,4.316-.116,2.372.367,3.155,2.712,3.108,5.863-.119,9.387,2.344,10.687,8.224.632,2.86,1.694,3.124,4.548,2.135a9.892,9.892,0,0,0,1.106-.422c4.134-2.013,7.52-1.115,10.575,2.3,3.322,3.715,3.641,3.711,7-.016,2.994-3.323,6.24-4.16,10.409-2.381,4.4,1.877,4.84,1.552,6.325-2.928,1.731-5.224,3.171-6.359,8.6-6.782,4.434-.346,4.636-.588,4.184-5.04a2.606,2.606,0,0,0-.043-.392c-1.136-4.37.589-7.3,4.405-9.466,4.462-2.535,4.555-2.886,1.651-7.009-2.538-3.6-2.579-6.9-.029-10.519,2.956-4.194,2.872-4.464-1.577-6.993-3.788-2.153-5.586-5.058-4.473-9.454a6.474,6.474,0,0,0,.121-1.382" transform="translate(0 0)" fill="#fa4616"/>
    <path id="Контур_901" data-name="Контур 901" d="M15,297.169a113.325,113.325,0,0,1,10.225-7.817c3.413-2.207,4.037-2.05,6.095,1.538a58.667,58.667,0,0,0,6.471,9.405c.263-1.16.475-2,.644-2.856A68.62,68.62,0,0,1,45.1,278.525c.295-.556.4-1.95,1.495-1.179.841.595,2.64.908,1.7,2.749a72.327,72.327,0,0,0-7.211,23.261,2.436,2.436,0,0,1-4.518,1.312,68.459,68.459,0,0,1-7.663-10.759c-.86-1.537-1.582-1.686-3.023-.653a96.454,96.454,0,0,0-10.229,8.368c-1.02.966-2.054,1.783-3.476,1.037-1.4-.735-1.382-2.042-1.195-3.442A102.16,102.16,0,0,1,21.007,266.75c.442-.882.773-1.723,2.114-1.65,2.475.135,2.654.324,1.5,2.586A98.1,98.1,0,0,0,15,297.169" transform="translate(-7.675 -186.778)" fill="#fa4616"/>
    <path id="Контур_902" data-name="Контур 902" d="M175.322,300.183a62.144,62.144,0,0,0,6.11-8.706c.343-.561.637-1.152.976-1.716,1.4-2.32,2.4-2.571,4.637-1.14a75.215,75.215,0,0,1,8.743,6.425c.639.552,1.32,1.054,2.229,1.775a39.606,39.606,0,0,0-1.281-7.093,97.216,97.216,0,0,0-8.149-22.18c-.355-.7-1.441-1.516-.331-2.358,1.016-.769,3.11-.137,3.7,1.01a96.55,96.55,0,0,1,4.208,9.359,103.225,103.225,0,0,1,6.064,23.846c.168,1.256.044,2.432-1.2,3.075-1.317.68-2.361.091-3.349-.856a93.665,93.665,0,0,0-10.359-8.518c-1.571-1.125-2.282-.776-3.142.758a66.429,66.429,0,0,1-7.037,10c-.846,1.015-1.7,2.132-3.274,1.714-1.59-.423-1.7-1.8-1.9-3.129a70.7,70.7,0,0,0-7.014-22.3c-.938-1.823.531-2.19,1.441-2.832,1.236-.871,1.442.489,1.758,1.109a75.942,75.942,0,0,1,7.163,21.758" transform="translate(-116.013 -186.607)" fill="#fa4616"/>
    <path id="Контур_903" data-name="Контур 903" d="M77.3,112.055a1.773,1.773,0,0,1,0-3.545,28.462,28.462,0,0,0,8.8-1.39,1.773,1.773,0,0,1,1.1,3.372,32.009,32.009,0,0,1-9.893,1.563Zm-9.345-1.535a1.78,1.78,0,0,1-.521-.078,31.642,31.642,0,0,1-9.007-4.386,1.773,1.773,0,0,1,2.047-2.895,28.082,28.082,0,0,0,8,3.891,1.773,1.773,0,0,1-.52,3.468m27.119-4.244a1.772,1.772,0,0,1-1.045-3.205,28.6,28.6,0,0,0,6.3-6.3,1.772,1.772,0,1,1,2.867,2.085,32.132,32.132,0,0,1-7.079,7.083,1.768,1.768,0,0,1-1.042.339M52.764,99.7a1.77,1.77,0,0,1-1.447-.746,31.512,31.512,0,0,1-4.413-9,1.773,1.773,0,0,1,3.389-1.042A27.976,27.976,0,0,0,54.207,96.9a1.772,1.772,0,0,1-1.444,2.8m53.3-8.544a1.774,1.774,0,0,1-1.686-2.321,28.456,28.456,0,0,0,1.385-8.8v-.064a1.773,1.773,0,0,1,1.767-1.778h.006a1.772,1.772,0,0,1,1.772,1.767v.08a31.988,31.988,0,0,1-1.558,9.889,1.774,1.774,0,0,1-1.686,1.226M47.2,81.837a1.773,1.773,0,0,1-1.773-1.773v-.034a33.7,33.7,0,0,1,1.46-9.85,1.773,1.773,0,0,1,3.391,1.035,30.163,30.163,0,0,0-1.306,8.815v.034A1.772,1.772,0,0,1,47.2,81.837m58.847-9.443a1.773,1.773,0,0,1-1.684-1.222,28.337,28.337,0,0,0-4.065-7.924,1.773,1.773,0,1,1,2.862-2.092,31.884,31.884,0,0,1,4.572,8.914,1.773,1.773,0,0,1-1.685,2.324M52.721,63.968a1.773,1.773,0,0,1-1.446-2.8,29.824,29.824,0,0,1,7.094-7.119,1.773,1.773,0,0,1,2.054,2.89,26.284,26.284,0,0,0-6.252,6.275,1.771,1.771,0,0,1-1.449.75m42.3-6.671a1.765,1.765,0,0,1-1.039-.337,28.339,28.339,0,0,0-7.941-4.034,1.773,1.773,0,1,1,1.088-3.374,31.87,31.87,0,0,1,8.933,4.537A1.773,1.773,0,0,1,95.019,57.3M67.889,53.112a1.773,1.773,0,0,1-.523-3.466,38.5,38.5,0,0,1,9.795-1.631,1.773,1.773,0,0,1,.144,3.542,34.95,34.95,0,0,0-8.892,1.476,1.768,1.768,0,0,1-.524.079" transform="translate(-32.004 -33.829)" fill="#fa4616"/>
    <path id="Контур_904" data-name="Контур 904" d="M97.074,135.471a203.192,203.192,0,0,1,26.78-35.015,29.387,29.387,0,0,1-4.258-.033c-2.883-.47-4.937.741-6.971,2.644a105.217,105.217,0,0,0-14.1,16.245c-.81,1.148-1.442,1.342-2.35.211a12.906,12.906,0,0,0-1.028-1.038c-3.252-3.222-7.153-3.627-11.282-1.12,6.007,4.793,9.971,11.074,13.209,18.106" transform="translate(-59.089 -70.683)" fill="#fa4616"/>
  </g>
</svg>
