<svg id="Сгруппировать_578" data-name="Сгруппировать 578" xmlns="http://www.w3.org/2000/svg" xmlns:xlink="http://www.w3.org/1999/xlink" width="118.935" height="116.127" viewBox="0 0 118.935 116.127">
  <defs>
    <clipPath id="clip-path">
      <rect id="Прямоугольник_296" data-name="Прямоугольник 296" width="118.935" height="116.127" fill="none"/>
    </clipPath>
  </defs>
  <g id="Сгруппировать_577" data-name="Сгруппировать 577" clip-path="url(#clip-path)">
    <path id="Контур_916" data-name="Контур 916" d="M98.026,57.319a41.882,41.882,0,0,0-20.735,5.458,33.336,33.336,0,0,1,1.559,3.178,38.082,38.082,0,0,1,7.529-3.311,32.48,32.48,0,0,0-5.953,7.992c.871,3.868.631,8.117-3.665,9.449a31.364,31.364,0,0,1-3.189.819q1.2.5,2.467.945a71.056,71.056,0,0,0-.212,34.583,44.56,44.56,0,0,0-9.613,4.728A38.606,38.606,0,0,1,64.82,79.814a8.737,8.737,0,0,1-2.634-2.469,42.081,42.081,0,0,0,33.288,64.048,14.14,14.14,0,0,0,5.1,0,41.885,41.885,0,0,0,24.047-9.4,1.236,1.236,0,0,1-.556-.885,22.566,22.566,0,0,0-.673-2.708,38.249,38.249,0,0,1-13.26,7.6c3.823-3.838,6.985-9.438,9.12-16.159q1.171.427,2.29.9a4.956,4.956,0,0,1,1.2-3.335q-1.228-.514-2.519-.979a71.054,71.054,0,0,0-.212-34.582,45.034,45.034,0,0,0,9.549-4.619,38.621,38.621,0,0,1,3.039,39.216,5.341,5.341,0,0,1,1.506,1.459,8.907,8.907,0,0,1,.871,1.63A42.087,42.087,0,0,0,98.026,57.319M83.96,71.562c3.918-6.8,8.913-10.55,14.066-10.55s10.147,3.747,14.065,10.55a44.217,44.217,0,0,1,3.539,7.973,67.3,67.3,0,0,1-35.208,0,44.238,44.238,0,0,1,3.538-7.973M70.776,126.645q-1.28-1.28-2.423-2.658c.54-.353,1.1-.7,1.686-1.037a43.279,43.279,0,0,1,6.756-3.109c2.135,6.722,5.3,12.321,9.12,16.159a38.371,38.371,0,0,1-15.14-9.355m41.315.889c-3.383,5.874-7.569,9.467-11.966,10.34-.7.037-1.4.058-2.1.058s-1.4-.021-2.1-.058c-4.4-.873-8.583-4.466-11.966-10.34a44.849,44.849,0,0,1-3.8-8.789,67.2,67.2,0,0,1,35.738,0,44.831,44.831,0,0,1-3.8,8.789m4.762-12.191a70.589,70.589,0,0,0-37.656,0,67.83,67.83,0,0,1,.211-32.419,70.683,70.683,0,0,0,37.235,0,67.823,67.823,0,0,1,.21,32.421m9.158-40.09a43.486,43.486,0,0,1-7.016,3.2c-2.217-6.633-5.448-12.117-9.324-15.814a38.355,38.355,0,0,1,15.6,9.5q1.1,1.1,2.1,2.277c-.442.282-.894.56-1.365.831" transform="translate(-39.443 -40.409)" fill="#fa4616"/>
    <path id="Контур_917" data-name="Контур 917" d="M74.5,48.393q-.2-1.1-.38-2.371-.493,1.293-.975,2.392t-.831,1.919l-3.511,8.5h7.514l-1.457-8.54q-.165-.8-.359-1.9" transform="translate(-48.504 -32.445)" fill="#fa4616"/>
    <path id="Контур_918" data-name="Контур 918" d="M48.706,42.922V2.943A2.943,2.943,0,0,0,45.763,0H2.943A2.942,2.942,0,0,0,0,2.943v39.98A2.934,2.934,0,0,0,.862,45a3.432,3.432,0,0,0,2.081.862,50.678,50.678,0,0,0,7.6,0c1.828,1.5,3.807,3.027,5.943,4.546A107.558,107.558,0,0,0,27.4,57.23q.1-5.682.2-11.365H45.763a2.541,2.541,0,0,0,2.469-.879,2.592,2.592,0,0,0,.473-2.063M31.527,37.781a1.887,1.887,0,0,1-2.012-1.457l-.924-5.379H18.43l-2.217,5.379a2.92,2.92,0,0,1-.914,1.006,2.377,2.377,0,0,1-1.427.452H8.617L22.9,7.87h6.857L36.7,37.781Z" fill="#fa4616"/>
    <path id="Контур_919" data-name="Контур 919" d="M285.891,211.866a3.435,3.435,0,0,0-2.081-.862,50.718,50.718,0,0,0-7.6,0c-1.828-1.5-3.807-3.027-5.943-4.546a107.613,107.613,0,0,0-10.916-6.819q-.1,5.683-.2,11.365H240.99a2.859,2.859,0,0,0-1.939.632,2.956,2.956,0,0,0-1,2.31v39.98a2.943,2.943,0,0,0,2.943,2.943h42.821a2.943,2.943,0,0,0,2.943-2.943v-39.98a2.934,2.934,0,0,0-.862-2.081m-10.633,31.783a13.568,13.568,0,0,1-4.739,6.426,2.305,2.305,0,0,1-3.6-2.612,2.192,2.192,0,0,1,.748-1.012,9.449,9.449,0,0,0,3.773-6.752,7.039,7.039,0,0,0-1.025-4.923,3.859,3.859,0,0,0-3.152-1.7,9.522,9.522,0,0,0-3.887.788c-1.215.456-2.42.938-3.608,1.465a.518.518,0,0,0-.358.478c-.165,1.644-.33,3.289-.594,4.922a24.182,24.182,0,0,1-1.671,6.308,6.509,6.509,0,0,1-3.04,3.394,7.538,7.538,0,0,1-1.308.423h-1.517a8.322,8.322,0,0,1-3.617-1.692,6.348,6.348,0,0,1-2.586-5.277,8.271,8.271,0,0,1,1.608-4.551,20.087,20.087,0,0,1,5.927-5.392,23.692,23.692,0,0,1,2.051-1.2.677.677,0,0,0,.423-.633c.1-1.718.224-3.436.346-5.154.022-.315-.223-.259-.375-.264a12.731,12.731,0,0,1-1.948-.231,7.235,7.235,0,0,1-2.414-.887,2.309,2.309,0,0,1,1.233-4.311,2.521,2.521,0,0,1,1.141.352,4.874,4.874,0,0,0,2.474.474c.191,0,.251-.118.266-.29.115-1.361.24-2.721.35-4.082a2.343,2.343,0,0,1,2.073-2.183,2.28,2.28,0,0,1,2.49,1.812,7.485,7.485,0,0,1-.083,2.022c-.046.629-.109,1.258-.169,1.886-.027.275.05.368.35.3.763-.167,1.522-.349,2.281-.533a2.3,2.3,0,0,1,1.168,4.457c-.895.254-1.8.461-2.716.638a10.433,10.433,0,0,1-1.051.187.419.419,0,0,0-.438.457c-.045.768-.1,1.535-.145,2.3-.018.275-.041.549-.062.824-.028.37,0,.392.337.262a33.837,33.837,0,0,1,3.573-1.26,10.826,10.826,0,0,1,5.617-.145,8.361,8.361,0,0,1,5.747,5.089,13.111,13.111,0,0,1,.122,9.821m.961-15.925a2.2,2.2,0,0,1-2.395.325,2.068,2.068,0,0,1-1.351-1.995,2.3,2.3,0,0,0-1.418-2.195c-.8-.458-1.646-.815-2.464-1.235a2.287,2.287,0,0,1-1.194-2.609,2.251,2.251,0,0,1,2.953-1.613,14.946,14.946,0,0,1,4.828,2.807,5.775,5.775,0,0,1,1.9,4.1,2.7,2.7,0,0,1-.857,2.411" transform="translate(-167.818 -140.742)" fill="#fa4616"/>
    <path id="Контур_920" data-name="Контур 920" d="M282.235,330.781a17.128,17.128,0,0,0-2.326,1.887,8.072,8.072,0,0,0-2.055,2.86,2.421,2.421,0,0,0,2.16,3.133c.187,0,.321-.185.451-.358a6.268,6.268,0,0,0,.885-1.9,32.137,32.137,0,0,0,1.111-5.529c.007-.054.011-.136-.02-.161-.083-.068-.145.023-.205.064" transform="translate(-195.79 -233.132)" fill="#fa4616"/>
  </g>
</svg>
