<svg xmlns="http://www.w3.org/2000/svg" xmlns:xlink="http://www.w3.org/1999/xlink" width="115.088" height="86.91" viewBox="0 0 115.088 86.91">
  <defs>
    <clipPath id="clip-path">
      <rect id="Прямоугольник_197" data-name="Прямоугольник 197" width="115.088" height="86.91" fill="#fa4616"/>
    </clipPath>
  </defs>
  <g id="Сгруппировать_361" data-name="Сгруппировать 361" transform="translate(0 0)">
    <g id="Сгруппировать_360" data-name="Сгруппировать 360" transform="translate(0 0)" clip-path="url(#clip-path)">
      <path id="Контур_625" data-name="Контур 625" d="M115.079,56.338v-5.6H0v5.6s0,.883,5.509,1.423l8.755,2.008h87.009l8.76-2.008c5.512-.54,5.047-1.423,5.047-1.423" transform="translate(0 27.141)" fill="#fa4616"/>
      <path id="Контур_626" data-name="Контур 626" d="M98,2.134A2.133,2.133,0,0,0,95.867,0H10.32A2.134,2.134,0,0,0,8.186,2.134V70.928H98ZM86.237,62.113H19.951V9.759H86.237Z" transform="translate(4.379 0)" fill="#fa4616"/>
      <path id="Контур_627" data-name="Контур 627" d="M66.164,13.7a4.1,4.1,0,0,0-4.1,4.1,4.05,4.05,0,0,0,.153,1.1L50.51,30.44a4.123,4.123,0,0,0-1.159-.167,4.069,4.069,0,0,0-1.272.2l-5.61-5.208a4.1,4.1,0,1,0-7.943.017l-7.584,7.107a4.1,4.1,0,1,0,2.841,3.9,4.049,4.049,0,0,0-.129-1l7.585-7.105a4.134,4.134,0,0,0,1.256.2,4.074,4.074,0,0,0,1.275-.206l5.609,5.208a4.046,4.046,0,0,0-.123.979,4.1,4.1,0,1,0,8.038-1.1L65.005,21.727A4.1,4.1,0,1,0,66.164,13.7" transform="translate(11.548 7.329)" fill="#fa4616"/>
    </g>
  </g>
</svg>
