<svg xmlns="http://www.w3.org/2000/svg" xmlns:xlink="http://www.w3.org/1999/xlink" width="98.244" height="93.335" viewBox="0 0 98.244 93.335">
  <defs>
    <clipPath id="clip-path">
      <rect id="Прямоугольник_136" data-name="Прямоугольник 136" width="98.244" height="93.335" fill="#fa4616"/>
    </clipPath>
  </defs>
  <g id="Сгруппировать_241" data-name="Сгруппировать 241" transform="translate(0 0)">
    <g id="Сгруппировать_236" data-name="Сгруппировать 236" transform="translate(0 0)" clip-path="url(#clip-path)">
      <path id="Контур_549" data-name="Контур 549" d="M92.32,23.991A46.635,46.635,0,0,0,10.155,68.108l.909,1.75L9.583,71.169c-.311.27-.7.572-1.237.957l-7,5.327a2.788,2.788,0,0,0-1.3,2.805c.107.55.409,2.242,4.827,3.527l.376.106a38.647,38.647,0,0,0,10.032,1.6l.867.015c.589.017,1.17.033,1.824.017a49.365,49.365,0,0,0,5.686-.606l.95-.155.907.557a46.636,46.636,0,0,0,70.93-25.871A46.31,46.31,0,0,0,92.32,23.991M23.484,54.019a7.351,7.351,0,1,1,7.355-7.355,7.349,7.349,0,0,1-7.355,7.355m28.106,0a7.351,7.351,0,1,1,7.347-7.355,7.349,7.349,0,0,1-7.347,7.355m28.1,0a7.351,7.351,0,1,1,7.347-7.355,7.349,7.349,0,0,1-7.347,7.355" transform="translate(0 0)" fill="#fa4616"/>
    </g>
  </g>
</svg>
