<svg id="Сгруппировать_594" data-name="Сгруппировать 594" xmlns="http://www.w3.org/2000/svg" xmlns:xlink="http://www.w3.org/1999/xlink" width="120.099" height="119.912" viewBox="0 0 120.099 119.912">
  <defs>
    <clipPath id="clip-path">
      <rect id="Прямоугольник_305" data-name="Прямоугольник 305" width="120.099" height="119.912" fill="none"/>
    </clipPath>
  </defs>
  <g id="Сгруппировать_593" data-name="Сгруппировать 593" clip-path="url(#clip-path)">
    <path id="Контур_1010" data-name="Контур 1010" d="M124.154,152.927a29.213,29.213,0,0,1-4.883-.411,1.827,1.827,0,0,1,.613-3.6,25.7,25.7,0,0,0,8.762-.039,1.827,1.827,0,0,1,.645,3.6,29.251,29.251,0,0,1-5.135.455m-13.421-3.548a1.816,1.816,0,0,1-.9-.241,28.971,28.971,0,0,1-7.715-6.4,1.827,1.827,0,0,1,2.782-2.37,25.325,25.325,0,0,0,6.745,5.592,1.827,1.827,0,0,1-.907,3.414M98.745,135.293a1.828,1.828,0,0,1-1.712-1.189,28.828,28.828,0,0,1-1.817-9.857,1.827,1.827,0,0,1,3.654-.032,25.192,25.192,0,0,0,1.586,8.612,1.829,1.829,0,0,1-1.711,2.467m50.9-.226a1.829,1.829,0,0,1-1.717-2.451,25.213,25.213,0,0,0,1.51-8.629c0-.151,0-.3,0-.455a1.827,1.827,0,0,1,1.8-1.859h.032a1.827,1.827,0,0,1,1.826,1.8q0,.259,0,.518a28.856,28.856,0,0,1-1.729,9.876,1.828,1.828,0,0,1-1.718,1.2M98.579,116.793a1.829,1.829,0,0,1-1.723-2.436,28.828,28.828,0,0,1,4.928-8.73,1.827,1.827,0,1,1,2.823,2.32,25.171,25.171,0,0,0-4.3,7.626,1.829,1.829,0,0,1-1.723,1.22m50.9-.684a1.827,1.827,0,0,1-1.706-1.173,25.212,25.212,0,0,0-4.507-7.506,1.827,1.827,0,0,1,2.761-2.394,28.84,28.84,0,0,1,5.158,8.591,1.829,1.829,0,0,1-1.706,2.482M110.32,102.494a1.827,1.827,0,0,1-.935-3.4,28.705,28.705,0,0,1,9.378-3.547,1.827,1.827,0,0,1,.677,3.591,25.056,25.056,0,0,0-8.188,3.1,1.818,1.818,0,0,1-.932.257m27.04-.362a1.82,1.82,0,0,1-.89-.232,25.046,25.046,0,0,0-8.269-2.875,1.827,1.827,0,1,1,.58-3.608,28.681,28.681,0,0,1,9.472,3.293,1.827,1.827,0,0,1-.893,3.422" transform="translate(-69.833 -69.963)" fill="#fa4616"/>
    <path id="Контур_1011" data-name="Контур 1011" d="M61.742,3.654v9.871a59.9,59.9,0,0,1,15.568,6.852l7.5-7.5.4.4,9.856,9.856.4.4-7.2,7.2a60.04,60.04,0,0,1,3.737,7.991,60.136,60.136,0,0,1,2.778,7.767h10.2q0,7.252,0,14.5,0,.283,0,.566h-.012v.005H94.8a60.033,60.033,0,0,1-2.889,8.026,60.025,60.025,0,0,1-3.635,7.723l7.206,7.206L84.821,95.172l-7.5-7.5a59.881,59.881,0,0,1-15.568,6.851v9.871H47.887c0-.009,0-.019,0-.028H47Q47,99,47,93.626q-.444-.133-.9-.275a39.125,39.125,0,0,1-14.271-5.275l-.451-.175-.788.167-6.467,6.514h0l-.447.45-.293-.293L13.6,84.958l-.293-.293,4.97-4.935L20.612,77.4c-.957-2.4-1.9-4.961-2.8-7.669q-.159-.4-.311-.789c-1.32-2.629-2.494-5.174-3.545-7.617l-10.3.037V46.695h.012a.029.029,0,0,1,0,0l10.289.037c1.032-2.4,2.185-4.9,3.476-7.475q.2-.513.407-1.033c.033-.082.066-.16.1-.241.865-2.573,1.765-5.012,2.679-7.308l-5.563-5.563L13.32,23.384l.293-.293Q18.507,18.2,23.4,13.308l.293-.293,7.256,7.308c.274-.109.557-.217.835-.326A39.166,39.166,0,0,1,46.14,14.69q.437-.136.863-.263,0-5.369,0-10.739h.012v0h.859c0-.009,0-.018,0-.028Zm0-3.654H47.875a3.7,3.7,0,0,0-.454.028h-.406a3.662,3.662,0,0,0-3.666,3.659v7.806c-1.341.286-2.667.635-3.963,1.045a42.97,42.97,0,0,0-7.735,3.31L26.282,10.44A3.656,3.656,0,0,0,23.7,9.36h-.007a3.653,3.653,0,0,0-2.584,1.071l-.294.294q-4.888,4.894-9.781,9.781l-.148.148-.147.146a3.655,3.655,0,0,0,.009,5.177L12.479,27.7l3.869,3.869c-.64,1.689-1.253,3.4-1.834,5.125l-.064.156q-.188.464-.365.923c-.867,1.737-1.707,3.509-2.51,5.292l-7.9-.029H3.666A3.674,3.674,0,0,0,0,46.695V61.359a3.654,3.654,0,0,0,3.655,3.654h.013l7.905-.028c.827,1.838,1.692,3.66,2.582,5.438q.11.281.222.564c.616,1.842,1.274,3.688,1.965,5.511l-.648.648-4.961,4.925a3.655,3.655,0,0,0-.009,5.177l.146.146.147.147,4.193,4.193,5.59,5.591.146.146.146.146a3.654,3.654,0,0,0,2.585,1.071h.006a3.655,3.655,0,0,0,2.587-1.079l.447-.451.006-.007,4.924-4.959a42.993,42.993,0,0,0,7.75,3.318c1.291.408,2.613.756,3.951,1.042v7.814A3.654,3.654,0,0,0,47,108.02h.427a3.692,3.692,0,0,0,.457.028H61.753a3.654,3.654,0,0,0,3.654-3.655V97.233a63.688,63.688,0,0,0,6.979-2.747c1.473-.683,2.93-1.428,4.354-2.226l1.211,1.211,4.286,4.286a3.655,3.655,0,0,0,5.168,0l7.1-7.1L98.061,87.1a3.655,3.655,0,0,0,0-5.168l-5.294-5.293c.928-1.84,1.77-3.732,2.516-5.652.83-1.883,1.572-3.815,2.216-5.771h7.477a3.663,3.663,0,0,0,3.666-3.657V46.487a3.654,3.654,0,0,0-3.654-3.654h-7.5c-.612-1.856-1.314-3.7-2.1-5.495A63.919,63.919,0,0,0,92.765,31.4l5.285-5.285a3.654,3.654,0,0,0,0-5.167l-.281-.281-.12-.119-9.856-9.856-.254-.254-.146-.146a3.655,3.655,0,0,0-5.168,0l-5.5,5.5c-1.424-.8-2.881-1.543-4.354-2.226A63.668,63.668,0,0,0,65.4,10.816V3.654A3.654,3.654,0,0,0,61.742,0" fill="#fa4616"/>
    <path id="Контур_1012" data-name="Контур 1012" d="M232.148,217.122c-.089-2.013-1.215-3.915-3.443-5.814l-6.24-5.319c-10.316-8.8-20.984-17.891-31.543-26.761-1.527-1.283-1.779-1.993-1.349-3.8a18.6,18.6,0,0,0-4.026-16.527,18.013,18.013,0,0,0-15.534-6.113,1.827,1.827,0,0,0-1.1,3.127c1.071,1.044,2.106,2.049,3.115,3.03,2.292,2.226,4.456,4.329,6.593,6.447a7.88,7.88,0,0,1,1.053,1.181,8.357,8.357,0,0,1-1.113,1.266c-3.147,3.163-6.57,6.584-10.463,10.459a8.748,8.748,0,0,1-1.254,1.109,8.442,8.442,0,0,1-1.183-1.051q-1.245-1.244-2.488-2.491c-1.87-1.876-3.8-3.816-5.723-5.7-.042-.045-.081-.1-.122-.151a2.864,2.864,0,0,0-3.245-1.207,1.827,1.827,0,0,0-1.28,1.65,18.328,18.328,0,0,0,6.785,15.28,18.052,18.052,0,0,0,16.079,3.564c1.725-.445,2.432-.214,3.6,1.18,7.929,9.455,16.065,19,23.933,28.231q4.153,4.872,8.3,9.746c1.9,2.23,3.808,3.354,5.842,3.437.081,0,.161.005.241.005,1.968,0,3.914-.986,5.941-3.008l.648-.647c1.679-1.675,3.415-3.406,5.11-5.128,2.009-2.043,2.944-4.005,2.857-6" transform="translate(-112.055 -111.993)" fill="#fa4616"/>
  </g>
</svg>
