<svg id="Сгруппировать_580" data-name="Сгруппировать 580" xmlns="http://www.w3.org/2000/svg" xmlns:xlink="http://www.w3.org/1999/xlink" width="121.958" height="129.815" viewBox="0 0 121.958 129.815">
  <defs>
    <clipPath id="clip-path">
      <rect id="Прямоугольник_297" data-name="Прямоугольник 297" width="121.958" height="129.815" fill="none"/>
    </clipPath>
  </defs>
  <g id="Сгруппировать_579" data-name="Сгруппировать 579" clip-path="url(#clip-path)">
    <path id="Контур_921" data-name="Контур 921" d="M173.672,356.748c0,5.111-.256,5.277-5.339,5.755q-13.251,1.246-26.478,2.733c-1.3.143-1.9-.277-2.148-1.406-.346-1.576-.623-3.167-.933-4.751-.318-1.629.511-2.215,2-2.361,4.755-.465,9.5-.992,14.257-1.474q8.056-.818,16.116-1.6c2.513-.245,2.514-.233,2.521,2.356,0,.249,0,.5,0,.746" transform="translate(-96.886 -246.953)" fill="#fa4616"/>
    <path id="Контур_922" data-name="Контур 922" d="M168.2,410.611a15.929,15.929,0,0,1-10.706-3.737c-.554-.468-1.455-.934-1.3-1.687.181-.87,1.253-.63,1.912-.7,5.3-.6,10.614-1.113,15.922-1.663,2.161-.224,4.317-.492,6.478-.7.6-.057,1.423-.338,1.758.2.375.6-.358,1.119-.732,1.565-3.636,4.328-8.229,6.7-13.334,6.728" transform="translate(-109.091 -280.797)" fill="#fa4616"/>
    <path id="Контур_923" data-name="Контур 923" d="M20.887,190.1,7,190.054" transform="translate(-4.89 -132.754)" fill="#fa4616"/>
    <path id="Контур_924" data-name="Контур 924" d="M16,187.317H15.99L2.1,187.274a2.11,2.11,0,0,1,.006-4.221h.007L16,183.1A2.11,2.11,0,0,1,16,187.317" transform="translate(0 -127.863)" fill="#fa4616"/>
    <path id="Контур_925" data-name="Контур 925" d="M68.6,51.867l-9.789-9.849" transform="translate(-41.078 -29.35)" fill="#fa4616"/>
    <path id="Контур_926" data-name="Контур 926" d="M62.214,48.471l0,0-9.789-9.849a2.11,2.11,0,0,1,2.989-2.98l0,0L65.2,45.491a2.11,2.11,0,0,1-2.989,2.98" transform="translate(-36.188 -24.461)" fill="#fa4616"/>
    <path id="Контур_927" data-name="Контур 927" d="M351.452,190.1l13.886-.043" transform="translate(-245.491 -132.754)" fill="#fa4616"/>
    <path id="Контур_928" data-name="Контур 928" d="M346.562,187.317h.006l13.886-.043a2.11,2.11,0,0,0-.006-4.221h-.007l-13.886.043a2.11,2.11,0,0,0,.006,4.221" transform="translate(-240.601 -127.863)" fill="#fa4616"/>
    <path id="Контур_929" data-name="Контур 929" d="M313.234,51.867l9.789-9.849" transform="translate(-218.795 -29.35)" fill="#fa4616"/>
    <path id="Контур_930" data-name="Контур 930" d="M309.837,48.471l0,0,9.789-9.849a2.11,2.11,0,0,0-2.989-2.98l0,0-9.789,9.849a2.11,2.11,0,0,0,2.989,2.98" transform="translate(-213.906 -24.461)" fill="#fa4616"/>
    <path id="Контур_931" data-name="Контур 931" d="M200.884,20.886q.021-6.943.043-13.886" transform="translate(-140.318 -4.89)" fill="#fa4616"/>
    <path id="Контур_932" data-name="Контур 932" d="M193.884,16v-.006L193.927,2.1a2.11,2.11,0,0,1,4.221.006v.007L198.1,16A2.11,2.11,0,0,1,193.884,16" transform="translate(-135.429 0.001)" fill="#fa4616"/>
    <path id="Контур_933" data-name="Контур 933" d="M251.983,93.976a1.949,1.949,0,0,1-1.03-.294c-.923-.571-1.888-1.107-2.868-1.593a1.96,1.96,0,1,1,1.741-3.512c1.09.54,2.164,1.137,3.19,1.772a1.96,1.96,0,0,1-1.033,3.626" transform="translate(-172.527 -61.729)" fill="#fa4616"/>
    <path id="Контур_934" data-name="Контур 934" d="M248.188,174.822a1.96,1.96,0,0,1-.966-3.665c.512-.762,1.045-1.525,1.589-2.274.621-.855,1.231-1.654,1.863-2.444a1.96,1.96,0,0,1,3.06,2.449c-.594.742-1.167,1.494-1.753,2.3-.641.881-1.265,1.782-1.854,2.677a1.96,1.96,0,0,1-1.17.826l-.31.076a1.967,1.967,0,0,1-.46.055m8.325-10.247a1.959,1.959,0,0,1-1.5-3.225c.276-.326.557-.664.845-1.02v0c.014-.017,1.409-1.741,3.042-4.12a1.96,1.96,0,0,1,3.232,2.218c-.9,1.307-1.724,2.422-2.259,3.126-.3.388-.535.7-.7.909-.075.095-.167.212-.277.333l.008.006c-.306.377-.6.735-.9,1.081a1.955,1.955,0,0,1-1.5.695m7.475-10.964a1.96,1.96,0,0,1-1.731-2.875,39.48,39.48,0,0,0,2.506-5.805,1.96,1.96,0,1,1,3.714,1.25,43.37,43.37,0,0,1-2.754,6.384,1.959,1.959,0,0,1-1.735,1.046m4.149-12.553a1.962,1.962,0,0,1-1.946-2.212q.025-.19.048-.381a28.963,28.963,0,0,0,.194-3.336c0-.824-.036-1.662-.106-2.492a1.96,1.96,0,0,1,3.905-.334c.08.941.121,1.892.121,2.827a32.837,32.837,0,0,1-.22,3.792c-.017.144-.035.286-.053.428a1.96,1.96,0,0,1-1.941,1.708m-1.091-13.144a1.96,1.96,0,0,1-1.88-1.41,35.785,35.785,0,0,0-2.3-5.855,1.96,1.96,0,1,1,3.51-1.744,39.734,39.734,0,0,1,2.554,6.5,1.961,1.961,0,0,1-1.882,2.51m-5.862-11.859a1.957,1.957,0,0,1-1.586-.807c-.592-.813-1.072-1.4-1.371-1.748a33.016,33.016,0,0,0-2.8-2.89,1.96,1.96,0,0,1,2.641-2.9,37.052,37.052,0,0,1,3.137,3.234c.5.578,1.037,1.267,1.566,1.994a1.96,1.96,0,0,1-1.583,3.113" transform="translate(-171.992 -74.882)" fill="#fa4616"/>
    <path id="Контур_935" data-name="Контур 935" d="M215.182,327.021a1.96,1.96,0,0,1-.195-3.91c.786-.079,1.578-.172,2.354-.276q.5-.067,1-.141a1.96,1.96,0,1,1,.575,3.877q-.521.077-1.051.148c-.817.11-1.653.208-2.481.292-.067.007-.133.01-.2.01" transform="translate(-148.938 -225.389)" fill="#fa4616"/>
    <path id="Контур_936" data-name="Контур 936" d="M104.739,134.457a14.52,14.52,0,0,1,14.021,14.707,14.272,14.272,0,0,1-11,13.763,46.956,46.956,0,0,0,5,7.263,32.2,32.2,0,0,1,2.186,2.974,7.129,7.129,0,0,1,.811-.27,2.927,2.927,0,0,1,2.34.007c1.618.834,3.3,1.544,4.918,2.376a1.989,1.989,0,0,0,2.494-.223,39.043,39.043,0,0,0,5.6-5.787,1.78,1.78,0,0,0,.169-2.171,25.347,25.347,0,0,0-1.464-2.869,5.535,5.535,0,0,1-.369-6.616,2.556,2.556,0,0,1,1.448-1.38c1.8-.611,3.577-1.3,5.38-1.911a2.055,2.055,0,0,0,1.542-2c.145-2.234.06-4.465-.01-6.7-.057-1.808-.731-2.966-2.65-3.25-.724-.108-1.394-.592-2.117-.689A5.453,5.453,0,0,1,128.2,137.3a2.57,2.57,0,0,1,.039-2.01c.827-1.668,1.582-3.373,2.436-5.027a2.1,2.1,0,0,0-.3-2.614,40.412,40.412,0,0,0-5.618-5.422,1.961,1.961,0,0,0-2.4-.2,28.2,28.2,0,0,0-2.525,1.325c-2.209,1.561-4.414,1.92-6.845.468a2.647,2.647,0,0,1-1.382-1.407c-.5.557-.961,1.107-1.38,1.643a33.9,33.9,0,0,0-5.487,10.4" transform="translate(-73.161 -85.015)" fill="#fa4616"/>
    <path id="Контур_937" data-name="Контур 937" d="M98.15,152.912a7.021,7.021,0,0,1-.708.04c-.892,0-1.192,0-1.689-1.6A37.046,37.046,0,0,0,89,138.409a40.372,40.372,0,0,1-9.386-20.14,34.632,34.632,0,0,1,6.85-25.992,30.306,30.306,0,0,1,21.574-11.629c1.505-.143,3-.216,4.433-.216a36.959,36.959,0,0,1,10.042,1.329,2.128,2.128,0,1,0,1.413-3.995,41,41,0,0,0-11.455-1.555q-2.363,0-4.832.235c-23.269,2.214-34.975,23.9-32.2,42.448A44.821,44.821,0,0,0,85.754,141.1a32.964,32.964,0,0,1,5.968,11.5c.977,3.148,2.729,4.569,5.72,4.569a11.165,11.165,0,0,0,1.14-.062q7.628-.785,15.257-1.559a2.13,2.13,0,0,0-.678-4.174c-4.99.507-10.027,1.021-15.011,1.534" transform="translate(-52.417 -53.234)" fill="#fa4616"/>
  </g>
</svg>
