<svg xmlns="http://www.w3.org/2000/svg" viewBox="0 0 396.34 387.08"><defs><style>.cls-1{fill:#fa4616;}.cls-2{fill:#002234;}</style></defs><title>icon-cloud-solutions</title><g id="Слой_2" data-name="Слой 2"><g id="Layer_1" data-name="Layer 1"><path class="cls-1" d="M121.88,213.18a5,5,0,0,1-5-5v-8a5,5,0,0,1,10,0v8A5,5,0,0,1,121.88,213.18Z"/><path class="cls-1" d="M121.88,319.17a5,5,0,0,1-5-5V296.5a5,5,0,0,1,10,0v17.67A5,5,0,0,1,121.88,319.17Zm0-35.33a5,5,0,0,1-5-5V261.17a5,5,0,0,1,10,0v17.67A5,5,0,0,1,121.88,283.84Zm0-35.33a5,5,0,0,1-5-5V225.85a5,5,0,0,1,10,0v17.66A5,5,0,0,1,121.88,248.51Z"/><path class="cls-1" d="M121.88,344.83h-8a5,5,0,0,1,0-10h3v-3a5,5,0,0,1,10,0v8A5,5,0,0,1,121.88,344.83Z"/><path class="cls-1" d="M94.24,344.83H74.6a5,5,0,1,1,0-10H94.24a5,5,0,1,1,0,10Z"/><path class="cls-1" d="M55,344.83H47a5,5,0,1,1,0-10h8a5,5,0,0,1,0,10Z"/><path class="cls-1" d="M275,213.18a5,5,0,0,1-5-5v-8a5,5,0,0,1,10,0v8A5,5,0,0,1,275,213.18Z"/><path class="cls-1" d="M275,319.17a5,5,0,0,1-5-5V296.5a5,5,0,0,1,10,0v17.67A5,5,0,0,1,275,319.17Zm0-35.33a5,5,0,0,1-5-5V261.17a5,5,0,0,1,10,0v17.67A5,5,0,0,1,275,283.84Zm0-35.33a5,5,0,0,1-5-5V225.85a5,5,0,0,1,10,0v17.66A5,5,0,0,1,275,248.51Z"/><path class="cls-1" d="M283,344.83h-8a5,5,0,0,1-5-5v-8a5,5,0,1,1,10,0v3h3a5,5,0,0,1,0,10Z"/><path class="cls-1" d="M322.28,344.83H302.64a5,5,0,0,1,0-10h19.64a5,5,0,0,1,0,10Z"/><path class="cls-1" d="M349.93,344.83h-8a5,5,0,0,1,0-10h8a5,5,0,0,1,0,10Z"/><path class="cls-1" d="M70.19,203v53.46H46.91a5.68,5.68,0,1,0,0,11.35h29a5.67,5.67,0,0,0,5.67-5.67v-59.4C77.76,202.94,74,203.09,70.19,203Z"/><path class="cls-1" d="M349.26,256.49H326v-54.8a110.21,110.21,0,0,0-11.35.45v60a5.67,5.67,0,0,0,5.67,5.67h29a5.68,5.68,0,1,0,0-11.35Z"/><path class="cls-1" d="M192.41,204V339.82a5.68,5.68,0,1,0,11.35,0V204.3A75.31,75.31,0,0,1,192.41,204Z"/><path class="cls-1" d="M337.72,205.18H57.43l-.57,0C34,202.49,15.23,187.72,9,167.54c-7-22.79,4.87-42.22,10.33-49.52C31,102.35,47.1,96.81,56,94.87,59.09,82.61,66.77,63,85.84,48.77c6.19-4.63,20.7-15.44,41.4-14.64,16.74.65,29.27,8.47,36.55,14.55C180.13,18.88,211,0,244.14,0h.31a89.84,89.84,0,0,1,76.61,43.39C332.47,62.52,334,81.93,333.24,94.65c8.82-.85,21.15-.15,32.62,7.13,21.69,13.78,29.87,45.4,18.23,70.48-12.48,26.88-42.23,32.33-45.58,32.86A5.25,5.25,0,0,1,337.72,205.18Zm-280-10H337.31c4.16-.72,27.77-5.72,37.71-27.13,9.45-20.35,2.79-46.83-14.52-57.82-11.75-7.46-25-6.2-31.8-4.79a5,5,0,0,1-6-5.53c1.34-10.52,1.79-31.19-10.26-51.4A79.81,79.81,0,0,0,244.41,10h-.27c-31.49,0-60.65,19.19-74.33,49a5,5,0,0,1-8.16,1.36c-4.44-4.63-16.71-15.5-34.8-16.2-17.16-.67-29.24,8.33-35,12.66C73.58,70.39,67.22,89.83,65.06,100.2a5,5,0,0,1-4.13,3.92c-6.38,1-22.42,4.92-33.61,19.89-4.54,6.07-14.48,22.17-8.79,40.57C23.58,180.91,39,192.89,57.73,195.18Z"/><path class="cls-2" d="M25.15,238.68a25.15,25.15,0,1,0,25.16,25.15A25.18,25.18,0,0,0,25.15,238.68Z"/><path class="cls-2" d="M371.18,238.68a25.15,25.15,0,1,0,25.16,25.15A25.18,25.18,0,0,0,371.18,238.68Z"/><path class="cls-2" d="M43.1,316.43a25.16,25.16,0,1,0,25.15,25.16A25.19,25.19,0,0,0,43.1,316.43Z"/><path class="cls-2" d="M353.24,316.43a25.16,25.16,0,1,0,25.15,25.16A25.19,25.19,0,0,0,353.24,316.43Z"/><path class="cls-2" d="M198.17,336.77a25.16,25.16,0,1,0,25.15,25.15A25.18,25.18,0,0,0,198.17,336.77Z"/></g></g></svg>