<svg xmlns="http://www.w3.org/2000/svg" viewBox="0 0 406.93 401.38"><defs><style>.cls-1{fill:#002234;}.cls-2{fill:#fa4616;}.cls-3{fill:#0d2333;}</style></defs><title>icon-managed-detection</title><g id="Слой_2" data-name="Слой 2"><g id="Layer_1" data-name="Layer 1"><path class="cls-1" d="M32.29,292.75A26.85,26.85,0,1,0,59.14,319.6,26.87,26.87,0,0,0,32.29,292.75Z"/><path class="cls-1" d="M32.29,97.58a26.85,26.85,0,1,0,26.85,26.85A26.88,26.88,0,0,0,32.29,97.58Z"/><path class="cls-1" d="M201.35,0a26.85,26.85,0,1,0,26.84,26.84A26.87,26.87,0,0,0,201.35,0Z"/><path class="cls-1" d="M373.15,97.58A26.85,26.85,0,1,0,400,124.43,26.89,26.89,0,0,0,373.15,97.58Z"/><path class="cls-1" d="M373.15,291.38A26.84,26.84,0,1,0,400,318.22,26.88,26.88,0,0,0,373.15,291.38Z"/><path class="cls-2" d="M394.28,270.57a5.15,5.15,0,0,1-1.54-.24,5,5,0,0,1-3.22-6.29A154.25,154.25,0,0,0,394,246.7a5,5,0,1,1,9.81,1.94A165,165,0,0,1,399,267.1,5,5,0,0,1,394.28,270.57Zm7.16-36.22H401a5,5,0,0,1-4.59-5.38c.23-2.89.38-5.82.45-8.72,0-1.15,0-2.31,0-3.45,0-1.9,0-3.83-.1-5.74a5,5,0,1,1,10-.37c.08,2,.11,4.08.11,6.11,0,1.21,0,2.45,0,3.68-.07,3.08-.22,6.2-.47,9.28A5,5,0,0,1,401.44,234.35Zm-1.38-36.89a5,5,0,0,1-4.94-4.24,153.11,153.11,0,0,0-3.32-15.87,5,5,0,1,1,9.67-2.56A161.61,161.61,0,0,1,405,191.7a5,5,0,0,1-4.17,5.7A5.09,5.09,0,0,1,400.06,197.46Z"/><path class="cls-2" d="M10.29,270.57a5,5,0,0,1-4.83-3.72,168.05,168.05,0,0,1-3.53-16.91,5,5,0,1,1,9.88-1.53,156,156,0,0,0,3.32,15.88,5,5,0,0,1-3.55,6.11A4.77,4.77,0,0,1,10.29,270.57Zm-5.18-34.8a5,5,0,0,1-5-4.81c-.07-2-.11-4.09-.11-6.11,0-1.22,0-2.46,0-3.68.07-3.08.23-6.21.47-9.28a5,5,0,1,1,10,.79c-.23,2.89-.38,5.82-.44,8.72,0,1.14,0,2.3,0,3.45,0,1.9,0,3.83.11,5.73a5,5,0,0,1-4.81,5.19ZM8,199a4.73,4.73,0,0,1-1-.1A5,5,0,0,1,3.12,193,165.79,165.79,0,0,1,7.9,174.53a5,5,0,0,1,9.52,3.07,152.17,152.17,0,0,0-4.49,17.34A5,5,0,0,1,8,199Z"/><path class="cls-2" d="M337.08,81.21a5,5,0,0,1-3.7-1.64,156,156,0,0,0-12.81-12.52,5,5,0,0,1,6.56-7.54,163.47,163.47,0,0,1,13.64,13.33,5,5,0,0,1-3.69,8.37ZM309.22,57a5,5,0,0,1-2.82-.88c-2.39-1.63-4.86-3.22-7.34-4.72s-5.31-3.1-8-4.51A5,5,0,1,1,295.7,38c2.88,1.51,5.74,3.13,8.53,4.81,2.64,1.6,5.27,3.29,7.81,5A5,5,0,0,1,309.22,57ZM276.54,39.81a5.16,5.16,0,0,1-1.8-.33,155,155,0,0,0-15.42-5,5,5,0,1,1,2.59-9.65,162.94,162.94,0,0,1,16.42,5.34,5,5,0,0,1-1.79,9.67Z"/><path class="cls-2" d="M67.67,81.21A5,5,0,0,1,64,72.84,166.6,166.6,0,0,1,77.61,59.51a5,5,0,1,1,6.56,7.54,154.35,154.35,0,0,0-12.8,12.52A5,5,0,0,1,67.67,81.21ZM95.53,57a5,5,0,0,1-2.83-9.13c2.54-1.74,5.17-3.43,7.82-5s5.65-3.3,8.52-4.81a5,5,0,0,1,4.65,8.86c-2.7,1.41-5.39,2.93-8,4.51s-5,3.09-7.35,4.72A5,5,0,0,1,95.53,57Zm32.68-17.17a5,5,0,0,1-1.8-9.67,163.12,163.12,0,0,1,16.43-5.34,5,5,0,1,1,2.59,9.65,154.35,154.35,0,0,0-15.43,5A5.14,5.14,0,0,1,128.21,39.81Z"/><path class="cls-3" d="M320.85,185.41a104.54,104.54,0,1,0-194.33,69.15c4.19,8.88,8.33,14.91,12.56,18.29.53.43,1,.87,1.55,1.34,1.48,1.61,3,3.18,4.57,4.69a69.27,69.27,0,0,0,5.87,5.88,3.24,3.24,0,0,1-2.94,1.58c-8.07,0-12.47,4.85-15.71,9.59-15.35,22.46-31.23,45.13-46.59,67.05l-9,12.92h0A5.16,5.16,0,0,0,78.22,384c7.32,5,14.91,10.26,23.2,16.14a5.56,5.56,0,0,0,4.21,1.2h0a5.66,5.66,0,0,0,3.58-2.6c21.78-31.33,43.25-62.09,59.52-85.38a7,7,0,0,0,1.22-5.73c-.14-.63-.24-1.32-.34-2.06a22.72,22.72,0,0,0-.91-4.25,3.92,3.92,0,0,1,.49-3.85,113.3,113.3,0,0,0,19.45,8.67l.28.08,5,1.31c2.37.57,4.79,1.06,7.21,1.46h0l.6.09a120.32,120.32,0,0,0,26.82.88q3.28-.31,6.63-.92c21.87-3.9,45.17-16.6,59.69-32.9A113.63,113.63,0,0,0,305,262.7c.6-.95,1.18-1.91,1.75-2.88a4,4,0,0,0,.65-1.88A104.12,104.12,0,0,0,320.85,185.41ZM218.68,284a80.15,80.15,0,1,1,80.15-80.15A80.14,80.14,0,0,1,218.68,284Z"/></g></g></svg>