<svg xmlns="http://www.w3.org/2000/svg" xmlns:xlink="http://www.w3.org/1999/xlink" width="134.15" height="126.223" viewBox="0 0 134.15 126.223">
  <defs>
    <clipPath id="clip-path">
      <rect id="Прямоугольник_291" data-name="Прямоугольник 291" width="134.15" height="126.223" fill="none"/>
    </clipPath>
  </defs>
  <g id="Сгруппировать_568" data-name="Сгруппировать 568" transform="translate(-325.234 -306.016)">
    <g id="Сгруппировать_567" data-name="Сгруппировать 567" transform="translate(325.234 306.016)" clip-path="url(#clip-path)">
      <path id="Контур_860" data-name="Контур 860" d="M367.255,134.431a1.8,1.8,0,0,0-1.795,1.795v8.394a1.788,1.788,0,0,0,.413,1.145,4.8,4.8,0,0,0-.413,2.015v11.2a1.795,1.795,0,1,0,3.59,0v-11.2a4.8,4.8,0,0,0-.412-2.015,1.788,1.788,0,0,0,.412-1.145v-8.394a1.8,1.8,0,0,0-1.795-1.795" transform="translate(-256.137 -94.217)" fill="#fa4616"/>
      <path id="Контур_861" data-name="Контур 861" d="M134.3,36.838h-5.085a1.795,1.795,0,0,1,0-3.59H134.3a1.795,1.795,0,1,1,0,3.59" transform="translate(-89.307 -23.302)" fill="#fa4616"/>
      <path id="Контур_862" data-name="Контур 862" d="M67.255,41.923a1.8,1.8,0,0,1-1.795-1.795V35.043a1.8,1.8,0,0,1,1.795-1.795H72.34a1.795,1.795,0,0,1,0,3.59H69.05v3.291a1.8,1.8,0,0,1-1.795,1.795" transform="translate(-45.878 -23.302)" fill="#fa4616"/>
      <path id="Контур_863" data-name="Контур 863" d="M67.255,134.431a1.8,1.8,0,0,0-1.795,1.795v8.394a1.788,1.788,0,0,0,.413,1.145,4.8,4.8,0,0,0-.413,2.015v11.2a1.795,1.795,0,0,0,3.59,0v-11.2a4.8,4.8,0,0,0-.413-2.015,1.788,1.788,0,0,0,.413-1.145v-8.394a1.8,1.8,0,0,0-1.795-1.795" transform="translate(-45.878 -94.217)" fill="#fa4616"/>
      <path id="Контур_864" data-name="Контур 864" d="M67.255,78.309A1.8,1.8,0,0,0,65.46,80.1V88.5a1.795,1.795,0,1,0,3.59,0V80.1a1.8,1.8,0,0,0-1.795-1.795" transform="translate(-45.878 -54.884)" fill="#fa4616"/>
      <path id="Контур_865" data-name="Контур 865" d="M293.091,36.838h-5.085a1.795,1.795,0,0,1,0-3.59h5.085a1.795,1.795,0,0,1,0,3.59" transform="translate(-200.594 -23.302)" fill="#fa4616"/>
      <path id="Контур_866" data-name="Контур 866" d="M355.055,41.923a1.8,1.8,0,0,1-1.795-1.795V36.838H349.97a1.795,1.795,0,1,1,0-3.59h5.085a1.8,1.8,0,0,1,1.795,1.795v5.085a1.8,1.8,0,0,1-1.795,1.795" transform="translate(-244.022 -23.302)" fill="#fa4616"/>
      <path id="Контур_867" data-name="Контур 867" d="M366.97,107.081a1.8,1.8,0,0,1-1.795-1.795V96.892a1.795,1.795,0,0,1,3.59,0v8.394a1.8,1.8,0,0,1-1.795,1.795m0-16.788a1.8,1.8,0,0,1-1.795-1.795V80.1a1.795,1.795,0,0,1,3.59,0V88.5a1.8,1.8,0,0,1-1.795,1.795" transform="translate(-255.937 -54.884)" fill="#fa4616"/>
      <path id="Контур_868" data-name="Контур 868" d="M.826,362.916l14.7-8.279a1.627,1.627,0,0,1,2.408,1.187,5.188,5.188,0,0,0,.5,1.6,3.989,3.989,0,0,0,1.118,1.471,4.277,4.277,0,0,0,1.768.769,5.959,5.959,0,0,0,1.072.159,5.886,5.886,0,0,0,1.124-.159,4.277,4.277,0,0,0,1.768-.769,3.988,3.988,0,0,0,1.118-1.471,5.191,5.191,0,0,0,.5-1.6,1.626,1.626,0,0,1,2.408-1.186l14.7,8.279a1.626,1.626,0,0,1,.512,2.379,15.457,15.457,0,0,1-2.025,2.255,18.4,18.4,0,0,1-1.884,1.484,28.14,28.14,0,0,1-3,1.955,23.17,23.17,0,0,1-3.87,1.633,33.058,33.058,0,0,1-5.261,1.5,28.529,28.529,0,0,1-3.1.405l-.1,0a1.673,1.673,0,0,1-1.125-.432,1.623,1.623,0,0,1-.537-1.141,1.656,1.656,0,0,1,1.345-1.656l.106-.013a25.1,25.1,0,0,0,2.813-.363,29.117,29.117,0,0,0,4.627-1.322l.158-.055a20.649,20.649,0,0,0,3.381-1.415,25.283,25.283,0,0,0,2.682-1.753,15.845,15.845,0,0,0,1.574-1.234q.2-.179.388-.371l-11.195-6.3q-.091.209-.193.41a7.119,7.119,0,0,1-2.012,2.565,7.364,7.364,0,0,1-3.009,1.373,9.214,9.214,0,0,1-1.8.251h-.06l-.1,0a9.056,9.056,0,0,1-1.772-.249,7.371,7.371,0,0,1-3.009-1.373,7.129,7.129,0,0,1-2.012-2.565c-.068-.134-.132-.271-.192-.41l-11.193,6.3c.106.106.215.212.331.32l.054.058a1.63,1.63,0,0,1-2.3,2.3l-.046-.042a14.82,14.82,0,0,1-1.95-2.235,1.7,1.7,0,0,1-.2-1.188,1.627,1.627,0,0,1,.792-1.074" transform="translate(0 -248.405)" fill="#fa4616"/>
      <path id="Контур_869" data-name="Контур 869" d="M56.087,268.52a21.7,21.7,0,0,0,1.161-13.277,10.507,10.507,0,0,0-6.738-7.951,16.448,16.448,0,0,0-9.254-.611,10.735,10.735,0,0,0-8.864,8.614,20.8,20.8,0,0,0-.21,8.262,22.526,22.526,0,0,0,.854,3.557l.02.055c.3.764.641,1.527,1,2.268.285.584.593,1.169.916,1.738a14.734,14.734,0,0,0,1.094,1.556c.2.252.379.449.668.772l.141.158c.006.007.8.9,1.177,1.274a9.164,9.164,0,0,0,4.915,2.36,10.246,10.246,0,0,0,1.874.173h.12a10.626,10.626,0,0,0,6-2.043,11.719,11.719,0,0,0,3.767-4.387,19.315,19.315,0,0,0,1.354-2.517m-2.963-1.111a16.128,16.128,0,0,1-1.169,2.161l-.079.138a8.513,8.513,0,0,1-2.764,3.265,7.5,7.5,0,0,1-4.186,1.46,6.671,6.671,0,0,1-1.348-.115,6,6,0,0,1-3.235-1.473c-.158-.157-.436-.46-.649-.694l-.414-.459q-.364-.389-.688-.79c-.281-.349-.549-.715-.794-1.087-.291-.5-.574-1.034-.828-1.566a21.581,21.581,0,0,1-1.157-2.984,20.482,20.482,0,0,1-.427-2.008,17.2,17.2,0,0,1,.159-6.989,7.622,7.622,0,0,1,6.353-6.2A15.808,15.808,0,0,1,45,249.741a11.96,11.96,0,0,1,4.348.789,7.431,7.431,0,0,1,4.734,5.647,18.455,18.455,0,0,1-.962,11.232" transform="translate(-22.337 -172.618)" fill="#fa4616"/>
      <path id="Контур_870" data-name="Контур 870" d="M346.713,365.529l-14.126-7.953a1.563,1.563,0,0,0-2.313,1.14,4.982,4.982,0,0,1-.481,1.537,3.833,3.833,0,0,1-1.075,1.414,4.108,4.108,0,0,1-1.7.739,5.686,5.686,0,0,1-1.03.153,5.62,5.62,0,0,1-1.08-.153,4.107,4.107,0,0,1-1.7-.739,3.829,3.829,0,0,1-1.074-1.414,4.994,4.994,0,0,1-.482-1.537,1.562,1.562,0,0,0-2.313-1.14l-14.126,7.954a1.563,1.563,0,0,0-.492,2.286,14.862,14.862,0,0,0,1.946,2.166,17.67,17.67,0,0,0,1.81,1.426,26.99,26.99,0,0,0,2.885,1.878,22.222,22.222,0,0,0,3.718,1.569,31.775,31.775,0,0,0,5.054,1.446,27.39,27.39,0,0,0,2.979.389l.1,0a1.607,1.607,0,0,0,1.081-.415,1.56,1.56,0,0,0,.516-1.1,1.592,1.592,0,0,0-1.292-1.591l-.1-.013a24.03,24.03,0,0,1-2.7-.349,27.943,27.943,0,0,1-4.445-1.269l-.152-.054a19.819,19.819,0,0,1-3.249-1.36,24.271,24.271,0,0,1-2.577-1.684,15.2,15.2,0,0,1-1.512-1.185q-.189-.172-.373-.356l10.755-6.055q.087.2.185.395a6.84,6.84,0,0,0,1.933,2.463,7.076,7.076,0,0,0,2.891,1.319,8.875,8.875,0,0,0,1.732.241h.057l.1,0a8.7,8.7,0,0,0,1.7-.239,7.083,7.083,0,0,0,2.891-1.319,6.844,6.844,0,0,0,1.933-2.464q.1-.194.185-.394l10.753,6.054q-.153.153-.318.308l-.052.056a1.566,1.566,0,0,0,2.208,2.208l.044-.04a14.2,14.2,0,0,0,1.873-2.147,1.631,1.631,0,0,0,.2-1.142,1.562,1.562,0,0,0-.761-1.032" transform="translate(-213.357 -250.47)" fill="#fa4616"/>
      <path id="Контур_871" data-name="Контур 871" d="M337.524,277.232a11.257,11.257,0,0,0,3.619,4.215,10.207,10.207,0,0,0,5.767,1.963h.116a9.843,9.843,0,0,0,1.8-.166,8.8,8.8,0,0,0,4.721-2.267c.363-.361,1.125-1.217,1.131-1.224l.135-.152c.278-.31.446-.5.642-.741a14.217,14.217,0,0,0,1.051-1.5c.31-.547.605-1.109.88-1.67.348-.712.672-1.445.963-2.179l.019-.054a21.628,21.628,0,0,0,.821-3.417,19.983,19.983,0,0,0-.2-7.937,10.314,10.314,0,0,0-8.516-8.275,15.805,15.805,0,0,0-8.89.587,10.1,10.1,0,0,0-6.473,7.639,20.845,20.845,0,0,0,1.115,12.755,18.583,18.583,0,0,0,1.3,2.418m.182-10.8a17.521,17.521,0,0,1,.44-3.465,7.14,7.14,0,0,1,4.548-5.425,11.492,11.492,0,0,1,4.177-.758,15.172,15.172,0,0,1,2.984.315,7.322,7.322,0,0,1,6.1,5.955,16.523,16.523,0,0,1,.152,6.714c-.105.653-.245,1.308-.41,1.929a20.758,20.758,0,0,1-1.112,2.866c-.243.511-.515,1.024-.8,1.5-.236.358-.493.71-.763,1.045q-.311.386-.661.759l-.4.441c-.2.225-.473.516-.624.667a5.765,5.765,0,0,1-3.108,1.415,6.391,6.391,0,0,1-1.3.111,7.2,7.2,0,0,1-4.021-1.4,8.177,8.177,0,0,1-2.655-3.137l-.076-.132a15.478,15.478,0,0,1-1.123-2.076,17.383,17.383,0,0,1-1.364-7.325" transform="translate(-234.497 -177.643)" fill="#fa4616"/>
      <path id="Контур_872" data-name="Контур 872" d="M152.779,112.068l14.126-7.954a1.563,1.563,0,0,1,2.313,1.14,4.982,4.982,0,0,0,.481,1.537,3.834,3.834,0,0,0,1.075,1.414,4.109,4.109,0,0,0,1.7.739,5.684,5.684,0,0,0,1.03.153,5.619,5.619,0,0,0,1.08-.153,4.108,4.108,0,0,0,1.7-.739,3.829,3.829,0,0,0,1.074-1.414,4.994,4.994,0,0,0,.482-1.537,1.562,1.562,0,0,1,2.313-1.14l14.126,7.954a1.563,1.563,0,0,1,.492,2.286,14.865,14.865,0,0,1-1.946,2.166,17.684,17.684,0,0,1-1.81,1.426,27,27,0,0,1-2.885,1.878,22.227,22.227,0,0,1-3.718,1.569,31.78,31.78,0,0,1-5.054,1.446,27.384,27.384,0,0,1-2.979.389l-.1,0a1.607,1.607,0,0,1-1.081-.415,1.56,1.56,0,0,1-.516-1.1,1.592,1.592,0,0,1,1.292-1.591l.1-.013a24.024,24.024,0,0,0,2.7-.349,27.944,27.944,0,0,0,4.445-1.269l.152-.054a19.821,19.821,0,0,0,3.249-1.36A24.263,24.263,0,0,0,189.2,115.4a15.191,15.191,0,0,0,1.512-1.185q.189-.172.373-.356L180.33,107.8q-.088.2-.185.395a6.841,6.841,0,0,1-1.933,2.463,7.076,7.076,0,0,1-2.891,1.319,8.874,8.874,0,0,1-1.732.241h-.057l-.1,0a8.7,8.7,0,0,1-1.7-.239,7.082,7.082,0,0,1-2.891-1.319,6.844,6.844,0,0,1-1.933-2.464q-.1-.194-.185-.394l-10.753,6.054q.153.153.318.308l.052.056a1.566,1.566,0,0,1-2.208,2.208l-.044-.04a14.2,14.2,0,0,1-1.874-2.147,1.631,1.631,0,0,1-.2-1.142,1.562,1.562,0,0,1,.761-1.032" transform="translate(-106.521 -72.829)" fill="#fa4616"/>
      <path id="Контур_873" data-name="Контур 873" d="M205.867,21.351A20.844,20.844,0,0,0,206.982,8.6,10.094,10.094,0,0,0,200.509.957a15.8,15.8,0,0,0-8.89-.587A10.313,10.313,0,0,0,183.1,8.645a19.983,19.983,0,0,0-.2,7.938A21.648,21.648,0,0,0,183.722,20l.019.053c.292.734.616,1.467.963,2.179.274.561.57,1.123.88,1.67a14.134,14.134,0,0,0,1.051,1.5c.2.242.364.431.642.742l.136.152c.006.007.768.863,1.13,1.224a8.8,8.8,0,0,0,4.722,2.267,9.837,9.837,0,0,0,1.8.166h.116a10.209,10.209,0,0,0,5.767-1.963,11.26,11.26,0,0,0,3.619-4.215,18.565,18.565,0,0,0,1.3-2.418m-2.846-1.058a15.486,15.486,0,0,1-1.123,2.076l-.076.132a8.177,8.177,0,0,1-2.655,3.137,7.2,7.2,0,0,1-4.021,1.4,6.391,6.391,0,0,1-1.3-.111,5.765,5.765,0,0,1-3.108-1.415c-.151-.151-.419-.442-.624-.667l-.4-.441c-.234-.249-.454-.5-.661-.759-.27-.335-.527-.687-.763-1.045-.28-.481-.552-.994-.8-1.5a20.751,20.751,0,0,1-1.111-2.866c-.165-.62-.305-1.276-.41-1.929a16.524,16.524,0,0,1,.152-6.714,7.322,7.322,0,0,1,6.1-5.955,15.174,15.174,0,0,1,2.984-.315,11.491,11.491,0,0,1,4.177.758A7.14,7.14,0,0,1,203.945,9.5a17.735,17.735,0,0,1-.924,10.791" transform="translate(-127.979 0)" fill="#fa4616"/>
      <path id="Контур_874" data-name="Контур 874" d="M53.619,124.237a8.03,8.03,0,1,0,8.03,8.03,8.039,8.039,0,0,0-8.03-8.03" transform="translate(-31.952 -87.073)" fill="#fa4616"/>
      <path id="Контур_875" data-name="Контур 875" d="M353.376,124.281a8.03,8.03,0,1,0,8.03,8.03,8.039,8.039,0,0,0-8.03-8.03" transform="translate(-242.039 -87.104)" fill="#fa4616"/>
    </g>
  </g>
</svg>
