<svg xmlns="http://www.w3.org/2000/svg" xmlns:xlink="http://www.w3.org/1999/xlink" width="84.457" height="62.525" viewBox="0 0 84.457 62.525">
  <defs>
    <clipPath id="clip-path">
      <rect id="Прямоугольник_229" data-name="Прямоугольник 229" width="84.457" height="62.525" fill="#fa4616"/>
    </clipPath>
  </defs>
  <g id="Сгруппировать_439" data-name="Сгруппировать 439" transform="translate(0 0)">
    <g id="Сгруппировать_438" data-name="Сгруппировать 438" transform="translate(0 0)" clip-path="url(#clip-path)">
      <path id="Контур_687" data-name="Контур 687" d="M3.905,55.51a1.838,1.838,0,0,1-1.832-2.695L15.7,18.354a4.6,4.6,0,0,1,3.96-2.695H81.519a1.93,1.93,0,0,1,1.942,2.734L71.468,52.775a4.377,4.377,0,0,1-3.85,2.735Z" transform="translate(0.844 7.016)" fill="#fa4616"/>
      <path id="Контур_688" data-name="Контур 688" d="M1,44.547c-.549,1.493-1,1.415-1-.178V13.092A12.543,12.543,0,0,1,1.474,7.7L4.551,2.495A5.638,5.638,0,0,1,8.92,0H34.173a7.294,7.294,0,0,1,4.8,2.181l2.673,3.055a7.289,7.289,0,0,0,4.8,2.179h24.79a1.848,1.848,0,0,1,1.846,2.7l-1.144,2.941A4.575,4.575,0,0,1,68,15.756H14.48a4.464,4.464,0,0,0-3.9,2.718Z" transform="translate(0 0.001)" fill="#fa4616"/>
    </g>
  </g>
</svg>
