<svg id="Сгруппировать_252" data-name="Сгруппировать 252" xmlns="http://www.w3.org/2000/svg" xmlns:xlink="http://www.w3.org/1999/xlink" width="93.648" height="97.725" viewBox="0 0 93.648 97.725">
  <defs>
    <clipPath id="clip-path">
      <rect id="Прямоугольник_140" data-name="Прямоугольник 140" width="93.648" height="97.725" fill="#fa4616"/>
    </clipPath>
  </defs>
  <g id="Сгруппировать_251" data-name="Сгруппировать 251" clip-path="url(#clip-path)">
    <path id="Прямоугольник_138" data-name="Прямоугольник 138" d="M2.355,0h9.854a2.355,2.355,0,0,1,2.355,2.355V24.438a2.355,2.355,0,0,1-2.355,2.355H2.354A2.354,2.354,0,0,1,0,24.439V2.355A2.355,2.355,0,0,1,2.355,0Z" transform="translate(8.595 43.272)" fill="#fa4616"/>
    <path id="Прямоугольник_139" data-name="Прямоугольник 139" d="M2.355,0h9.854a2.354,2.354,0,0,1,2.354,2.354V24.438a2.355,2.355,0,0,1-2.355,2.355H2.355A2.355,2.355,0,0,1,0,24.438V2.355A2.355,2.355,0,0,1,2.355,0Z" transform="translate(70.331 43.272)" fill="#fa4616"/>
    <path id="Контур_551" data-name="Контур 551" d="M77.905,39.105H70.713v-4.7a27.214,27.214,0,0,0-54.427,0v4.7H9.093v-4.7a34.406,34.406,0,0,1,68.812,0Z" transform="translate(3.324)" fill="#fa4616"/>
    <path id="Контур_552" data-name="Контур 552" d="M64.1,34.83V53.039a9.833,9.833,0,0,0,0-18.209" transform="translate(23.433 12.734)" fill="#fa4616"/>
    <path id="Контур_553" data-name="Контур 553" d="M6.119,34.83V53.039a9.833,9.833,0,0,1,0-18.209" transform="translate(0 12.734)" fill="#fa4616"/>
    <path id="Контур_554" data-name="Контур 554" d="M41.091,75.1V71.447A18.473,18.473,0,0,0,59.543,52.995H63.2A22.133,22.133,0,0,1,41.091,75.1" transform="translate(15.023 19.375)" fill="#fa4616"/>
    <path id="Контур_555" data-name="Контур 555" d="M43.137,74.279h-5.7a5.075,5.075,0,0,1,0-10.149h5.7a5.075,5.075,0,0,1,0,10.149" transform="translate(11.833 23.446)" fill="#fa4616"/>
  </g>
</svg>
