<svg xmlns="http://www.w3.org/2000/svg" xmlns:xlink="http://www.w3.org/1999/xlink" width="84.553" height="78.91" viewBox="0 0 84.553 78.91">
  <defs>
    <clipPath id="clip-path">
      <rect id="Прямоугольник_202" data-name="Прямоугольник 202" width="84.553" height="78.91" fill="#fa4616"/>
    </clipPath>
  </defs>
  <g id="Сгруппировать_365" data-name="Сгруппировать 365" transform="translate(0 0)">
    <g id="Сгруппировать_364" data-name="Сгруппировать 364" transform="translate(0 0)" clip-path="url(#clip-path)">
      <path id="Контур_629" data-name="Контур 629" d="M11.392,72.272A5.7,5.7,0,1,1,0,72.272V7.559a5.7,5.7,0,0,1,11.392,0Z" transform="translate(0 0.942)" fill="#fa4616"/>
      <path id="Контур_630" data-name="Контур 630" d="M5.7,56.224a5.7,5.7,0,1,1,0-11.392H70.41a5.7,5.7,0,1,1,0,11.392Z" transform="translate(0 22.686)" fill="#fa4616"/>
      <path id="Контур_631" data-name="Контур 631" d="M13.756,59.993a4.722,4.722,0,0,1-.551-9.411c1.7-.208,40.985-5.38,44.85-41.386A4.723,4.723,0,1,1,67.446,10.2C65.5,28.307,55.627,42.676,38.886,51.761a75.283,75.283,0,0,1-24.575,8.2,4.924,4.924,0,0,1-.554.032" transform="translate(4.574 2.516)" fill="#fa4616"/>
      <path id="Контур_632" data-name="Контур 632" d="M63.383,24.429A4.716,4.716,0,0,1,59.5,22.4L51.332,10.611l-11.407,7.9a4.723,4.723,0,0,1-5.378-7.765L48.395,1.155a6.476,6.476,0,0,1,9.011,1.637l9.855,14.224a4.724,4.724,0,0,1-3.878,7.413" transform="translate(16.452 0)" fill="#fa4616"/>
      <rect id="Прямоугольник_199" data-name="Прямоугольник 199" width="12.595" height="6.611" rx="1.568" transform="translate(15.537 28.389)" fill="#fa4616"/>
      <path id="Прямоугольник_200" data-name="Прямоугольник 200" d="M1.568,0h9.457a1.567,1.567,0,0,1,1.567,1.567V5.043a1.568,1.568,0,0,1-1.568,1.568H1.567A1.567,1.567,0,0,1,0,5.044V1.568A1.568,1.568,0,0,1,1.568,0Z" transform="translate(33.801 28.389)" fill="#fa4616"/>
      <path id="Прямоугольник_201" data-name="Прямоугольник 201" d="M1.567,0H5.042A1.569,1.569,0,0,1,6.611,1.569v9.458a1.568,1.568,0,0,1-1.568,1.568H1.568A1.568,1.568,0,0,1,0,11.027V1.567A1.567,1.567,0,0,1,1.567,0Z" transform="translate(56.678 48.479)" fill="#fa4616"/>
    </g>
  </g>
</svg>
