<svg id="Сгруппировать_562" data-name="Сгруппировать 562" xmlns="http://www.w3.org/2000/svg" xmlns:xlink="http://www.w3.org/1999/xlink" width="120.378" height="121.261" viewBox="0 0 120.378 121.261">
  <defs>
    <clipPath id="clip-path">
      <rect id="Прямоугольник_288" data-name="Прямоугольник 288" width="120.378" height="121.261" fill="#fa4616"/>
    </clipPath>
  </defs>
  <g id="Сгруппировать_561" data-name="Сгруппировать 561" clip-path="url(#clip-path)">
    <path id="Контур_835" data-name="Контур 835" d="M101.666,40.371a1.536,1.536,0,0,1-1.3-.713,42.863,42.863,0,0,0-2.936-4.073,41.254,41.254,0,0,0-18.065-13.1,38.715,38.715,0,0,0-26.684,0c-9.705,3.5-15.374,10.01-18.1,13.136-1.04,1.194-2.034,2.45-2.953,3.731a1.538,1.538,0,0,1-1.888.5L8.171,30a1.537,1.537,0,0,1-.1-2.745c8.79-4.838,17.84-9.481,26.9-13.8C44.938,8.707,55.195,4.216,65.453.111A1.539,1.539,0,0,1,66.567.1c9.424,3.556,18.8,7.571,27.88,11.933,9.93,4.772,19.747,10.081,29.178,15.777a1.537,1.537,0,0,1-.154,2.713l-21.166,9.709a1.534,1.534,0,0,1-.64.14M66.011,17.042A43.333,43.333,0,0,1,80.41,19.6a44.281,44.281,0,0,1,19.4,14.048c.848,1.041,1.656,2.128,2.41,3.242l17.311-7.94c-8.578-5.081-17.452-9.832-26.42-14.143C84.3,10.566,75.193,6.659,66.041,3.187,56.028,7.208,46.022,11.6,36.29,16.235,28.206,20.089,20.129,24.2,12.24,28.483l17.645,8.06c.758-1.006,1.556-1.99,2.382-2.938,2.668-3.062,8.916-10.233,19.371-14.008a43.3,43.3,0,0,1,14.373-2.554" transform="translate(-5.24 0)" fill="#fa4616"/>
    <path id="Контур_836" data-name="Контур 836" d="M56.27,209.644a1.534,1.534,0,0,1-.518-.09A310.5,310.5,0,0,1,25.91,197.088c-8.175-3.929-16.272-8.271-24.069-12.906a1.537,1.537,0,0,1-.748-1.207C.45,174.324.087,165.541.013,156.867c-.091-10.888.272-21.917,1.08-32.782A1.537,1.537,0,0,1,3.257,122.8L22.2,131.325a1.537,1.537,0,0,1,.79,1.987,40.1,40.1,0,0,0-3.076,15.451c.04,15.145,8.908,25.487,11.625,28.3a42.078,42.078,0,0,0,24.695,12.314,1.537,1.537,0,0,1,1.339,1.5l.236,17.209a1.538,1.538,0,0,1-1.537,1.558M4.1,181.948c7.506,4.435,15.288,8.595,23.14,12.369C36.162,198.6,45.39,202.5,54.7,205.905l-.188-13.676A45.078,45.078,0,0,1,29.328,179.2c-2.919-3.018-12.446-14.131-12.489-30.425A43.017,43.017,0,0,1,19.6,133.528L4,126.5c-.692,10.07-1,20.264-.915,30.337.07,8.339.411,16.781,1.013,25.106" transform="translate(0 -88.383)" fill="#fa4616"/>
    <path id="Контур_837" data-name="Контур 837" d="M228.149,367.782h-.007a1.118,1.118,0,0,1-1.111-1.125l.027-4.471a1.118,1.118,0,0,1,.979-1.1,41.18,41.18,0,0,0,4.284-.767,1.118,1.118,0,0,1,.507,2.177c-1.193.278-2.36.5-3.541.675l-.021,3.5a1.118,1.118,0,0,1-1.118,1.111" transform="translate(-163.584 -259.601)" fill="#fa4616"/>
    <path id="Контур_838" data-name="Контур 838" d="M277.088,248.676a1.118,1.118,0,0,1-.485-2.126,41.8,41.8,0,0,0,8.082-5.081,1.118,1.118,0,0,1,1.4,1.744,44.078,44.078,0,0,1-8.515,5.353,1.117,1.117,0,0,1-.483.11m15.159-12.223a1.118,1.118,0,0,1-.886-1.8,44.731,44.731,0,0,0,4.982-8.173,1.118,1.118,0,1,1,2.023.952,46.962,46.962,0,0,1-5.232,8.582,1.116,1.116,0,0,1-.887.437M300.5,218.79a1.119,1.119,0,0,1-1.095-1.35,39.422,39.422,0,0,0,.859-8.057v-.115c0-.437-.008-.881-.022-1.319a1.118,1.118,0,1,1,2.234-.075c.016.463.023.931.023,1.393v.123a41.672,41.672,0,0,1-.907,8.514,1.118,1.118,0,0,1-1.092.886" transform="translate(-198.846 -149.002)" fill="#fa4616"/>
    <path id="Контур_839" data-name="Контур 839" d="M354.935,158.714a1.118,1.118,0,0,1-1.076-.819,41.841,41.841,0,0,0-1.382-4.127,1.118,1.118,0,0,1,.581-1.429l4.076-1.838a1.118,1.118,0,0,1,.919,2.038l-3.117,1.406c.405,1.107.766,2.23,1.078,3.352a1.118,1.118,0,0,1-1.078,1.417" transform="translate(-253.916 -108.37)" fill="#fa4616"/>
    <path id="Контур_840" data-name="Контур 840" d="M410.143,133.535a1.118,1.118,0,0,1-1.115-1.052c-.056-.944-.115-1.9-.177-2.847l-2.61,1.177a1.118,1.118,0,0,1-.919-2.038l4.076-1.838a1.118,1.118,0,0,1,1.575.942c.1,1.485.2,2.99.287,4.474a1.118,1.118,0,0,1-1.05,1.182l-.067,0" transform="translate(-291.575 -91.391)" fill="#fa4616"/>
    <path id="Контур_841" data-name="Контур 841" d="M423.041,209.481H423a1.118,1.118,0,0,1-1.078-1.157c.114-3.238.192-6.526.23-9.774a1.118,1.118,0,0,1,1.118-1.1h.013a1.117,1.117,0,0,1,1.1,1.131c-.038,3.265-.116,6.572-.231,9.826a1.118,1.118,0,0,1-1.116,1.078m.229-19.6a1.118,1.118,0,0,1-1.118-1.1c-.038-3.245-.115-6.534-.23-9.774a1.118,1.118,0,1,1,2.234-.079c.115,3.258.193,6.564.231,9.826a1.118,1.118,0,0,1-1.1,1.131h-.013" transform="translate(-304.011 -128.142)" fill="#fa4616"/>
    <path id="Контур_842" data-name="Контур 842" d="M406.474,327.018a1.118,1.118,0,0,1-.549-2.092c1.125-.633,2.252-1.275,3.357-1.912.087-1.284.17-2.579.245-3.857a1.118,1.118,0,1,1,2.232.132c-.087,1.483-.184,2.987-.287,4.473a1.117,1.117,0,0,1-.554.89c-1.276.74-2.587,1.488-3.9,2.223a1.111,1.111,0,0,1-.547.144" transform="translate(-292.073 -229.206)" fill="#fa4616"/>
    <path id="Контур_843" data-name="Контур 843" d="M276.47,374.328a1.118,1.118,0,0,1-.429-2.151c3.09-1.281,6.2-2.626,9.245-4a1.118,1.118,0,1,1,.918,2.039c-3.065,1.379-6.2,2.733-9.306,4.023a1.118,1.118,0,0,1-.428.086m18.429-8.293a1.118,1.118,0,0,1-.49-2.124q.666-.324,1.335-.653c2.556-1.256,5.132-2.564,7.657-3.886a1.118,1.118,0,1,1,1.037,1.981c-2.542,1.331-5.135,2.647-7.707,3.911q-.672.331-1.344.657a1.116,1.116,0,0,1-.488.113" transform="translate(-198.401 -258.85)" fill="#fa4616"/>
    <path id="Контур_844" data-name="Контур 844" d="M227.878,414.865a1.118,1.118,0,0,1-1.118-1.125l.027-4.471a1.118,1.118,0,0,1,1.118-1.111h.007a1.118,1.118,0,0,1,1.111,1.125l-.017,2.858c.894-.331,1.785-.666,2.665-1a1.118,1.118,0,1,1,.8,2.089c-1.384.527-2.8,1.054-4.2,1.568a1.118,1.118,0,0,1-.384.068" transform="translate(-163.389 -294.093)" fill="#fa4616"/>
    <path id="Контур_845" data-name="Контур 845" d="M167.254,131.209c-.054-1.709-.69-2.8-2.5-3.072-.684-.1-1.317-.56-2-.651a5.154,5.154,0,0,1-4.58-4.139,2.429,2.429,0,0,1,.037-1.9c.781-1.577,1.5-3.188,2.3-4.751a1.989,1.989,0,0,0-.281-2.47,38.188,38.188,0,0,0-5.31-5.125,1.853,1.853,0,0,0-2.267-.187,26.652,26.652,0,0,0-2.387,1.253c-2.088,1.476-4.172,1.815-6.47.442a2.482,2.482,0,0,1-1.316-1.354c-.585-1.742-1.23-3.465-1.835-5.2a1.619,1.619,0,0,0-1.367-1.272,29.609,29.609,0,0,0-8.067.122,1.681,1.681,0,0,0-1.484,1.29,22.538,22.538,0,0,0-.952,3.017,5.223,5.223,0,0,1-4.144,4.579,2.377,2.377,0,0,1-1.876-.042c-1.644-.822-3.323-1.573-4.978-2.373a1.67,1.67,0,0,0-1.965.141,44.315,44.315,0,0,0-5.3,5.138,1.573,1.573,0,0,0-.213,2.032c.786,1.352,1.472,2.764,2.291,4.1a2.592,2.592,0,0,1,.179,3.021,10.685,10.685,0,0,0-.927,2.526,1.7,1.7,0,0,1-1.254,1.243c-1.758.536-3.5,1.132-5.253,1.678a1.6,1.6,0,0,0-1.271,1.359,24.784,24.784,0,0,0,.1,8.173,1.671,1.671,0,0,0,1.325,1.451c1.091.3,2.139.782,3.241,1.025a6.2,6.2,0,0,1,3.258,1.726,4.353,4.353,0,0,1,1.327,3.078,2.034,2.034,0,0,1-.2.953c-.794,1.614-1.56,3.243-2.324,4.872-.181.385-.309.795-.4,1.022a1.812,1.812,0,0,0,.478,1.357,28.174,28.174,0,0,0,4.079,4.2c2.554,2.035,2.069,2.174,5.071.544a7.879,7.879,0,0,0,.943-.472,5.38,5.38,0,0,1,6.456-.45,2.452,2.452,0,0,1,1.31,1.354c.588,1.741,1.264,3.453,1.853,5.194a1.77,1.77,0,0,0,1.716,1.329,53.9,53.9,0,0,0,6.559,0c1.689-.086,2.7-.739,2.965-2.483.1-.646.508-1.244.616-1.891a5.141,5.141,0,0,1,3.977-4.6,2.768,2.768,0,0,1,2.212.007c1.529.788,3.118,1.46,4.648,2.245a1.88,1.88,0,0,0,2.357-.21,36.893,36.893,0,0,0,5.294-5.469,1.683,1.683,0,0,0,.16-2.053A24,24,0,0,0,159.7,148.8a5.232,5.232,0,0,1-.349-6.253,2.417,2.417,0,0,1,1.369-1.3c1.7-.578,3.381-1.232,5.085-1.806a1.942,1.942,0,0,0,1.458-1.893c.137-2.112.057-4.22-.01-6.332M135.61,147.956a13.659,13.659,0,0,1-13.679-13.525,13.66,13.66,0,1,1,27.317.13,13.547,13.547,0,0,1-13.638,13.4" transform="translate(-74.768 -73.899)" fill="#fa4616"/>
  </g>
</svg>
