<svg xmlns="http://www.w3.org/2000/svg" xmlns:xlink="http://www.w3.org/1999/xlink" width="105.405" height="109.346" viewBox="0 0 105.405 109.346">
  <defs>
    <clipPath id="clip-path">
      <rect id="Прямоугольник_292" data-name="Прямоугольник 292" width="105.405" height="109.346" fill="none"/>
    </clipPath>
  </defs>
  <g id="Сгруппировать_570" data-name="Сгруппировать 570" transform="translate(541.922 364.199)">
    <g id="Сгруппировать_569" data-name="Сгруппировать 569" transform="translate(-541.922 -364.199)" clip-path="url(#clip-path)">
      <path id="Контур_876" data-name="Контур 876" d="M25.407,29.7H4.29A4.289,4.289,0,0,1,0,25.407V4.291A4.289,4.289,0,0,1,4.29,0H25.407A4.29,4.29,0,0,1,29.7,4.291V25.407a4.29,4.29,0,0,1-4.289,4.29" transform="translate(-0.001 -0.001)" fill="#fa4616"/>
      <path id="Контур_877" data-name="Контур 877" d="M155.407,176.963H134.29a4.289,4.289,0,0,1-4.289-4.29V151.557a4.289,4.289,0,0,1,4.289-4.29h21.117a4.29,4.29,0,0,1,4.289,4.29v21.117a4.29,4.29,0,0,1-4.289,4.29" transform="translate(-92.146 -104.384)" fill="#fa4616"/>
      <path id="Контур_878" data-name="Контур 878" d="M285.406,303.229H264.289a4.289,4.289,0,0,1-4.289-4.29V277.823a4.289,4.289,0,0,1,4.289-4.29h21.117a4.29,4.29,0,0,1,4.289,4.29v21.117a4.29,4.29,0,0,1-4.289,4.29" transform="translate(-184.291 -193.883)" fill="#fa4616"/>
      <path id="Контур_879" data-name="Контур 879" d="M132.533,49.553h-4.8a1.747,1.747,0,1,1,0-3.494h4.8a1.747,1.747,0,0,1,0,3.494" transform="translate(-89.297 -32.647)" fill="#fa4616"/>
      <path id="Контур_880" data-name="Контур 880" d="M198.884,49.553h-8.495a1.747,1.747,0,0,1,0-3.494h8.495a1.747,1.747,0,1,1,0,3.494m-16.989,0H173.4a1.747,1.747,0,1,1,0-3.494h8.495a1.747,1.747,0,1,1,0,3.494" transform="translate(-121.669 -32.647)" fill="#fa4616"/>
      <path id="Контур_881" data-name="Контур 881" d="M294.892,54.358a1.747,1.747,0,0,1-1.747-1.747V49.553h-3.057a1.747,1.747,0,0,1,0-3.494h4.8a1.747,1.747,0,0,1,1.747,1.747v4.8a1.747,1.747,0,0,1-1.747,1.747" transform="translate(-204.378 -32.647)" fill="#fa4616"/>
      <path id="Контур_882" data-name="Контур 882" d="M306.587,110.4a1.747,1.747,0,0,1-1.747-1.747v-10a1.747,1.747,0,0,1,3.494,0v10a1.747,1.747,0,0,1-1.747,1.747" transform="translate(-216.074 -68.689)" fill="#fa4616"/>
      <path id="Контур_883" data-name="Контур 883" d="M294.892,173.907h-4.8a1.747,1.747,0,0,1,0-3.494h3.057v-3.057a1.747,1.747,0,1,1,3.494,0v4.8a1.747,1.747,0,0,1-1.747,1.747" transform="translate(-204.378 -117.385)" fill="#fa4616"/>
      <path id="Контур_884" data-name="Контур 884" d="M242.214,185.6h-4.8a1.747,1.747,0,1,1,0-3.494h4.8a1.747,1.747,0,1,1,0,3.494" transform="translate(-167.04 -129.08)" fill="#fa4616"/>
      <path id="Контур_885" data-name="Контур 885" d="M216.033,321.6h-4.8a1.747,1.747,0,1,1,0-3.494h4.8a1.747,1.747,0,1,1,0,3.494" transform="translate(-148.482 -225.478)" fill="#fa4616"/>
      <path id="Контур_886" data-name="Контур 886" d="M120.024,321.6h-8.495a1.747,1.747,0,0,1,0-3.494h8.495a1.747,1.747,0,0,1,0,3.494m-16.989,0H94.54a1.747,1.747,0,0,1,0-3.494h8.495a1.747,1.747,0,0,1,0,3.494" transform="translate(-65.773 -225.478)" fill="#fa4616"/>
      <path id="Контур_887" data-name="Контур 887" d="M53.674,309.907h-4.8a1.747,1.747,0,0,1-1.747-1.747v-4.8a1.747,1.747,0,1,1,3.494,0v3.057h3.057a1.747,1.747,0,1,1,0,3.494" transform="translate(-33.401 -213.783)" fill="#fa4616"/>
      <path id="Контур_888" data-name="Контур 888" d="M48.869,246.4a1.747,1.747,0,0,1-1.747-1.747v-10a1.747,1.747,0,0,1,3.494,0v10a1.747,1.747,0,0,1-1.747,1.747" transform="translate(-33.401 -165.088)" fill="#fa4616"/>
      <path id="Контур_889" data-name="Контур 889" d="M48.869,190.358a1.747,1.747,0,0,1-1.747-1.747v-4.8a1.747,1.747,0,0,1,1.747-1.747h4.8a1.747,1.747,0,1,1,0,3.494H50.616v3.057a1.747,1.747,0,0,1-1.747,1.747" transform="translate(-33.401 -129.045)" fill="#fa4616"/>
      <path id="Контур_890" data-name="Контур 890" d="M106.352,185.553h-4.8a1.747,1.747,0,1,1,0-3.494h4.8a1.747,1.747,0,1,1,0,3.494" transform="translate(-70.739 -129.045)" fill="#fa4616"/>
      <path id="Контур_891" data-name="Контур 891" d="M208.9,310.244v-18.6a1.81,1.81,0,0,1,2.56,0l8.021,8.021a1.81,1.81,0,0,1,0,2.56l-8.021,8.021a1.81,1.81,0,0,1-2.56,0" transform="translate(-148.073 -206.344)" fill="#fa4616"/>
      <path id="Контур_892" data-name="Контур 892" d="M135.648,18.829v18.6a1.81,1.81,0,0,1-2.56,0l-8.021-8.021a1.81,1.81,0,0,1,0-2.56l8.021-8.021a1.81,1.81,0,0,1,2.56,0" transform="translate(-88.274 -12.97)" fill="#fa4616"/>
    </g>
  </g>
</svg>
