<svg xmlns="http://www.w3.org/2000/svg" xmlns:xlink="http://www.w3.org/1999/xlink" width="94.622" height="86.89" viewBox="0 0 94.622 86.89">
  <defs>
    <clipPath id="clip-path">
      <rect id="Прямоугольник_218" data-name="Прямоугольник 218" width="94.622" height="86.89" fill="#fa4616"/>
    </clipPath>
  </defs>
  <g id="Сгруппировать_401" data-name="Сгруппировать 401" transform="translate(0 0)">
    <g id="Сгруппировать_400" data-name="Сгруппировать 400" transform="translate(0 0.001)" clip-path="url(#clip-path)">
      <path id="Прямоугольник_216" data-name="Прямоугольник 216" d="M2.639,0H15.424a2.639,2.639,0,0,1,2.639,2.639V30.587a2.64,2.64,0,0,1-2.64,2.64H2.639A2.639,2.639,0,0,1,0,30.588V2.639A2.639,2.639,0,0,1,2.639,0Z" transform="translate(-0.001 53.663)" fill="#fa4616"/>
      <rect id="Прямоугольник_217" data-name="Прямоугольник 217" width="18.061" height="33.227" rx="2.639" transform="translate(76.561 53.663)" fill="#fa4616"/>
      <path id="Контур_662" data-name="Контур 662" d="M88.475,48.5H79.556V42.671a33.75,33.75,0,0,0-67.5,0V48.5H3.137V42.671a42.669,42.669,0,1,1,85.338,0Z" transform="translate(1.603 -0.001)" fill="#fa4616"/>
      <path id="Контур_663" data-name="Контур 663" d="M25.412,68.945l3.8-3.14L44.067,53.543l6.905-5.7c1.976-1.139,1.978-3.005,0-4.148l-6.946-5.755L30.577,26.789l-5.131-4.252a3.239,3.239,0,0,0-1.6-.488c-1.18,0-2,.94-2,2.56l0,2.18-.008,11.148,0,3.654c0,2.282,0,6.014-.006,8.3l0,3.657L21.822,65.8v1.064c0,1.621.814,2.561,2,2.561a3.238,3.238,0,0,0,1.594-.485" transform="translate(11.151 11.266)" fill="#fa4616"/>
    </g>
  </g>
</svg>
