<svg id="Сгруппировать_566" data-name="Сгруппировать 566" xmlns="http://www.w3.org/2000/svg" xmlns:xlink="http://www.w3.org/1999/xlink" width="111.782" height="137.406" viewBox="0 0 111.782 137.406">
  <defs>
    <clipPath id="clip-path">
      <rect id="Прямоугольник_290" data-name="Прямоугольник 290" width="111.782" height="137.406" fill="none"/>
    </clipPath>
  </defs>
  <g id="Сгруппировать_565" data-name="Сгруппировать 565" clip-path="url(#clip-path)">
    <path id="Контур_857" data-name="Контур 857" d="M111.752,290.89a1.587,1.587,0,0,0-.773-1.049L72.588,268.226a1.588,1.588,0,0,0-2.351,1.158,16.2,16.2,0,0,1-1.567,5,13.1,13.1,0,0,1-3.65,4.736,13.821,13.821,0,0,1-5.632,2.5,17.828,17.828,0,0,1-3.495.49,17.838,17.838,0,0,1-3.5-.49,13.822,13.822,0,0,1-5.631-2.5,13.1,13.1,0,0,1-3.65-4.736,16.2,16.2,0,0,1-1.567-5,1.588,1.588,0,0,0-2.351-1.158L.809,289.841a1.588,1.588,0,0,0-.5,2.324,37.839,37.839,0,0,0,4.939,5.5,46.223,46.223,0,0,0,4.661,3.666,71.21,71.21,0,0,0,7.584,4.942,58.363,58.363,0,0,0,9.7,4.085,84.1,84.1,0,0,0,13.353,3.826,71.031,71.031,0,0,0,7.671,1.009,2.022,2.022,0,0,0,.243.036c2.442.2,4.916.294,7.353.294h.028c.812,0,1.638-.011,2.454-.034a1.7,1.7,0,0,0,1.749-1.652,1.735,1.735,0,0,0-1.86-1.554c-.789.022-1.582.023-2.371.032-2.33,0-4.7-.094-7.03-.281a2.027,2.027,0,0,0-.257,0,67.985,67.985,0,0,1-7.392-.968,80.559,80.559,0,0,1-12.886-3.7,55.975,55.975,0,0,1-9.226-3.873,67.584,67.584,0,0,1-7.256-4.736,43.772,43.772,0,0,1-4.372-3.432,34.7,34.7,0,0,1-3.422-3.617l34.89-19.644a19.283,19.283,0,0,0,1.422,3.746,16.165,16.165,0,0,0,4.523,5.8,16.852,16.852,0,0,0,6.843,3.091,20.991,20.991,0,0,0,4.137.579H55.8l.037,0c.026,0,.051,0,.077,0h.058l.059,0a21.019,21.019,0,0,0,4.113-.577,16.852,16.852,0,0,0,6.843-3.091,16.165,16.165,0,0,0,4.523-5.8,19.278,19.278,0,0,0,1.422-3.746l34.889,19.644a34.668,34.668,0,0,1-3.193,3.4,1.6,1.6,0,0,0,2.233,2.27,34.678,34.678,0,0,0,4.622-5.21,1.884,1.884,0,0,0,.273-1.275" transform="translate(0 -187.378)" fill="#fa4616"/>
    <path id="Контур_858" data-name="Контур 858" d="M89.154,60.634A27.921,27.921,0,0,0,98.19,71.216a25.126,25.126,0,0,0,14.183,4.857l.283,0a23.9,23.9,0,0,0,4.37-.4l.038-.007c6.085-1.133,9.581-3.58,11.442-5.432.888-.885,2.808-3.034,2.966-3.211.953-1.069,1.448-1.612,2.026-2.328a35.393,35.393,0,0,0,2.611-3.7c.776-1.37,1.553-2.836,2.316-4.4.974-1.993,1.813-3.914,2.537-5.735A55.726,55.726,0,0,0,143.088,42a51.684,51.684,0,0,0-.505-20.531C139.833,10.124,132.739,3.224,121.5.954A40.338,40.338,0,0,0,98.812,2.426C90.356,5.659,84.99,12.009,82.862,21.3a54,54,0,0,0,2.868,32.989,47.877,47.877,0,0,0,3.424,6.346M84.671,31.947A50.3,50.3,0,0,1,85.932,22c1.879-8.2,6.591-13.8,14-16.634a34.036,34.036,0,0,1,12.3-2.235,43.589,43.589,0,0,1,8.635.909c10.076,2.034,16.176,7.976,18.647,18.166a47.452,47.452,0,0,1,.455,19.3,56.349,56.349,0,0,1-1.19,5.577,59.208,59.208,0,0,1-3.17,8.177c-.711,1.492-1.5,2.968-2.334,4.4l-.008.009c-.637.968-1.374,1.994-2.226,3.048-.642.795-1.28,1.521-1.9,2.182l-.42.456v.012c-.758.843-1.884,2.078-2.446,2.638-1.547,1.54-4.5,3.582-9.8,4.568l-.039.007a20.814,20.814,0,0,1-4.038.346,22.116,22.116,0,0,1-12.418-4.292,24.771,24.771,0,0,1-8.047-9.462l-.092-.163a44.785,44.785,0,0,1-3.245-6,49.989,49.989,0,0,1-3.936-21.058" transform="translate(-56.981 -0.001)" fill="#fa4616"/>
    <path id="Контур_859" data-name="Контур 859" d="M230.062,327.533a19.428,19.428,0,1,0,19.428,19.428,19.428,19.428,0,0,0-19.428-19.428M225.9,358.042c-2.036-4.422-4.53-8.373-8.307-11.387,2.6-1.577,5.05-1.322,7.1.7a8.074,8.074,0,0,1,.646.653c.571.711.969.589,1.478-.133a66.182,66.182,0,0,1,8.867-10.217A4.922,4.922,0,0,1,240.061,336a18.463,18.463,0,0,0,2.678.021A127.792,127.792,0,0,0,225.9,358.042" transform="translate(-147.257 -228.983)" fill="#fa4616"/>
  </g>
</svg>
