<svg xmlns="http://www.w3.org/2000/svg" xmlns:xlink="http://www.w3.org/1999/xlink" width="81.547" height="81.547" viewBox="0 0 81.547 81.547">
  <defs>
    <clipPath id="clip-path">
      <rect id="Прямоугольник_170" data-name="Прямоугольник 170" width="81.547" height="81.547" fill="#fa4616"/>
    </clipPath>
  </defs>
  <g id="Сгруппировать_258" data-name="Сгруппировать 258" transform="translate(0 0)">
    <g id="Сгруппировать_257" data-name="Сгруппировать 257" transform="translate(0 0)" clip-path="url(#clip-path)">
      <path id="Контур_561" data-name="Контур 561" d="M43.7,57.049H33.418A13.393,13.393,0,0,1,20.065,43.7V33.417A13.394,13.394,0,0,1,33.418,20.064H43.7A13.393,13.393,0,0,1,57.05,33.417V43.7A13.392,13.392,0,0,1,43.7,57.049" transform="translate(2.217 2.216)" fill="#fa4616"/>
      <path id="Контур_562" data-name="Контур 562" d="M50.276,67.613H28.75A17.356,17.356,0,0,1,11.413,50.276V28.751A17.357,17.357,0,0,1,28.75,11.414H50.276A17.356,17.356,0,0,1,67.612,28.751V50.276A17.355,17.355,0,0,1,50.276,67.613M28.75,17.27A11.494,11.494,0,0,0,17.269,28.751V50.276A11.5,11.5,0,0,0,28.75,61.758H50.276a11.5,11.5,0,0,0,11.48-11.482V28.751A11.494,11.494,0,0,0,50.276,17.27Z" transform="translate(1.261 1.26)" fill="#fa4616"/>
      <rect id="Прямоугольник_150" data-name="Прямоугольник 150" width="4.463" height="10.005" transform="translate(22.282)" fill="#fa4616"/>
      <rect id="Прямоугольник_151" data-name="Прямоугольник 151" width="4.463" height="10.005" transform="translate(54.803)" fill="#fa4616"/>
      <rect id="Прямоугольник_152" data-name="Прямоугольник 152" width="4.463" height="10.005" transform="translate(46.673)" fill="#fa4616"/>
      <rect id="Прямоугольник_153" data-name="Прямоугольник 153" width="4.463" height="10.005" transform="translate(38.542)" fill="#fa4616"/>
      <rect id="Прямоугольник_154" data-name="Прямоугольник 154" width="4.463" height="10.005" transform="translate(30.412)" fill="#fa4616"/>
      <rect id="Прямоугольник_155" data-name="Прямоугольник 155" width="4.463" height="10.005" transform="translate(22.282 71.542)" fill="#fa4616"/>
      <rect id="Прямоугольник_156" data-name="Прямоугольник 156" width="4.463" height="10.005" transform="translate(54.803 71.542)" fill="#fa4616"/>
      <rect id="Прямоугольник_157" data-name="Прямоугольник 157" width="4.463" height="10.005" transform="translate(46.673 71.542)" fill="#fa4616"/>
      <rect id="Прямоугольник_158" data-name="Прямоугольник 158" width="4.463" height="10.005" transform="translate(38.542 71.542)" fill="#fa4616"/>
      <rect id="Прямоугольник_159" data-name="Прямоугольник 159" width="4.463" height="10.005" transform="translate(30.412 71.542)" fill="#fa4616"/>
      <rect id="Прямоугольник_160" data-name="Прямоугольник 160" width="10.005" height="4.463" transform="translate(71.543 22.28)" fill="#fa4616"/>
      <rect id="Прямоугольник_161" data-name="Прямоугольник 161" width="10.005" height="4.463" transform="translate(71.543 54.803)" fill="#fa4616"/>
      <rect id="Прямоугольник_162" data-name="Прямоугольник 162" width="10.005" height="4.463" transform="translate(71.543 46.672)" fill="#fa4616"/>
      <rect id="Прямоугольник_163" data-name="Прямоугольник 163" width="10.005" height="4.463" transform="translate(71.543 38.542)" fill="#fa4616"/>
      <rect id="Прямоугольник_164" data-name="Прямоугольник 164" width="10.005" height="4.463" transform="translate(71.543 30.411)" fill="#fa4616"/>
      <rect id="Прямоугольник_165" data-name="Прямоугольник 165" width="10.005" height="4.463" transform="translate(0 22.28)" fill="#fa4616"/>
      <rect id="Прямоугольник_166" data-name="Прямоугольник 166" width="10.005" height="4.463" transform="translate(0 54.803)" fill="#fa4616"/>
      <rect id="Прямоугольник_167" data-name="Прямоугольник 167" width="10.005" height="4.463" transform="translate(0 46.672)" fill="#fa4616"/>
      <rect id="Прямоугольник_168" data-name="Прямоугольник 168" width="10.005" height="4.463" transform="translate(0 38.542)" fill="#fa4616"/>
      <rect id="Прямоугольник_169" data-name="Прямоугольник 169" width="10.005" height="4.463" transform="translate(0 30.411)" fill="#fa4616"/>
    </g>
  </g>
</svg>
