<svg id="Сгруппировать_572" data-name="Сгруппировать 572" xmlns="http://www.w3.org/2000/svg" xmlns:xlink="http://www.w3.org/1999/xlink" width="101.575" height="124.809" viewBox="0 0 101.575 124.809">
  <defs>
    <clipPath id="clip-path">
      <rect id="Прямоугольник_293" data-name="Прямоугольник 293" width="101.575" height="124.809" fill="none"/>
    </clipPath>
  </defs>
  <g id="Сгруппировать_571" data-name="Сгруппировать 571" clip-path="url(#clip-path)">
    <path id="Контур_893" data-name="Контур 893" d="M10.236,325.756l1.444,4.44a1.068,1.068,0,0,0,1.018.737h4.668A1.072,1.072,0,0,1,18,332.87l-3.778,2.744a1.07,1.07,0,0,0-.389,1.2l1.444,4.436a1.072,1.072,0,0,1-1.651,1.2l-3.774-2.74a1.068,1.068,0,0,0-1.258,0l-3.778,2.74a1.07,1.07,0,0,1-1.647-1.2l1.444-4.436a1.076,1.076,0,0,0-.389-1.2L.441,332.87a1.072,1.072,0,0,1,.633-1.937H5.738A1.078,1.078,0,0,0,6.76,330.2l1.44-4.44a1.071,1.071,0,0,1,2.036,0" transform="translate(0 -230.506)" fill="#fa4616"/>
    <path id="Контур_894" data-name="Контур 894" d="M73.639,350.843l1.444,4.44a1.068,1.068,0,0,0,1.018.737h4.668a1.072,1.072,0,0,1,.629,1.937L77.62,360.7a1.07,1.07,0,0,0-.389,1.2l1.444,4.436a1.072,1.072,0,0,1-1.651,1.2l-3.774-2.74a1.068,1.068,0,0,0-1.258,0l-3.774,2.74a1.072,1.072,0,0,1-1.651-1.2l1.444-4.436a1.077,1.077,0,0,0-.389-1.2l-3.778-2.744a1.072,1.072,0,0,1,.633-1.937h4.664a1.074,1.074,0,0,0,1.022-.737l1.44-4.44a1.071,1.071,0,0,1,2.036,0" transform="translate(-44.966 -248.298)" fill="#fa4616"/>
    <path id="Контур_895" data-name="Контур 895" d="M137.042,369.287l1.444,4.44a1.068,1.068,0,0,0,1.018.737h4.664a1.072,1.072,0,0,1,.633,1.937l-3.778,2.744a1.07,1.07,0,0,0-.389,1.2l1.444,4.436a1.072,1.072,0,0,1-1.651,1.2l-3.774-2.74a1.068,1.068,0,0,0-1.258,0l-3.778,2.74a1.07,1.07,0,0,1-1.647-1.2l1.444-4.436a1.083,1.083,0,0,0-.389-1.2l-3.778-2.744a1.072,1.072,0,0,1,.633-1.937h4.664a1.069,1.069,0,0,0,1.018-.737l1.444-4.44a1.071,1.071,0,0,1,2.036,0" transform="translate(-89.932 -261.379)" fill="#fa4616"/>
    <path id="Контур_896" data-name="Контур 896" d="M200.444,350.736l1.44,4.44a1.074,1.074,0,0,0,1.022.737h4.664a1.072,1.072,0,0,1,.633,1.937l-3.778,2.744a1.07,1.07,0,0,0-.389,1.2l1.444,4.436a1.072,1.072,0,0,1-1.651,1.2l-3.774-2.74a1.068,1.068,0,0,0-1.258,0l-3.778,2.74a1.07,1.07,0,0,1-1.647-1.2l1.444-4.436a1.083,1.083,0,0,0-.389-1.2l-3.778-2.744a1.071,1.071,0,0,1,.629-1.937h4.668a1.069,1.069,0,0,0,1.018-.737l1.444-4.44a1.071,1.071,0,0,1,2.036,0" transform="translate(-134.897 -248.222)" fill="#fa4616"/>
    <path id="Контур_897" data-name="Контур 897" d="M264.4,329.318l1.444,4.44a1.068,1.068,0,0,0,1.018.737h4.668a1.072,1.072,0,0,1,.629,1.937l-3.778,2.744a1.07,1.07,0,0,0-.389,1.2l1.444,4.436a1.072,1.072,0,0,1-1.651,1.2l-3.774-2.74a1.068,1.068,0,0,0-1.258,0l-3.778,2.74a1.07,1.07,0,0,1-1.647-1.2l1.444-4.436a1.077,1.077,0,0,0-.389-1.2l-3.778-2.744a1.072,1.072,0,0,1,.633-1.937h4.664a1.074,1.074,0,0,0,1.022-.737l1.44-4.44a1.071,1.071,0,0,1,2.036,0" transform="translate(-180.259 -233.033)" fill="#fa4616"/>
    <path id="Контур_898" data-name="Контур 898" d="M107.9,271.324a2.015,2.015,0,0,0-.981-1.331l-34.64-19.5a2.014,2.014,0,0,0-2.982,1.469,14.048,14.048,0,0,1-1.358,4.329,11.3,11.3,0,0,1-3.134,4.077,11.962,11.962,0,0,1-4.86,2.149,15.476,15.476,0,0,1-3.016.425,15.483,15.483,0,0,1-3.016-.425,11.962,11.962,0,0,1-4.859-2.149,11.291,11.291,0,0,1-3.134-4.077,14.042,14.042,0,0,1-1.358-4.329,2.014,2.014,0,0,0-2.982-1.469L9.8,268.382l-.072.041-.058.06a2.15,2.15,0,0,0-.559,2.3,1.936,1.936,0,0,0,1.2,1.033,2.5,2.5,0,0,0,2.032-.239l28.858-16.248a18.067,18.067,0,0,0,1.119,2.774,15.116,15.116,0,0,0,4.24,5.431,15.73,15.73,0,0,0,6.4,2.9,19.588,19.588,0,0,0,3.856.539l.033,0c.031,0,.062,0,.091,0s.047,0,.087,0l.049,0a19.533,19.533,0,0,0,3.826-.537,15.725,15.725,0,0,0,6.395-2.9,15.115,15.115,0,0,0,4.241-5.432,18.016,18.016,0,0,0,1.119-2.774l30.229,17.02a31.065,31.065,0,0,1-2.382,2.479l-.045.047a2.024,2.024,0,0,0,2.828,2.874l.038-.034a31.634,31.634,0,0,0,4.274-4.841,2.251,2.251,0,0,0,.3-1.547" transform="translate(-6.367 -177.466)" fill="#fa4616"/>
    <path id="Контур_899" data-name="Контур 899" d="M130.81,19.811C128.271,9.34,121.718,2.968,111.335.872A36.963,36.963,0,0,0,90.543,2.226c-7.822,2.991-12.785,8.859-14.751,17.442A49.3,49.3,0,0,0,78.415,49.8a43.847,43.847,0,0,0,3.113,5.775,25.788,25.788,0,0,0,8.328,9.739A23.239,23.239,0,0,0,102.979,69.8l.263,0a22.162,22.162,0,0,0,4.047-.37l.037-.007c5.636-1.049,8.891-3.332,10.628-5.061.828-.824,2.624-2.837,2.7-2.922l.312-.35c.668-.747,1.071-1.2,1.534-1.773a32.708,32.708,0,0,0,2.41-3.42c.739-1.3,1.447-2.65,2.106-4,.831-1.7,1.607-3.455,2.307-5.215l.012-.032a51.186,51.186,0,0,0,1.942-8.093,47.211,47.211,0,0,0-.465-18.753m-3.491,18.127a50.463,50.463,0,0,1-1.056,4.955,52.856,52.856,0,0,1-2.829,7.3c-.616,1.293-1.308,2.6-2.058,3.884l-.015.023c-.612.93-1.276,1.84-1.975,2.7-.537.664-1.1,1.316-1.69,1.94l-.379.412-.153.177v0c-.478.53-1.515,1.673-2.036,2.191-1.338,1.332-3.9,3.1-8.536,3.962l-.035.007a18.2,18.2,0,0,1-3.53.3A19.4,19.4,0,0,1,92.147,62.03a21.773,21.773,0,0,1-7.07-8.315l-.117-.208a39.812,39.812,0,0,1-2.886-5.337A45.307,45.307,0,0,1,79.7,20.563c1.649-7.2,5.78-12.11,12.277-14.595a29.963,29.963,0,0,1,10.893-1.979,38.995,38.995,0,0,1,7.676.808c8.848,1.787,14.2,7.006,16.375,15.958a42.233,42.233,0,0,1,.4,17.182" transform="translate(-52.873 0.001)" fill="#fa4616"/>
  </g>
</svg>
