<svg xmlns="http://www.w3.org/2000/svg" viewBox="0 0 415.94 322.45"><defs><style>.cls-1{fill:#fa4616;}.cls-2{fill:#002234;}.cls-3{fill:#0d2333;}</style></defs><title>icon-coverage</title><g id="Слой_2" data-name="Слой 2"><g id="Layer_1" data-name="Layer 1"><path class="cls-1" d="M22.27,176.32h-.33c-1.48-.09-6-.33-9-4.42A5.76,5.76,0,0,1,11.89,168c.79-8.87,1.88-17,3.32-24.93a5.81,5.81,0,0,1,11.44,2.08c-1.15,6.33-2.06,12.84-2.78,19.81a5.81,5.81,0,0,1-1.6,11.4Zm368.66,0a5.81,5.81,0,0,1-.32-11.62h0c-.49-4.72-1-9.11-1.69-13.31a5.82,5.82,0,1,1,11.5-1.75c.87,5.68,1.59,11.67,2.2,18.29a5.85,5.85,0,0,1-1,3.83,10.29,10.29,0,0,1-8,4.4q-1.21.09-2.43.15Zm-344.14-.69a5.83,5.83,0,0,1-4.31-9.74,101.52,101.52,0,0,1,2-14.9c.15-.83.31-1.66.46-2.49.21-1.18.43-2.34.66-3.5A5.82,5.82,0,0,1,57,147.27q-.33,1.64-.63,3.3c-.15.85-.31,1.7-.47,2.55a80.83,80.83,0,0,0-1.83,14.62c0,.24,0,.49,0,.73a5.82,5.82,0,0,1-1.29,3.78A10.48,10.48,0,0,1,49.46,175,5.84,5.84,0,0,1,46.79,175.63Zm319.87-.79a5.83,5.83,0,0,1-4.09-1.68,10.27,10.27,0,0,1-.87-1,5.81,5.81,0,0,1-1.22-3.09,210,210,0,0,0-3.22-23.16,5.81,5.81,0,1,1,11.4-2.28,220.89,220.89,0,0,1,3.28,22.92,5.82,5.82,0,0,1-5.28,8.28Zm4.1-10Zm18.87-32.65A5.84,5.84,0,0,1,384,128a183.33,183.33,0,0,0-7.79-22.56A5.82,5.82,0,0,1,387,100.9a199.08,199.08,0,0,1,8.28,24,5.82,5.82,0,0,1-4.06,7.16A6,6,0,0,1,389.63,132.24Zm-331.83-4a5.82,5.82,0,0,1-5.48-7.78,140.31,140.31,0,0,1,10.75-23.3A5.81,5.81,0,1,1,73.12,103a129.48,129.48,0,0,0-9.85,21.37A5.81,5.81,0,0,1,57.8,128.22Zm298.59-1.34a5.81,5.81,0,0,1-5.46-3.82,123.33,123.33,0,0,0-10.06-21.21,5.81,5.81,0,1,1,10-6,134.58,134.58,0,0,1,11,23.22,5.81,5.81,0,0,1-5.47,7.81ZM26.73,126A5.7,5.7,0,0,1,25,125.7a5.82,5.82,0,0,1-3.84-7.28A177.91,177.91,0,0,1,30.38,94.7a5.82,5.82,0,1,1,10.51,5,165.78,165.78,0,0,0-8.6,22.17A5.81,5.81,0,0,1,26.73,126ZM370.39,87.07a5.8,5.8,0,0,1-5-2.77,138.19,138.19,0,0,0-14-19,5.82,5.82,0,0,1,8.73-7.7,149.87,149.87,0,0,1,15.2,20.6,5.81,5.81,0,0,1-4.95,8.86Zm-287.78-1a5.82,5.82,0,0,1-4.3-9.74,119.46,119.46,0,0,1,19.4-17.07,5.82,5.82,0,1,1,6.7,9.51,107,107,0,0,0-17.5,15.4A5.82,5.82,0,0,1,82.61,86.05Zm248.39-1a5.79,5.79,0,0,1-4.23-1.82A113.06,113.06,0,0,0,309,68.08a5.82,5.82,0,0,1,6.62-9.57,124.52,124.52,0,0,1,19.6,16.76A5.82,5.82,0,0,1,331,85.08ZM47.83,81.64a5.76,5.76,0,0,1-3.26-1A5.82,5.82,0,0,1,43,72.56,152.31,152.31,0,0,1,59.11,52.67a5.82,5.82,0,1,1,8.39,8.06A139.33,139.33,0,0,0,52.65,79.09,5.82,5.82,0,0,1,47.83,81.64Zm74.64-23.92a5.82,5.82,0,0,1-2.37-11.13,156.85,156.85,0,0,1,16.65-6.3c2.43-.76,4.91-1.5,7.38-2.17a5.81,5.81,0,1,1,3.08,11.21c-2.32.64-4.66,1.33-7,2.06a144,144,0,0,0-15.42,5.83A5.87,5.87,0,0,1,122.47,57.72ZM290.88,57a5.91,5.91,0,0,1-2.38-.5,142.39,142.39,0,0,0-22.33-7.77,5.82,5.82,0,0,1,2.93-11.26,154.41,154.41,0,0,1,24.16,8.41A5.81,5.81,0,0,1,290.88,57Zm47.06-6.7a5.77,5.77,0,0,1-3.61-1.26,141.14,141.14,0,0,0-19.69-13,5.82,5.82,0,0,1,5.59-10.2A151.64,151.64,0,0,1,341.56,40a5.82,5.82,0,0,1-3.62,10.37Zm-256.1-4a5.82,5.82,0,0,1-3.43-10.52,154.64,154.64,0,0,1,21.85-13.27A5.82,5.82,0,0,1,105.47,33,142.63,142.63,0,0,0,85.26,45.22,5.73,5.73,0,0,1,81.84,46.34Zm87.92-1.86a5.82,5.82,0,0,1-.85-11.58A240.87,240.87,0,0,1,194,30.54a5.82,5.82,0,0,1,.49,11.62,228.4,228.4,0,0,0-23.9,2.25A6.38,6.38,0,0,1,169.76,44.48Zm73.7-.11a6.3,6.3,0,0,1-.75,0c-1.76-.23-3.58-.44-5.41-.63-6.37-.66-12.65-1.15-18.66-1.43a5.82,5.82,0,1,1,.55-11.62c6.23.29,12.73.79,19.32,1.48,1.92.2,3.83.42,5.68.66a5.82,5.82,0,0,1-.73,11.59ZM295,26.6a6,6,0,0,1-2-.36c-1.5-.56-3-1.1-4.57-1.62-6.06-2.05-12.25-3.89-18.39-5.46a5.82,5.82,0,1,1,2.89-11.27c6.42,1.64,12.89,3.56,19.23,5.71,1.63.55,3.27,1.13,4.87,1.72a5.82,5.82,0,0,1-2,11.28ZM125.65,24.26a5.82,5.82,0,0,1-1.81-11.35c3.37-1.1,6.86-2.13,10.38-3.07,4.65-1.24,9.36-2.38,14-3.39a5.82,5.82,0,0,1,2.48,11.37c-4.46,1-9,2.07-13.48,3.26-3.31.88-6.59,1.85-9.76,2.89A5.69,5.69,0,0,1,125.65,24.26ZM247.38,14.4a5.46,5.46,0,0,1-.9-.07c-7.88-1.21-15.93-2.06-23.93-2.51A5.81,5.81,0,1,1,223.2.21c8.38.47,16.8,1.35,25.06,2.63a5.81,5.81,0,0,1-.88,11.56Zm-73.67-.68A5.81,5.81,0,0,1,173,2.14C181.32,1.05,189.76.33,198,0a5.82,5.82,0,0,1,.45,11.63c-7.92.31-16,1-24,2A4.93,4.93,0,0,1,173.71,13.72Z"/><path class="cls-1" d="M325.93,305.36a5.82,5.82,0,0,1-.7-11.59,64.91,64.91,0,0,0,21.55-6.49A5.82,5.82,0,1,1,352,297.66a76.61,76.61,0,0,1-25.4,7.66C326.4,305.34,326.16,305.36,325.93,305.36Zm-24.6,0h-.23l-24.61-.94a5.81,5.81,0,1,1,.44-11.62l24.62.93a5.82,5.82,0,0,1-.22,11.63Zm-49.24-1.87h-.22l-19.62-.75a5.81,5.81,0,0,1,.44-11.62l19.62.74a5.82,5.82,0,0,1-.22,11.63ZM368.86,283.4a5.75,5.75,0,0,1-3.89-1.5,5.82,5.82,0,0,1-.42-8.22,63.57,63.57,0,0,0,11.89-19.07A5.82,5.82,0,1,1,387.23,259a75.39,75.39,0,0,1-14.05,22.54A5.8,5.8,0,0,1,368.86,283.4Z"/><path class="cls-2" d="M409,262.3h-48.9a6.94,6.94,0,0,1-6.94-6.93c2.15-13.62,3.23-25.14,3.81-33.72,1.92-28.61-.41-42.9-1.26-47.61-.88-4.91-1.86-8.9-2.55-11.5a7.09,7.09,0,0,1,2-4.91,6.91,6.91,0,0,1,4.9-2H409a6.93,6.93,0,0,1,6.93,6.94v92.83A6.93,6.93,0,0,1,409,262.3Z"/><path class="cls-2" d="M6.94,262.3H55.83a6.94,6.94,0,0,0,6.94-6.93c-2.15-13.62-3.23-25.14-3.8-33.72C57,193,59.37,178.75,60.22,174c.88-4.91,1.86-8.9,2.55-11.5a7.11,7.11,0,0,0-2-4.91,7,7,0,0,0-4.91-2H6.94A6.94,6.94,0,0,0,0,162.54v92.83A6.94,6.94,0,0,0,6.94,262.3Z"/><ellipse class="cls-2" cx="219.83" cy="297.95" rx="34.39" ry="24.5"/><path class="cls-3" d="M132.13,234a5.32,5.32,0,0,1,4,1.45,4.63,4.63,0,0,1,1.08,3.9L136,249H83.16l.67-5.35a11.39,11.39,0,0,1,1.09-3.34A9.94,9.94,0,0,1,87.56,237l24.18-23.73q3.62-3.57,6.18-6.57a38.09,38.09,0,0,0,4.18-5.88,23.93,23.93,0,0,0,2.37-5.77,24.57,24.57,0,0,0,.75-6.18,9.91,9.91,0,0,0-1.67-6.1q-1.68-2.21-5.35-2.2a8.64,8.64,0,0,0-5.85,2.17,13.86,13.86,0,0,0-3.79,5.35,8.53,8.53,0,0,1-3.45,3.95,8.16,8.16,0,0,1-5.24.39L91.24,191a36.94,36.94,0,0,1,4.51-10.5,29.85,29.85,0,0,1,6.77-7.49,27.15,27.15,0,0,1,8.55-4.49,32.73,32.73,0,0,1,9.86-1.47,25.29,25.29,0,0,1,9.11,1.53,19.53,19.53,0,0,1,6.74,4.23,18,18,0,0,1,4.21,6.46,22.83,22.83,0,0,1,1.44,8.22,28.54,28.54,0,0,1-1.44,9.28,35.52,35.52,0,0,1-3.93,8,52.43,52.43,0,0,1-5.8,7.24q-3.31,3.5-7,7.16l-17.38,17.16a64.66,64.66,0,0,1,6.6-1.62,33.06,33.06,0,0,1,5.93-.61Z"/><path class="cls-3" d="M205.94,217.63l-1.17,9.42a3.46,3.46,0,0,1-1.14,2.17,3.51,3.51,0,0,1-2.48.89h-4.07L194.74,249H180.26l2.28-18.89H152.79a4,4,0,0,1-2.64-.94,3.42,3.42,0,0,1-1.26-2.46l-.66-8.24,40.61-50.58h15.87l-6.13,49.74Zm-21.89,0,2.67-22.22c.15-1.08.31-2.19.5-3.35s.43-2.37.72-3.67l-22.61,29.24Z"/><path class="cls-1" d="M225.43,248.61a12.19,12.19,0,0,1-1.86,2.59,11.42,11.42,0,0,1-2.34,1.89,11.17,11.17,0,0,1-2.59,1.14,9.16,9.16,0,0,1-2.56.39h-7.14l38-81.22a11,11,0,0,1,3.81-4.17,9.66,9.66,0,0,1,5.32-1.51h7Z"/><path class="cls-3" d="M325,167.89l-.89,7a17.1,17.1,0,0,1-1.39,5c-.64,1.28-1.21,2.37-1.73,3.26l-32.76,60.39a13.8,13.8,0,0,1-3.67,3.87,9.56,9.56,0,0,1-5.68,1.59H266.71L300,190.12c1-1.53,2-2.91,3-4.16a35.58,35.58,0,0,1,3.23-3.48h-32.2a3.19,3.19,0,0,1-2.45-1.11,3.06,3.06,0,0,1-.83-2.51l1.39-11Z"/></g></g></svg>