<svg xmlns="http://www.w3.org/2000/svg" xmlns:xlink="http://www.w3.org/1999/xlink" width="123.135" height="109.889" viewBox="0 0 123.135 109.889">
  <defs>
    <clipPath id="clip-path">
      <rect id="Прямоугольник_134" data-name="Прямоугольник 134" width="123.135" height="109.889" fill="#fa4616"/>
    </clipPath>
  </defs>
  <g id="Сгруппировать_232" data-name="Сгруппировать 232" clip-path="url(#clip-path)">
    <path id="Контур_545" data-name="Контур 545" d="M66.278,63.238l10.742,1.519A38.671,38.671,0,0,0,77.045,49.2L66.3,50.685,64.515,46.36l-1.784-4.323L71.4,35.514A38.686,38.686,0,0,0,60.416,24.5l-6.549,8.65-4.318-1.8-4.32-1.8L46.75,18.81a38.7,38.7,0,0,0-15.561-.025l1.487,10.748-4.323,1.784L24.028,33.1l-6.521-8.67A38.647,38.647,0,0,0,6.487,35.416l8.65,6.547-1.795,4.318-1.8,4.32L.8,49.08A38.671,38.671,0,0,0,.778,64.641l10.748-1.487,1.782,4.323L15.093,71.8,6.421,78.323a38.693,38.693,0,0,0,10.986,11.02l6.547-8.65,4.32,1.8,4.318,1.8L31.074,95.029a38.672,38.672,0,0,0,15.561.023L45.146,84.306l4.325-1.784L53.8,80.738l6.521,8.672a38.693,38.693,0,0,0,11.02-10.986l-8.652-6.547,1.8-4.32ZM38.912,72.7A15.777,15.777,0,1,1,54.69,56.919,15.778,15.778,0,0,1,38.912,72.7" transform="translate(0 14.057)" fill="#fa4616"/>
    <path id="Контур_546" data-name="Контур 546" d="M83.7,40.2l6.77-.347A24.163,24.163,0,0,0,88.63,30.3l-6.416,2.192-1.61-2.439L79,27.614l4.542-5.034a24.138,24.138,0,0,0-8.052-5.452L72.5,23.215l-2.863-.586-2.863-.589-.349-6.772a24.192,24.192,0,0,0-9.548,1.839l2.192,6.416-2.439,1.61-2.441,1.61L49.154,22.2a24.211,24.211,0,0,0-5.45,8.054l6.088,2.988L49.2,36.1l-.588,2.863-6.772.347a24.2,24.2,0,0,0,1.839,9.549L50.1,46.669l1.61,2.439,1.61,2.441-4.542,5.034a24.186,24.186,0,0,0,8.052,5.45l2.986-6.086,2.865.588,2.863.588.347,6.77a24.175,24.175,0,0,0,9.549-1.839l-2.194-6.416,2.439-1.61,2.441-1.608,5.034,4.542a24.175,24.175,0,0,0,5.45-8.054l-6.088-2.986.588-2.863ZM68.038,49.26a9.859,9.859,0,1,1,7.8-11.558,9.862,9.862,0,0,1-7.8,11.558" transform="translate(32.663 11.917)" fill="#fa4616"/>
    <path id="Контур_547" data-name="Контур 547" d="M54.979,24.816l4.348,2.422A17.731,17.731,0,0,0,61.9,20.58l-4.847-1.136L57.005,17.3l-.05-2.146,4.788-1.364a17.766,17.766,0,0,0-2.888-6.53L54.627,9.886,53.074,8.4l-1.554-1.48,2.422-4.35A17.746,17.746,0,0,0,47.283,0L46.149,4.847,44,4.9l-2.146.052L40.494.16a17.729,17.729,0,0,0-6.528,2.888l2.625,4.229L35.109,8.83l-1.481,1.553L29.28,7.961A17.739,17.739,0,0,0,26.7,14.621l4.847,1.134L31.6,17.9l.05,2.146-4.788,1.362a17.783,17.783,0,0,0,2.888,6.53l4.229-2.625,1.554,1.481,1.553,1.481-2.422,4.348A17.761,17.761,0,0,0,41.324,35.2l1.134-4.847L44.6,30.3l2.146-.05,1.364,4.786a17.755,17.755,0,0,0,6.528-2.886l-2.625-4.231L53.5,26.369ZM41.7,24.355A7.238,7.238,0,1,1,51.058,20.2,7.238,7.238,0,0,1,41.7,24.355" transform="translate(20.845 0)" fill="#fa4616"/>
  </g>
</svg>
