<svg id="Сгруппировать_422" data-name="Сгруппировать 422" xmlns="http://www.w3.org/2000/svg" xmlns:xlink="http://www.w3.org/1999/xlink" width="105.901" height="96.039" viewBox="0 0 105.901 96.039">
  <defs>
    <clipPath id="clip-path">
      <rect id="Прямоугольник_223" data-name="Прямоугольник 223" width="105.901" height="96.039" fill="#fa4616"/>
    </clipPath>
  </defs>
  <g id="Сгруппировать_421" data-name="Сгруппировать 421" transform="translate(0 0)" clip-path="url(#clip-path)">
    <path id="Контур_675" data-name="Контур 675" d="M18.405,31.06a6.071,6.071,0,0,1,10.359-4.292l7.2,7.208V6.067a6.066,6.066,0,1,1,12.132,0V33.975l7.2-7.208a6.07,6.07,0,1,1,8.584,8.584c-7.59,7.59-13.627,13.625-20.6,20.6a1.765,1.765,0,0,1-2.495,0l-20.6-20.6a6.056,6.056,0,0,1-1.783-4.292" transform="translate(10.918 0)" fill="#fa4616"/>
    <path id="Контур_676" data-name="Контур 676" d="M39.533,75.31a6.072,6.072,0,0,1-8.9-6.825l2.635-9.841L9.107,72.6A6.066,6.066,0,1,1,3.04,62.091L27.2,48.136,17.369,45.5A6.065,6.065,0,1,1,20.5,33.783c10.373,2.783,18.621,4.987,28.143,7.544A1.757,1.757,0,0,1,49.9,43.484L42.354,71.62a6.063,6.063,0,0,1-2.822,3.69" transform="translate(0 19.916)" fill="#fa4616"/>
    <path id="Контур_677" data-name="Контур 677" d="M69.173,34.386A6.073,6.073,0,0,1,67.7,45.5l-9.843,2.634L82.034,62.092A6.067,6.067,0,0,1,75.967,72.6L51.795,58.644l2.643,9.835a6.067,6.067,0,1,1-11.72,3.142c-2.783-10.365-4.987-18.613-7.544-28.135a1.772,1.772,0,0,1,1.251-2.167l28.136-7.536a6.052,6.052,0,0,1,4.612.6" transform="translate(20.83 19.915)" fill="#fa4616"/>
  </g>
</svg>
