<svg xmlns="http://www.w3.org/2000/svg" xmlns:xlink="http://www.w3.org/1999/xlink" width="121.391" height="76.837" viewBox="0 0 121.391 76.837">
  <defs>
    <clipPath id="clip-path">
      <rect id="Прямоугольник_233" data-name="Прямоугольник 233" width="121.391" height="76.837" fill="#fa4616"/>
    </clipPath>
  </defs>
  <g id="Сгруппировать_453" data-name="Сгруппировать 453" transform="translate(0 0)">
    <g id="Сгруппировать_452" data-name="Сгруппировать 452" transform="translate(0 0)" clip-path="url(#clip-path)">
      <path id="Контур_696" data-name="Контур 696" d="M89.879,41.393c-1.641-1.3-3.73-2.908-5.7-4.414-2.726-2.025-6.473-4.72-11.367-8.053-.6-.407-1.228-.819-1.876-1.235-.346-.219-.688-.437-1.031-.652-6.131-3.826-13.65-7.686-15.546-8.65l-4.542,1.443c-1.2,1.819-6.358,8.924-14.117,9.526-.428.043-.851.066-1.241.066a4.287,4.287,0,0,1-3.692-1.453c-.877-1.167-.946-2.886-.215-5.406a1.354,1.354,0,0,1,.081-.207,90.846,90.846,0,0,1,6.931-10.6c-.494-.076-1.009-.152-1.537-.231-3.081-.455-6.267-.927-7.95-1.879-.73-.416-1.883-1.115-3.141-1.895L9.382,35.368l1.309,1.455c.054.066,1.573,1.955,3.711,4.627l.039-.054a5.556,5.556,0,0,1,4.523-2.223A6.861,6.861,0,0,1,23.3,40.787a7.362,7.362,0,0,1,2.408,3.642l1.465-2A5.551,5.551,0,0,1,31.7,40.2a6.855,6.855,0,0,1,4.336,1.614,7.1,7.1,0,0,1,2.522,6.958c.1,0,.189-.016.285-.016a6.875,6.875,0,0,1,4.336,1.614,7.138,7.138,0,0,1,2.546,6.874c.172-.016.345-.028.521-.028a6.889,6.889,0,0,1,4.336,1.611c2.826,2.325,3.535,6.38,1.58,9.036l-1.007,1.359A51.871,51.871,0,0,0,58.37,71.25c.036,0,.072.015.106.019,1.291.327,5.118.918,7.308-.261A10.822,10.822,0,0,0,69.3,67.693l-11.833-5.71a1.249,1.249,0,0,1,1.089-2.249L71.1,65.793a1.082,1.082,0,0,1,.286,0c.858.139,3.378.327,4.642-.5,1.54-1.01,1.864-3.375,1.926-4.526L62.719,51.95a1.25,1.25,0,0,1,1.253-2.164L79.591,58.83c1.092.073,3.63.042,4.763-.874a5.352,5.352,0,0,0,1.61-5.084L67.892,42.023a1.249,1.249,0,1,1,1.288-2.141L88.2,51.3c1.315.339,4.333.77,5.786-1.895,1.085-1.989.689-3.821-1.191-5.609Z" transform="translate(4.617 3.816)" fill="#fa4616"/>
      <path id="Контур_697" data-name="Контур 697" d="M31.924,37.849c1.185-1.611.667-4.135-1.153-5.63a4.36,4.36,0,0,0-2.748-1.046,3.045,3.045,0,0,0-2.516,1.21L17.488,43.314c-1.183,1.6-.665,4.126,1.152,5.628a4.376,4.376,0,0,0,2.745,1.044A3.036,3.036,0,0,0,23.9,48.774l.015-.019Z" transform="translate(8.293 15.341)" fill="#fa4616"/>
      <path id="Контур_698" data-name="Контур 698" d="M34.949,37.953A4.375,4.375,0,0,0,32.2,36.909a3.08,3.08,0,0,0-2.084.762c-.154.137-6.615,8.963-6.615,8.963-.049.067-.079.146-.124.218a3.325,3.325,0,0,0-.281.554,4.468,4.468,0,0,0,1.553,4.857A4.378,4.378,0,0,0,27.4,53.309a3.027,3.027,0,0,0,2.51-1.212L36.1,43.585c1.183-1.609.664-4.13-1.155-5.631" transform="translate(11.256 18.164)" fill="#fa4616"/>
      <path id="Контур_699" data-name="Контур 699" d="M39.2,43.624a4.378,4.378,0,0,0-2.748-1.046,3.031,3.031,0,0,0-2.513,1.215s-4.282,5.842-4.378,6.07a4.452,4.452,0,0,0,1.522,4.975,4.375,4.375,0,0,0,2.751,1.044,3.026,3.026,0,0,0,2.51-1.213l4.011-5.422c1.182-1.607.662-4.127-1.155-5.622" transform="translate(14.414 20.954)" fill="#fa4616"/>
      <path id="Контур_700" data-name="Контур 700" d="M21.691,36.975a4.337,4.337,0,0,0-1.255-5.443,4.367,4.367,0,0,0-2.75-1.047A3.044,3.044,0,0,0,15.17,31.7l-2.559,3.459c-1.179,1.6-.661,4.129,1.156,5.625a4.379,4.379,0,0,0,2.75,1.046,3.1,3.1,0,0,0,2.047-.722c.166-.143,3.089-4.07,3.126-4.129" transform="translate(5.895 15.002)" fill="#fa4616"/>
      <path id="Контур_701" data-name="Контур 701" d="M73.237,9.25a42.711,42.711,0,0,1-5.764-1.1A53.527,53.527,0,0,0,55.191,6.321h-.31c-10.19.1-18.487,1.434-19.727,3.18-.291.407-.628.874-.986,1.368-.267.367-.54.743-.836,1.147-.227.31-.469.645-.707.971a99.744,99.744,0,0,0-7.346,11.083c-.592,2.089-.355,2.84-.158,3.1.284.378,1.079.455,1.7.455a10.027,10.027,0,0,0,1.018-.057C35.285,27,40.243,18.92,40.294,18.84a1.241,1.241,0,0,1,.691-.546l2.469-.785,2.987-.95a1.252,1.252,0,0,1,.936.073c.1.051,8.921,4.464,16.043,8.892.507.315,1.009.63,1.492.945q.862.553,1.662,1.1c4.8,3.269,8.478,5.909,11.194,7.922,4,2.959,5.886,4.542,6.013,4.648h0l2.563,2.116a.093.093,0,0,1,.03-.015,16.061,16.061,0,0,0,4.27-2.848c.771-.7,1.325-1.279,1.862-1.838A23.008,23.008,0,0,1,94.7,35.462c.019-.018.042-.036.061-.052L79.429,8.177A15.794,15.794,0,0,1,73.237,9.25" transform="translate(12.255 3.111)" fill="#fa4616"/>
      <path id="Контур_702" data-name="Контур 702" d="M29.478,6.6A.9.9,0,0,0,29.2,5.407L20.5.1a.7.7,0,0,0-.364-.1.748.748,0,0,0-.655.4L.114,34.8A.9.9,0,0,0,.4,35.993l8.695,5.3a.752.752,0,0,0,1.021-.3Z" transform="translate(0 0)" fill="#fa4616"/>
      <path id="Контур_703" data-name="Контур 703" d="M91,34.8,71.632.4a.752.752,0,0,0-.657-.4.693.693,0,0,0-.361.1l-8.7,5.3A.9.9,0,0,0,61.635,6.6L81,41a.746.746,0,0,0,1.024.3l8.689-5.3A.9.9,0,0,0,91,34.8" transform="translate(30.275 0.001)" fill="#fa4616"/>
    </g>
  </g>
</svg>
