<svg xmlns="http://www.w3.org/2000/svg" xmlns:xlink="http://www.w3.org/1999/xlink" width="77.837" height="77.837" viewBox="0 0 77.837 77.837">
  <defs>
    <clipPath id="clip-path">
      <rect id="Прямоугольник_183" data-name="Прямоугольник 183" width="77.837" height="77.837" fill="#fa4616"/>
    </clipPath>
  </defs>
  <g id="Сгруппировать_447" data-name="Сгруппировать 447" transform="translate(0 0)">
    <g id="Сгруппировать_301" data-name="Сгруппировать 301" transform="translate(0 0)" clip-path="url(#clip-path)">
      <path id="Контур_595" data-name="Контур 595" d="M33.007,27.818a5.189,5.189,0,1,0,0,10.378,5.127,5.127,0,0,0,2.619-.735l-3.536-3.537a1.3,1.3,0,0,1,1.833-1.834l3.537,3.537a5.131,5.131,0,0,0,.736-2.619,5.2,5.2,0,0,0-5.189-5.189" transform="translate(5.911 5.911)" fill="#fa4616"/>
      <path id="Контур_596" data-name="Контур 596" d="M38.918,0A38.918,38.918,0,1,0,77.836,38.918,38.961,38.961,0,0,0,38.918,0m23.85,62.768a1.3,1.3,0,0,1-1.834,0L43.414,45.249a7.76,7.76,0,0,1-12.28-6.33,7.784,7.784,0,1,1,14.115,4.5l1.834,1.834A10.344,10.344,0,0,0,38.915,28.54a1.3,1.3,0,0,1,0-2.595,12.9,12.9,0,0,1,10,21.139l1.834,1.833A15.511,15.511,0,0,0,38.918,23.35a1.3,1.3,0,1,1,0-2.594A18.147,18.147,0,0,1,52.633,50.8l1.834,1.834a20.738,20.738,0,0,0-15.549-34.47,1.3,1.3,0,1,1,0-2.595A23.323,23.323,0,0,1,56.3,54.467L58.136,56.3A25.921,25.921,0,0,0,38.915,12.972a1.3,1.3,0,0,1,0-2.595A28.514,28.514,0,0,1,59.971,58.134L61.833,60A31.135,31.135,0,0,0,38.915,7.783a1.3,1.3,0,0,1,0-2.594A33.728,33.728,0,0,1,62.768,62.768" transform="translate(0 0)" fill="#fa4616"/>
    </g>
  </g>
</svg>
