<svg id="Сгруппировать_586" data-name="Сгруппировать 586" xmlns="http://www.w3.org/2000/svg" xmlns:xlink="http://www.w3.org/1999/xlink" width="140.158" height="108.656" viewBox="0 0 140.158 108.656">
  <defs>
    <clipPath id="clip-path">
      <rect id="Прямоугольник_301" data-name="Прямоугольник 301" width="140.158" height="108.655" fill="none"/>
    </clipPath>
  </defs>
  <g id="Сгруппировать_585" data-name="Сгруппировать 585" clip-path="url(#clip-path)">
    <path id="Контур_971" data-name="Контур 971" d="M15.37,59.416c-.036,0-.072,0-.109,0a3.819,3.819,0,0,1-3.021-1.487,1.958,1.958,0,0,1-.367-1.327c.268-2.992.633-5.74,1.119-8.4a1.96,1.96,0,1,1,3.857.7c-.388,2.133-.7,4.327-.938,6.673a1.961,1.961,0,0,1-.54,3.844m124.228,0a1.96,1.96,0,0,1-.107-3.917h.013c-.166-1.59-.354-3.067-.569-4.484a1.96,1.96,0,0,1,3.875-.59c.291,1.915.534,3.932.74,6.165a1.961,1.961,0,0,1-.335,1.289,3.474,3.474,0,0,1-2.687,1.483q-.41.029-.819.052c-.037,0-.074,0-.111,0M23.634,59.18A1.961,1.961,0,0,1,22.183,55.9a33.84,33.84,0,0,1,.671-5.019q.078-.421.155-.842.108-.593.223-1.177a1.96,1.96,0,0,1,3.845.766q-.11.551-.211,1.109c-.052.286-.105.573-.158.86a27.213,27.213,0,0,0-.617,4.926c0,.083,0,.165,0,.248a1.959,1.959,0,0,1-.436,1.272,3.522,3.522,0,0,1-1.126.918,1.954,1.954,0,0,1-.9.219m107.786-.265a1.953,1.953,0,0,1-1.379-.567,3.551,3.551,0,0,1-.3-.332,1.964,1.964,0,0,1-.41-1.042,70.744,70.744,0,0,0-1.086-7.805,1.96,1.96,0,1,1,3.844-.768,74.123,74.123,0,0,1,1.1,7.724,1.961,1.961,0,0,1-1.777,2.79m1.379-3.353h0m6.358-11a1.961,1.961,0,0,1-1.888-1.437,62.781,62.781,0,0,0-2.625-7.6A1.96,1.96,0,1,1,138.258,34a66.676,66.676,0,0,1,2.79,8.078,1.961,1.961,0,0,1-1.89,2.483M27.342,43.206A1.962,1.962,0,0,1,25.5,40.585a47.324,47.324,0,0,1,3.622-7.851,1.96,1.96,0,1,1,3.389,1.972,43.37,43.37,0,0,0-3.319,7.2,1.961,1.961,0,0,1-1.846,1.3m100.617-.451a1.96,1.96,0,0,1-1.842-1.289,41.384,41.384,0,0,0-3.391-7.147,1.96,1.96,0,0,1,3.358-2.022,45.324,45.324,0,0,1,3.715,7.825,1.961,1.961,0,0,1-1.841,2.633m-111.084-.31A1.961,1.961,0,0,1,15,39.905a59.981,59.981,0,0,1,3.1-7.994,1.96,1.96,0,0,1,3.541,1.682,56.082,56.082,0,0,0-2.9,7.47,1.961,1.961,0,0,1-1.872,1.382m115.8-13.1A1.958,1.958,0,0,1,131,28.407a46.684,46.684,0,0,0-4.722-6.4,1.96,1.96,0,0,1,2.941-2.592,50.572,50.572,0,0,1,5.12,6.939,1.96,1.96,0,0,1-1.668,2.987M35.7,29a1.96,1.96,0,0,1-1.447-3.281,40.23,40.23,0,0,1,6.536-5.752,1.96,1.96,0,1,1,2.258,3.2,36.339,36.339,0,0,0-5.9,5.19A1.954,1.954,0,0,1,35.7,29m83.7-.325a1.954,1.954,0,0,1-1.424-.613,38.052,38.052,0,0,0-5.986-5.118,1.96,1.96,0,1,1,2.231-3.223,41.983,41.983,0,0,1,6.6,5.648,1.96,1.96,0,0,1-1.424,3.307M23.984,27.512a1.961,1.961,0,0,1-1.62-3.061,51.2,51.2,0,0,1,5.421-6.7,1.96,1.96,0,1,1,2.826,2.717,47.254,47.254,0,0,0-5,6.189,1.958,1.958,0,0,1-1.623.859m25.152-8.061a1.96,1.96,0,0,1-.8-3.75,52.908,52.908,0,0,1,5.612-2.123c.817-.258,1.654-.505,2.487-.734a1.96,1.96,0,1,1,1.039,3.78c-.785.216-1.574.448-2.344.692a49.046,49.046,0,0,0-5.2,1.964,1.954,1.954,0,0,1-.8.171m56.746-.229a1.948,1.948,0,0,1-.8-.172,48.224,48.224,0,0,0-7.524-2.617,1.96,1.96,0,0,1,.987-3.794,52.117,52.117,0,0,1,8.138,2.833,1.96,1.96,0,0,1-.8,3.75m15.858-2.258a1.952,1.952,0,0,1-1.217-.425,47.429,47.429,0,0,0-6.635-4.395,1.96,1.96,0,0,1,1.886-3.436,51.273,51.273,0,0,1,7.185,4.76,1.96,1.96,0,0,1-1.219,3.5m-86.3-1.349a1.96,1.96,0,0,1-1.157-3.544A51.982,51.982,0,0,1,41.653,7.6a1.96,1.96,0,0,1,1.754,3.506A47.993,47.993,0,0,0,36.6,15.239a1.952,1.952,0,0,1-1.153.376m29.625-.628a1.96,1.96,0,0,1-.287-3.9,80.564,80.564,0,0,1,8.468-.8,1.96,1.96,0,0,1,.165,3.917,76.5,76.5,0,0,0-8.054.758,2,2,0,0,1-.292.022M89.9,14.951a1.987,1.987,0,0,1-.251-.016c-.593-.076-1.207-.147-1.824-.212-2.147-.224-4.263-.387-6.289-.483a1.96,1.96,0,1,1,.185-3.916c2.1.1,4.291.267,6.511.5.647.068,1.291.142,1.914.222a1.96,1.96,0,0,1-.246,3.9m17.376-5.988a1.956,1.956,0,0,1-.678-.122c-.505-.187-1.024-.37-1.541-.545-2.043-.691-4.127-1.31-6.2-1.839a1.96,1.96,0,1,1,.972-3.8c2.164.554,4.345,1.2,6.481,1.923.551.186,1.1.381,1.642.581a1.96,1.96,0,0,1-.679,3.8M50.205,8.175A1.96,1.96,0,0,1,49.6,4.352c1.137-.372,2.313-.72,3.5-1.035,1.568-.418,3.155-.8,4.717-1.142a1.96,1.96,0,0,1,.834,3.831c-1.5.327-3.032.7-4.543,1.1-1.114.3-2.219.623-3.286.972a1.955,1.955,0,0,1-.61.1M91.225,4.854a1.953,1.953,0,0,1-.3-.023c-2.656-.41-5.369-.695-8.063-.846A1.96,1.96,0,0,1,83.079.071C85.9.229,88.74.527,91.522.957a1.96,1.96,0,0,1-.3,3.9M66.4,4.625A1.96,1.96,0,0,1,66.15.72C68.967.353,71.809.111,74.6,0a1.96,1.96,0,1,1,.153,3.917c-2.668.1-5.391.336-8.092.689a2,2,0,0,1-.256.017" transform="translate(-7.867 0)" fill="#fa4616"/>
    <path id="Контур_972" data-name="Контур 972" d="M260.106,269.292a1.96,1.96,0,0,1-.236-3.906,21.857,21.857,0,0,0,7.261-2.186,1.96,1.96,0,1,1,1.774,3.5,25.753,25.753,0,0,1-8.559,2.581,2,2,0,0,1-.24.014m-8.289-.006h-.075l-8.3-.315a1.96,1.96,0,0,1,.149-3.918l8.3.315a1.96,1.96,0,0,1-.073,3.919m-16.591-.63h-.076l-6.61-.251a1.96,1.96,0,1,1,.149-3.917l6.61.251a1.96,1.96,0,0,1-.073,3.919m39.349-6.763a1.96,1.96,0,0,1-1.453-3.275,21.5,21.5,0,0,0,4.005-6.426,1.96,1.96,0,0,1,3.638,1.461,25.4,25.4,0,0,1-4.735,7.594,1.956,1.956,0,0,1-1.455.646" transform="translate(-150.28 -166.397)" fill="#fa4616"/>
    <path id="Контур_973" data-name="Контур 973" d="M371.987,191.555H355.51a2.337,2.337,0,0,1-2.337-2.337c.725-4.589,1.086-8.471,1.281-11.36.65-9.643-.136-14.457-.422-16.044-.3-1.657-.627-3-.859-3.877a2.388,2.388,0,0,1,.685-1.652,2.33,2.33,0,0,1,1.652-.685h16.477a2.337,2.337,0,0,1,2.337,2.337v31.281a2.337,2.337,0,0,1-2.337,2.337" transform="translate(-234.166 -103.168)" fill="#fa4616"/>
    <path id="Контур_974" data-name="Контур 974" d="M2.337,191.555H18.814a2.337,2.337,0,0,0,2.337-2.337c-.725-4.589-1.086-8.471-1.281-11.36-.65-9.643.136-14.457.422-16.044.3-1.657.627-3,.859-3.877a2.388,2.388,0,0,0-.685-1.652,2.33,2.33,0,0,0-1.652-.685H2.337A2.337,2.337,0,0,0,0,157.936v31.281a2.337,2.337,0,0,0,2.337,2.337" transform="translate(0 -103.168)" fill="#fa4616"/>
    <path id="Контур_975" data-name="Контур 975" d="M208.615,281.712c0,4.559-5.188,8.255-11.588,8.255s-11.588-3.7-11.588-8.255,5.188-8.255,11.588-8.255,11.588,3.7,11.588,8.255" transform="translate(-122.952 -181.311)" fill="#fa4616"/>
    <path id="Контур_976" data-name="Контур 976" d="M99.662,189.579a1.782,1.782,0,0,1,1.361.488,1.563,1.563,0,0,1,.366,1.314l-.413,3.248H83.162l.225-1.8a3.852,3.852,0,0,1,.366-1.126,3.4,3.4,0,0,1,.892-1.108l8.146-8q1.22-1.2,2.084-2.215a12.717,12.717,0,0,0,1.408-1.98,8.125,8.125,0,0,0,.8-1.943,8.253,8.253,0,0,0,.253-2.083,3.332,3.332,0,0,0-.563-2.055,2.118,2.118,0,0,0-1.8-.741,2.917,2.917,0,0,0-1.971.732,4.647,4.647,0,0,0-1.276,1.8,2.9,2.9,0,0,1-1.164,1.333,2.749,2.749,0,0,1-1.764.131l-2.91-.506A12.393,12.393,0,0,1,87.4,171.53a10.087,10.087,0,0,1,2.281-2.525,9.143,9.143,0,0,1,2.881-1.511,10.988,10.988,0,0,1,3.322-.5,8.511,8.511,0,0,1,3.069.516,6.564,6.564,0,0,1,2.271,1.427,6.047,6.047,0,0,1,1.417,2.177,7.645,7.645,0,0,1,.488,2.768,9.55,9.55,0,0,1-.488,3.125,11.9,11.9,0,0,1-1.323,2.685,17.582,17.582,0,0,1-1.952,2.44q-1.118,1.173-2.375,2.412L91.14,190.33a21.717,21.717,0,0,1,2.224-.545,10.916,10.916,0,0,1,2-.207Z" transform="translate(-55.139 -110.725)" fill="#fa4616"/>
    <path id="Контур_977" data-name="Контур 977" d="M167.672,184.652l-.394,3.172a1.168,1.168,0,0,1-.384.732,1.191,1.191,0,0,1-.835.3h-1.37l-.788,6.363h-4.88l.77-6.363H149.764a1.356,1.356,0,0,1-.892-.319,1.138,1.138,0,0,1-.422-.826l-.225-2.779,13.684-17.044h5.35l-2.065,16.763Zm-7.377,0,.9-7.49q.075-.544.169-1.126t.244-1.239l-7.621,9.855Z" transform="translate(-98.278 -111.316)" fill="#fa4616"/>
    <path id="Контур_978" data-name="Контур 978" d="M214.5,194.977a4.035,4.035,0,0,1-.629.872,3.723,3.723,0,0,1-1.662,1.024,3.092,3.092,0,0,1-.863.131h-2.4l12.8-27.369a3.735,3.735,0,0,1,1.286-1.408,3.271,3.271,0,0,1,1.793-.506h2.365Z" transform="translate(-138.538 -111.206)" fill="#fa4616"/>
    <path id="Контур_979" data-name="Контур 979" d="M286.347,167.889l-.3,2.346a5.744,5.744,0,0,1-.469,1.7q-.319.647-.582,1.1L273.958,193.38a4.637,4.637,0,0,1-1.239,1.3,3.22,3.22,0,0,1-1.915.535h-4.092l11.225-19.841q.507-.77,1.014-1.4a11.5,11.5,0,0,1,1.088-1.173H269.19a1.069,1.069,0,0,1-.826-.375,1.032,1.032,0,0,1-.282-.844l.469-3.7Z" transform="translate(-176.839 -111.316)" fill="#fa4616"/>
  </g>
</svg>
