<svg id="Сгруппировать_598" data-name="Сгруппировать 598" xmlns="http://www.w3.org/2000/svg" xmlns:xlink="http://www.w3.org/1999/xlink" width="130.315" height="129.957" viewBox="0 0 130.315 129.957">
  <defs>
    <clipPath id="clip-path">
      <rect id="Прямоугольник_307" data-name="Прямоугольник 307" width="130.315" height="129.957" fill="none"/>
    </clipPath>
  </defs>
  <g id="Сгруппировать_597" data-name="Сгруппировать 597" clip-path="url(#clip-path)">
    <path id="Контур_1018" data-name="Контур 1018" d="M154.871,139.669h0l-5.351-5.327c-9.085-9.042-18.481-18.392-27.611-27.689-1.926-1.961-4.406-3.874-8.212-3.195a1.55,1.55,0,0,1-1.523-.5,33.156,33.156,0,0,0,2.31-3.316,26.788,26.788,0,0,1,2.342-3.306c2.307-2.632,4.138-7.526,5.6-14.962l.007-.037a54.542,54.542,0,0,0,.806-10.515v-.039c-.044-.969-.115-1.948-.211-2.909a55.519,55.519,0,0,0-1.548-8.6l-.007-.024c-.3-1.064-.635-2.132-1-3.177a50.576,50.576,0,0,0-9.5-16.26,48.1,48.1,0,0,0-5.442-5.25,1.668,1.668,0,0,0-2.161,2.54,44.818,44.818,0,0,1,5.1,4.918,47.16,47.16,0,0,1,8.859,15.166c.343.97.657,1.962.933,2.949a52.134,52.134,0,0,1,1.452,8.071c.089.9.155,1.809.2,2.714a51.211,51.211,0,0,1-.755,9.832c-1.324,6.739-2.949,11.244-4.83,13.389a29.7,29.7,0,0,0-2.646,3.712,27.58,27.58,0,0,1-2.275,3.229,2.578,2.578,0,0,0-.007,3.785,5.024,5.024,0,0,0,4.893,1.878c1.908-.34,3.281.248,5.246,2.248,9.144,9.311,18.546,18.667,27.638,27.716l4.948,4.925c-2.771,2.714-5.63,5.569-8.713,8.7-12.752-12.779-25.277-25.285-34.794-34.783a1.082,1.082,0,0,1-.081-.089v0c.019-.442,0-.86-.011-1.265a7.683,7.683,0,0,1,.029-1.423,5.615,5.615,0,0,0-2.4-5.486l-.044-.037a2.02,2.02,0,0,0-2.822.016,47.949,47.949,0,0,1-8.614,5.99l-2.114.98c-.992.434-2.015.839-3.041,1.2a53.612,53.612,0,0,1-12,2.587c-10.568.859-23.34-3.022-31.782-9.655a50.538,50.538,0,0,1-5.488-5.1c-.447-.49-.881-.995-1.309-1.507a1.765,1.765,0,0,0-2.182-.03,1.79,1.79,0,0,0-.043,2.572q.527.617,1.071,1.214a54.2,54.2,0,0,0,5.889,5.472c8.22,6.459,20.27,10.485,30.91,10.484,1.084,0,2.154-.042,3.2-.127a57.347,57.347,0,0,0,12.57-2.673l.277-.1h0c1.105-.394,2.207-.83,3.276-1.3l2.229-1.033.127-.066a54.331,54.331,0,0,0,8.438-5.722,1.881,1.881,0,0,1,.556,1.774,10.408,10.408,0,0,0-.07,2.079c.013.355.025.69.012,1a3.313,3.313,0,0,0,1.057,2.6c9.632,9.612,22.342,22.3,35.251,35.24a2.709,2.709,0,0,0,1.9.927h.009a2.663,2.663,0,0,0,1.884-.918c3.412-3.473,6.545-6.6,9.576-9.564a2.477,2.477,0,0,0,0-3.927" transform="translate(-25.526 -24.12)" fill="#fa4616"/>
    <path id="Контур_1019" data-name="Контур 1019" d="M58.018,108.324a38.766,38.766,0,0,0,31.632-1.249,38.022,38.022,0,0,0,14.966-12.732,39.386,39.386,0,0,0,6.3-18.69l0-.024a35.481,35.481,0,0,0,0-5.308,34.286,34.286,0,0,0-4.443-15.381c-4.137-7.109-9.414-12.392-15.682-15.7s-13.579-4.682-21.774-4.1a35.76,35.76,0,0,0-25.33,12.757,38.7,38.7,0,0,0-9.058,18.129,38.082,38.082,0,0,0,1.966,20.1,37.274,37.274,0,0,0,21.421,22.2m-11.8-58.26a32.346,32.346,0,0,1,23.032-11.6q1.694-.119,3.328-.119c13.525,0,23.947,6.136,31.011,18.275a30.992,30.992,0,0,1,4,13.912l0,.027a32.094,32.094,0,0,1,0,4.807c-1.207,13.263-7.742,22.927-19.423,28.724a35.429,35.429,0,0,1-28.908,1.141A33.981,33.981,0,0,1,39.733,84.992c-4.62-12.768-2.437-24.52,6.488-34.928" transform="translate(-24.023 -24.697)" fill="#fa4616"/>
    <path id="Контур_1020" data-name="Контур 1020" d="M402.168,430.445Z" transform="translate(-283.716 -303.664)" fill="#fa4616"/>
    <path id="Контур_1021" data-name="Контур 1021" d="M281.806,310.222h0Z" transform="translate(-198.805 -218.851)" fill="#fa4616"/>
    <path id="Контур_1022" data-name="Контур 1022" d="M292.922,266.255h0" transform="translate(-206.647 -187.834)" fill="#fa4616"/>
    <path id="Контур_1023" data-name="Контур 1023" d="M9.161,75.657a1.334,1.334,0,0,1-1.133-.628A54.046,54.046,0,0,1,5.37,70.248a1.334,1.334,0,1,1,2.395-1.176,51.357,51.357,0,0,0,2.526,4.544,1.335,1.335,0,0,1-1.13,2.041m-4.7-9.564a1.335,1.335,0,0,1-1.251-.872A53.127,53.127,0,0,1,1.584,60a1.334,1.334,0,1,1,2.585-.661A50.425,50.425,0,0,0,5.716,64.3a1.335,1.335,0,0,1-1.251,1.8M1.826,55.771A1.334,1.334,0,0,1,.508,54.63,51.678,51.678,0,0,1,0,49.178a1.334,1.334,0,1,1,2.666-.1,49.177,49.177,0,0,0,.48,5.17,1.336,1.336,0,0,1-1.321,1.528M1.414,45.126c-.031,0-.062,0-.093,0A1.334,1.334,0,0,1,.082,43.7a49.5,49.5,0,0,1,.68-5.439,1.334,1.334,0,1,1,2.625.478,46.975,46.975,0,0,0-.643,5.146,1.334,1.334,0,0,1-1.33,1.242M3.328,34.65a1.335,1.335,0,0,1-1.277-1.722,46.806,46.806,0,0,1,1.9-5.151,1.334,1.334,0,1,1,2.444,1.069A44.088,44.088,0,0,0,4.6,33.7a1.335,1.335,0,0,1-1.276.947M7.6,24.9a1.335,1.335,0,0,1-1.148-2.013A44.732,44.732,0,0,1,9.2,18.776q.167-.223.338-.444a1.334,1.334,0,0,1,2.114,1.628q-.16.208-.318.418a41.966,41.966,0,0,0-2.58,3.863A1.334,1.334,0,0,1,7.6,24.9m6.5-8.43a1.334,1.334,0,0,1-.948-2.273,45.7,45.7,0,0,1,4.094-3.663A1.334,1.334,0,1,1,18.9,12.623a43.032,43.032,0,0,0-3.854,3.449,1.33,1.33,0,0,1-.948.4m8.343-6.615a1.334,1.334,0,0,1-.7-2.47,48.427,48.427,0,0,1,4.826-2.607A1.334,1.334,0,0,1,27.7,7.192a45.658,45.658,0,0,0-4.559,2.463,1.327,1.327,0,0,1-.7.2m51.969-.071a1.327,1.327,0,0,1-.671-.182c-.336-.2-.68-.392-1.022-.581a1.334,1.334,0,0,1,1.292-2.334c.36.2.722.4,1.075.611a1.334,1.334,0,0,1-.674,2.487m-5.839-2.94a1.325,1.325,0,0,1-.524-.108,50.923,50.923,0,0,0-4.877-1.8,1.334,1.334,0,0,1,.793-2.548A53.675,53.675,0,0,1,69.1,4.281a1.334,1.334,0,0,1-.525,2.561M32.082,5.325a1.334,1.334,0,0,1-.43-2.6,50.983,50.983,0,0,1,5.273-1.481,1.334,1.334,0,0,1,.583,2.6,48.244,48.244,0,0,0-5,1.4,1.327,1.327,0,0,1-.43.072M58.4,3.678a1.329,1.329,0,0,1-.264-.027A50.411,50.411,0,0,0,53,2.892,1.334,1.334,0,0,1,53.253.236a53.075,53.075,0,0,1,5.413.8A1.334,1.334,0,0,1,58.4,3.678M42.474,3a1.334,1.334,0,0,1-.15-2.66A52.4,52.4,0,0,1,47.786,0H47.8a1.334,1.334,0,0,1,.012,2.668,49.89,49.89,0,0,0-5.183.319A1.343,1.343,0,0,1,42.474,3" transform="translate(0 -0.001)" fill="#fa4616"/>
    <path id="Контур_1024" data-name="Контур 1024" d="M109.315,185.353H88.473a2.727,2.727,0,0,1-1.131-.16,1.816,1.816,0,0,1-1.153-1.782c0-1.877,0-3.754,0-5.632q0-5.529,0-11.058c0-.518,0-.519.5-.333a53.088,53.088,0,0,0,11.227,2.757c2.251.321,4.51.552,6.782.653.333.015.459.137.449.472-.018.644-.01,1.288,0,1.932a1.711,1.711,0,0,0,1.789,1.785q2.384.01,4.768,0a1.71,1.71,0,0,0,1.783-1.79c.006-.644.016-1.288,0-1.932-.01-.341.128-.451.455-.466a70.2,70.2,0,0,0,10.666-1.323,47.656,47.656,0,0,0,7.266-2.059c.563-.211.573-.2.573.386q0,8.263,0,16.526a1.874,1.874,0,0,1-1.913,2.02c-.164.01-.329.005-.493.005H109.315" transform="translate(-60.802 -117.301)" fill="#fa4616"/>
    <path id="Контур_1025" data-name="Контур 1025" d="M132.413,104.1h.008V98.633a2.156,2.156,0,0,0-.62-1.706,2.219,2.219,0,0,0-1.629-.506c-2.461.006-4.922,0-7.382.011-.384,0-.52-.119-.5-.5.026-.531.014-1.064,0-1.6a8.187,8.187,0,0,0-.056-1.591,1.573,1.573,0,0,0-1.476-1.244l-.128-.058a27.993,27.993,0,0,0-11.1-2.3,32.921,32.921,0,0,0-3.407.178,26.705,26.705,0,0,0-8.256,2.146l-.057.026a1.555,1.555,0,0,0-1.128.555,1.7,1.7,0,0,0-.415,1.216c0,.852,0,1.7,0,2.554,0,.613,0,.614-.615.614q-3.751,0-7.5,0a1.888,1.888,0,0,0-1.9,1.3,3.383,3.383,0,0,0-.11,1.027q0,3.95,0,7.9c0,1.051.016,2.1.014,3.152a.39.39,0,0,0,.283.419c.646.247,1.279.528,1.931.757A61,61,0,0,0,104.786,114c.326.021.456-.084.45-.421-.015-.864-.011-1.729,0-2.594a1.617,1.617,0,0,1,1.675-1.7q2.374-.021,4.748,0a1.619,1.619,0,0,1,1.671,1.7c.009.692-.005,1.383,0,2.075.013.977-.164.96.923.892a69.44,69.44,0,0,0,9.871-1.3,43.2,43.2,0,0,0,7.854-2.367.605.605,0,0,0,.437-.649c-.011-1.848-.006-3.7-.006-5.546m-13.873-7.675H100.064c-.6,0-.592,0-.6-.589-.009-.478.006-.957.012-1.435l.152-.064a24.051,24.051,0,0,1,8.6-1.824A24.906,24.906,0,0,1,119.077,94.4l.018.007c0,.489,0,.977,0,1.466,0,.549,0,.55-.559.55" transform="translate(-60.77 -62.883)" fill="#fa4616"/>
    <path id="Контур_1026" data-name="Контур 1026" d="M153.829,165.767c0-.973-.006-1.945,0-2.918.006-.852.255-1.09,1.112-1.09q2.137,0,4.274,0c.725,0,1.007.255,1.011.981q.018,3.041,0,6.082c-.005.732-.272,1-1,1q-2.178.023-4.356,0c-.768-.007-1.024-.276-1.034-1.06-.012-1,0-2,0-3m1.236-.042c0,.822.008,1.644,0,2.466,0,.3.114.411.413.408,1.041-.01,2.083-.008,3.124,0,.27,0,.4-.083.4-.376q-.011-2.446,0-4.891c0-.286-.112-.383-.391-.381-1.041.01-2.083.014-3.124,0-.328-.005-.43.119-.424.433.014.781,0,1.562,0,2.343" transform="translate(-108.519 -114.115)" fill="#fa4616"/>
  </g>
</svg>
