<svg xmlns="http://www.w3.org/2000/svg" xmlns:xlink="http://www.w3.org/1999/xlink" width="95.719" height="115.356" viewBox="0 0 95.719 115.356">
  <defs>
    <clipPath id="clip-path">
      <rect id="Прямоугольник_204" data-name="Прямоугольник 204" width="95.719" height="115.356" fill="#fa4616"/>
    </clipPath>
  </defs>
  <g id="Сгруппировать_382" data-name="Сгруппировать 382" transform="translate(0 0)">
    <g id="Сгруппировать_381" data-name="Сгруппировать 381" transform="translate(0 0)" clip-path="url(#clip-path)">
      <path id="Контур_639" data-name="Контур 639" d="M95.437,27.662l-1.67-1.481A131.471,131.471,0,0,0,49.5.46L48.105.037a.847.847,0,0,0-.49,0L46.222.46A131.488,131.488,0,0,0,1.952,26.18L.282,27.662A.845.845,0,0,0,0,28.316l.067,2.23A119.388,119.388,0,0,0,6.207,61.738,109.23,109.23,0,0,0,19.494,88.9a87.386,87.386,0,0,0,25.356,24.7l2.559,1.623a.842.842,0,0,0,.9,0l2.559-1.623A87.345,87.345,0,0,0,76.224,88.9,109.172,109.172,0,0,0,89.511,61.738a119.517,119.517,0,0,0,6.142-31.192l.065-2.23a.839.839,0,0,0-.282-.654M84.2,33.233A115.965,115.965,0,0,1,78.745,58.5c-6.329,18.8-16.543,33.329-30.4,43.251a.845.845,0,0,1-.979,0C33.519,91.833,23.3,77.3,16.974,58.5a116.025,116.025,0,0,1-5.455-25.271.836.836,0,0,1,.3-.724,124.64,124.64,0,0,1,35.757-20.64.833.833,0,0,1,.569,0A124.663,124.663,0,0,1,83.9,32.509a.839.839,0,0,1,.3.724" transform="translate(0 0)" fill="#fa4616"/>
      <path id="Контур_640" data-name="Контур 640" d="M58.677,20.937a.388.388,0,0,0-.549.022L34.071,46.979a.388.388,0,0,1-.549.022L22.606,36.91a.388.388,0,0,0-.549.02l-7.1,7.68a.388.388,0,0,0,.022.549L34.145,62.879a.39.39,0,0,0,.55-.022L66.377,28.586a.386.386,0,0,0-.022-.549Z" transform="translate(9.925 13.921)" fill="#fa4616"/>
    </g>
  </g>
</svg>
