<svg xmlns="http://www.w3.org/2000/svg" viewBox="0 0 398.66 424.87"><defs><style>.cls-1{fill:#fa4616;}.cls-2{fill:#002234;}</style></defs><title>icon-security-consulting</title><g id="Слой_2" data-name="Слой 2"><g id="Layer_1" data-name="Layer 1"><path class="cls-1" d="M200,379.78a2.8,2.8,0,0,0-1.37-1.86l-68-38.3a2.8,2.8,0,0,0-2.62-.08,2.83,2.83,0,0,0-1.55,2.13,28.71,28.71,0,0,1-2.77,8.85,23.2,23.2,0,0,1-6.47,8.39,24.45,24.45,0,0,1-10,4.44,31.49,31.49,0,0,1-6.2.86,31.5,31.5,0,0,1-6.19-.86,24.45,24.45,0,0,1-10-4.44,23.2,23.2,0,0,1-6.47-8.39,28.72,28.72,0,0,1-2.78-8.85,2.8,2.8,0,0,0-4.16-2.05l-68,38.3A2.81,2.81,0,0,0,2.55,382a66.91,66.91,0,0,0,8.75,9.75,81.13,81.13,0,0,0,8.26,6.49A125.48,125.48,0,0,0,33,407c6,3.32,10.71,5,17.19,7.24a148.86,148.86,0,0,0,23.66,6.78,125.59,125.59,0,0,0,13.74,1.8,2.82,2.82,0,0,0,.85-5.58,119.4,119.4,0,0,1-13.55-1.75A142.26,142.26,0,0,1,52.06,409c-6.23-2.19-10.72-3.77-16.35-6.86a118.23,118.23,0,0,1-12.86-8.39,79.19,79.19,0,0,1-7.75-6.08A62.18,62.18,0,0,1,9,381.23l61.83-34.82a34.1,34.1,0,0,0,2.51,6.64,28.63,28.63,0,0,0,8,10.29,29.83,29.83,0,0,0,12.13,5.47,36.89,36.89,0,0,0,7.33,1h.43a37.23,37.23,0,0,0,7.29-1,29.83,29.83,0,0,0,12.13-5.47,28.7,28.7,0,0,0,8-10.29,34.13,34.13,0,0,0,2.52-6.64l61.83,34.82a60.72,60.72,0,0,1-5.66,6,2.83,2.83,0,0,0,4,4c4.43-4.37,7.45-7.86,8.19-9.23A3.31,3.31,0,0,0,200,379.78Z"/><path class="cls-1" d="M87.79,424.87h-.33a128.58,128.58,0,0,1-14-1.83,150.52,150.52,0,0,1-24-6.86c-6.56-2.31-11.3-4-17.48-7.37a128,128,0,0,1-13.65-8.89A85.09,85.09,0,0,1,10,393.26a68.81,68.81,0,0,1-9-10,4.82,4.82,0,0,1,1.52-7l68-38.31a4.81,4.81,0,0,1,7.12,3.51,26.84,26.84,0,0,0,2.59,8.24,21,21,0,0,0,5.92,7.72,22.33,22.33,0,0,0,9.21,4.06,28.89,28.89,0,0,0,5.72.81,28.68,28.68,0,0,0,5.72-.81,22.36,22.36,0,0,0,9.22-4.06,21.15,21.15,0,0,0,5.92-7.72,26.56,26.56,0,0,0,2.58-8.24,4.82,4.82,0,0,1,7.13-3.51l68,38.31a4.82,4.82,0,0,1,2.34,3.18h0a5.27,5.27,0,0,1-.68,3.63c-.92,1.7-4.2,5.41-8.54,9.71l-.13.11a4.83,4.83,0,0,1-6.76-6.86l.16-.16c1.38-1.28,2.69-2.63,3.92-4l-57.54-32.4a35.3,35.3,0,0,1-1.92,4.57,30.49,30.49,0,0,1-8.57,11,31.64,31.64,0,0,1-12.89,5.85,39.28,39.28,0,0,1-7.66,1.08h-.12a1.07,1.07,0,0,1-.18,0,.88.88,0,0,1-.23,0h-.12a39.58,39.58,0,0,1-7.69-1.08,31.69,31.69,0,0,1-12.89-5.85,30.55,30.55,0,0,1-8.56-11,34,34,0,0,1-1.92-4.57l-57.55,32.4c1.37,1.53,2.81,3,4.32,4.38A75.29,75.29,0,0,0,24,392.09a117.24,117.24,0,0,0,12.65,8.27c5.49,3,9.92,4.57,16,6.73l.73.25a136.86,136.86,0,0,0,21.81,6.23,120.72,120.72,0,0,0,13.32,1.72l.3,0a4.91,4.91,0,0,1,3.9,4.88,4.81,4.81,0,0,1-1.6,3.36A5,5,0,0,1,87.79,424.87ZM72.85,341.25a.8.8,0,0,0-.4.11l-68,38.3a.83.83,0,0,0-.39.54.82.82,0,0,0,.14.66,65.06,65.06,0,0,0,8.49,9.45,78.81,78.81,0,0,0,8.08,6.35A123,123,0,0,0,34,405.29c5.89,3.23,10.51,4.86,16.89,7.11a148.71,148.71,0,0,0,23.37,6.7,125.72,125.72,0,0,0,13.52,1.77,1.06,1.06,0,0,0,.76-.27.78.78,0,0,0,.28-.52.92.92,0,0,0-.67-.82,122.74,122.74,0,0,1-13.58-1.76,140.72,140.72,0,0,1-22.41-6.38l-.73-.26c-6.31-2.22-10.87-3.83-16.65-7a121,121,0,0,1-13.06-8.52,77.85,77.85,0,0,1-7.93-6.23,63.22,63.22,0,0,1-6.26-6.62L6,380.65,72.14,343.4l.66,2.5a32.3,32.3,0,0,0,2.37,6.25,26.78,26.78,0,0,0,7.47,9.62A28,28,0,0,0,94,366.87a35.06,35.06,0,0,0,6.94,1h.27a35.3,35.3,0,0,0,6.9-1,28,28,0,0,0,11.36-5.1,26.78,26.78,0,0,0,7.47-9.62,32.3,32.3,0,0,0,2.37-6.25l.66-2.5,66.16,37.25-1.51,1.84a62.31,62.31,0,0,1-5.74,6.12.86.86,0,0,0,.09,1.07.85.85,0,0,0,1.08.09c4.8-4.75,7.27-7.8,7.75-8.69a1.71,1.71,0,0,0,.29-.88.81.81,0,0,0-.4-.54l-68-38.3a.82.82,0,0,0-.76,0,.83.83,0,0,0-.45.61,30.39,30.39,0,0,1-3,9.47,24.86,24.86,0,0,1-7,9.07,26.24,26.24,0,0,1-10.74,4.8,33.75,33.75,0,0,1-6.59.92H101a33.65,33.65,0,0,1-6.58-.92,26.27,26.27,0,0,1-10.75-4.8,25.09,25.09,0,0,1-7-9.07,30.93,30.93,0,0,1-3-9.47.82.82,0,0,0-.8-.7Zm28.32,26.6h0Z"/><path class="cls-1" d="M153.7,234.38c-4.87-20.1-17.44-32.33-37.36-36.35-14.5-2.93-28-2.05-40.21,2.61-15,5.73-24.49,17-28.26,33.44A95.61,95.61,0,0,0,53,292.55,84.57,84.57,0,0,0,59,303.79a49.44,49.44,0,0,0,16,18.76c8,5.61,16.51,8.5,25.13,8.6h.51a42.45,42.45,0,0,0,7.74-.71l.07,0c10.78-2,17-6.34,20.27-9.62,1.58-1.57,5-5.38,5.26-5.69,1.69-1.9,2.57-2.86,3.59-4.13a62.1,62.1,0,0,0,4.63-6.56c1.37-2.43,2.75-5,4.1-7.79,1.73-3.53,3.22-6.94,4.5-10.16a98.22,98.22,0,0,0,3.77-15.72C156.7,257.43,156.41,245.53,153.7,234.38Zm-20.44,73.1c-1.14,1.41-2.27,2.7-3.37,3.87l-.74.81v0c-1.34,1.49-3.34,3.68-4.33,4.67-2.75,2.73-8,6.35-17.37,8.1h-.06a37,37,0,0,1-7.16.61c-11.28-.13-19.36-5.76-22-7.6A44,44,0,0,1,64,301.2l-.16-.29a77.94,77.94,0,0,1-5.75-10.64,90,90,0,0,1-4.74-54.94c3.33-14.54,11.68-24.45,24.82-29.48a60.38,60.38,0,0,1,21.8-4,77.4,77.4,0,0,1,15.3,1.61c17.86,3.61,28.67,14.14,33.05,32.19,3.44,14.21,2.1,26.12.8,34.2a99.3,99.3,0,0,1-2.11,9.89,105.09,105.09,0,0,1-5.61,14.49c-1.26,2.64-2.66,5.26-4.14,7.79v0C136.08,303.79,134.77,305.61,133.26,307.48Z"/><path class="cls-1" d="M100.67,333.16h-.53c-9-.1-17.86-3.12-26.25-9a51.53,51.53,0,0,1-16.62-19.41,88.39,88.39,0,0,1-6.15-11.42,97.59,97.59,0,0,1-5.2-59.72c3.93-17.16,13.85-28.89,29.5-34.87,12.54-4.8,26.44-5.7,41.31-2.7,20.75,4.19,33.84,16.92,38.92,37.84h0c2.77,11.41,3.07,23.57.92,37.16a100.78,100.78,0,0,1-3.84,16l0,.11c-1.38,3.47-2.92,6.94-4.56,10.3-1.3,2.66-2.7,5.32-4.16,7.9l0,.06a65.69,65.69,0,0,1-4.77,6.77c-.92,1.14-1.72,2-3,3.5l-.63.7c-.38.42-3.74,4.19-5.33,5.78-3.5,3.48-10,8.07-21.33,10.17h-.06A43.86,43.86,0,0,1,100.67,333.16ZM100,198.34a64.41,64.41,0,0,0-23.19,4.17c-14.33,5.47-23.42,16.25-27,32a93.8,93.8,0,0,0,5,57.2,83,83,0,0,0,5.93,11l.11.2a47.49,47.49,0,0,0,15.36,18c7.72,5.37,15.8,8.15,24,8.24a39.45,39.45,0,0,0,7.85-.67h.07c10.28-1.92,16.13-6,19.23-9.08,1.52-1.51,4.81-5.19,5.18-5.6l.62-.7c1.28-1.43,2.05-2.29,2.9-3.35a61.4,61.4,0,0,0,4.47-6.33c1.41-2.49,2.76-5.07,4-7.65,1.59-3.25,3.07-6.6,4.41-10a96.59,96.59,0,0,0,3.67-15.34c2.06-13.06,1.78-24.71-.86-35.6-4.68-19.28-16.73-31-35.82-34.86A80.29,80.29,0,0,0,100,198.34Zm.61,129.23h-.44c-11.9-.14-20.35-6-23.13-8a46,46,0,0,1-14.89-17.48l-.11-.19a81,81,0,0,1-5.86-10.85,92,92,0,0,1-4.86-56.21c3.49-15.22,12.25-25.62,26.05-30.9a62.06,62.06,0,0,1,22.52-4.09,80.17,80.17,0,0,1,15.7,1.65c18.69,3.78,30,14.79,34.59,33.68,3.45,14.21,2.26,26.16.84,35-.55,3.38-1.27,6.77-2.15,10.08l0,.07a108,108,0,0,1-5.73,14.77c-1.26,2.65-2.68,5.32-4.21,7.94l-.14.2c-1.23,1.88-2.58,3.72-4,5.47h0c-1.1,1.36-2.27,2.7-3.47,4l-.71.79c-.94,1.05-3.25,3.6-4.41,4.76-2.94,2.93-8.52,6.8-18.41,8.64l-.07,0A38.9,38.9,0,0,1,100.65,327.57Zm-.72-123.68a58,58,0,0,0-21.09,3.83c-12.48,4.77-20.41,14.21-23.58,28.06a88.06,88.06,0,0,0,4.61,53.68,78.57,78.57,0,0,0,5.61,10.37l.28.49a42,42,0,0,0,13.61,16c2.52,1.76,10.22,7.12,20.88,7.24A34.58,34.58,0,0,0,107,323h.07c8.88-1.65,13.77-5,16.31-7.55.93-.92,2.74-2.91,3.75-4h0l1.27-1.41q1.72-1.83,3.29-3.77c1.35-1.68,2.64-3.44,3.82-5.24l0,0c1.45-2.5,2.8-5,4-7.55a103.78,103.78,0,0,0,5.5-14.18,97.06,97.06,0,0,0,2.06-9.66c1.36-8.45,2.5-19.89-.78-33.4-4.17-17.23-14.48-27.27-31.5-30.71A75.77,75.77,0,0,0,99.93,203.89Z"/><path class="cls-1" d="M96.14,159.94a5,5,0,0,1-5-5v-19.5a5,5,0,0,1,10,0v19.5A5,5,0,0,1,96.14,159.94Z"/><path class="cls-1" d="M96.14,112.61a5,5,0,0,1-5-5V79.79a5,5,0,0,1,10,0v27.82A5,5,0,0,1,96.14,112.61Z"/><path class="cls-1" d="M96.14,57a5,5,0,0,1-5-5V32.46a5,5,0,0,1,5-5h19.5a5,5,0,0,1,0,10h-14.5V52A5,5,0,0,1,96.14,57Z"/><path class="cls-1" d="M178.65,37.46H147.14a5,5,0,0,1,0-10h31.51a5,5,0,0,1,0,10Z"/><path class="cls-1" d="M229.65,37.46h-19.5a5,5,0,0,1,0-10h19.5a5,5,0,0,1,0,10Z"/><path class="cls-1" d="M333,252.77a5,5,0,0,1-5-5v-19.5a5,5,0,1,1,10,0v19.5A5,5,0,0,1,333,252.77Z"/><path class="cls-1" d="M333,315.42a5,5,0,0,1-5-5V282.6a5,5,0,0,1,10,0v27.82A5,5,0,0,1,333,315.42Z"/><path class="cls-1" d="M333,362.75H313.5a5,5,0,0,1,0-10H328v-14.5a5,5,0,0,1,10,0v19.5A5,5,0,0,1,333,362.75Z"/><path class="cls-1" d="M282,362.75h-31.5a5,5,0,0,1,0-10H282a5,5,0,0,1,0,10Z"/><path class="cls-1" d="M333,206.73a5,5,0,0,1-5-5V173.9a5,5,0,1,1,10,0v27.83A5,5,0,0,1,333,206.73Z"/><path class="cls-2" d="M71.21,155.76h49.73a4.83,4.83,0,0,1,0,6.84L99.5,184a4.85,4.85,0,0,1-6.85,0L71.21,162.6A4.83,4.83,0,0,1,71.21,155.76Z"/><path class="cls-2" d="M233,332.89v49.72a4.83,4.83,0,0,1-6.84,0l-21.44-21.44a4.83,4.83,0,0,1,0-6.84l21.44-21.44A4.83,4.83,0,0,1,233,332.89Z"/><path class="cls-2" d="M262.89,59c0-12.2,0-24.41,0-36.61a3.67,3.67,0,0,1,1.88-3.52c9.56-6,20-9.86,30.9-12.51a138.92,138.92,0,0,1,37.45-3.93c19.73.62,38.74,4.36,56.39,13.63,1.73.91,3.36,2,5,3a3.29,3.29,0,0,1,1.68,3.25c-.06,8.16,0,16.32,0,24.48,0,14.62-.24,29.24.07,43.86.27,13-4.56,23.91-12.57,33.7-10.5,12.83-23.81,22.18-38,30.39-4.69,2.71-9.54,5.12-14.44,7.42a3.21,3.21,0,0,1-3,.21c-17.05-7.91-32.88-17.66-46.4-30.85-6.72-6.57-12.4-14-15.93-22.78a39.4,39.4,0,0,1-3-14.68Q262.87,76.57,262.89,59Zm8.41,1.73v32.5a32.07,32.07,0,0,0,1,7.75c2.25,9,7.48,16.33,13.83,22.84,12.14,12.45,26.69,21.46,42.11,29.21a3.06,3.06,0,0,0,3-.17q7.65-3.75,14.9-8.22c12.34-7.62,24-16.07,32.82-27.8,5.22-6.92,8.83-14.54,8.86-23.38.08-22.26,0-44.51.06-66.77a2.86,2.86,0,0,0-1.75-2.9,107.21,107.21,0,0,0-26.23-9.54,136.38,136.38,0,0,0-50.17-1.94,111.42,111.42,0,0,0-36.27,11.26,3.4,3.4,0,0,0-2.12,3.49C271.34,38.32,271.3,49.55,271.3,60.77Z"/><path class="cls-2" d="M329.47,165.08a5.19,5.19,0,0,1-2.22-.51c-19.22-8.91-34.62-19.15-47.07-31.31-7.78-7.59-13.17-15.31-16.49-23.6A41.64,41.64,0,0,1,260.5,94.1q0-12.45,0-24.9V50.33c0-9.14,0-18.6,0-27.89a6,6,0,0,1,3-5.56c8.88-5.6,19.22-9.79,31.61-12.81a141.79,141.79,0,0,1,38.1-4C355.33.77,374.12,5.32,390.6,14c1.12.59,2.18,1.24,3.2,1.87.64.4,1.28.79,1.93,1.17a5.6,5.6,0,0,1,2.87,5.34c0,6,0,12.18,0,18.12q0,3.17,0,6.34,0,6.65-.05,13.31c0,10-.1,20.35.12,30.5.26,12.63-4,24.17-13.11,35.27-9.24,11.29-21.17,20.83-38.68,30.94-4.16,2.41-8.67,4.73-14.62,7.52A6.36,6.36,0,0,1,329.47,165.08ZM328.76,4.79a136.88,136.88,0,0,0-32.55,3.94c-11.88,2.89-21.76,6.89-30.19,12.21a1.32,1.32,0,0,0-.76,1.47c0,9.31,0,18.78,0,27.93V69.2q0,12.45,0,24.89a36.83,36.83,0,0,0,2.86,13.79c3.06,7.65,8.09,14.83,15.38,22,12.06,11.77,27,21.71,45.73,30.39.17.08.26.12.94-.2,5.83-2.74,10.23-5,14.26-7.33,17-9.81,28.51-19,37.37-29.83,8.33-10.18,12.26-20.69,12-32.13-.21-10.22-.16-20.59-.11-30.62q0-6.64,0-13.29V40.49c0-6,0-12.11,0-18.17,0-.87-.17-1-.48-1.15-.69-.4-1.36-.81-2-1.23-1-.62-2-1.2-2.92-1.71C372.54,9.91,354.44,5.54,333,4.86,331.6,4.82,330.18,4.79,328.76,4.79Zm.69,151a5.07,5.07,0,0,1-2.33-.57c-18.47-9.28-32.05-18.71-42.74-29.67-7.78-8-12.37-15.58-14.45-23.94a34.86,34.86,0,0,1-1-8.33V60.77q0-4.17,0-8.36c0-8.29,0-16.87-.05-25.3a5.7,5.7,0,0,1,3.41-5.62A113.16,113.16,0,0,1,309.32,10a139.55,139.55,0,0,1,51,2,109.87,109.87,0,0,1,26.81,9.75,5.26,5.26,0,0,1,3,5q0,13.62,0,27.26c0,13,0,26.34,0,39.51,0,8.41-3.09,16.53-9.35,24.82-9.62,12.75-22.32,21.51-33.47,28.39-4.8,3-9.88,5.77-15.1,8.34A6.3,6.3,0,0,1,329.45,155.78Zm.34-142.47A141.43,141.43,0,0,0,310,14.72a108.24,108.24,0,0,0-35.5,11c-.79.41-.84.54-.83,1.34.06,8.45,0,17,0,25.34V70.06q0,11.61,0,23.21a29.35,29.35,0,0,0,.9,7.17c1.86,7.5,6.07,14.41,13.22,21.75,10.31,10.57,23.49,19.7,41.47,28.74.15.07.23.11.82-.18,5.09-2.5,10-5.23,14.7-8.11,10.78-6.65,23-15.08,32.17-27.2,5.68-7.54,8.35-14.51,8.37-22,.05-13.16.05-26.55.05-39.49q0-13.64,0-27.27a1.33,1.33,0,0,0-.06-.51h0a1.4,1.4,0,0,0-.41-.27,103.89,103.89,0,0,0-25.65-9.32A131.16,131.16,0,0,0,329.79,13.31Z"/><path class="cls-2" d="M372.72,65.57c0,7.4-.25,14.82.06,22.21.36,8.28-2.57,15.18-7.7,21.4-7.05,8.54-15.83,15-25.18,20.7-2.95,1.82-6,3.48-9.07,5.05a2.37,2.37,0,0,1-2.4.09c-11.5-5.88-22.22-12.87-31.26-22.18-4.14-4.27-7.66-9-9.62-14.74a23,23,0,0,1-1.23-7.53c0-16.94,0-33.88,0-50.82a2.8,2.8,0,0,1,1.87-2.91,92.38,92.38,0,0,1,28-7.85,105.65,105.65,0,0,1,37.13,1.86,87.62,87.62,0,0,1,17.8,6.09,2.47,2.47,0,0,1,1.62,2.58C372.69,48.2,372.72,56.89,372.72,65.57Z"/></g></g></svg>