<svg xmlns="http://www.w3.org/2000/svg" viewBox="0 0 272.93 408.27"><defs><style>.cls-1{fill:#fa4616;}.cls-2{fill:#002234;}</style></defs><title>icon-robotic-process-automation</title><g id="Слой_2" data-name="Слой 2"><g id="Layer_1" data-name="Layer 1"><path class="cls-1" d="M242,350a5,5,0,0,1-2.85-.9l-21.34-14.86a5,5,0,1,1,5.71-8.2l21.34,14.85A5,5,0,0,1,242,350Zm-42.67-29.72a5,5,0,0,1-2.86-.89l-21.33-14.86a5,5,0,0,1,5.71-8.21l21.34,14.86a5,5,0,0,1-2.86,9.1Zm-42.68-29.71a4.93,4.93,0,0,1-2.85-.9L132.5,274.86a5,5,0,0,1,5.71-8.21l21.34,14.86a5,5,0,0,1-2.86,9.1ZM114,260.9a5,5,0,0,1-2.86-.9L89.83,245.14a5,5,0,1,1,5.71-8.2l21.34,14.85A5,5,0,0,1,114,260.9ZM71.34,231.18a5,5,0,0,1-2.85-.89l-11.12-7.75a5,5,0,1,1,5.71-8.2l11.12,7.74a5,5,0,0,1-2.86,9.1Z"/><path class="cls-1" d="M216.3,408.27a5,5,0,0,1-2.85-.89l-21.34-14.86a5,5,0,0,1,5.72-8.21l21.33,14.86a5,5,0,0,1-2.86,9.1Zm-42.67-29.71a4.93,4.93,0,0,1-2.85-.9l-21.34-14.85a5,5,0,0,1,5.71-8.21l21.34,14.86a5,5,0,0,1-2.86,9.1ZM131,348.85a5,5,0,0,1-2.85-.9l-21.34-14.86a5,5,0,0,1,5.72-8.2l21.33,14.85a5,5,0,0,1-2.86,9.11ZM88.28,319.13a5,5,0,0,1-2.85-.89L64.09,303.38a5,5,0,0,1,5.71-8.21L91.14,310a5,5,0,0,1-2.86,9.1ZM45.6,289.42a5,5,0,0,1-2.85-.9l-11.12-7.74a5,5,0,0,1,5.71-8.21l11.13,7.75a5,5,0,0,1-2.87,9.1Z"/><path class="cls-1" d="M88.69,228h-.23c-3.65-.1-6.28-2.56-8.17-4.68a71.05,71.05,0,0,0-40.14-22.92l-.57-.09c-1.52-.2-6.13-.82-7.24-5.75-1-4.51,2.1-7.27,3.43-8.45l.53-.48C48,173.88,60,161.92,71.56,150.36l9.53-9.53,12.07-12c10.61-10.57,21.57-21.49,32.2-32.37,1.87-1.91,4.81-4.45,8.73-4.45h0c3.91,0,6.79,2.51,8.61,4.39,9.55,9.86,20.2,20.52,32.55,32.58,2.72,2.66,4.06,5.33,4.07,8.15,0,3.78-2.33,6.55-4.1,8.3C145.7,174.75,120,200.49,96.56,224.1,94.88,225.8,92.24,228,88.69,228ZM44.87,191.23a80.63,80.63,0,0,1,42.9,25.49c.42.47.74.79,1,1,.18-.16.42-.37.71-.67,23.42-23.63,49.17-49.39,78.74-78.76a9.36,9.36,0,0,0,1-1.16,7.32,7.32,0,0,0-.92-1c-12.41-12.12-23.12-22.84-32.74-32.77a8.65,8.65,0,0,0-1.45-1.26,8.51,8.51,0,0,0-1.57,1.35c-10.68,10.92-21.67,21.87-32.3,32.46q-6,6-12.06,12l-9.53,9.52C67.56,168.5,56.12,179.93,44.87,191.23Z"/><path class="cls-2" d="M151.37,121.42C139.64,109.68,128,97.84,116.11,86.3c-3.14-3-3.12-5.08.23-7.43,13.19-9.24,17.84-21.7,15.87-37.69-1.21-9.92-.3-20.12-.16-30.19.11-7.45,3.48-10.87,11-10.9q35.85-.16,71.69,0c8.11,0,12.87,5.26,11,11.7-1.64,5.47-6,6.83-11.13,6.81q-28.15-.09-56.29-.06c-7.73,0-7.72,0-7.72,7.5,0,14,.07,28.05-.07,42.07a12.65,12.65,0,0,0,3.94,10Q174.69,98,194.61,118.29a12.62,12.62,0,0,0,9.87,4.22c14.61-.22,29.23-.31,43.84,0,5.11.11,6.25-1.66,6.18-6.45-.27-18.75-.14-37.52-.14-56.28a38.09,38.09,0,0,1,.12-4.14c.66-5.62,4.13-9,9.33-8.7,5.36.26,8.28,3.51,8.87,8.62a92.17,92.17,0,0,1,.19,10.65c0,20.34.07,40.68,0,61,0,11.2-2.59,13.7-13.63,13.7-14.22,0-28.44.14-42.65-.14-5-.1-8.67,1.33-11.93,5.07s-7.24,7.26-10.82,10.94c-2.57,2.65-4.56,2.69-7.34-.16-11.57-11.89-23.39-23.53-35.13-35.26Z"/><path class="cls-2" d="M90.91,215.37c-10.56-23.93-38.52-35-62.3-24.63S-6.5,229.35,3.87,253c10.8,24.57,38.26,35.37,62.68,24.64A47.24,47.24,0,0,0,90.91,215.37Z"/></g></g></svg>