<svg xmlns="http://www.w3.org/2000/svg" xmlns:xlink="http://www.w3.org/1999/xlink" width="77.393" height="100.805" viewBox="0 0 77.393 100.805">
  <defs>
    <clipPath id="clip-path">
      <rect id="Прямоугольник_137" data-name="Прямоугольник 137" width="77.393" height="100.805" fill="#fa4616"/>
    </clipPath>
  </defs>
  <g id="Сгруппировать_242" data-name="Сгруппировать 242" transform="translate(0 0)">
    <g id="Сгруппировать_237" data-name="Сгруппировать 237" transform="translate(0 0)" clip-path="url(#clip-path)">
      <path id="Контур_550" data-name="Контур 550" d="M8.669,30.269V40.8H7.983A7.985,7.985,0,0,0,0,48.786V92.819a7.985,7.985,0,0,0,7.983,7.986H69.406a7.99,7.99,0,0,0,7.987-7.986V48.786A7.989,7.989,0,0,0,69.406,40.8h-.195V30.269a30.271,30.271,0,0,0-60.541,0M43.446,72.787a1.761,1.761,0,0,0-.784,1.616v9.7a3.593,3.593,0,0,1-1.814,3.281,3.767,3.767,0,0,1-5.631-3.232v-9.7a1.654,1.654,0,0,0-.735-1.517,7.382,7.382,0,0,1-2.449-9.062,7.523,7.523,0,0,1,14.4,2.94,7.069,7.069,0,0,1-2.987,5.974M21.895,30.269a17.046,17.046,0,0,1,34.092,0V40.8H21.944V30.269Z" transform="translate(0 0)" fill="#fa4616" fill-rule="evenodd"/>
    </g>
  </g>
</svg>
