<svg xmlns="http://www.w3.org/2000/svg" viewBox="0 0 461.17 366.99"><defs><style>.cls-1{fill:#002234;}.cls-2{fill:#fa4616;}</style></defs><title>icon-modern-workplace</title><g id="Слой_2" data-name="Слой 2"><g id="Layer_1" data-name="Layer 1"><path class="cls-1" d="M132.82,117.75a3.1,3.1,0,0,0-2-2.33l-24.39-8.14a3.08,3.08,0,0,0-4,3.55l1,5A52.59,52.59,0,1,1,124,12.81a5.87,5.87,0,0,0,4.49-.05,5.72,5.72,0,0,0,3.14-3.33,5.71,5.71,0,0,0-.3-4.38,5.8,5.8,0,0,0-3.41-3l-.13,0A64.36,64.36,0,0,0,111.63,0,63.95,63.95,0,0,0,86.74,122.84a63.35,63.35,0,0,0,18.45,4.7l.66.08,1.66,8a3.07,3.07,0,0,0,2,2.29,3,3,0,0,0,1,.17,3.07,3.07,0,0,0,2-.76l19.26-16.7A3.07,3.07,0,0,0,132.82,117.75Z"/><path class="cls-1" d="M160.44,59.69c2.86-.75,4.3-3.59,3.55-5.71a4.49,4.49,0,0,0-4.27-2.72l-34.81,1.53A15.31,15.31,0,1,0,128,70Z"/><path class="cls-2" d="M459.08,348.74,387.27,246.33a11.49,11.49,0,0,0-9.39-4.89H83.29a11.47,11.47,0,0,0-9.39,4.89L2.09,348.74a11.47,11.47,0,0,0,9.38,18.06l70,0h.06a11.63,11.63,0,0,0,1.77.14l147.3-.08,147.28.08a11.76,11.76,0,0,0,1.78-.14h.11l69.93,0a11.47,11.47,0,0,0,9.39-18.06Zm-208.33,7.34-.18.12H211l-.14-.07c-1.49-.67-1.32-2.33-1.27-2.88.74-7.49,1.53-15.54,2.21-23.66.19-2.27,1.18-3.2,3.42-3.18,9.87.08,20.24.08,30.85,0h.05c2.12,0,3.15.93,3.32,3,.38,4.65.8,9.37,1.2,13.94.17,2,.35,3.92.52,5.88,0,.2,0,.41,0,.61a6.5,6.5,0,0,0,.06.79C251.76,353.78,251.88,355.34,250.75,356.08ZM125.06,316.46c-1.67,0-2.68,0-3.16-.73s-.08-1.64.64-3.27,1.48-3.36,2.23-5c2-4.47,4-9.09,5.94-13.67a4.28,4.28,0,0,1,4.53-2.92h5.28c11.82,0,24,0,36.07-.13,23.63-.36,47.65-.31,70.88-.25l22.27,0c10.91,0,22,.09,32.72.18,7.69.06,15.63.12,23.45.16,2,0,3.49.5,4.47,2.93,2.27,5.65,4.85,11.19,7.29,16.39a8,8,0,0,1,.57,1.85,5.43,5.43,0,0,0,.89,2.27,1.26,1.26,0,0,1,.28,1.41c-.37.74-1.37.72-2.11.7h-.24c-5.62.06-11.32.06-16.22.06H125.06Zm253.57,39.66v.14l-115.09-.05-.13-.06c-1.48-.59-1.77-2-1.86-3.48-.31-4.95-.76-10-1.21-14.86l-.51-5.7c0-.11,0-.23,0-.34s0-.25,0-.38c-.21-2.19-.32-3.4.38-4.17s1.88-.77,4-.77h77.38a17,17,0,0,0,5.93-.87,6.93,6.93,0,0,0,4.2-3.63,6.54,6.54,0,0,0-.18-5.29c-1-2.45-2.13-4.93-3.19-7.33-1.87-4.24-3.81-8.62-5.52-13-.76-1.95-1.7-3.87-2.61-5.72-.73-1.47-1.47-3-2.13-4.53-1.46-3.41-4.31-5.14-8.46-5.15-13,0-26.19,0-38.95,0H133.24c-6.31,0-8.58,1.49-11.08,7.25-3,7-6.19,14.18-9.23,21.09l-2.76,6.28c-1.15,2.62-1.63,4.67-.45,6.79,1.32,2.35,4.49,3.29,7,4a24.23,24.23,0,0,0,8,.95c44.45.11,68.7-.17,72.09-.84l.07,0c2-.4,3.38-.15,4.19.74s.59,2,.38,4.11l-.57,5.56c-.56,5.38-1.13,10.94-1.6,16.42a3.08,3.08,0,0,1-1.64,2.86l-.14.06h-.16l-114.81.05v-.14l-72.5,0L82.9,252.17H378.27l.22.32,72.64,103.59Z"/><path class="cls-2" d="M377.88,38.57H194.61a5.36,5.36,0,0,0-.14,10.72H378.63V216.22H82.54V162.71a5.47,5.47,0,0,0-10.72-.22v53a11.72,11.72,0,0,0,3.36,8.11A11.44,11.44,0,0,0,83.29,227H377.88a11.49,11.49,0,0,0,11.47-11.48V50A11.49,11.49,0,0,0,377.88,38.57Z"/></g></g></svg>