<svg xmlns="http://www.w3.org/2000/svg" xmlns:xlink="http://www.w3.org/1999/xlink" width="92.318" height="92.318" viewBox="0 0 92.318 92.318">
  <defs>
    <clipPath id="clip-path">
      <rect id="Прямоугольник_222" data-name="Прямоугольник 222" width="92.318" height="92.318" fill="#fa4616"/>
    </clipPath>
  </defs>
  <g id="Сгруппировать_420" data-name="Сгруппировать 420" transform="translate(0 0)">
    <path id="Контур_670" data-name="Контур 670" d="M37.687,0V11.681h20.2v20.2H69.569V0Z" transform="translate(22.748 0)" fill="#fa4616"/>
    <path id="Контур_671" data-name="Контур 671" d="M0,0V31.883H11.681v-20.2h20.2V0Z" transform="translate(0 0)" fill="#fa4616"/>
    <path id="Контур_672" data-name="Контур 672" d="M57.889,37.687v20.2h-20.2V69.569H69.57V37.687Z" transform="translate(22.748 22.748)" fill="#fa4616"/>
    <path id="Контур_673" data-name="Контур 673" d="M0,37.687V69.569H31.883V57.889h-20.2v-20.2Z" transform="translate(0 22.748)" fill="#fa4616"/>
    <g id="Сгруппировать_419" data-name="Сгруппировать 419" transform="translate(0 0)">
      <g id="Сгруппировать_418" data-name="Сгруппировать 418" clip-path="url(#clip-path)">
        <path id="Контур_674" data-name="Контур 674" d="M52.893,37.727l6.1-.314a21.759,21.759,0,0,0-1.657-8.6l-5.778,1.974-1.45-2.2-1.45-2.2,4.091-4.533a21.786,21.786,0,0,0-7.251-4.91l-2.689,5.483L40.23,21.9l-2.579-.529-.314-6.1a21.787,21.787,0,0,0-8.6,1.657l1.974,5.778-2.2,1.45-2.2,1.45-4.533-4.091a21.772,21.772,0,0,0-4.909,7.253l5.483,2.689-.529,2.579L21.3,36.619l-6.1.313a21.766,21.766,0,0,0,1.657,8.6l5.778-1.976,1.45,2.2,1.45,2.2-4.091,4.533a21.781,21.781,0,0,0,7.251,4.909l2.689-5.481,2.579.529,2.58.529.313,6.1a21.759,21.759,0,0,0,8.6-1.657L43.48,51.633l2.2-1.45,2.2-1.448,4.533,4.091a21.772,21.772,0,0,0,4.909-7.253l-5.483-2.689.529-2.579Zm-14.1,8.162a8.879,8.879,0,1,1,7.024-10.411A8.881,8.881,0,0,1,38.79,45.889" transform="translate(9.174 9.221)" fill="#fa4616"/>
      </g>
    </g>
  </g>
</svg>
