<svg xmlns="http://www.w3.org/2000/svg" viewBox="0 0 408.4 456.12"><defs><style>.cls-1{fill:#fa4616;}.cls-2{fill:#002234;}</style></defs><title>icon-Managed-IT-Services</title><g id="Слой_2" data-name="Слой 2"><g id="Layer_1" data-name="Layer 1"><path class="cls-1" d="M214.13,431.35a5,5,0,0,1-.06-10c2,0,4.31-.06,6.9-.11,5.72-.1,11.55-.25,17.34-.43h.16a5,5,0,0,1,.16,10c-5.83.19-11.71.34-17.48.44-2.61.05-4.92.09-7,.11Zm-25-.06h-.24a39.83,39.83,0,0,1-10.32-1.73,15.24,15.24,0,0,1-7.18-4.54,15.54,15.54,0,0,1-3.27-6.93l-.11-.47c-.1-.36-.13-.45-.13-.47s-.09-.19-.15-.33c-.19-.43-.48-1.07-1-2.26a5,5,0,1,1,9.25-3.8c.42,1,.65,1.55.83,1.93a11.83,11.83,0,0,1,.85,2.46l.14.52a6.15,6.15,0,0,0,1.13,2.82,5.7,5.7,0,0,0,2.68,1.55,30.33,30.33,0,0,0,7.73,1.27,5,5,0,0,1-.24,10Zm-26.11-37.17a5,5,0,0,1-4.74-3.42,12.24,12.24,0,0,0-.55-1.37,20.58,20.58,0,0,0-4.53-6.28c-2.77-2.58-5.52-3.54-9-4.76l-.84-.29a5,5,0,1,1,3.27-9.45l.88.31c3.83,1.34,8.18,2.87,12.48,6.85a31,31,0,0,1,6.79,9.39,21.43,21.43,0,0,1,1,2.44,5,5,0,0,1-3.16,6.32A4.9,4.9,0,0,1,163.06,394.12Zm-64.17-2.59A5,5,0,0,1,97,381.91a57.69,57.69,0,0,0,7.44-3.93l.5-.29c6.48-3.84,10.39-6.16,13.93-7.69a5,5,0,0,1,4,9.18c-2.83,1.23-6.16,3.17-12.81,7.11l-.49.29a66.8,66.8,0,0,1-8.7,4.57A5,5,0,0,1,98.89,391.53Zm-22.27-5.9a5,5,0,0,1-3.48-1.41c-.71-.69-1.2-1.21-1.38-1.4a39.07,39.07,0,0,0-4.58-4.3,76.43,76.43,0,0,1-7.39-6.8c-1.91-1.93-3.49-3.61-4.83-5.12a5,5,0,0,1,7.5-6.62c1.21,1.37,2.66,2.91,4.44,4.71a68.49,68.49,0,0,0,6.56,6.05A47.44,47.44,0,0,1,79,376c.16.17.52.56,1.07,1.09a5,5,0,0,1-3.48,8.59ZM47,347.38a4.62,4.62,0,0,1-1.32-.18,5,5,0,0,1-3.51-6.14c.08-.31.18-.62.28-.93A30.18,30.18,0,0,1,46,332.72a93.55,93.55,0,0,0,7.77-14.6,5,5,0,0,1,9.14,4.06,101.64,101.64,0,0,1-8.69,16.23A20.86,20.86,0,0,0,52,343.18c0,.18-.11.35-.15.52A5,5,0,0,1,47,347.38Zm16.74-46.07a5,5,0,0,1-4.83-3.71,27,27,0,0,0-3.59-7.68,26.24,26.24,0,0,0-5.87-7.05A22.62,22.62,0,0,0,46.73,281a5,5,0,0,1,5-8.66,29.94,29.94,0,0,1,4,2.75,35.13,35.13,0,0,1,8.06,9.49A37.22,37.22,0,0,1,68.61,295a5,5,0,0,1-3.55,6.12A4.77,4.77,0,0,1,63.77,301.31ZM25.55,274a4.87,4.87,0,0,1-1.54-.25L21.76,273a62.54,62.54,0,0,1-9.41-3.78,17.27,17.27,0,0,1-6.51-4.9,16,16,0,0,1-3-7.46l-.26-1.58a5,5,0,1,1,9.87-1.62l.26,1.58a6.28,6.28,0,0,0,1.06,3c.36.46.83.93,3.07,2.06a52.39,52.39,0,0,0,8,3.19l2.25.73A5,5,0,0,1,25.55,274Zm-20.5-39.3a5,5,0,0,1-5-5c0-.74,0-1.62,0-2.71,0,0,0-1,0-2.61,0-4.71.16-13.57,1.25-19.94,0-.23.09-.49.15-.77a5,5,0,1,1,9.77,2.12,2.61,2.61,0,0,0-.06.33C10.11,212,10,220.83,10,224.37c0,1.48,0,2.39,0,2.42,0,1.15,0,2.08,0,2.86a5,5,0,0,1-5,5Zm21.66-37.21a5,5,0,0,1-1.56-9.75l23.74-7.83a5,5,0,0,1,3.13,9.5l-23.74,7.83A5,5,0,0,1,26.71,197.46Z"/><path class="cls-1" d="M358,277.08a5,5,0,0,1-1.57-9.75l23.74-7.83a5,5,0,1,1,3.14,9.5l-23.75,7.83A5,5,0,0,1,358,277.08ZM402.12,257a4.79,4.79,0,0,1-1.06-.12,5,5,0,0,1-3.83-5.94c0-.13,0-.24.07-.35,1-5.84,1.1-14.71,1.1-18.25,0-1.47,0-2.39,0-2.41,0-1.15,0-2.08,0-2.86a5,5,0,0,1,5-5h0a5,5,0,0,1,5,5c0,.73,0,1.62,0,2.7,0,0,0,1,0,2.61,0,4.72-.16,13.58-1.25,19.95,0,.24-.09.49-.15.77A5,5,0,0,1,402.12,257Zm-1.24-49.75a5,5,0,0,1-4.93-4.19l-.26-1.58a6.24,6.24,0,0,0-1.06-3c-.35-.46-.83-.93-3.07-2.06a52.39,52.39,0,0,0-8-3.19l-2.25-.73a5,5,0,1,1,3.08-9.51l2.25.72a62.54,62.54,0,0,1,9.41,3.78,17.27,17.27,0,0,1,6.51,4.9,15.89,15.89,0,0,1,3,7.46l.26,1.58a5,5,0,0,1-4.12,5.74A4.62,4.62,0,0,1,400.88,207.24Zm-41.72-22.19a4.89,4.89,0,0,1-2.49-.68,31.2,31.2,0,0,1-4-2.74,35.19,35.19,0,0,1-8.05-9.48,36.84,36.84,0,0,1-4.81-10.47,5,5,0,1,1,9.66-2.57,27,27,0,0,0,3.59,7.68,26.24,26.24,0,0,0,5.87,7.05,22.19,22.19,0,0,0,2.75,1.87,5,5,0,0,1-2.51,9.34ZM350,141.56a5,5,0,0,1-4.57-7,101.64,101.64,0,0,1,8.69-16.23,20.64,20.64,0,0,0,2.25-4.77c.05-.17.11-.35.15-.52a5,5,0,0,1,9.65,2.63c-.08.31-.18.62-.28.94a30,30,0,0,1-3.56,7.42h0a93.38,93.38,0,0,0-7.76,14.59A5,5,0,0,1,350,141.56Zm-.34-43.14a5,5,0,0,1-3.75-1.7c-1.21-1.37-2.66-2.91-4.44-4.7a68.49,68.49,0,0,0-6.56-6,47.44,47.44,0,0,1-5.57-5.21c-.16-.17-.52-.55-1.07-1.09a5,5,0,1,1,7-7.18c.71.69,1.2,1.21,1.39,1.4a37.51,37.51,0,0,0,4.58,4.3,78.1,78.1,0,0,1,7.38,6.8c1.91,1.93,3.49,3.6,4.83,5.12a5,5,0,0,1-3.75,8.31Zm-86.33-10a4.92,4.92,0,0,1-1.64-.28l-.88-.31C257,86.51,252.66,85,248.36,81a31,31,0,0,1-6.79-9.39,21.43,21.43,0,0,1-1-2.44A5,5,0,0,1,250.08,66a12.36,12.36,0,0,0,.55,1.38,20.93,20.93,0,0,0,4.53,6.28c2.77,2.57,5.52,3.54,9,4.76l.84.29a5,5,0,0,1-1.63,9.73Zm24.22-1.32a5,5,0,0,1-2-9.6c2.83-1.22,6.16-3.17,12.81-7.1l.48-.29a68.21,68.21,0,0,1,8.71-4.57,5,5,0,1,1,3.84,9.24A57.82,57.82,0,0,0,304,78.73l-.48.29c-6.49,3.84-10.4,6.16-13.94,7.68A5,5,0,0,1,287.58,87.12ZM237,49.06a5,5,0,0,1-4.63-3.1c-.42-1-.65-1.55-.83-1.93a11.83,11.83,0,0,1-.85-2.46l-.13-.52a6.26,6.26,0,0,0-1.14-2.82,5.67,5.67,0,0,0-2.67-1.55A30.06,30.06,0,0,0,219,35.41a5,5,0,0,1,.48-10,40.17,40.17,0,0,1,10.32,1.74A15.31,15.31,0,0,1,237,31.7a15.61,15.61,0,0,1,3.26,6.93l.12.46a4.09,4.09,0,0,0,.13.48,3.54,3.54,0,0,0,.14.33c.19.43.49,1.07,1,2.26a5,5,0,0,1-2.73,6.53A5.1,5.1,0,0,1,237,49.06Zm-67-13.16a5,5,0,0,1-.16-10c5.83-.18,11.71-.33,17.48-.43,2.61,0,4.92-.09,7-.11h.06a5,5,0,0,1,.06,10l-6.9.1c-5.72.11-11.55.26-17.34.44Z"/><path class="cls-2" d="M354.33,213.31c-.25-8.12-3.28-13.32-11.9-14.6-3.25-.48-6.26-2.66-9.5-3.1C321,194,314.36,187.22,311.16,176c-.92-3.27-1.34-6,.18-9,3.71-7.49,7.1-15.15,10.94-22.58,2.27-4.4,1.87-8.1-1.34-11.74-7.75-8.79-15.89-17.17-25.23-24.35-3.58-2.75-6.9-3.06-10.77-.89-3.72,2.1-7.89,3.52-11.34,6-9.93,7-19.83,8.62-30.75,2.1-2.87-1.72-5.15-3.15-6.25-6.44-2.78-8.28-5.85-16.46-8.72-24.71-1.12-3.21-2.82-5.59-6.5-6a140.61,140.61,0,0,0-38.33.57c-3.85.58-5.94,2.62-7.05,6.14-1.51,4.78-3.71,9.44-4.52,14.33-1.92,11.68-8.26,18.66-19.69,21.76-3.28.89-5.81,1.36-8.91-.2-7.81-3.91-15.8-7.47-23.66-11.28-3.31-1.6-6.33-1.78-9.33.67a210.75,210.75,0,0,0-25.21,24.42c-2.63,3-3.11,6-1,9.65,3.74,6.43,7,13.13,10.89,19.46,3,4.8,4.06,9.06.85,14.35-2.17,3.59-3.19,7.92-4.4,12a8.08,8.08,0,0,1-6,5.91c-8.36,2.54-16.62,5.37-25,8-3.32,1-5.48,2.83-6,6.46a117.69,117.69,0,0,0,.47,38.83,7.94,7.94,0,0,0,6.3,6.9c5.18,1.44,10.16,3.71,15.4,4.87a29.46,29.46,0,0,1,15.48,8.2c1.2,1.26,6.72,7,6.31,14.62a9.73,9.73,0,0,1-1,4.53c-3.77,7.67-7.41,15.41-11,23.15-.86,1.83-1.47,3.77-1.89,4.85a8.6,8.6,0,0,0,2.28,6.45c5.92,7.18,12.07,14.14,19.38,20,12.13,9.67,9.83,10.33,24.09,2.58a36.14,36.14,0,0,0,4.49-2.24c9.79-7.22,19.77-8.57,30.67-2.13,2.9,1.7,5.11,3.13,6.23,6.43,2.79,8.27,6,16.41,8.8,24.68,1.38,4.08,4,6,8.16,6.31a255.08,255.08,0,0,0,31.16,0c8-.41,12.85-3.52,14.09-11.8.46-3.07,2.42-5.91,2.93-9,1.88-11.22,7.35-18.79,18.9-21.88,3.79-1,6.81-1.87,10.51,0,7.26,3.75,14.81,6.94,22.08,10.67,4.14,2.13,7.56,2.17,11.21-1,9.14-7.94,17.8-16.31,25.15-26,2.43-3.18,2.78-6.17.76-9.75-2.37-4.2-3.72-9.09-6.57-12.89-7.3-9.71-7.53-19.28-1.66-29.71,1.67-3,3.25-5.09,6.51-6.2,8.09-2.74,16.06-5.85,24.16-8.58,4.46-1.5,6.63-4.36,6.93-9C355,233.36,354.65,223.35,354.33,213.31ZM204,292.89c-35.68,0-64.89-28.88-65-64.27-.11-35.84,29.49-65.51,65.31-65.48s64.59,29.6,64.49,66.09C268.68,264.38,239.66,292.88,204,292.89Z"/><path class="cls-1" d="M67.58,292.68h0Z"/><path class="cls-2" d="M178.51,1.82V65.7a6.21,6.21,0,0,1-8.79,0L142.18,38.16a6.21,6.21,0,0,1,0-8.79L169.72,1.82A6.21,6.21,0,0,1,178.51,1.82Z"/><path class="cls-2" d="M234.12,454.3V390.42a6.21,6.21,0,0,1,8.79,0L270.46,418a6.23,6.23,0,0,1,0,8.79L242.91,454.3A6.21,6.21,0,0,1,234.12,454.3Z"/></g></g></svg>