<svg id="Сгруппировать_435" data-name="Сгруппировать 435" xmlns="http://www.w3.org/2000/svg" xmlns:xlink="http://www.w3.org/1999/xlink" width="88.585" height="82.034" viewBox="0 0 88.585 82.034">
  <defs>
    <clipPath id="clip-path">
      <rect id="Прямоугольник_227" data-name="Прямоугольник 227" width="88.585" height="82.034" fill="#fa4616"/>
    </clipPath>
  </defs>
  <g id="Сгруппировать_434" data-name="Сгруппировать 434" transform="translate(0 0)" clip-path="url(#clip-path)">
    <path id="Контур_682" data-name="Контур 682" d="M85.325,14.251,76,23.525,70.663,18.3l.05-.048-5.495-5.607,9.494-9.1a14.057,14.057,0,0,0-12.39,3.4c-5.664,5.2-4.654,14.455-4.654,14.455L41.052,38.154l-15.04,14.74s-9.255-1.009-14.455,4.654a14.054,14.054,0,0,0-3.4,12.39l9.1-9.494,5.605,5.493.05-.048,5.225,5.333-9.274,9.329a14.051,14.051,0,0,0,12.306-3.692C36.715,71.526,35.484,62.3,35.484,62.3L49.96,47.02,67.072,30.864s9.228,1.231,14.561-4.307a14.051,14.051,0,0,0,3.692-12.306" transform="translate(3.021 1.245)" fill="#fa4616"/>
    <path id="Контур_683" data-name="Контур 683" d="M75.987,79.8l7.692-8.153L32.456,19.807a7.862,7.862,0,0,0,.154-7.538s4.462-6.152,15.228-3.383c0,0,3.076-.307.77-3.539,0,0-4.614-6.767-14.46-5.075,0,0-6.306,2-8.612,6.767a13.269,13.269,0,0,0-9.846,3.692c-4.614,4.307-3.383,11.845-3.383,11.845L6,23.036l-6,6L10,39.77l6.6-6.114,1.029-5.873s4.827.79,6.982-.287Z" transform="translate(0 0)" fill="#fa4616"/>
  </g>
</svg>
