<svg xmlns="http://www.w3.org/2000/svg" xmlns:xlink="http://www.w3.org/1999/xlink" width="78.474" height="78.473" viewBox="0 0 78.474 78.473">
  <defs>
    <clipPath id="clip-path">
      <rect id="Прямоугольник_171" data-name="Прямоугольник 171" width="78.474" height="78.474" fill="#fa4616"/>
    </clipPath>
  </defs>
  <g id="Сгруппировать_260" data-name="Сгруппировать 260" transform="translate(0 0)">
    <g id="Сгруппировать_259" data-name="Сгруппировать 259" transform="translate(0 0)" clip-path="url(#clip-path)">
      <path id="Контур_563" data-name="Контур 563" d="M43.385,8.544A8.545,8.545,0,1,1,34.84,0a8.546,8.546,0,0,1,8.545,8.544" transform="translate(4.397 0)" fill="#fa4616"/>
      <path id="Контур_564" data-name="Контур 564" d="M22.288,10.2a8.544,8.544,0,1,1-12.083,0,8.546,8.546,0,0,1,12.083,0" transform="translate(1.288 1.287)" fill="#fa4616"/>
      <path id="Контур_565" data-name="Контур 565" d="M8.544,26.295A8.545,8.545,0,1,1,0,34.839a8.545,8.545,0,0,1,8.544-8.544" transform="translate(0 4.396)" fill="#fa4616"/>
      <path id="Контур_566" data-name="Контур 566" d="M10.2,47.391a8.544,8.544,0,1,1,0,12.084,8.545,8.545,0,0,1,0-12.084" transform="translate(1.288 7.505)" fill="#fa4616"/>
      <path id="Контур_567" data-name="Контур 567" d="M26.3,61.135a8.545,8.545,0,1,1,8.543,8.545A8.543,8.543,0,0,1,26.3,61.135" transform="translate(4.397 8.793)" fill="#fa4616"/>
      <path id="Контур_568" data-name="Контур 568" d="M47.393,59.475a8.544,8.544,0,1,1,12.083,0,8.544,8.544,0,0,1-12.083,0" transform="translate(7.506 7.505)" fill="#fa4616"/>
      <path id="Контур_569" data-name="Контур 569" d="M61.136,43.385a8.545,8.545,0,1,1,8.544-8.544,8.544,8.544,0,0,1-8.544,8.544" transform="translate(8.793 4.396)" fill="#fa4616"/>
      <path id="Контур_570" data-name="Контур 570" d="M59.476,22.287a8.544,8.544,0,1,1,0-12.083,8.543,8.543,0,0,1,0,12.083" transform="translate(7.506 1.287)" fill="#fa4616"/>
      <path id="Контур_571" data-name="Контур 571" d="M47.917,35.408A12.509,12.509,0,1,1,35.408,22.9a12.509,12.509,0,0,1,12.509,12.51" transform="translate(3.829 3.828)" fill="#fa4616"/>
    </g>
  </g>
</svg>
