<svg id="Сгруппировать_417" data-name="Сгруппировать 417" xmlns="http://www.w3.org/2000/svg" xmlns:xlink="http://www.w3.org/1999/xlink" width="105.039" height="105.039" viewBox="0 0 105.039 105.039">
  <defs>
    <clipPath id="clip-path">
      <rect id="Прямоугольник_221" data-name="Прямоугольник 221" width="105.039" height="105.039" fill="#fa4616"/>
    </clipPath>
  </defs>
  <g id="Сгруппировать_416" data-name="Сгруппировать 416" clip-path="url(#clip-path)">
    <path id="Контур_668" data-name="Контур 668" d="M16.219,43.292a3.972,3.972,0,0,0,.132,3.052.517.517,0,0,1,.032.08c.045.152,4.574,15.276,11.632,24.416A21.2,21.2,0,0,0,65.848,57.691V27.956a3.991,3.991,0,1,0-7.982,0V42.725a.581.581,0,1,1-1.161,0v-21.6a3.991,3.991,0,0,0-7.982,0v21.6a.58.58,0,1,1-1.16,0V17.318a3.992,3.992,0,1,0-7.983,0V42.725a.58.58,0,1,1-1.16,0V22.5a3.992,3.992,0,1,0-7.983,0V55.045a.58.58,0,0,1-1.106.245L23.587,42.97a3.992,3.992,0,0,0-7.368.322" transform="translate(8.056 6.72)" fill="#fa4616"/>
    <path id="Контур_669" data-name="Контур 669" d="M52.518,0a52.52,52.52,0,1,0,52.52,52.52A52.578,52.578,0,0,0,52.518,0M78.48,86.484a42.338,42.338,0,0,1-25.962,8.81A42.821,42.821,0,0,1,9.745,52.52,42.3,42.3,0,0,1,18.99,26l.409-.514.459.468L79,86.085Zm7.378-7.208-.409.508-.456-.465L25.8,19.143l.514-.4a42.317,42.317,0,0,1,26.2-9,42.744,42.744,0,0,1,33.34,69.533" fill="#fa4616"/>
  </g>
</svg>
