<svg xmlns="http://www.w3.org/2000/svg" viewBox="0 0 406.93 364.65"><defs><style>.cls-1{fill:#002234;}.cls-2{fill:#fa4616;}</style></defs><title>icon-service-integration-and-management</title><g id="Слой_2" data-name="Слой 2"><g id="Layer_1" data-name="Layer 1"><path class="cls-1" d="M32.29,292.75A26.85,26.85,0,1,0,59.14,319.6,26.87,26.87,0,0,0,32.29,292.75Z"/><path class="cls-1" d="M32.29,97.58a26.85,26.85,0,1,0,26.85,26.85A26.88,26.88,0,0,0,32.29,97.58Z"/><path class="cls-1" d="M201.35,0a26.85,26.85,0,1,0,26.84,26.84A26.87,26.87,0,0,0,201.35,0Z"/><path class="cls-1" d="M373.15,97.58A26.85,26.85,0,1,0,400,124.43,26.89,26.89,0,0,0,373.15,97.58Z"/><path class="cls-1" d="M373.15,291.38A26.84,26.84,0,1,0,400,318.22,26.88,26.88,0,0,0,373.15,291.38Z"/><path class="cls-2" d="M394.28,270.57a5.15,5.15,0,0,1-1.54-.24,5,5,0,0,1-3.22-6.29A154.25,154.25,0,0,0,394,246.7a5,5,0,1,1,9.81,1.94A165,165,0,0,1,399,267.1,5,5,0,0,1,394.28,270.57Zm7.16-36.22H401a5,5,0,0,1-4.59-5.38c.23-2.89.38-5.82.45-8.72,0-1.15,0-2.31,0-3.45,0-1.9,0-3.83-.1-5.74a5,5,0,1,1,10-.37c.08,2,.11,4.08.11,6.11,0,1.21,0,2.45,0,3.68-.07,3.08-.22,6.2-.47,9.28A5,5,0,0,1,401.44,234.35Zm-1.38-36.89a5,5,0,0,1-4.94-4.24,153.11,153.11,0,0,0-3.32-15.87,5,5,0,1,1,9.67-2.56A161.61,161.61,0,0,1,405,191.7a5,5,0,0,1-4.17,5.7A5.09,5.09,0,0,1,400.06,197.46Z"/><path class="cls-2" d="M10.29,270.57a5,5,0,0,1-4.83-3.72,168.05,168.05,0,0,1-3.53-16.91,5,5,0,1,1,9.88-1.53,156,156,0,0,0,3.32,15.88,5,5,0,0,1-3.55,6.11A4.77,4.77,0,0,1,10.29,270.57Zm-5.18-34.8a5,5,0,0,1-5-4.81c-.07-2-.11-4.09-.11-6.11,0-1.22,0-2.46,0-3.68.07-3.08.23-6.21.47-9.28a5,5,0,1,1,10,.79c-.23,2.89-.38,5.82-.44,8.72,0,1.14,0,2.3,0,3.45,0,1.9,0,3.83.11,5.73a5,5,0,0,1-4.81,5.19ZM8,199a4.73,4.73,0,0,1-1-.1A5,5,0,0,1,3.12,193,165.79,165.79,0,0,1,7.9,174.53a5,5,0,0,1,9.52,3.07,152.17,152.17,0,0,0-4.49,17.34A5,5,0,0,1,8,199Z"/><path class="cls-2" d="M337.08,81.21a5,5,0,0,1-3.7-1.64,156,156,0,0,0-12.81-12.52,5,5,0,0,1,6.56-7.54,163.47,163.47,0,0,1,13.64,13.33,5,5,0,0,1-3.69,8.37ZM309.22,57a5,5,0,0,1-2.82-.88c-2.39-1.63-4.86-3.22-7.34-4.72s-5.31-3.1-8-4.51A5,5,0,1,1,295.7,38c2.88,1.51,5.74,3.13,8.53,4.81,2.64,1.6,5.27,3.29,7.81,5A5,5,0,0,1,309.22,57ZM276.54,39.81a5.16,5.16,0,0,1-1.8-.33,155,155,0,0,0-15.42-5,5,5,0,1,1,2.59-9.65,162.94,162.94,0,0,1,16.42,5.34,5,5,0,0,1-1.79,9.67Z"/><path class="cls-2" d="M67.67,81.21A5,5,0,0,1,64,72.84,166.6,166.6,0,0,1,77.61,59.51a5,5,0,1,1,6.56,7.54,154.35,154.35,0,0,0-12.8,12.52A5,5,0,0,1,67.67,81.21ZM95.53,57a5,5,0,0,1-2.83-9.13c2.54-1.74,5.17-3.43,7.82-5s5.65-3.3,8.52-4.81a5,5,0,0,1,4.65,8.86c-2.7,1.41-5.39,2.93-8,4.51s-5,3.09-7.35,4.72A5,5,0,0,1,95.53,57Zm32.68-17.17a5,5,0,0,1-1.8-9.67,163.12,163.12,0,0,1,16.43-5.34,5,5,0,1,1,2.59,9.65,154.35,154.35,0,0,0-15.43,5A5.14,5.14,0,0,1,128.21,39.81Z"/><path class="cls-1" d="M185.1,289.5a9.1,9.1,0,0,1-2.94,7.11q-29.49,29.49-59,59c-4.19,4.16-9.45,4.11-13.69-.05Q97.62,343.91,86,332.07c-4.14-4.24-4.09-9.48.1-13.69q30.27-30.4,60.67-60.68c4.53-4.51,10.22-4.26,14.37.51,7.1,8.17,14.1,16.42,21.18,24.61C184,284.78,185.25,286.89,185.1,289.5Z"/><path class="cls-1" d="M321.72,139c-.44.72-.81,1.41-1.27,2-3.66,4.94-7.37,9.84-11,14.82a7.44,7.44,0,0,1-4.12,2.85c-9.15,2.6-16.2,8.1-22.68,15-10.62,11.26-21.86,21.94-32.72,33-1.86,1.89-3.08,2-5,.17-3.22-3.06-6.56-6-10-8.76-2.09-1.66-1.9-2.74-.1-4.52,13.43-13.31,26.63-26.85,40.21-40,4-3.88,5.73-8.68,7.5-13.54a17.57,17.57,0,0,1,7.06-9.22c4.09-2.68,7.91-5.77,11.8-8.74,1.33-1,2.36-1.43,3.77,0,5,5.15,10.13,10.17,15.19,15.25A20.48,20.48,0,0,1,321.72,139Z"/><path class="cls-2" d="M291.15,364.65c-1.36,0-2.71-.06-4.08-.19a45.92,45.92,0,0,1-31.39-16.2q-17.15-19.72-34.32-39.43c-18.63-21.38-37.89-43.5-56.8-65.29-.83-1-.87-1-2.09-.75a120.86,120.86,0,0,1-38.29,1.15c-19.69-2.67-34.92-12.2-45.27-28.32C67.53,197.9,63.54,178.69,67,158.54c.33-1.88,1.09-6.29,5.85-7.94,5.18-1.8,8.66,1.68,10,3l7.32,7.31C97,167.69,104,174.71,110.9,181.67a5.68,5.68,0,0,0,3.28,1.71c9,1.75,17,3.38,24.22,5l.24.05c6.54-6.65,13.54-13.65,22-22-1.66-7.68-3.34-15.77-5.28-25.46a3.89,3.89,0,0,0-1.31-2.05L137.4,122.25,126.25,111.1l-.14-.14c-1.64-1.63-5.06-5-3.27-10.3,1.71-5.06,6.37-5.67,8.36-5.93l.46-.06c27.73-4,51.3,4.12,70.08,24,11.07,11.72,13.78,26.9,14.85,37.29.28,2.69.41,5.32.53,7.64,0,.9.08,1.75.13,2.52v.49c-.32,8.54-.71,16.23-2.33,23.89a2.57,2.57,0,0,0-.1,1h0a3.12,3.12,0,0,0,.67.71c20,17.35,40.37,35.06,60,52.17l10.69,9.31c3.08,2.69,6.18,5.37,9.27,8.06,8.64,7.51,17.57,15.27,26.3,23a44.44,44.44,0,0,1,14.13,24.41,46.16,46.16,0,0,1-3,28.26,46,46,0,0,1-41.76,27.27ZM163.33,232.7a11.16,11.16,0,0,1,8.79,4.29c18.9,21.78,38.15,43.89,56.78,65.28l34.33,39.42a36,36,0,1,0,51.93-49.49c-8.7-7.69-17.62-15.44-26.24-22.93l-9.28-8.07L269,251.89c-19.64-17.11-40-34.81-60-52.15a10.8,10.8,0,0,1-3.82-11.31c1.45-6.81,1.82-14,2.11-21.94,0-.74-.08-1.55-.12-2.4-.11-2.19-.23-4.68-.48-7.1-1.5-14.41-5.25-24.11-12.18-31.46-16.26-17.21-36.68-24.29-60.71-21.06l10.72,10.71c5.45,5.45,11.09,11.09,16.65,16.62a13.85,13.85,0,0,1,4.06,7.18c1.93,9.65,3.6,17.7,5.25,25.34a9.42,9.42,0,0,1-2.75,9.19c-8.46,8.36-15.43,15.34-21.94,22a9.52,9.52,0,0,1-9.52,2.67c-7.17-1.6-15-3.21-23.94-4.94a15.8,15.8,0,0,1-8.5-4.49c-6.86-6.94-13.88-14-20.68-20.74l-6.43-6.42c-2.72,17.35.77,33.28,10.64,48.66C96.14,224,108.64,231.74,125.53,234A111.23,111.23,0,0,0,160.69,233,15.46,15.46,0,0,1,163.33,232.7Z"/></g></g></svg>