<svg id="Сгруппировать_584" data-name="Сгруппировать 584" xmlns="http://www.w3.org/2000/svg" xmlns:xlink="http://www.w3.org/1999/xlink" width="205.724" height="109.71" viewBox="0 0 205.724 109.71">
  <defs>
    <clipPath id="clip-path">
      <rect id="Прямоугольник_300" data-name="Прямоугольник 300" width="205.724" height="109.71" fill="none"/>
    </clipPath>
  </defs>
  <g id="Сгруппировать_583" data-name="Сгруппировать 583" clip-path="url(#clip-path)">
    <path id="Контур_957" data-name="Контур 957" d="M182.023,108.176h-9a2.749,2.749,0,0,1,0-5.5h9a2.749,2.749,0,1,1,0,5.5m-23.488,0H144.043a2.749,2.749,0,1,1,0-5.5h14.492a2.749,2.749,0,0,1,0,5.5m-28.985,0H115.058a2.749,2.749,0,1,1,0-5.5H129.55a2.749,2.749,0,1,1,0,5.5m-28.985,0H86.073a2.749,2.749,0,0,1,0-5.5h14.492a2.749,2.749,0,1,1,0,5.5m-28.985,0H57.088a2.749,2.749,0,1,1,0-5.5H71.581a2.749,2.749,0,0,1,0,5.5m-28.985,0H28.1a2.749,2.749,0,1,1,0-5.5H42.6a2.749,2.749,0,1,1,0,5.5" transform="translate(-12.684 -51.367)" fill="#fa4616"/>
    <path id="Контур_958" data-name="Контур 958" d="M380.833,143.655c-11.4-10.379-23.583-4.131-27.478-1.642v-1.5c16.931-11.03,29.088,2.725,29.088,2.725Z" transform="translate(-176.77 -68.152)" fill="#fa4616"/>
    <path id="Контур_959" data-name="Контур 959" d="M354.659,71.445c1.946-1.509,13.918-10.882,28.18.67l.155,32.757s-12.095-11.619-28.64-.931Z" transform="translate(-177.27 -33.231)" fill="#fa4616"/>
    <path id="Контур_960" data-name="Контур 960" d="M320.237,141.954c-3.923-2.509-16.1-8.753-27.478,1.606l-1.61-.412s12.157-13.759,29.088-2.729Z" transform="translate(-145.651 -68.104)" fill="#fa4616"/>
    <path id="Контур_961" data-name="Контур 961" d="M291.51,71.972c14.338-11.613,26.374-2.191,28.33-.673l.307,32.668c-16.637-10.744-28.792.937-28.792.937Z" transform="translate(-145.754 -33.145)" fill="#fa4616"/>
    <path id="Контур_962" data-name="Контур 962" d="M96,190.567l-13.416-7.554a1.484,1.484,0,0,0-2.2,1.083,4.743,4.743,0,0,1-.457,1.46,3.642,3.642,0,0,1-1.02,1.343,3.9,3.9,0,0,1-1.614.7,5.394,5.394,0,0,1-.978.145A5.327,5.327,0,0,1,75.3,187.6a3.9,3.9,0,0,1-1.613-.7,3.636,3.636,0,0,1-1.02-1.343,4.739,4.739,0,0,1-.458-1.46,1.484,1.484,0,0,0-2.2-1.082l-13.416,7.554a1.484,1.484,0,0,0-.468,2.171,14.1,14.1,0,0,0,1.848,2.057,16.8,16.8,0,0,0,1.72,1.354,25.639,25.639,0,0,0,2.74,1.784,21.161,21.161,0,0,0,3.531,1.49,30.2,30.2,0,0,0,4.8,1.373,25.97,25.97,0,0,0,2.829.37l.092,0a1.528,1.528,0,0,0,1.027-.394,1.483,1.483,0,0,0,.49-1.041,1.511,1.511,0,0,0-1.227-1.511l-.1-.012a22.914,22.914,0,0,1-2.567-.332,26.536,26.536,0,0,1-4.221-1.206l-.144-.05a18.855,18.855,0,0,1-3.085-1.291,23.037,23.037,0,0,1-2.447-1.6,14.468,14.468,0,0,1-1.437-1.126q-.179-.163-.354-.338l10.214-5.751c.055.127.114.252.176.375a6.493,6.493,0,0,0,1.836,2.34,6.723,6.723,0,0,0,2.746,1.253,8.424,8.424,0,0,0,1.645.229h.054l.093,0A8.271,8.271,0,0,0,78,190.484a6.729,6.729,0,0,0,2.746-1.253,6.5,6.5,0,0,0,1.836-2.34q.092-.184.175-.374l10.213,5.75c-.1.1-.2.193-.3.292l-.049.053a1.487,1.487,0,0,0,2.1,2.1l.042-.038a13.5,13.5,0,0,0,1.78-2.039,1.548,1.548,0,0,0,.186-1.084,1.485,1.485,0,0,0-.723-.98" transform="translate(-27.933 -91.459)" fill="#fa4616"/>
    <path id="Контур_963" data-name="Контур 963" d="M75.778,146.338a10.7,10.7,0,0,0,3.437,4,9.7,9.7,0,0,0,5.477,1.865h.11a9.363,9.363,0,0,0,1.71-.158A8.364,8.364,0,0,0,91,149.9c.344-.343,1.068-1.155,1.073-1.162l.129-.144c.264-.295.424-.474.609-.7a13.443,13.443,0,0,0,1-1.42c.294-.519.575-1.053.836-1.586.33-.676.638-1.372.915-2.069l.019-.05a20.633,20.633,0,0,0,.779-3.246,18.981,18.981,0,0,0-.191-7.539,9.8,9.8,0,0,0-8.088-7.86,15.007,15.007,0,0,0-8.444.558,9.588,9.588,0,0,0-6.148,7.255,19.806,19.806,0,0,0,1.059,12.115,17.656,17.656,0,0,0,1.235,2.3m.173-10.268a16.624,16.624,0,0,1,.418-3.291,6.782,6.782,0,0,1,4.32-5.152,10.918,10.918,0,0,1,3.967-.72,14.383,14.383,0,0,1,2.834.3,6.953,6.953,0,0,1,5.8,5.656,15.68,15.68,0,0,1,.145,6.377c-.1.621-.233,1.243-.39,1.832a19.672,19.672,0,0,1-1.055,2.722c-.231.486-.49.973-.756,1.43-.224.34-.468.674-.725.992q-.3.367-.628.721l-.377.419c-.194.213-.449.49-.593.633a5.475,5.475,0,0,1-2.951,1.343,6.055,6.055,0,0,1-1.23.105,6.841,6.841,0,0,1-3.819-1.332,7.761,7.761,0,0,1-2.522-2.979L78.313,145a14.718,14.718,0,0,1-1.066-1.972,16.515,16.515,0,0,1-1.3-6.957" transform="translate(-36.512 -61.914)" fill="#fa4616"/>
    <path id="Контур_964" data-name="Контур 964" d="M227.11,64.195l-12.889-7.257a1.426,1.426,0,0,0-2.111,1.04,4.554,4.554,0,0,1-.439,1.4,3.5,3.5,0,0,1-.98,1.29,3.748,3.748,0,0,1-1.55.674,5.22,5.22,0,0,1-.94.139,5.153,5.153,0,0,1-.985-.139,3.744,3.744,0,0,1-1.549-.674,3.5,3.5,0,0,1-.98-1.29,4.564,4.564,0,0,1-.44-1.4,1.425,1.425,0,0,0-2.111-1.04L189.248,64.2a1.426,1.426,0,0,0-.449,2.086,13.576,13.576,0,0,0,1.775,1.976,16.088,16.088,0,0,0,1.652,1.3,24.6,24.6,0,0,0,2.633,1.714,20.3,20.3,0,0,0,3.392,1.431,29.012,29.012,0,0,0,4.612,1.319,24.892,24.892,0,0,0,2.718.355l.088,0a1.468,1.468,0,0,0,.986-.378,1.424,1.424,0,0,0,.471-1,1.452,1.452,0,0,0-1.179-1.452l-.092-.011a21.925,21.925,0,0,1-2.466-.318,25.56,25.56,0,0,1-4.056-1.158l-.138-.049a18.124,18.124,0,0,1-2.964-1.24,22.114,22.114,0,0,1-2.351-1.537,13.891,13.891,0,0,1-1.38-1.081q-.172-.157-.34-.325l9.813-5.525q.079.183.169.36a6.246,6.246,0,0,0,1.764,2.248,6.453,6.453,0,0,0,2.638,1.2,8.067,8.067,0,0,0,1.58.22h.052l.089,0a7.936,7.936,0,0,0,1.553-.218,6.46,6.46,0,0,0,2.638-1.2,6.253,6.253,0,0,0,1.764-2.248c.059-.118.115-.238.168-.359l9.812,5.524c-.092.093-.189.186-.29.28l-.047.051a1.429,1.429,0,0,0,2.014,2.015l.04-.037a12.989,12.989,0,0,0,1.71-1.959,1.488,1.488,0,0,0,.179-1.041,1.427,1.427,0,0,0-.694-.942" transform="translate(-94.311 -28.392)" fill="#fa4616"/>
    <path id="Контур_965" data-name="Контур 965" d="M207.679,21.688a10.27,10.27,0,0,0,3.3,3.845,9.317,9.317,0,0,0,5.262,1.792h.105a8.988,8.988,0,0,0,1.643-.152,8.032,8.032,0,0,0,4.308-2.068c.331-.329,1.026-1.11,1.031-1.117l.124-.138c.253-.283.407-.456.585-.677A12.838,12.838,0,0,0,225,21.81c.282-.5.553-1.012.8-1.524.317-.65.613-1.318.879-1.988l.018-.048a19.786,19.786,0,0,0,.749-3.118,18.231,18.231,0,0,0-.184-7.242,9.409,9.409,0,0,0-7.77-7.551,14.42,14.42,0,0,0-8.112.535,9.212,9.212,0,0,0-5.906,6.97,19.019,19.019,0,0,0,1.017,11.638,16.919,16.919,0,0,0,1.186,2.206m.166-9.856a15.988,15.988,0,0,1,.4-3.162,6.514,6.514,0,0,1,4.15-4.95,10.484,10.484,0,0,1,3.811-.692,13.832,13.832,0,0,1,2.722.288,6.681,6.681,0,0,1,5.57,5.434,15.077,15.077,0,0,1,.139,6.126c-.1.6-.224,1.194-.374,1.76a19.033,19.033,0,0,1-1.014,2.615c-.222.466-.471.935-.726,1.373-.215.326-.449.647-.7.953q-.284.352-.6.692l-.362.4c-.187.205-.431.471-.569.608a5.257,5.257,0,0,1-2.836,1.291,5.831,5.831,0,0,1-1.182.1,6.568,6.568,0,0,1-3.669-1.28,7.466,7.466,0,0,1-2.423-2.862l-.069-.12a14.171,14.171,0,0,1-1.024-1.895,15.868,15.868,0,0,1-1.244-6.684" transform="translate(-102.552 0)" fill="#fa4616"/>
    <path id="Контур_966" data-name="Контур 966" d="M186.056,190.567l13.416-7.554a1.484,1.484,0,0,1,2.2,1.083,4.743,4.743,0,0,0,.457,1.46,3.642,3.642,0,0,0,1.02,1.343,3.9,3.9,0,0,0,1.614.7,5.394,5.394,0,0,0,.978.145,5.327,5.327,0,0,0,1.025-.145,3.9,3.9,0,0,0,1.613-.7,3.636,3.636,0,0,0,1.02-1.343,4.739,4.739,0,0,0,.458-1.46,1.484,1.484,0,0,1,2.2-1.082l13.416,7.554a1.484,1.484,0,0,1,.468,2.171,14.1,14.1,0,0,1-1.848,2.057,16.8,16.8,0,0,1-1.72,1.354,25.637,25.637,0,0,1-2.74,1.784,21.16,21.16,0,0,1-3.531,1.49,30.2,30.2,0,0,1-4.8,1.373,25.97,25.97,0,0,1-2.829.37l-.092,0a1.528,1.528,0,0,1-1.027-.394,1.483,1.483,0,0,1-.49-1.041,1.511,1.511,0,0,1,1.227-1.511l.1-.012a22.914,22.914,0,0,0,2.567-.332,26.536,26.536,0,0,0,4.221-1.206l.144-.05a18.855,18.855,0,0,0,3.085-1.291,23.037,23.037,0,0,0,2.447-1.6,14.467,14.467,0,0,0,1.437-1.126q.179-.163.354-.338l-10.214-5.751c-.055.127-.114.252-.176.375a6.493,6.493,0,0,1-1.836,2.34,6.723,6.723,0,0,1-2.746,1.253,8.424,8.424,0,0,1-1.645.229h-.054l-.093,0a8.271,8.271,0,0,1-1.616-.227,6.729,6.729,0,0,1-2.746-1.253,6.5,6.5,0,0,1-1.836-2.34q-.092-.184-.175-.374l-10.213,5.75c.1.1.2.193.3.292l.049.053a1.487,1.487,0,0,1-2.1,2.1l-.042-.038a13.5,13.5,0,0,1-1.78-2.039,1.548,1.548,0,0,1-.186-1.084,1.485,1.485,0,0,1,.723-.98" transform="translate(-92.7 -91.459)" fill="#fa4616"/>
    <path id="Контур_967" data-name="Контур 967" d="M224.806,144.041a19.807,19.807,0,0,0,1.059-12.115,9.588,9.588,0,0,0-6.148-7.255,15.007,15.007,0,0,0-8.444-.558,9.8,9.8,0,0,0-8.088,7.86,18.98,18.98,0,0,0-.191,7.539,20.633,20.633,0,0,0,.779,3.246l.019.05c.277.7.584,1.393.914,2.069.261.533.542,1.066.836,1.586a13.445,13.445,0,0,0,1,1.42c.185.23.345.409.609.7l.129.144c.006.007.73.82,1.073,1.162a8.364,8.364,0,0,0,4.485,2.153,9.363,9.363,0,0,0,1.71.158h.11a9.7,9.7,0,0,0,5.477-1.865,10.691,10.691,0,0,0,3.437-4,17.6,17.6,0,0,0,1.235-2.3m-2.7-1.013A14.718,14.718,0,0,1,221.036,145l-.072.125a7.761,7.761,0,0,1-2.522,2.979,6.841,6.841,0,0,1-3.819,1.332,6.055,6.055,0,0,1-1.23-.105,5.475,5.475,0,0,1-2.951-1.343c-.144-.143-.4-.42-.593-.633l-.377-.419q-.333-.355-.628-.721c-.257-.318-.5-.652-.725-.992-.266-.457-.524-.944-.756-1.43a19.672,19.672,0,0,1-1.055-2.722c-.157-.589-.29-1.211-.39-1.832a15.68,15.68,0,0,1,.145-6.377,6.953,6.953,0,0,1,5.8-5.656,14.383,14.383,0,0,1,2.834-.3,10.918,10.918,0,0,1,3.967.72,6.782,6.782,0,0,1,4.32,5.152,16.842,16.842,0,0,1-.878,10.249" transform="translate(-101.409 -61.914)" fill="#fa4616"/>
    <path id="Контур_968" data-name="Контур 968" d="M56.561,64.195,69.45,56.938a1.426,1.426,0,0,1,2.111,1.04A4.554,4.554,0,0,0,72,59.38a3.5,3.5,0,0,0,.98,1.29,3.748,3.748,0,0,0,1.55.674,5.221,5.221,0,0,0,.94.139,5.153,5.153,0,0,0,.985-.139A3.744,3.744,0,0,0,78,60.67a3.5,3.5,0,0,0,.98-1.29,4.564,4.564,0,0,0,.44-1.4,1.425,1.425,0,0,1,2.111-1.04L94.424,64.2a1.426,1.426,0,0,1,.449,2.086A13.576,13.576,0,0,1,93.1,68.258a16.09,16.09,0,0,1-1.652,1.3,24.6,24.6,0,0,1-2.633,1.714A20.3,20.3,0,0,1,85.422,72.7a29.011,29.011,0,0,1-4.612,1.319,24.892,24.892,0,0,1-2.718.355l-.088,0A1.468,1.468,0,0,1,77.017,74a1.424,1.424,0,0,1-.471-1,1.452,1.452,0,0,1,1.179-1.452l.092-.011a21.925,21.925,0,0,0,2.466-.318,25.56,25.56,0,0,0,4.056-1.158l.138-.049a18.125,18.125,0,0,0,2.964-1.24,22.114,22.114,0,0,0,2.351-1.537,13.89,13.89,0,0,0,1.38-1.081q.172-.157.34-.325L81.7,60.3q-.079.183-.169.36a6.246,6.246,0,0,1-1.764,2.248,6.453,6.453,0,0,1-2.638,1.2,8.067,8.067,0,0,1-1.58.22H75.5l-.089,0a7.936,7.936,0,0,1-1.553-.218,6.46,6.46,0,0,1-2.638-1.2,6.253,6.253,0,0,1-1.764-2.248c-.059-.118-.115-.238-.168-.359l-9.812,5.524c.092.093.189.186.29.28l.047.051A1.429,1.429,0,0,1,57.8,68.174l-.04-.037a12.992,12.992,0,0,1-1.71-1.959,1.488,1.488,0,0,1-.179-1.041,1.427,1.427,0,0,1,.694-.942" transform="translate(-27.933 -28.392)" fill="#fa4616"/>
    <path id="Контур_969" data-name="Контур 969" d="M93.787,19.481A19.018,19.018,0,0,0,94.8,7.843,9.211,9.211,0,0,0,88.9.874,14.42,14.42,0,0,0,80.787.338a9.41,9.41,0,0,0-7.77,7.551,18.234,18.234,0,0,0-.184,7.243,19.78,19.78,0,0,0,.749,3.118l.018.048c.266.67.562,1.339.879,1.988.25.512.52,1.025.8,1.524a12.893,12.893,0,0,0,.959,1.364c.178.221.332.393.585.677l.124.138c0,.006.7.787,1.031,1.116a8.036,8.036,0,0,0,4.308,2.069,8.978,8.978,0,0,0,1.643.151h.105A9.312,9.312,0,0,0,89.3,25.534a10.274,10.274,0,0,0,3.3-3.846,16.919,16.919,0,0,0,1.186-2.206m-2.6-.965a14.138,14.138,0,0,1-1.024,1.895l-.069.12a7.462,7.462,0,0,1-2.423,2.862A6.568,6.568,0,0,1,84,24.674a5.831,5.831,0,0,1-1.182-.1,5.257,5.257,0,0,1-2.836-1.291c-.138-.137-.382-.4-.569-.608l-.362-.4q-.32-.341-.6-.693c-.247-.306-.481-.626-.7-.953-.255-.439-.5-.907-.726-1.373a19.01,19.01,0,0,1-1.014-2.615c-.15-.566-.278-1.164-.374-1.76A15.077,15.077,0,0,1,75.78,8.75a6.681,6.681,0,0,1,5.57-5.434,13.868,13.868,0,0,1,2.722-.287,10.484,10.484,0,0,1,3.811.692,6.514,6.514,0,0,1,4.15,4.95,16.179,16.179,0,0,1-.843,9.845" transform="translate(-36.299 0)" fill="#fa4616"/>
    <path id="Контур_970" data-name="Контур 970" d="M0,97.983l20.167,11.645V86.338Z" transform="translate(0 -43.192)" fill="#fa4616"/>
    <rect id="Прямоугольник_299" data-name="Прямоугольник 299" width="3.498" height="104.445" transform="translate(79.636 3.338)" fill="#fa4616"/>
  </g>
</svg>
