<svg xmlns="http://www.w3.org/2000/svg" viewBox="0 0 387.35 403.76"><defs><style>.cls-1{fill:#fa4616;}.cls-2{fill:#0d2333;}</style></defs><title>icon-cyber-soc</title><g id="Слой_2" data-name="Слой 2"><g id="Layer_1" data-name="Layer 1"><path class="cls-1" d="M303.9,357.2a6,6,0,0,0-6,6v28.56H12V12.08H182.21A6.38,6.38,0,0,0,189.28,6,6.37,6.37,0,0,0,181.89.08H6a6,6,0,0,0-6,6V397.76a6,6,0,0,0,6,6H303.9a6,6,0,0,0,6-6V363.2A6,6,0,0,0,303.9,357.2Z"/><path class="cls-2" d="M207.28,304.68H55.61a6.5,6.5,0,0,0,0,13H220.18A107.75,107.75,0,0,1,207.28,304.68Z"/><path class="cls-2" d="M55.61,167.68H206.23a108.65,108.65,0,0,1,12.47-13H55.61a6.5,6.5,0,0,0,0,13Z"/><path class="cls-2" d="M55.61,217.68H183.66a107.68,107.68,0,0,1,3-13H55.61a6.5,6.5,0,0,0,0,13Z"/><path class="cls-2" d="M55.61,267.68H187.05a107.22,107.22,0,0,1-3.18-13H55.61a6.5,6.5,0,0,0,0,13Z"/><path class="cls-1" d="M222.65,102H209.54a6,6,0,0,1,0-12h13.11a6,6,0,0,1,0,12Z"/><path class="cls-1" d="M267.32,102H245a6,6,0,0,1,0-12h22.33a6,6,0,0,1,0,12Z"/><path class="cls-1" d="M302.76,102H289.65a6,6,0,0,1-1.12-11.89,6,6,0,0,1,9.2-7.62L307,91.75A6,6,0,0,1,302.76,102Z"/><path class="cls-1" d="M270,69.28a6,6,0,0,1-4.24-1.76L242.36,44.08a6,6,0,0,1,8.48-8.49L274.29,59A6,6,0,0,1,270,69.28Z"/><path class="cls-1" d="M223.16,22.39a6,6,0,0,1-4.25-1.76l-9.27-9.27a6,6,0,0,1,8.49-8.48l9.27,9.27a6,6,0,0,1-4.24,10.24Z"/><path class="cls-2" d="M341.54,193.27a.76.76,0,0,0-.29-.2,76,76,0,0,0-18.58-6.76,95.1,95.1,0,0,0-21.36-2.4,101.21,101.21,0,0,0-14.35,1,78.12,78.12,0,0,0-25.72,8c-.57.3-.6.39-.6,1,0,6.12,0,12.34,0,18.35v29.6a21.94,21.94,0,0,0,.64,5.19c1.36,5.43,4.4,10.44,9.58,15.75,7.47,7.66,17,14.28,30,20.82.11,0,.17.08.6-.13,3.68-1.81,7.27-3.79,10.65-5.88,7.8-4.81,16.67-10.92,23.3-19.7,4.12-5.46,6-10.51,6.07-15.9,0-9.53,0-19.23,0-28.6q0-9.88,0-19.76A1,1,0,0,0,341.54,193.27Zm-14.68,60.09c-5.1,6.18-11.46,10.84-18.23,15-2.14,1.31-4.34,2.51-6.57,3.65a1.72,1.72,0,0,1-1.74.07c-8.33-4.26-16.1-9.33-22.65-16.07a29,29,0,0,1-7-10.68,16.86,16.86,0,0,1-.88-5.45q0-18.4,0-36.82a2,2,0,0,1,1.35-2.11,67.28,67.28,0,0,1,20.31-5.68,76.55,76.55,0,0,1,26.9,1.35A63.3,63.3,0,0,1,331.24,201a1.81,1.81,0,0,1,1.18,1.87c0,6.29,0,12.58,0,18.87,0,5.36-.18,10.73.05,16.09C332.7,243.86,330.58,248.86,326.86,253.36Z"/><path class="cls-2" d="M301.14,147.85a86.21,86.21,0,1,0,86.21,86.21A86.21,86.21,0,0,0,301.14,147.85Zm40.55,117.62c-6.7,8.18-15.34,15.09-28,22.41-3,1.74-6.28,3.43-10.6,5.45a4.56,4.56,0,0,1-2,.52,3.77,3.77,0,0,1-1.61-.37c-13.92-6.45-25.07-13.87-34.09-22.68a49.6,49.6,0,0,1-11.94-17.1,30,30,0,0,1-2.32-11.27q0-9,0-18V210.73c0-6.62,0-13.47,0-20.21a4.38,4.38,0,0,1,2.18-4,76,76,0,0,1,22.89-9.28,102.59,102.59,0,0,1,27.6-2.9c16.06.51,29.66,3.8,41.6,10.08.81.42,1.58.9,2.32,1.36.47.28.93.57,1.4.84a4.07,4.07,0,0,1,2.08,3.87c0,4.37,0,8.82,0,13.12v4.59c0,3.22,0,6.43,0,9.65,0,7.25-.07,14.74.08,22.09C351.37,249.07,348.27,257.43,341.69,265.47Z"/></g></g></svg>