<svg xmlns="http://www.w3.org/2000/svg" xmlns:xlink="http://www.w3.org/1999/xlink" width="128.78" height="106.329" viewBox="0 0 128.78 106.329">
  <defs>
    <clipPath id="clip-path">
      <rect id="Прямоугольник_203" data-name="Прямоугольник 203" width="128.78" height="106.329" fill="#fa4616"/>
    </clipPath>
  </defs>
  <g id="Сгруппировать_367" data-name="Сгруппировать 367" transform="translate(0 0)">
    <g id="Сгруппировать_366" data-name="Сгруппировать 366" transform="translate(0 0)" clip-path="url(#clip-path)">
      <path id="Контур_633" data-name="Контур 633" d="M29.385,86.749H66.476c0-11.485-6.445-21.042-14.982-23.158a13.486,13.486,0,1,0-7.128,0C35.83,65.707,29.385,75.264,29.385,86.749" transform="translate(15.506 19.581)" fill="#fa4616"/>
      <path id="Контур_634" data-name="Контур 634" d="M60.018,73.578H97.109c0-11.485-6.445-21.042-14.982-23.158a13.486,13.486,0,1,0-7.128,0c-8.535,2.116-14.981,11.673-14.981,23.158" transform="translate(31.671 12.63)" fill="#fa4616"/>
      <path id="Контур_635" data-name="Контур 635" d="M0,73.578H37.091c0-11.485-6.445-21.042-14.982-23.158a13.486,13.486,0,1,0-7.128,0C6.445,52.536,0,62.093,0,73.578" transform="translate(0 12.63)" fill="#fa4616"/>
      <path id="Контур_636" data-name="Контур 636" d="M62.475,27.083a14.714,14.714,0,0,1-1.615-.539l-.22-.093a18.687,18.687,0,0,1-2.811-1.387,16.345,16.345,0,0,1-1.664-1.077,31.6,31.6,0,0,1-4.789.367,31.348,31.348,0,0,1-3.987-.258l-.446.671a16.113,16.113,0,0,1-8.835,6.224c2.3,2.779,6.374,4.368,10.889,4.151.148.052.292.121.454.2a5.472,5.472,0,0,1,.581.35,4.038,4.038,0,0,1,.551.46.884.884,0,0,0,.076.075,2.906,2.906,0,0,1,.371.442l.125.163a3.467,3.467,0,0,1,.275.475c.047.093.1.186.148.281.105.28.206.574.306.872l.183.966a5.611,5.611,0,0,1,.038.588c0,.121.006.238.012.345a4.231,4.231,0,0,1-.011.765l-.127,1.317a.981.981,0,0,0,1.551.9.818.818,0,0,0,.119-.1l.449-.452.49-.5a6.8,6.8,0,0,0,.747-.885l.191-.257a9.2,9.2,0,0,0,.559-.8c.217-.377.448-.791.684-1.236A.9.9,0,0,0,56.816,39c.189-.464.383-.966.567-1.5.011-.035.021-.07.029-.1l.087-.371a9.989,9.989,0,0,0,.275-1.479,10.46,10.46,0,0,0,.072-1.768,10.234,10.234,0,0,0-.136-1.447,13.216,13.216,0,0,0,4.765-5.257" transform="translate(20.109 12.658)" fill="#fa4616"/>
      <path id="Контур_637" data-name="Контур 637" d="M34.757,13.3c-5.752,1.635-9.86,5.876-9.86,10.866a10.211,10.211,0,0,0,3.85,7.718l-.032.069a3.73,3.73,0,0,1-.309.5c-.067.1-.134.2-.2.3-.217.247-.445.5-.681.747l-.837.678a5.913,5.913,0,0,1-.545.341c-.116.066-.229.13-.325.191a4.918,4.918,0,0,1-.749.39l-1.335.561a1.075,1.075,0,0,0,.105,2.023l.666.2.746.214a7.379,7.379,0,0,0,1.234.258l.345.053a10.419,10.419,0,0,0,1.062.125c.423.011.877.018,1.36.018h.189a.872.872,0,0,0,.112-.008c.545-.06,1.13-.131,1.74-.232.037-.006.521-.133.521-.133a11.707,11.707,0,0,0,1.48-.466l.122-.05a11.5,11.5,0,0,0,1.7-.836,12.691,12.691,0,0,0,1.729-1.189c.041-.032.084-.073.125-.107a19.7,19.7,0,0,0,3,.231c5.863,0,10.932-2.576,13.428-6.331C43.718,27.555,36.243,21.19,34.757,13.3" transform="translate(12.174 7.018)" fill="#fa4616"/>
      <path id="Контур_638" data-name="Контур 638" d="M78.8,35.288l-.952-.394-1.111-.471a7.981,7.981,0,0,1-1.14-.6c-.159-.1-.321-.192-.487-.289a9.259,9.259,0,0,1-.846-.524l-1.352-1.089c-.38-.4-.752-.808-1.1-1.208-.1-.16-.208-.313-.31-.466a6.969,6.969,0,0,1-.489-.79c3.888-3.127,6.282-7.363,6.282-12.032C77.291,7.8,67.141,0,54.623,0S31.955,7.8,31.955,17.426s10.15,17.425,22.668,17.425a29.34,29.34,0,0,0,5.347-.492,17.084,17.084,0,0,0,2.208,1.5A16.383,16.383,0,0,0,64.73,37.12l.2.084a16.908,16.908,0,0,0,2.124.665c.214.055.425.11.629.167a.6.6,0,0,0,.1.023c.773.128,1.593.238,2.582.344a.708.708,0,0,0,.1.006l.4,0c.677,0,1.317-.009,1.94-.028A14.384,14.384,0,0,0,74.29,38.2c.183-.029.361-.057.539-.082a10.179,10.179,0,0,0,1.7-.35l1.182-.338.991-.295a.981.981,0,0,0,.095-1.847" transform="translate(16.862 0.001)" fill="#fa4616"/>
    </g>
  </g>
</svg>
