<svg xmlns="http://www.w3.org/2000/svg" xmlns:xlink="http://www.w3.org/1999/xlink" width="79.984" height="90.839" viewBox="0 0 79.984 90.839">
  <defs>
    <clipPath id="clip-path">
      <rect id="Прямоугольник_231" data-name="Прямоугольник 231" width="79.984" height="90.839" fill="#fa4616"/>
    </clipPath>
  </defs>
  <g id="Сгруппировать_449" data-name="Сгруппировать 449" transform="translate(0 0)">
    <g id="Сгруппировать_448" data-name="Сгруппировать 448" transform="translate(0 0)" clip-path="url(#clip-path)">
      <path id="Контур_692" data-name="Контур 692" d="M14.005,35.693a5.132,5.132,0,0,1,7.255.013,15.328,15.328,0,0,0,21.648.043,5.131,5.131,0,1,1,7.244,7.268,25.6,25.6,0,0,1-36.162-.067,5.13,5.13,0,0,1,.015-7.257" transform="translate(7.946 21.747)" fill="#fa4616"/>
      <path id="Контур_693" data-name="Контур 693" d="M5.933,43.739a5.13,5.13,0,0,1,7.257.01,33.981,33.981,0,0,0,48.007.088,5.131,5.131,0,1,1,7.244,7.27A44.259,44.259,0,0,1,5.92,50.992a5.127,5.127,0,0,1,.013-7.254" transform="translate(2.813 26.862)" fill="#fa4616"/>
      <path id="Контур_694" data-name="Контур 694" d="M63.321,12.548a16.421,16.421,0,0,0-2.3.18A20.311,20.311,0,0,0,25.274,9.052,12.955,12.955,0,0,0,23.41,8.9a12.752,12.752,0,0,0-12.7,11.587,12.749,12.749,0,0,0,2.047,25.334l50.564.052a16.664,16.664,0,0,0,0-33.327" transform="translate(0 0)" fill="#fa4616"/>
    </g>
  </g>
</svg>
