<svg xmlns="http://www.w3.org/2000/svg" xmlns:xlink="http://www.w3.org/1999/xlink" width="123.651" height="119.584" viewBox="0 0 123.651 119.584">
  <defs>
    <clipPath id="clip-path">
      <rect id="Прямоугольник_298" data-name="Прямоугольник 298" width="123.651" height="119.584" fill="none"/>
    </clipPath>
  </defs>
  <g id="Сгруппировать_581" data-name="Сгруппировать 581" clip-path="url(#clip-path)">
    <path id="Контур_938" data-name="Контур 938" d="M21.036,190.065l1.17-11.684,2.114-4.451a3.122,3.122,0,0,1,2.5,2.78l-1.555,15.582-1.228,1.115Zm2.893,4.451,1.005,1.115-1.561,15.582a4.083,4.083,0,0,1-3.061,2.78l-1.222-4.451,1.167-11.686Zm-2.839-16.135H7.791L3.508,176.71a4.084,4.084,0,0,1,3.061-2.78H23.2ZM7.626,179.494,6.569,190.065l-3.675,3.342-1-1.115,1.448-14.467ZM.113,210.1l1.448-14.47,1.225-1.115,3,3.339L4.733,208.43ZM19.2,213.994H2.505A3.133,3.133,0,0,1,0,211.214l4.62-1.671H17.977Z" transform="translate(0 -125.072)" fill="#fa4616"/>
    <path id="Контур_939" data-name="Контур 939" d="M124.049,190.065l1.17-11.684,2.114-4.451a3.122,3.122,0,0,1,2.5,2.78l-1.555,15.582-1.225,1.115Zm2.893,4.451,1.005,1.115-1.561,15.582a4.083,4.083,0,0,1-3.061,2.78l-1.222-4.451,1.167-11.686ZM124.1,178.381H110.8l-4.284-1.671a4.084,4.084,0,0,1,3.061-2.78h16.636Zm-13.465,1.112-1.057,10.571-3.673,3.342-1-1.115,1.448-14.467ZM103.126,210.1l1.448-14.47,1.225-1.115,3,3.339-1.057,10.574Zm19.086,3.892H105.518a3.133,3.133,0,0,1-2.505-2.78l4.62-1.671H120.99Z" transform="translate(-74.076 -125.072)" fill="#fa4616"/>
    <path id="Контур_940" data-name="Контур 940" d="M214.3,210.074H209.85l.446-4.451h4.451Zm-1.839,17.806h-4.451l.446-4.451h4.451Z" transform="translate(-149.582 -147.863)" fill="#fa4616"/>
    <path id="Контур_941" data-name="Контур 941" d="M311.592,190.066l1.17-11.683,2.114-4.451a3.129,3.129,0,0,1,2.5,2.78l-1.555,15.582-1.225,1.115Zm2.893,4.451,1.005,1.115-1.561,15.582a4.083,4.083,0,0,1-3.062,2.78l-1.222-4.451,1.167-11.686Z" transform="translate(-222.665 -125.073)" fill="#fa4616"/>
    <path id="Контур_942" data-name="Контур 942" d="M358.449,62.473,343.515,47.538l-6.691,6.688,3.514,3.514-3.853,3.853,7.907,7.907,3.853-3.85,3.514,3.51Z" transform="translate(-241.965 -34.185)" fill="#fa4616"/>
    <path id="Контур_943" data-name="Контур 943" d="M202.47,0H181.349V9.463h4.971V14.91H197.5V9.463h4.971Z" transform="translate(-130.407 0)" fill="#fa4616"/>
    <path id="Контур_944" data-name="Контур 944" d="M365.741,190.065l1.17-11.684,2.114-4.451a3.129,3.129,0,0,1,2.5,2.78l-1.555,15.582-1.225,1.115Zm2.893,4.451,1.005,1.115-1.561,15.582a4.083,4.083,0,0,1-3.061,2.78l-1.222-4.451,1.167-11.686ZM365.8,178.381H352.5l-4.284-1.671a4.084,4.084,0,0,1,3.061-2.78H367.91Zm-13.465,1.112-1.057,10.571-3.675,3.342-1-1.115,1.448-14.467ZM344.818,210.1l1.448-14.47,1.222-1.115,3.007,3.339-1.057,10.574Zm19.086,3.892H347.21a3.133,3.133,0,0,1-2.505-2.78l4.62-1.671h13.357Z" transform="translate(-247.876 -125.072)" fill="#fa4616"/>
    <path id="Контур_945" data-name="Контур 945" d="M178.7,66.177a50.764,50.764,0,0,0-11.339,1.279,1.685,1.685,0,1,0,.754,3.285q1.939-.445,3.938-.728h0l.017,0h0l.018,0h0l.018,0h0l.09-.012h0l.016,0h0l.016,0h0l.015,0h0l.014,0h0l.015,0h0l.071-.01h0l.014,0h.005l.013,0h.006l.014,0h.005l.013,0h.006l.013,0h.005l.014,0h0l.049-.006h0l.013,0h.007l.012,0h.006l.012,0h.063l.044-.006h.142l.012,0h.006l.023,0h.144l.023,0h.156l.019,0h.006l.013,0h.107l.014,0h.005l.02,0h0l.018,0h.107l.015,0h.005l.04,0h0l.018,0h0l.016,0h.046l.014,0h.006l.016,0h0l.062-.006h0l.018,0h0l.016,0h0l.016,0h.005l.015,0h0l.017,0h0l.081-.008h0l.016,0h.045l.016,0h0l.019,0h0l.062-.006h0l.017,0h.045l.017,0h0l.017,0h0l.019,0h0l.062-.006h0l.017,0h0l.017,0h.044l.019,0h0l.062-.006h0l.019,0h.024l.016,0h.045l.061-.005h.106l.019,0h0l.062-.005h.086l.082-.006h.105l.083-.006h.106l.062,0h.126l.062,0h.106l.062,0h.126l.042,0h.128l.062,0h.107l.062,0h.127l.042,0h.148l.041,0h.128l.04,0H178.7a1.685,1.685,0,0,0,0-3.371" transform="translate(-119.408 -47.588)" fill="#fa4616"/>
    <path id="Контур_946" data-name="Контур 946" d="M106.874,83.662a1.678,1.678,0,0,0-.737.171,50.606,50.606,0,0,0-9.627,6.129,1.685,1.685,0,1,0,2.119,2.621q.488-.4.988-.777h0l.084-.064h0l.014-.01h0l.084-.063h0l.013-.01,0,0,.012-.009h0l.054-.041h0l.012-.009,0,0,.012-.009,0,0,.012-.009,0,0,.039-.029h0l.01-.008.006,0,.009-.007.006,0,.01-.008.006,0,.01-.007.006,0,.034-.025,0,0,.01-.007.006,0,.009-.006.006-.005.01-.007.005,0,.01-.008,0,0,.019-.014.006,0,.008-.006.007,0,.009-.007.006,0,.01-.007,0,0,.01-.008,0,0,.011-.008h0l.023-.017,0,0,.008-.006.007-.005.009-.006.006,0,.008-.006.007-.005.009-.007.006,0,.009-.006.006,0,.017-.013.006,0,.008-.006.007-.005.008-.006.008-.006.007-.006.008-.006.008-.006.008-.006.008-.006.014-.011.007-.005.008-.006.008-.006.007-.006.008-.006.008-.005.007-.005.009-.007.006,0,.011-.008,0,0,.015-.011.007-.005.009-.006.007,0,.009-.006.007-.006.009-.006.007-.005.009-.006.007-.005.011-.008.01-.007.01-.007.008-.006.008-.006.008-.006.008-.006.008-.006.008-.006.007-.005L100.7,91l.007,0,.015-.011,0,0,.01-.008.008-.006.008-.006.008-.005.008-.006.007-.005.009-.006.007,0,.01-.007.006,0,.015-.011.005,0,.011-.008.006,0,.01-.007.006,0,.009-.006.007-.005.01-.007.006,0,.013-.009,0,0,.016-.011,0,0,.012-.008.005,0,.011-.008.005,0,.011-.008.006,0,.011-.008,0,0,.016-.011h0l.015-.011,0,0,.012-.008.005,0,.011-.008.005,0,.011-.008.006,0,.012-.008,0,0,.016-.011,0,0,.013-.009.005,0,.01-.007.007,0,.009-.006.006,0,.011-.008,0,0,.014-.01,0,0,.016-.011,0,0,.012-.008.006,0,.011-.007.006,0,.009-.006.007,0,.009-.006.007-.005.014-.009h0l.016-.011,0,0,.011-.008.006,0,.01-.007.006,0,.011-.007.006,0,.012-.008,0,0,.033-.022,0,0,.012-.008.006,0,.011-.007.006,0,.011-.008,0,0,.012-.008,0,0,.016-.011h0l.014-.01.006,0,.011-.007.006,0,.01-.006.007,0,.01-.007.006,0,.012-.008,0,0,.016-.011,0,0,.012-.008.005,0,.011-.008,0,0,.012-.008.005,0,.011-.008.005,0,.012-.009,0,0,.016-.011,0,0,.012-.008.006,0,.011-.007.006,0,.01-.007.006,0,.012-.008,0,0,.032-.022.006,0,.01-.007.007,0,.009-.006.007,0,.01-.007.006,0,.013-.009h0l.017-.011h0l.015-.01,0,0,.011-.008.006,0,.011-.007.006,0,.01-.007.006,0,.012-.008,0,0,.017-.011,0,0,.013-.009.006,0,.01-.007.007,0,.01-.006.006,0,.01-.007.006,0,.012-.008,0,0,.015-.01.007-.005.009-.006.007,0,.009-.006L102.15,90l.008-.006.008-.005.008-.006.008-.005.009-.006.014-.009.008-.005.008-.005.008-.005.008-.005.008-.006.008-.006.008-.005.008-.006.007,0,.009-.006.013-.009.009-.006.009-.006.008-.006.008-.005.008-.005.008-.005.008-.005.009-.006.008-.005.007,0,.032-.021.008-.005.008-.005.008-.005.008-.006.008,0,.009-.006.007,0,.009-.006.008-.005.018-.012.005,0,.01-.007.006,0,.01-.006.006,0,.01-.006.006,0,.01-.006.006,0,.009-.006.008,0,.017-.011.006,0,.01-.007.006,0,.011-.007.005,0,.011-.007.005,0,.011-.007,0,0,.038-.025,0,0,.011-.007,0,0,.011-.007,0,0,.011-.007,0,0,.011-.007,0,0,.037-.024,0,0,.009-.006.007,0,.01-.006.006,0,.011-.007,0,0,.055-.035,0,0,.013-.008,0,0,.012-.008,0,0,.012-.008h0l.056-.036,0,0,.011-.007,0,0,.012-.008,0,0,.012-.008,0,0,.055-.035,0,0,.012-.008,0,0,.013-.008h0l.073-.046h0l.013-.008,0,0,.013-.008h0l.059-.037h0l.013-.008,0,0,.014-.008h0l.014-.009h0l.059-.037h0l.014-.009h0l.014-.009h0l.075-.046h0l.013-.008,0,0,.013-.008h0l.075-.046.015-.009h0l.014-.008h0l.058-.035h0l.013-.008h0l.013-.008,0,0,.013-.008h0l.06-.036h0l.014-.008h0l.014-.008h0l.09-.055h0l.32-.191h0q.52-.308,1.049-.6l.093-.052h0l.092-.051h0l.015-.008.077-.042h0l.014-.008h0l.014-.008h0l.06-.033h0l.014-.007,0,0,.013-.007,0,0,.013-.007,0,0,.013-.007h0l.044-.024h0l.013-.007,0,0,.013-.007,0,0,.013-.007,0,0,.058-.031,0,0,.012-.006,0,0,.012-.006,0,0,.013-.007h0l.041-.022.005,0,.011-.006.006,0,.011-.006.006,0,.01-.006.006,0,.011-.006.006,0,.039-.021,0,0,.01-.005.007,0,.01-.005.006,0,.01-.005.007,0,.01-.006.008,0,.014-.008.011-.006.009,0,.008,0,.009,0,.008,0,.008,0,.01-.005.008,0,.01-.005.008,0,.014-.008.006,0,.013-.007.008,0,.009,0,.008,0,.01,0,.008,0,.009,0,.008,0,.009,0,.008,0,.016-.008.006,0,.011-.006.007,0,.01-.005.007,0,.01-.005.007,0,.012-.006.006,0,.017-.009h0l.018-.01h0l.016-.008.005,0,.013-.007,0,0,.014-.007,0,0,.016-.008h0l.054-.028h0l.015-.008,0,0,.015-.008,0,0,.073-.038.019-.01h0l.019-.01.074-.038h0l.112-.056h0c.2-.1.4-.2.6-.3a1.686,1.686,0,0,0-.741-3.2" transform="translate(-68.95 -60.161)" fill="#fa4616"/>
    <path id="Контур_947" data-name="Контур 947" d="M73.108,351.084a1.685,1.685,0,0,0-1.295,2.764,50.86,50.86,0,0,0,8.237,7.895,1.685,1.685,0,0,0,2.044-2.68h0l-.014-.011h0l-.015-.011h0l-.082-.063h0l-.015-.012h0l-.065-.05h0l-.016-.012h0l-.016-.012h0l-.049-.038h0l-.015-.012h0l-.015-.012h0l-.065-.051h0l-.014-.011,0,0-.015-.012h0l-.049-.038h0l-.015-.012h0l-.015-.011,0,0-.065-.051h0l-.016-.012h0L81.5,358.6h0l-.064-.051h0l-.015-.012h0l-.016-.013h0l-.049-.038h0l-.015-.012,0,0-.015-.012h0l-.015-.012h0l-.048-.038h0l-.014-.011,0,0-.015-.012h0l-.048-.039h0l-.014-.012h0l-.014-.011,0,0-.063-.051,0,0-.014-.011,0,0-.013-.01,0,0L81,358.2h0l-.015-.012,0,0-.014-.011h0l-.064-.052h0l-.015-.013h0l-.015-.012h0l-.064-.052h0l-.014-.012,0,0-.015-.012h0l-.048-.04h0l-.015-.013h0l-.016-.013-.064-.053h0l-.015-.012h0l-.015-.012h0l-.047-.04h0l-.014-.012,0,0-.013-.01,0,0-.015-.012h0l-.048-.04h0l-.015-.013h0l-.014-.012h0l-.047-.04h0l-.015-.013,0,0-.013-.011,0,0-.014-.012h0l-.047-.039,0,0-.013-.011,0,0-.014-.012h0l-.047-.04h0l-.015-.012,0,0-.013-.011,0,0-.013-.011,0,0-.046-.039,0,0-.013-.011,0,0-.012-.01,0,0-.013-.011,0,0-.031-.026,0,0L80,357.371l0,0-.012-.01,0,0-.012-.011,0,0-.014-.012h0l-.031-.026,0,0-.013-.011,0,0-.012-.01,0,0-.013-.011,0,0-.046-.04,0,0-.013-.011,0,0-.014-.012h0l-.046-.04h0l-.014-.012,0,0-.012-.011,0,0-.013-.011,0,0-.046-.04,0,0-.012-.01,0,0-.012-.011,0,0-.014-.012h0L79.578,357l0,0-.012-.011,0,0-.012-.01,0,0-.011-.01,0,0-.012-.01,0,0-.015-.013h0l-.013-.012,0,0-.012-.01,0,0-.011-.01,0,0-.013-.012h0l-.031-.028h0l-.014-.012,0,0-.012-.011,0,0-.012-.011,0,0-.014-.013h0l-.031-.027,0,0-.013-.012,0,0-.012-.011,0,0-.012-.011,0,0-.03-.027h0l-.013-.012,0,0-.012-.01,0,0-.012-.011,0,0-.015-.013-.03-.027,0,0-.012-.01,0,0-.011-.01,0,0-.011-.01,0,0-.013-.012,0,0-.029-.026,0,0-.01-.009,0,0-.01-.009,0,0L79,356.49l0,0-.03-.027,0,0-.013-.012,0,0-.012-.011,0,0-.012-.01,0,0-.014-.013h0l-.015-.014,0,0-.012-.011,0,0-.012-.011,0,0-.011-.01,0,0-.01-.009-.005,0-.013-.012h0l-.015-.013,0,0-.011-.01,0,0-.01-.009-.006-.005-.01-.009,0,0-.012-.011,0,0-.029-.027,0,0-.01-.01,0,0-.01-.009-.005,0-.01-.009,0,0-.013-.012h0l-.015-.013,0,0-.011-.01-.005,0-.01-.009,0,0-.01-.009,0,0-.012-.011,0,0-.015-.014h0l-.014-.013,0,0-.01-.01-.006-.005-.008-.008-.006-.006-.009-.008-.005-.005-.011-.01,0,0-.014-.013,0,0-.01-.01,0,0-.01-.009-.005-.005-.009-.008-.005-.005-.009-.008-.006-.005-.028-.026-.005,0-.009-.009-.005,0-.009-.008-.005-.005-.01-.01,0,0-.011-.01,0,0-.014-.013,0,0-.01-.009-.006-.006-.008-.008-.006-.005-.009-.008-.005-.005-.01-.009,0,0-.012-.011,0,0-.014-.013,0,0-.01-.01-.005,0-.009-.009-.005,0-.009-.008-.006-.005-.01-.009,0,0-.028-.027,0,0-.009-.009-.006-.006-.008-.008-.006-.005-.009-.008-.005-.005-.01-.009,0,0-.013-.013-.006-.006-.009-.008-.005,0-.009-.008-.006-.006L78,355.553l-.006-.006-.009-.008-.005-.005-.013-.013,0,0-.011-.011-.005-.005-.009-.008-.005-.005-.009-.008-.006-.006-.008-.008-.006-.006-.009-.009-.005,0-.014-.013,0,0-.01-.01-.006-.006-.008-.008-.006-.006-.008-.008-.006-.005-.009-.009-.005,0-.009-.009-.009-.008-.009-.009-.006-.005-.009-.008-.006-.006-.008-.008-.006-.006-.008-.008-.006-.006-.011-.011,0,0-.014-.014,0,0-.011-.011-.005-.005-.008-.008-.006-.006-.008-.008-.006-.006-.008-.008-.006-.006-.01-.01,0,0-.013-.013,0,0-.009-.009-.006-.006-.008-.008-.006-.006-.008-.008-.006-.006-.008-.008-.006-.006-.013-.013,0,0-.01-.01,0,0-.009-.009-.005-.005-.009-.008-.006-.006-.008-.008-.006-.005-.01-.01,0,0-.013-.013-.005-.005-.008-.008-.006-.006L77.433,355l-.005-.005-.009-.009,0,0-.01-.01,0,0-.013-.013,0,0-.012-.012,0,0-.01-.01-.005-.005-.009-.009-.005-.005-.008-.008-.005-.005-.01-.01,0,0-.013-.014,0,0-.01-.01-.005-.005-.008-.008-.006-.006-.008-.007-.006-.006-.009-.009-.005-.005-.012-.012h0l-.013-.013-.006-.007-.007-.007-.006-.006-.007-.007-.006-.006-.007-.007-.007-.007-.006-.006-.007-.007-.013-.013-.005-.005-.008-.008-.007-.007-.006-.006-.008-.008-.006-.006-.008-.008,0-.005-.008-.008,0,0-.017-.017,0,0-.007-.008-.006-.006-.007-.007-.007-.007-.007-.007-.006-.006L77,354.564,77,354.558l-.008-.008,0,0-.015-.016-.006-.006-.007-.007-.007-.006-.007-.007-.007-.007-.006-.006-.007-.008-.006-.006-.007-.007-.014-.014-.005-.005-.007-.008-.006-.006-.008-.008-.006-.006-.008-.008-.006-.006-.007-.008-.007-.007-.007-.007-.006-.007-.015-.015,0,0-.007-.008-.006-.006-.007-.007-.007-.007-.007-.008-.006-.006-.007-.007-.006-.006-.012-.012-.008-.009-.005-.005-.008-.008-.007-.007-.007-.007-.007-.008-.005-.006-.008-.008,0-.005-.009-.009h0l-.033-.034,0,0-.008-.009,0,0-.008-.008-.006-.006-.007-.008-.006-.006-.008-.008,0,0-.016-.017-.006-.006-.007-.008-.006-.006-.007-.008-.007-.007-.007-.008-.005-.005-.008-.009,0,0-.019-.02,0,0-.008-.009-.005-.005-.008-.008L76.458,354l-.008-.009-.005-.005-.008-.008-.005-.005-.042-.044,0,0-.008-.009,0,0-.008-.009,0,0-.009-.009,0,0-.032-.034,0,0-.01-.01,0,0-.009-.01,0,0-.01-.01,0,0-.034-.036h0l-.01-.011,0,0-.01-.01,0,0-.009-.01,0,0-.01-.011,0,0-.034-.037h0l-.009-.01,0,0-.009-.01,0,0-.009-.009,0,0-.043-.046,0,0-.009-.01,0,0-.009-.01,0,0-.009-.01,0,0-.044-.048,0,0-.009-.01,0,0-.009-.01,0,0-.01-.01,0,0-.032-.035,0,0-.009-.01,0,0L75.9,353.4l0,0-.009-.01,0,0-.032-.035h0l-.01-.01,0,0-.009-.01,0,0-.008-.01,0,0-.009-.01,0,0-.031-.034,0,0-.008-.009,0,0-.008-.009,0,0-.009-.01,0,0-.043-.048,0,0-.008-.009,0-.005-.009-.009,0,0-.009-.01,0,0-.033-.037h0l-.01-.011,0,0-.009-.01,0,0-.008-.01,0,0-.042-.047,0,0-.01-.011,0,0-.01-.011,0,0-.01-.012h0l-.035-.039h0l-.01-.011,0,0-.009-.01,0,0-.009-.01,0,0-.01-.011h0l-.033-.037,0,0-.009-.01,0,0-.009-.011,0,0-.01-.011,0,0-.044-.05,0,0-.011-.012h0l-.011-.012h0l-.056-.064,0,0-.009-.01,0,0-.009-.01,0,0-.044-.051h0l-.01-.012,0,0-.01-.011v0l-.01-.012v0l-.044-.05,0,0-.01-.011,0,0-.01-.011,0,0-.043-.049,0,0-.009-.01,0,0-.008-.01,0,0-.009-.01,0,0-.033-.038h0l-.01-.012,0,0-.01-.012,0,0-.01-.012h0l-.01-.012h0l-.044-.051,0,0-.009-.011,0,0-.01-.012,0,0-.044-.051v0l-.01-.012,0,0-.009-.011,0,0-.042-.049,0,0-.009-.011,0,0-.009-.01,0,0-.008-.01,0,0-.009-.011,0,0-.032-.038h0l-.009-.011,0,0-.009-.011,0,0-.01-.011,0,0-.042-.051,0,0-.01-.012,0,0-.01-.012,0,0-.042-.05,0,0-.009-.011,0,0-.009-.011,0,0-.01-.012h0l-.022-.027a1.682,1.682,0,0,0-1.3-.607" transform="translate(-51.36 -252.463)" fill="#fa4616"/>
    <path id="Контур_948" data-name="Контур 948" d="M135.178,398.395a1.686,1.686,0,0,0-.7,3.221,50.242,50.242,0,0,0,10.871,3.494,1.685,1.685,0,0,0,.661-3.305c-.278-.055-.551-.112-.827-.173h0l-.019,0h0l-.081-.018h0l-.018,0h0l-.015,0h0l-.014,0h-.006l-.017,0h0l-.04-.009h0l-.017,0h-.005l-.015,0h0l-.014,0h-.006l-.014,0h-.006l-.014,0h-.005l-.019,0h-.006l-.014,0-.008,0-.012,0-.008,0-.011,0-.01,0-.009,0-.01,0-.009,0-.011,0-.008,0-.042-.01h-.006l-.012,0-.008,0-.011,0-.009,0-.01,0-.008,0-.011,0-.007,0-.012,0h0l-.03-.007h0l-.013,0h-.005l-.013,0-.006,0-.012,0-.008,0-.012,0h-.006l-.013,0h0l-.066-.016h0l-.015,0h0l-.015,0h0l-.015,0h0l-.086-.021h0l-.016,0h0l-.016,0h0l-.1-.025h0q-1.419-.345-2.8-.775h0l-.017-.005h0l-.017-.005h0l-.069-.021h0l-.017-.005h0l-.017-.005h0l-.12-.038h0l-.016-.005h0l-.1-.032h0l-.015,0h0l-.015,0h0l-.084-.027h0l-.015,0h0l-.014,0h0l-.014,0h0l-.063-.02h0l-.013,0h0l-.013,0-.006,0-.012,0-.006,0-.013,0-.006,0-.012,0h0l-.031-.01h0l-.012,0-.006,0-.012,0-.006,0-.012,0-.007,0-.012,0-.006,0-.012,0-.008,0-.01,0-.018-.006-.006,0-.012,0-.01,0-.009,0-.01,0-.009,0-.009,0-.01,0-.008,0-.009,0-.01,0-.009,0-.012,0-.014,0-.007,0-.012,0-.008,0-.01,0-.009,0-.01,0-.008,0-.012,0-.007,0-.014,0h0l-.019-.006h0l-.016-.005h0l-.014,0-.007,0-.012,0-.006,0-.013,0-.006,0-.015-.005h0l-.038-.013h0l-.017-.006-.005,0-.013,0-.006,0-.013,0-.006,0-.015-.005h0l-.016-.006h0l-.038-.013h0l-.018-.006h0l-.016-.006h0l-.016-.006h0l-.018-.006h0l-.078-.027h0l-.018-.006h0l-.017-.006h0l-.117-.041q-1.9-.672-3.726-1.5a1.681,1.681,0,0,0-.69-.149" transform="translate(-95.993 -286.484)" fill="#fa4616"/>
    <path id="Контур_949" data-name="Контур 949" d="M222.634,408.2a1.684,1.684,0,0,0-.422.054,47.145,47.145,0,0,1-10.552,1.494,1.685,1.685,0,0,0,.049,3.37h.048a50.647,50.647,0,0,0,11.3-1.6,1.686,1.686,0,0,0-.423-3.317" transform="translate(-151.027 -293.536)" fill="#fa4616"/>
    <path id="Контур_950" data-name="Контур 950" d="M296.376,372.037a1.678,1.678,0,0,0-1.1.405l-.008.006-.006.005-.009.007-.005,0-.009.008-.005,0-.009.008,0,0-.01.008,0,0-.023.019,0,0-.01.008,0,0-.009.008-.006,0-.01.008,0,0-.01.008-.005,0-.01.008h0l-.026.022h0l-.011.009,0,0-.01.008,0,0-.01.008-.005,0-.01.008,0,0-.052.044h0l-.012.01,0,0-.08.067h0l-.013.01h0l-.258.214h0a47.227,47.227,0,0,1-8.157,5.417,1.685,1.685,0,1,0,1.563,2.987,50.662,50.662,0,0,0,9.449-6.4,1.685,1.685,0,0,0-1.1-2.966" transform="translate(-205.343 -267.53)" fill="#fa4616"/>
    <path id="Контур_951" data-name="Контур 951" d="M308.1,98.756a1.686,1.686,0,0,0-.985,3.054l0,0,.009.006.006,0,.01.007.006,0,.013.009.005,0,.013.009.008.006.007.005.008.006.007.006.009.006.006,0,.009.007.006,0,.035.025,0,0,.011.007.005,0,.01.007,0,0,.01.008,0,0,.011.008h0l.04.029,0,0,.012.009,0,0,.011.008,0,0,.012.009h0l.07.051h0q1.883,1.382,3.621,2.943h0l.077.07h0l.077.07,0,0,.011.01,0,0,.012.01,0,0,.036.033h0l.01.009,0,0,.01.009,0,0,.009.008.005,0,.01.009,0,0,.032.029.006.006.008.008.005,0,.009.008.005,0,.009.008.005,0,.009.008,0,0,.02.018,0,0,.008.008.006.006.007.006.008.007.007.006.007.007.007.006.008.007.007.006.013.012,0,0,.009.008.006.006.008.008.006.005.008.008.006.006.01.009,0,0,.013.012h0l.015.013,0,0,.011.01,0,0,.01.009,0,0,.011.01,0,0,.013.013h0l.015.014h0l.014.013,0,0,.012.012,0,0,.012.011,0,0,.013.012,0,0,.045.042h0l.014.013,0,0,.014.013h0q1.633,1.534,3.118,3.219a1.685,1.685,0,0,0,2.527-2.231,50.845,50.845,0,0,0-8.457-7.659,1.68,1.68,0,0,0-.982-.317" transform="translate(-220.337 -71.015)" fill="#fa4616"/>
    <path id="Контур_952" data-name="Контур 952" d="M236.083,68.64a1.686,1.686,0,0,0-.28,3.347h0l.015,0h0l.016,0h0l.04.007h0l.015,0h.006l.013,0h.008l.012,0,.008,0,.011,0h.008l.012,0h.008l.012,0,.015,0,.01,0,.01,0,.01,0,.01,0,.009,0,.011,0h.009l.011,0h.007l.012,0h.005l.048.008h0l.014,0h.006l.014,0h0l.015,0h0l.015,0h0a46.782,46.782,0,0,1,9.784,2.889,1.685,1.685,0,1,0,1.3-3.11,50.259,50.259,0,0,0-10.966-3.181,1.691,1.691,0,0,0-.284-.024" transform="translate(-168.556 -49.359)" fill="#fa4616"/>
    <path id="Контур_953" data-name="Контур 953" d="M57.217,135.444a1.685,1.685,0,0,0-2.651-2.082,50.609,50.609,0,0,0-5.871,9.467q2.131-.592,4.374-1.132a47.2,47.2,0,0,1,4.148-6.253" transform="translate(-35.016 -95.437)" fill="#fa4616"/>
    <path id="Контур_954" data-name="Контур 954" d="M54.147,330a1.685,1.685,0,0,0,3.181-.918q-2.1-.488-4.1-1.021c.3.652.6,1.3.922,1.939" transform="translate(-38.274 -235.907)" fill="#fa4616"/>
    <path id="Контур_955" data-name="Контур 955" d="M347.168,332.893l0,.006-.007.011,0,.006-.006.01,0,.007-.006.011,0,.005-.008.013,0,0L347.1,333l0,.005-.008.012,0,.005-.007.011,0,.006-.007.011,0,.006-.008.012,0,0-.021.033,0,0-.008.013,0,0-.008.013,0,0-.009.013,0,0-.033.051v0l-.01.015v0l-.01.015h0l-.056.086h0l-.01.015v0q-.813,1.257-1.7,2.461a1.685,1.685,0,0,0,2.712,2,50.62,50.62,0,0,0,3.755-5.884q-2.182.5-4.463.952l-.007.011" transform="translate(-247.975 -238.69)" fill="#fa4616"/>
    <path id="Контур_956" data-name="Контур 956" d="M350,147.533l0-.006-.007-.011,0-.006-.006-.01,0-.007-.006-.011,0-.005-.008-.013,0,0-.021-.033,0-.005-.008-.012,0-.005-.007-.011,0-.006-.007-.011,0-.006-.008-.012,0,0-.021-.033,0,0-.008-.013,0,0-.008-.013,0,0-.009-.013,0,0-.033-.051v0l-.01-.015v0l-.01-.015h0l-.056-.086h0l-.01-.015v0q-.813-1.257-1.7-2.461a1.685,1.685,0,0,1,2.712-2,50.623,50.623,0,0,1,3.755,5.884q-2.182-.5-4.463-.952l-.007-.011" transform="translate(-250.014 -102.061)" fill="#fa4616"/>
  </g>
</svg>
