<svg id="Сгруппировать_596" data-name="Сгруппировать 596" xmlns="http://www.w3.org/2000/svg" xmlns:xlink="http://www.w3.org/1999/xlink" width="118.847" height="118.439" viewBox="0 0 118.847 118.439">
  <defs>
    <clipPath id="clip-path">
      <rect id="Прямоугольник_306" data-name="Прямоугольник 306" width="118.847" height="118.439" fill="none"/>
    </clipPath>
  </defs>
  <g id="Сгруппировать_595" data-name="Сгруппировать 595" clip-path="url(#clip-path)">
    <path id="Контур_1013" data-name="Контур 1013" d="M95.682,13.3a55.289,55.289,0,0,1,82.391,65.774,2.215,2.215,0,0,0,.5,2.608,2.318,2.318,0,0,0,3.181-1.26A59.193,59.193,0,0,0,93.126,10.3a2.051,2.051,0,0,0-.469,2.784,2.06,2.06,0,0,0,3.025.211" transform="translate(-67.236)" fill="#fa4616"/>
    <path id="Контур_1014" data-name="Контур 1014" d="M83.355,166.326A55.28,55.28,0,0,1,15.9,82.24,1.98,1.98,0,1,0,13.081,79.5,59.2,59.2,0,0,0,85.265,169.75a1.97,1.97,0,1,0-1.909-3.424" transform="translate(0 -57.354)" fill="#fa4616"/>
    <path id="Контур_1015" data-name="Контур 1015" d="M94.23,48.064a46.166,46.166,0,1,0,12.221,90.69,2.3,2.3,0,0,0,1.433-2.66,2.336,2.336,0,0,0-3.349-.885A42.264,42.264,0,1,1,136.188,99.19a1.98,1.98,0,1,0,3.91.267A46.159,46.159,0,0,0,94.23,48.064" transform="translate(-35.011 -35.011)" fill="#fa4616"/>
    <path id="Контур_1016" data-name="Контур 1016" d="M322.7,290.665H305.641V273.6a1.954,1.954,0,0,0-1.954-1.954h-.174a1.954,1.954,0,0,0-1.954,1.954v17.063H284.5a1.954,1.954,0,0,0-1.954,1.954v.174a1.954,1.954,0,0,0,1.954,1.954H301.56v17.063a1.954,1.954,0,0,0,1.954,1.953h.174a1.953,1.953,0,0,0,1.954-1.953V294.746H322.7a1.954,1.954,0,0,0,1.954-1.954v-.174a1.954,1.954,0,0,0-1.954-1.954" transform="translate(-205.81 -197.874)" fill="#fa4616"/>
    <path id="Контур_1017" data-name="Контур 1017" d="M146.559,149.669a3.657,3.657,0,0,1,.907-2.47,3.4,3.4,0,0,1,2.719-1.049h2.986v-7.678a19.826,19.826,0,0,1,1.031-6.416,14.93,14.93,0,0,1,3.146-5.35,15.205,15.205,0,0,1,5.3-3.679,18.934,18.934,0,0,1,7.518-1.368,17.4,17.4,0,0,1,5.207.729,14.776,14.776,0,0,1,4.159,2.026,15.439,15.439,0,0,1,3.217,3.057,22.826,22.826,0,0,1,2.417,3.786l-4.407,2.772a5.46,5.46,0,0,1-2.9.693,3.845,3.845,0,0,1-2.577-1.333,13.274,13.274,0,0,0-2.452-2.062,5.011,5.011,0,0,0-2.666-.675,4.873,4.873,0,0,0-4.283,2.008,10.018,10.018,0,0,0-1.4,5.776v7.713h13.507v4.194a2.307,2.307,0,0,1-.231,1.013,3.016,3.016,0,0,1-.64.871,3.1,3.1,0,0,1-.96.622,3.135,3.135,0,0,1-1.226.231h-10.45v5.545a9.053,9.053,0,0,1-.8,3.857,12.841,12.841,0,0,1-2.15,3.217q1.6-.355,3.2-.551a26.742,26.742,0,0,1,3.235-.2H185.8v4.514a4.176,4.176,0,0,1-.338,1.6,4.971,4.971,0,0,1-.942,1.475,4.662,4.662,0,0,1-1.475,1.066,4.5,4.5,0,0,1-1.937.409H147.2v-6.611a10.537,10.537,0,0,0,2.257-.675,7.134,7.134,0,0,0,1.9-1.173,5.489,5.489,0,0,0,1.315-1.706,5.1,5.1,0,0,0,.5-2.31v-8.46h-6.611Z" transform="translate(-106.756 -88.619)" fill="#fa4616"/>
  </g>
</svg>
