<svg id="Сгруппировать_442" data-name="Сгруппировать 442" xmlns="http://www.w3.org/2000/svg" xmlns:xlink="http://www.w3.org/1999/xlink" width="103.068" height="57.093" viewBox="0 0 103.068 57.093">
  <defs>
    <clipPath id="clip-path">
      <rect id="Прямоугольник_230" data-name="Прямоугольник 230" width="103.068" height="57.093" fill="#fa4616"/>
    </clipPath>
  </defs>
  <path id="Контур_689" data-name="Контур 689" d="M68.244,20.757,45.836,33.372,49.2,37.253l3.362,3.883Z" transform="translate(12.36 5.597)" fill="#fa4616"/>
  <g id="Сгруппировать_441" data-name="Сгруппировать 441" transform="translate(0 0)">
    <g id="Сгруппировать_440" data-name="Сгруппировать 440" clip-path="url(#clip-path)">
      <path id="Контур_690" data-name="Контур 690" d="M7.572,57.093a44.322,44.322,0,1,1,87.922,0h7.269A51.532,51.532,0,1,0,0,51.534a51.856,51.856,0,0,0,.3,5.559Z" transform="translate(0 0)" fill="#fa4616"/>
      <path id="Контур_691" data-name="Контур 691" d="M59.592,43.918a15.673,15.673,0,1,0-30.33,5.559H58.573a15.619,15.619,0,0,0,1.018-5.559" transform="translate(7.616 7.616)" fill="#fa4616"/>
    </g>
  </g>
</svg>
