<svg xmlns="http://www.w3.org/2000/svg" viewBox="0 0 400.36 431.26"><defs><style>.cls-1{fill:#fa4616;}.cls-2{fill:#002234;}</style></defs><title>infrastructure-management</title><g id="Слой_2" data-name="Слой 2"><g id="Layer_1" data-name="Layer 1"><path class="cls-1" d="M26.16,211.33a5,5,0,0,1-5-4.93c0-.92,0-1.88,0-2.88,0-4.5.17-9.06.51-13.56a5,5,0,0,1,10,.75c-.32,4.25-.48,8.56-.48,12.81,0,.95,0,1.85,0,2.73a5,5,0,0,1-4.92,5.07Zm2.39-31.87a4.73,4.73,0,0,1-.83-.07,5,5,0,0,1-4.1-5.76c.89-5.37,2.05-10.78,3.44-16.08a5,5,0,0,1,9.68,2.53c-1.32,5-2.41,10.13-3.26,15.2A5,5,0,0,1,28.55,179.46Zm8.08-30.92a5,5,0,0,1-4.7-6.69c1.84-5.13,3.93-10.25,6.21-15.21a5,5,0,0,1,9.09,4.18c-2.17,4.7-4.15,9.55-5.89,14.4A5,5,0,0,1,36.63,148.54ZM50,119.5a4.92,4.92,0,0,1-2.47-.66A5,5,0,0,1,45.67,112c2.79-4.89,5.77-9.57,8.84-13.91a5,5,0,1,1,8.17,5.77C59.79,108,57,112.37,54.35,117A5,5,0,0,1,50,119.5ZM68.47,93.4a5,5,0,0,1-3.79-8.26C68.25,81,72.05,77,76,73.17a5,5,0,0,1,7,7.19c-3.71,3.6-7.31,7.4-10.67,11.31A5,5,0,0,1,68.47,93.4Zm23-22.22a5,5,0,0,1-3.14-8.9c4.28-3.44,8.75-6.71,13.29-9.71a5,5,0,1,1,5.52,8.33c-4.28,2.84-8.5,5.93-12.53,9.17A5,5,0,0,1,91.45,71.18ZM118.1,53.54a5,5,0,0,1-2.36-9.41c4.83-2.58,9.84-5,14.89-7.05a5,5,0,1,1,3.84,9.23c-4.75,2-9.47,4.22-14,6.64A5,5,0,0,1,118.1,53.54Zm29.49-12.28a5,5,0,0,1-1.47-9.78c5.21-1.61,10.58-3,15.94-4.11a5,5,0,1,1,2,9.79C159,38.21,154,39.51,149.06,41A5,5,0,0,1,147.59,41.26Zm31.28-6.5a5,5,0,0,1-.55-10c5.43-.61,11-1,16.43-1.06a5,5,0,1,1,.18,10c-5.16.09-10.38.43-15.5,1A5.25,5.25,0,0,1,178.87,34.76Z"/><path class="cls-2" d="M317.43,179.4c-.2-6.33-2.55-10.37-9.26-11.37-2.53-.37-4.87-2.07-7.4-2.41-9.25-1.24-14.45-6.53-16.94-15.31-.72-2.54-1.05-4.63.14-7,2.89-5.83,5.53-11.79,8.51-17.58,1.77-3.42,1.45-6.31-1-9.13a141.4,141.4,0,0,0-19.64-19c-2.79-2.14-5.37-2.38-8.38-.69s-6.14,2.73-8.83,4.64c-7.73,5.45-15.43,6.71-23.93,1.63-2.24-1.34-4-2.45-4.87-5C223.62,91.75,221.24,85.38,219,79c-.87-2.5-2.19-4.35-5.05-4.71a109.65,109.65,0,0,0-29.84.45,6.22,6.22,0,0,0-5.48,4.77c-1.18,3.73-2.9,7.35-3.53,11.16-1.49,9.09-6.42,14.53-15.32,16.94-2.55.69-4.52,1.05-6.94-.16-6.08-3-12.29-5.81-18.41-8.77-2.58-1.25-4.93-1.4-7.27.52a163.8,163.8,0,0,0-19.62,19c-2.05,2.35-2.42,4.7-.78,7.51,2.91,5,5.44,10.23,8.47,15.15,2.3,3.74,3.16,7.06.66,11.17-1.69,2.79-2.48,6.16-3.43,9.35a6.26,6.26,0,0,1-4.63,4.6c-6.51,2-12.94,4.18-19.43,6.2-2.59.81-4.27,2.21-4.7,5a91.3,91.3,0,0,0,.37,30.23,6.16,6.16,0,0,0,4.9,5.36c4,1.13,7.91,2.9,12,3.79,7.56,1.67,13.46,4.87,15,13.24a6.8,6.8,0,0,0,1.11,2.34,5.35,5.35,0,0,1,.1,5.72c-2.94,6-5.77,12-8.6,18-.66,1.43-1.14,2.94-1.46,3.78a6.69,6.69,0,0,0,1.77,5A104.12,104.12,0,0,0,124,280.21c9.45,7.52,7.66,8,18.76,2a29.16,29.16,0,0,0,3.49-1.75c7.62-5.62,15.39-6.67,23.88-1.66,2.25,1.33,4,2.44,4.84,5,2.17,6.44,4.67,12.77,6.85,19.21a6.56,6.56,0,0,0,6.35,4.91,198.35,198.35,0,0,0,24.26,0c6.25-.32,10-2.73,11-9.18.36-2.39,1.88-4.6,2.28-7,1.46-8.73,5.72-14.63,14.71-17,3-.79,5.3-1.46,8.18,0,5.65,2.92,11.53,5.4,17.19,8.31,3.21,1.65,5.88,1.68,8.72-.78A136.72,136.72,0,0,0,294,262.07c1.88-2.48,2.16-4.81.59-7.59-1.84-3.27-2.9-7.07-5.12-10-5.68-7.57-5.86-15-1.29-23.13,1.3-2.3,2.53-4,5.07-4.82,6.3-2.14,12.5-4.56,18.8-6.68a7.19,7.19,0,0,0,5.4-7C318,195,317.68,187.21,317.43,179.4Zm-117,61.94c-27.78,0-50.52-22.48-50.6-50a51.11,51.11,0,0,1,50.84-51c27.82,0,50.27,23,50.2,51.44C250.76,219.15,228.17,241.33,200.4,241.34Z"/><path class="cls-1" d="M264.82,341.64v79.62H214.36V341.64Zm0-10H214.36a10,10,0,0,0-10,10v79.62a10,10,0,0,0,10,10h50.46a10,10,0,0,0,10-10V341.64a10,10,0,0,0-10-10Z"/><path class="cls-1" d="M181.84,341.64v79.62H131.38V341.64Zm0-10H131.38a10,10,0,0,0-10,10v79.62a10,10,0,0,0,10,10h50.46a10,10,0,0,0,10-10V341.64a10,10,0,0,0-10-10Z"/><path class="cls-1" d="M347.81,415.2v6.06H297.34V341.64h50.47V391.4a5.09,5.09,0,0,0,10-.16v-49.6a10,10,0,0,0-10-10H297.34a10,10,0,0,0-10,10v79.62a10,10,0,0,0,10,10h50.47a10,10,0,0,0,10-10V415a5.17,5.17,0,0,0-10,.23Z"/><path class="cls-1" d="M21.93,211.72a177.48,177.48,0,0,0,38.19,99.66h13A167.6,167.6,0,0,1,32,211.87C28.63,211.61,25.28,211.67,21.93,211.72Z"/><path class="cls-1" d="M364.08,131.29A178,178,0,0,0,201.61,22.44a62.52,62.52,0,0,0-4.85,10c1,0,2.05,0,3.08,0A168.25,168.25,0,0,1,368.05,196.76c3.3-.71,6.61-1.42,9.94-2A177,177,0,0,0,364.08,131.29Z"/><path class="cls-2" d="M51.14,215.12H1.42a4.85,4.85,0,0,1,0-6.85l21.44-21.44a4.83,4.83,0,0,1,6.84,0l21.44,21.44A4.85,4.85,0,0,1,51.14,215.12Z"/><path class="cls-2" d="M186.49,51.14V1.42a4.83,4.83,0,0,1,6.84,0l21.44,21.44a4.83,4.83,0,0,1,0,6.84L193.33,51.14A4.83,4.83,0,0,1,186.49,51.14Z"/><path class="cls-2" d="M349.22,185.77H399a4.85,4.85,0,0,1,0,6.85l-21.44,21.44a4.85,4.85,0,0,1-6.85,0l-21.44-21.44A4.85,4.85,0,0,1,349.22,185.77Z"/><path class="cls-1" d="M48.39,347.7v-6.06H98.86v79.62H48.39V371.49a5.09,5.09,0,0,0-10,.16v49.61a10,10,0,0,0,10,10H98.86a10,10,0,0,0,10-10V341.64a10,10,0,0,0-10-10H48.39a10,10,0,0,0-10,10v6.28a5.17,5.17,0,0,0,10-.22Z"/></g></g></svg>