<svg id="Сгруппировать_207" data-name="Сгруппировать 207" xmlns="http://www.w3.org/2000/svg" xmlns:xlink="http://www.w3.org/1999/xlink" width="180.817" height="61.647" viewBox="0 0 180.817 61.647">
  <defs>
    <clipPath id="clip-path">
      <rect id="Прямоугольник_118" data-name="Прямоугольник 118" width="180.817" height="61.647" fill="none"/>
    </clipPath>
  </defs>
  <rect id="Прямоугольник_115" data-name="Прямоугольник 115" width="6.936" height="34.868" transform="translate(0.286 0)" fill="#fa4616"/>
  <path id="Контур_472" data-name="Контур 472" d="M86.741,34.868h6.935V9.621H86.741Zm0-29.154h6.935V0H86.741Z" transform="translate(-73.856)" fill="#fa4616"/>
  <g id="Сгруппировать_208" data-name="Сгруппировать 208">
    <g id="Сгруппировать_207-2" data-name="Сгруппировать 207" clip-path="url(#clip-path)">
      <path id="Контур_473" data-name="Контур 473" d="M170.679,21.382v4.639H165.6v12.5a3.393,3.393,0,0,0,.586,2.344,3.392,3.392,0,0,0,2.343.586q.586,0,1.124-.049a9.353,9.353,0,0,0,1.024-.146v5.372a16.589,16.589,0,0,1-1.953.2q-1.073.048-2.1.049a20.21,20.21,0,0,1-3.052-.219,7.218,7.218,0,0,1-2.541-.855,4.519,4.519,0,0,1-1.733-1.806,6.44,6.44,0,0,1-.636-3.077V26.022h-4.2V21.382h4.2V13.813H165.6v7.569Z" transform="translate(-131.522 -11.761)" fill="#fa4616"/>
      <path id="Контур_474" data-name="Контур 474" d="M289.68,21.382v4.639H284.6v12.5a3.392,3.392,0,0,0,.586,2.344,3.392,3.392,0,0,0,2.344.586q.586,0,1.124-.049a9.347,9.347,0,0,0,1.024-.146v5.372a16.577,16.577,0,0,1-1.953.2q-1.073.048-2.1.049a20.21,20.21,0,0,1-3.052-.219,7.218,7.218,0,0,1-2.541-.855,4.519,4.519,0,0,1-1.733-1.806,6.44,6.44,0,0,1-.636-3.077V26.022h-4.2V21.382h4.2V13.813H284.6v7.569Z" transform="translate(-232.846 -11.761)" fill="#fa4616"/>
      <rect id="Прямоугольник_116" data-name="Прямоугольник 116" width="6.936" height="34.868" transform="translate(60.35 0)" fill="#fa4616"/>
      <path id="Контур_475" data-name="Контур 475" d="M490.213,80.042a7.106,7.106,0,0,0,8.1.465,4.342,4.342,0,0,0,1.858-2.222h6.1a11.6,11.6,0,0,1-4.492,6.495,13.23,13.23,0,0,1-7.326,1.953,14.406,14.406,0,0,1-5.373-.953,11.182,11.182,0,0,1-4.051-2.709,12.221,12.221,0,0,1-2.565-4.2,15.389,15.389,0,0,1-.9-5.372,14.747,14.747,0,0,1,.926-5.274,12.2,12.2,0,0,1,6.714-7.032,13.084,13.084,0,0,1,5.25-1.025,12.03,12.03,0,0,1,5.618,1.244,11.228,11.228,0,0,1,3.929,3.346,13.7,13.7,0,0,1,2.221,4.785,17.832,17.832,0,0,1,.491,5.616H488.5q.15,3.371,1.712,4.884m7.835-13.283a4.859,4.859,0,0,0-3.783-1.367,6.028,6.028,0,0,0-2.757.561,5.2,5.2,0,0,0-1.758,1.392,5.145,5.145,0,0,0-.931,1.758,8.036,8.036,0,0,0-.318,1.66h11.282a8.015,8.015,0,0,0-1.735-4" transform="translate(-410.035 -51.23)" fill="#fa4616"/>
      <path id="Контур_476" data-name="Контур 476" d="M660.722,14.26V9.621h4.151V7.668a7.552,7.552,0,0,1,2.1-5.519Q669.075,0,673.321,0c.618,0,1.24.025,1.858.074s1.221.09,1.807.122V5.372a21.363,21.363,0,0,0-2.539-.147,2.67,2.67,0,0,0-2.03.66,3.25,3.25,0,0,0-.609,2.222V9.621H676.6V14.26h-4.787V34.868h-6.935V14.26ZM680.792,0h6.935V5.714h-6.935Zm6.935,34.868h-6.935V9.621h6.935Z" transform="translate(-562.576 0)" fill="#fa4616"/>
      <path id="Контур_477" data-name="Контур 477" d="M878.2,79.822a4.025,4.025,0,0,0,1.2,1.32,5.089,5.089,0,0,0,1.685.756,7.879,7.879,0,0,0,1.976.244,7.386,7.386,0,0,0,1.54-.17,5.174,5.174,0,0,0,1.462-.537,3.3,3.3,0,0,0,1.1-.977,2.553,2.553,0,0,0,.44-1.538q0-1.562-2.075-2.345a41.625,41.625,0,0,0-5.786-1.562q-1.512-.341-2.957-.805a10.128,10.128,0,0,1-2.562-1.222,5.908,5.908,0,0,1-1.807-1.9,5.408,5.408,0,0,1-.681-2.808,7.593,7.593,0,0,1,.949-4A7.006,7.006,0,0,1,875.2,61.8a10.979,10.979,0,0,1,3.515-1.271,21.708,21.708,0,0,1,4.006-.366,20.015,20.015,0,0,1,3.979.391,10.56,10.56,0,0,1,3.443,1.318,7.926,7.926,0,0,1,2.516,2.466,8.243,8.243,0,0,1,1.194,3.882h-6.59a3.039,3.039,0,0,0-1.517-2.71,6.913,6.913,0,0,0-3.22-.707,12.027,12.027,0,0,0-1.272.073,4.206,4.206,0,0,0-1.245.318,2.61,2.61,0,0,0-.954.707,2.083,2.083,0,0,0,.3,2.759,5.257,5.257,0,0,0,1.78.952,22.422,22.422,0,0,0,2.516.659q1.417.293,2.879.636a28.9,28.9,0,0,1,2.957.83,9.756,9.756,0,0,1,2.562,1.293,6.228,6.228,0,0,1,1.808,2,5.847,5.847,0,0,1,.686,2.955,7.68,7.68,0,0,1-3.615,6.885,10.7,10.7,0,0,1-3.688,1.441,21.507,21.507,0,0,1-4.224.414,20.928,20.928,0,0,1-4.3-.44,11.33,11.33,0,0,1-3.733-1.465,8.34,8.34,0,0,1-2.689-2.71,8.476,8.476,0,0,1-1.145-4.224h6.59a3.8,3.8,0,0,0,.463,1.928" transform="translate(-741.742 -51.23)" fill="#fa4616"/>
      <path id="Контур_478" data-name="Контур 478" d="M1062.821,0V13.136h.145a8.02,8.02,0,0,1,3.37-3.2,9.1,9.1,0,0,1,4-1,11.8,11.8,0,0,1,4.569.756,6.8,6.8,0,0,1,2.807,2.1,8.109,8.109,0,0,1,1.44,3.271,20.336,20.336,0,0,1,.418,4.273v15.53h-6.935V20.609a8.873,8.873,0,0,0-.977-4.665,3.789,3.789,0,0,0-3.47-1.537,4.811,4.811,0,0,0-4.1,1.684q-1.267,1.686-1.267,5.543V34.868h-6.936V0Z" transform="translate(-899.039)" fill="#fa4616"/>
      <path id="Контур_479" data-name="Контур 479" d="M1.581,317.043v1.5h.041a3.714,3.714,0,0,1,3.3-1.74,3.726,3.726,0,0,1,1.722.395,2.22,2.22,0,0,1,1.085,1.345,3.57,3.57,0,0,1,1.356-1.284,3.806,3.806,0,0,1,1.846-.455,5.381,5.381,0,0,1,1.394.168,2.916,2.916,0,0,1,1.067.523,2.381,2.381,0,0,1,.693.92,3.381,3.381,0,0,1,.245,1.353v7.492H12.652v-6.7a4.821,4.821,0,0,0-.079-.89,1.813,1.813,0,0,0-.3-.721,1.487,1.487,0,0,0-.6-.485,2.407,2.407,0,0,0-1-.177A2.643,2.643,0,0,0,8.718,319a2.566,2.566,0,0,0-.713,1.9v6.364H6.325v-6.7a4.364,4.364,0,0,0-.089-.91,1.913,1.913,0,0,0-.307-.721,1.418,1.418,0,0,0-.583-.475,2.244,2.244,0,0,0-.938-.168,2.51,2.51,0,0,0-1.256.3,2.85,2.85,0,0,0-1.324,1.571,2.475,2.475,0,0,0-.148.742v6.364H0V317.043Z" transform="translate(0 -269.746)" fill="#fff"/>
      <path id="Контур_480" data-name="Контур 480" d="M118.17,327.48a1.442,1.442,0,0,1-1.038-.366,1.579,1.579,0,0,1-.386-1.2,4.006,4.006,0,0,1-1.612,1.2,5.3,5.3,0,0,1-1.985.366,5.542,5.542,0,0,1-1.306-.148,2.925,2.925,0,0,1-1.077-.494,2.39,2.39,0,0,1-.731-.89,2.968,2.968,0,0,1-.268-1.314,3,3,0,0,1,.3-1.424,2.575,2.575,0,0,1,.781-.9,3.561,3.561,0,0,1,1.106-.524c.415-.118.84-.218,1.276-.3q.692-.138,1.313-.208a7.127,7.127,0,0,0,1.1-.2,1.814,1.814,0,0,0,.752-.376.919.919,0,0,0,.277-.721,1.682,1.682,0,0,0-.206-.89,1.432,1.432,0,0,0-.534-.513,2.178,2.178,0,0,0-.731-.237,5.5,5.5,0,0,0-.8-.059,3.551,3.551,0,0,0-1.778.405,1.722,1.722,0,0,0-.772,1.532h-1.68a3.622,3.622,0,0,1,.4-1.6,2.986,2.986,0,0,1,.947-1.058,3.989,3.989,0,0,1,1.365-.582,7.143,7.143,0,0,1,1.622-.178,9.6,9.6,0,0,1,1.374.1,3.6,3.6,0,0,1,1.235.405,2.387,2.387,0,0,1,.888.859,2.746,2.746,0,0,1,.336,1.443v5.259a3.824,3.824,0,0,0,.071.87q.068.276.463.276a1.66,1.66,0,0,0,.513-.1v1.3a2.364,2.364,0,0,1-1.2.257m-2.353-5.148c-.343.072-.7.132-1.079.177s-.754.1-1.135.159a4.2,4.2,0,0,0-1.029.286,1.878,1.878,0,0,0-.74.563,1.58,1.58,0,0,0-.286,1,1.35,1.35,0,0,0,.168.7,1.386,1.386,0,0,0,.434.464,1.831,1.831,0,0,0,.633.258,3.527,3.527,0,0,0,.74.078,3.972,3.972,0,0,0,1.424-.227,2.977,2.977,0,0,0,.967-.574,2.261,2.261,0,0,0,.554-.75,1.907,1.907,0,0,0,.177-.761v-1.72a2.1,2.1,0,0,1-.829.346" transform="translate(-93.462 -269.746)" fill="#fff"/>
      <path id="Контур_481" data-name="Контур 481" d="M186.536,317.043v1.621h.041a3.536,3.536,0,0,1,3.32-1.859,4.42,4.42,0,0,1,1.68.277,2.778,2.778,0,0,1,1.088.771,2.871,2.871,0,0,1,.581,1.176,6.243,6.243,0,0,1,.168,1.511v6.721h-1.678v-6.918a2.035,2.035,0,0,0-.554-1.5,2.058,2.058,0,0,0-1.522-.553,3.4,3.4,0,0,0-1.335.237,2.489,2.489,0,0,0-.938.672,2.863,2.863,0,0,0-.563,1.017,4.083,4.083,0,0,0-.189,1.275v5.772h-1.68V317.043Z" transform="translate(-157.481 -269.746)" fill="#fff"/>
      <path id="Контур_482" data-name="Контур 482" d="M263.607,327.48a1.442,1.442,0,0,1-1.038-.366,1.578,1.578,0,0,1-.386-1.2,4.006,4.006,0,0,1-1.612,1.2,5.3,5.3,0,0,1-1.985.366,5.54,5.54,0,0,1-1.306-.148,2.924,2.924,0,0,1-1.076-.494,2.391,2.391,0,0,1-.731-.89,2.967,2.967,0,0,1-.268-1.314,3.007,3.007,0,0,1,.3-1.424,2.576,2.576,0,0,1,.781-.9,3.555,3.555,0,0,1,1.106-.524c.415-.118.84-.218,1.276-.3q.691-.138,1.313-.208a7.12,7.12,0,0,0,1.1-.2,1.814,1.814,0,0,0,.752-.376.919.919,0,0,0,.277-.721,1.679,1.679,0,0,0-.207-.89,1.432,1.432,0,0,0-.534-.513,2.177,2.177,0,0,0-.731-.237,5.5,5.5,0,0,0-.8-.059,3.552,3.552,0,0,0-1.778.405,1.722,1.722,0,0,0-.772,1.532H255.6a3.624,3.624,0,0,1,.4-1.6,2.988,2.988,0,0,1,.947-1.058,3.991,3.991,0,0,1,1.365-.582,7.144,7.144,0,0,1,1.622-.178,9.6,9.6,0,0,1,1.374.1,3.6,3.6,0,0,1,1.235.405,2.386,2.386,0,0,1,.888.859,2.745,2.745,0,0,1,.336,1.443v5.259a3.825,3.825,0,0,0,.071.87q.068.276.463.276a1.658,1.658,0,0,0,.513-.1v1.3a2.363,2.363,0,0,1-1.2.257m-2.353-5.148c-.343.072-.7.132-1.079.177s-.754.1-1.135.159a4.2,4.2,0,0,0-1.029.286,1.877,1.877,0,0,0-.74.563,1.579,1.579,0,0,0-.286,1,1.347,1.347,0,0,0,.168.7,1.382,1.382,0,0,0,.434.464,1.831,1.831,0,0,0,.634.258,3.524,3.524,0,0,0,.74.078,3.972,3.972,0,0,0,1.424-.227,2.977,2.977,0,0,0,.967-.574,2.258,2.258,0,0,0,.554-.75,1.907,1.907,0,0,0,.177-.761v-1.72a2.1,2.1,0,0,1-.829.346" transform="translate(-217.295 -269.746)" fill="#fff"/>
      <path id="Контур_483" data-name="Контур 483" d="M334.881,330.149a4.671,4.671,0,0,1-3.6,1.245,7.027,7.027,0,0,1-1.453-.157,4.473,4.473,0,0,1-1.344-.516,3.115,3.115,0,0,1-1-.929,2.65,2.65,0,0,1-.436-1.4h1.68a1.25,1.25,0,0,0,.286.771,2.112,2.112,0,0,0,.654.514,3.129,3.129,0,0,0,.84.286,4.557,4.557,0,0,0,.87.091,3.13,3.13,0,0,0,1.4-.288,2.625,2.625,0,0,0,.947-.79,3.263,3.263,0,0,0,.545-1.216,6.845,6.845,0,0,0,.168-1.561v-.672h-.041a2.812,2.812,0,0,1-1.315,1.393,4.082,4.082,0,0,1-1.867.445,4.49,4.49,0,0,1-2-.416,4.153,4.153,0,0,1-1.424-1.116,4.761,4.761,0,0,1-.858-1.641,6.7,6.7,0,0,1-.289-1.986,7.734,7.734,0,0,1,.239-1.869,5.046,5.046,0,0,1,.79-1.739,4.318,4.318,0,0,1,1.462-1.285,4.556,4.556,0,0,1,2.235-.5,3.78,3.78,0,0,1,1.778.425,3,3,0,0,1,1.265,1.275h.02v-1.462h1.581v9.35a5.38,5.38,0,0,1-1.147,3.756m-2.144-4.6a2.741,2.741,0,0,0,.938-.91,4.107,4.107,0,0,0,.525-1.274,6.225,6.225,0,0,0,.168-1.424,5.534,5.534,0,0,0-.159-1.324,3.651,3.651,0,0,0-.5-1.176,2.6,2.6,0,0,0-.9-.84,2.675,2.675,0,0,0-1.344-.316,2.9,2.9,0,0,0-1.383.306,2.685,2.685,0,0,0-.938.82,3.441,3.441,0,0,0-.534,1.186,5.685,5.685,0,0,0-.168,1.4,6.983,6.983,0,0,0,.138,1.384,3.883,3.883,0,0,0,.475,1.254,2.655,2.655,0,0,0,.888.91,2.569,2.569,0,0,0,1.383.347,2.725,2.725,0,0,0,1.415-.347" transform="translate(-278.135 -269.746)" fill="#fff"/>
      <path id="Контур_484" data-name="Контур 484" d="M410.828,326.61a4.648,4.648,0,0,1-2.887.869,5.254,5.254,0,0,1-2.126-.4,4.187,4.187,0,0,1-1.512-1.107,4.68,4.68,0,0,1-.917-1.7,8.215,8.215,0,0,1-.348-2.154,6.173,6.173,0,0,1,.357-2.135,5.065,5.065,0,0,1,1-1.68,4.53,4.53,0,0,1,1.521-1.107,4.649,4.649,0,0,1,1.926-.4,4.2,4.2,0,0,1,2.264.563,4.472,4.472,0,0,1,1.442,1.433,5.654,5.654,0,0,1,.752,1.9,8.1,8.1,0,0,1,.168,1.956h-7.648a4.052,4.052,0,0,0,.157,1.275A2.917,2.917,0,0,0,405.55,325a2.829,2.829,0,0,0,1.008.741,3.475,3.475,0,0,0,1.442.276,2.909,2.909,0,0,0,1.749-.494,2.383,2.383,0,0,0,.9-1.5h1.662a4.1,4.1,0,0,1-1.483,2.59m-.407-6.563a2.816,2.816,0,0,0-.613-.919,2.863,2.863,0,0,0-2.064-.84,2.933,2.933,0,0,0-1.176.227,2.714,2.714,0,0,0-.9.622,3.008,3.008,0,0,0-.593.92,3.444,3.444,0,0,0-.256,1.116h5.87a3.433,3.433,0,0,0-.268-1.126" transform="translate(-343.169 -269.745)" fill="#fff"/>
      <path id="Контур_485" data-name="Контур 485" d="M482.5,306.306v-1.384h-.039a2.472,2.472,0,0,1-1.3,1.226,5,5,0,0,1-1.958.375,4.615,4.615,0,0,1-2.066-.434,4.254,4.254,0,0,1-1.463-1.167,5.082,5.082,0,0,1-.879-1.7,6.986,6.986,0,0,1-.3-2.055,7.148,7.148,0,0,1,.288-2.056,4.815,4.815,0,0,1,.87-1.69,4.2,4.2,0,0,1,1.462-1.147,4.656,4.656,0,0,1,2.044-.425,5.059,5.059,0,0,1,.852.08,4.3,4.3,0,0,1,.908.267,3.848,3.848,0,0,1,.861.494,2.7,2.7,0,0,1,.681.761h.039v-5.257h1.68v14.113Zm-6.039-3.627a3.76,3.76,0,0,0,.575,1.215,2.8,2.8,0,0,0,.988.85,2.994,2.994,0,0,0,1.412.316,2.772,2.772,0,0,0,2.412-1.215,3.725,3.725,0,0,0,.545-1.236,5.967,5.967,0,0,0-.011-2.857,3.593,3.593,0,0,0-.563-1.235,2.881,2.881,0,0,0-1-.86,3.13,3.13,0,0,0-1.483-.326,2.9,2.9,0,0,0-1.444.336,2.658,2.658,0,0,0-.947.889,3.873,3.873,0,0,0-.516,1.265,6.783,6.783,0,0,0-.157,1.462,5.243,5.243,0,0,0,.186,1.394" transform="translate(-404.012 -248.789)" fill="#fff"/>
      <rect id="Прямоугольник_117" data-name="Прямоугольник 117" width="1.878" height="14.113" transform="translate(88.61 43.404)" fill="#fff"/>
      <path id="Контур_486" data-name="Контур 486" d="M620.326,293.773v-1.58h11.287v1.58h-4.7v12.532h-1.878V293.773Z" transform="translate(-528.18 -248.789)" fill="#fff"/>
      <path id="Контур_487" data-name="Контур 487" d="M739.507,324.979a1.766,1.766,0,0,0,.622.613,2.78,2.78,0,0,0,.87.326,4.993,4.993,0,0,0,1,.1,6.1,6.1,0,0,0,.829-.059,3.069,3.069,0,0,0,.8-.217,1.5,1.5,0,0,0,.6-.466,1.229,1.229,0,0,0,.239-.78,1.121,1.121,0,0,0-.495-.989,4.2,4.2,0,0,0-1.236-.543q-.743-.208-1.61-.376a8.281,8.281,0,0,1-1.612-.475,3.34,3.34,0,0,1-1.235-.859,2.234,2.234,0,0,1-.493-1.542,2.44,2.44,0,0,1,.345-1.324,2.805,2.805,0,0,1,.89-.9,4.082,4.082,0,0,1,1.224-.514,5.679,5.679,0,0,1,1.354-.168,8.037,8.037,0,0,1,1.6.149,3.734,3.734,0,0,1,1.3.513,2.674,2.674,0,0,1,.9.989,3.8,3.8,0,0,1,.4,1.551h-1.68a1.731,1.731,0,0,0-.257-.82,1.672,1.672,0,0,0-.554-.523,2.543,2.543,0,0,0-.74-.287,3.851,3.851,0,0,0-.822-.089,4.982,4.982,0,0,0-.761.059,2.586,2.586,0,0,0-.7.208,1.4,1.4,0,0,0-.513.4,1,1,0,0,0-.2.642.945.945,0,0,0,.306.721,2.433,2.433,0,0,0,.781.475,6.822,6.822,0,0,0,1.067.316q.593.13,1.186.267.633.139,1.235.336a4.007,4.007,0,0,1,1.067.524,2.59,2.59,0,0,1,.752.82,2.414,2.414,0,0,1,.286,1.225,2.847,2.847,0,0,1-.386,1.542,3.011,3.011,0,0,1-1.008.989,4.237,4.237,0,0,1-1.4.523,8.3,8.3,0,0,1-1.551.148,7.22,7.22,0,0,1-1.621-.177,3.984,3.984,0,0,1-1.362-.584,2.956,2.956,0,0,1-.949-1.067,3.657,3.657,0,0,1-.4-1.611h1.68a1.858,1.858,0,0,0,.257.939" transform="translate(-628.008 -269.746)" fill="#fff"/>
      <path id="Контур_488" data-name="Контур 488" d="M812.551,326.61a4.648,4.648,0,0,1-2.886.869,5.254,5.254,0,0,1-2.126-.4,4.19,4.19,0,0,1-1.512-1.107,4.681,4.681,0,0,1-.917-1.7,8.206,8.206,0,0,1-.347-2.154,6.169,6.169,0,0,1,.356-2.135,5.068,5.068,0,0,1,1-1.68,4.53,4.53,0,0,1,1.521-1.107,4.647,4.647,0,0,1,1.926-.4,4.2,4.2,0,0,1,2.264.563,4.469,4.469,0,0,1,1.442,1.433,5.652,5.652,0,0,1,.752,1.9,8.078,8.078,0,0,1,.168,1.956h-7.649a4.057,4.057,0,0,0,.157,1.275,2.918,2.918,0,0,0,.575,1.067,2.829,2.829,0,0,0,1.008.741,3.476,3.476,0,0,0,1.442.276,2.908,2.908,0,0,0,1.748-.494,2.383,2.383,0,0,0,.9-1.5h1.662a4.1,4.1,0,0,1-1.483,2.59m-.406-6.563a2.825,2.825,0,0,0-.613-.919,2.863,2.863,0,0,0-2.064-.84,2.931,2.931,0,0,0-1.176.227,2.719,2.719,0,0,0-.9.622,3.006,3.006,0,0,0-.593.92,3.447,3.447,0,0,0-.257,1.116h5.87a3.441,3.441,0,0,0-.268-1.126" transform="translate(-685.219 -269.745)" fill="#fff"/>
      <path id="Контур_489" data-name="Контур 489" d="M881.13,317.029v2.155h.041a4.525,4.525,0,0,1,1.5-1.838,3.77,3.77,0,0,1,2.253-.554v1.779a4.736,4.736,0,0,0-1.719.277,2.712,2.712,0,0,0-1.147.81,3.379,3.379,0,0,0-.631,1.3,6.985,6.985,0,0,0-.2,1.749v4.546h-1.681V317.029Z" transform="translate(-748.897 -269.732)" fill="#fff"/>
      <path id="Контур_490" data-name="Контур 490" d="M921.4,328.623,917.6,318.4h1.878l2.866,8.519h.039l2.786-8.519h1.76L923.2,328.623Z" transform="translate(-781.297 -271.107)" fill="#fff"/>
      <path id="Контур_491" data-name="Контур 491" d="M991.459,292.193h1.678v2.055h-1.678Zm1.678,14.113h-1.678V296.086h1.678Z" transform="translate(-844.183 -248.789)" fill="#fff"/>
      <path id="Контур_492" data-name="Контур 492" d="M1023.254,318.823a2.553,2.553,0,0,0-1.7-.534,3.138,3.138,0,0,0-1.521.336,2.7,2.7,0,0,0-.979.889,3.784,3.784,0,0,0-.525,1.275,7.024,7.024,0,0,0-.156,1.492,5.613,5.613,0,0,0,.168,1.384,3.715,3.715,0,0,0,.522,1.2,2.669,2.669,0,0,0,.929.84,2.789,2.789,0,0,0,1.365.316,2.745,2.745,0,0,0,1.946-.652,2.955,2.955,0,0,0,.861-1.838h1.719a4.709,4.709,0,0,1-1.413,2.925,4.44,4.44,0,0,1-3.093,1.028,5.329,5.329,0,0,1-2.066-.375,4.008,4.008,0,0,1-1.5-1.067,4.617,4.617,0,0,1-.911-1.651,6.881,6.881,0,0,1-.307-2.105,7.51,7.51,0,0,1,.3-2.145,4.961,4.961,0,0,1,.9-1.738,4.218,4.218,0,0,1,1.512-1.167,4.954,4.954,0,0,1,2.114-.425,6.165,6.165,0,0,1,1.631.208,3.962,3.962,0,0,1,1.344.642,3.506,3.506,0,0,1,.959,1.1,4.059,4.059,0,0,1,.475,1.572h-1.74a2.565,2.565,0,0,0-.829-1.5" transform="translate(-865.582 -269.746)" fill="#fff"/>
      <path id="Контур_493" data-name="Контур 493" d="M1095.837,326.61a4.648,4.648,0,0,1-2.886.869,5.253,5.253,0,0,1-2.126-.4,4.185,4.185,0,0,1-1.512-1.107,4.681,4.681,0,0,1-.917-1.7,8.214,8.214,0,0,1-.347-2.154,6.169,6.169,0,0,1,.356-2.135,5.069,5.069,0,0,1,1-1.68,4.53,4.53,0,0,1,1.521-1.107,4.647,4.647,0,0,1,1.926-.4,4.2,4.2,0,0,1,2.264.563,4.469,4.469,0,0,1,1.442,1.433,5.655,5.655,0,0,1,.752,1.9,8.093,8.093,0,0,1,.168,1.956h-7.649a4.058,4.058,0,0,0,.157,1.275,2.916,2.916,0,0,0,.575,1.067,2.829,2.829,0,0,0,1.008.741,3.474,3.474,0,0,0,1.442.276,2.908,2.908,0,0,0,1.749-.494,2.382,2.382,0,0,0,.9-1.5h1.663a4.1,4.1,0,0,1-1.483,2.59m-.406-6.563a2.822,2.822,0,0,0-.613-.919,2.864,2.864,0,0,0-2.064-.84,2.931,2.931,0,0,0-1.176.227,2.716,2.716,0,0,0-.9.622,3,3,0,0,0-.592.92,3.443,3.443,0,0,0-.257,1.116h5.87a3.436,3.436,0,0,0-.268-1.126" transform="translate(-926.425 -269.745)" fill="#fff"/>
      <path id="Контур_494" data-name="Контур 494" d="M1160.783,324.979a1.766,1.766,0,0,0,.622.613,2.785,2.785,0,0,0,.87.326,4.992,4.992,0,0,0,1,.1,6.1,6.1,0,0,0,.829-.059,3.069,3.069,0,0,0,.8-.217,1.5,1.5,0,0,0,.6-.466,1.23,1.23,0,0,0,.238-.78,1.121,1.121,0,0,0-.495-.989,4.2,4.2,0,0,0-1.235-.543q-.742-.208-1.61-.376a8.272,8.272,0,0,1-1.612-.475,3.339,3.339,0,0,1-1.236-.859,2.233,2.233,0,0,1-.493-1.542,2.441,2.441,0,0,1,.345-1.324,2.81,2.81,0,0,1,.89-.9,4.085,4.085,0,0,1,1.224-.514,5.68,5.68,0,0,1,1.354-.168,8.039,8.039,0,0,1,1.6.149,3.735,3.735,0,0,1,1.3.513,2.671,2.671,0,0,1,.9.989,3.792,3.792,0,0,1,.4,1.551h-1.681a1.729,1.729,0,0,0-.256-.82,1.676,1.676,0,0,0-.554-.523,2.542,2.542,0,0,0-.74-.287,3.851,3.851,0,0,0-.822-.089,4.978,4.978,0,0,0-.761.059,2.584,2.584,0,0,0-.7.208,1.4,1.4,0,0,0-.513.4,1,1,0,0,0-.2.642.945.945,0,0,0,.307.721,2.436,2.436,0,0,0,.781.475,6.836,6.836,0,0,0,1.067.316q.593.13,1.186.267.633.139,1.235.336a4.006,4.006,0,0,1,1.068.524,2.59,2.59,0,0,1,.751.82,2.409,2.409,0,0,1,.286,1.225,2.847,2.847,0,0,1-.386,1.542,3.013,3.013,0,0,1-1.008.989,4.235,4.235,0,0,1-1.4.523,8.3,8.3,0,0,1-1.551.148,7.219,7.219,0,0,1-1.621-.177,3.986,3.986,0,0,1-1.362-.584,2.951,2.951,0,0,1-.949-1.067,3.653,3.653,0,0,1-.4-1.611h1.681a1.862,1.862,0,0,0,.256.939" transform="translate(-986.706 -269.746)" fill="#fff"/>
    </g>
  </g>
</svg>
