<?xml version="1.0" encoding="utf-8"?><svg xmlns="http://www.w3.org/2000/svg" xmlns:xlink="http://www.w3.org/1999/xlink"><symbol viewBox="0 0 7.275 12.708" id="chevron-right" xmlns="http://www.w3.org/2000/svg"><path data-name="Контур 74" d="M.292.283L.278.297a.951.951 0 000 1.345l4.717 4.717-4.717 4.717a.951.951 0 000 1.345l.014.014a.951.951 0 001.345 0l5.328-5.328a1.057 1.057 0 000-1.5L1.637.279A.951.951 0 00.292.283z"/></symbol><symbol viewBox="0 0 76.091 43.559" id="icon-angle-down" xmlns="http://www.w3.org/2000/svg"><path data-name="Контур 498" d="M74.424 1.749l-.081-.081a5.7 5.7 0 00-8.053 0L38.045 29.912 9.802 1.669a5.7 5.7 0 00-8.053 0l-.081.081a5.7 5.7 0 000 8.054l31.9 31.9a6.328 6.328 0 008.951 0l31.9-31.9a5.7 5.7 0 00.005-8.055z"/></symbol><symbol viewBox="0 0 46.657 81.503" id="icon-angle-left" xmlns="http://www.w3.org/2000/svg"><path data-name="Контур 497" d="M44.784 79.715l.087-.087a6.1 6.1 0 000-8.626L14.62 40.751 44.871 10.5a6.1 6.1 0 000-8.626l-.087-.087a6.1 6.1 0 00-8.627 0L1.986 35.958a6.778 6.778 0 000 9.587l34.171 34.172a6.1 6.1 0 008.627-.002z"/></symbol><symbol viewBox="0 0 24 24" id="icon-calendar" xmlns="http://www.w3.org/2000/svg"><path fill-rule="evenodd" clip-rule="evenodd" d="M7 1a1 1 0 011 1v1h8V2a1 1 0 112 0v1h2a3 3 0 013 3v14a3 3 0 01-3 3H4a3 3 0 01-3-3V6a3 3 0 013-3h2V2a1 1 0 011-1zM4 5a1 1 0 00-1 1v2h18V6a1 1 0 00-1-1H4zm17 5H3v10a1 1 0 001 1h16a1 1 0 001-1V10z"/></symbol><symbol viewBox="0 0 24 24" id="icon-calendar-check" xmlns="http://www.w3.org/2000/svg"><path d="M0 0h24v24H0z"/><path d="M9 1v2h6V1h2v2h4a1 1 0 011 1v16a1 1 0 01-1 1H3a1 1 0 01-1-1V4a1 1 0 011-1h4V1h2zm11 9H4v9h16v-9zm-4.964 1.136l1.414 1.414-4.95 4.95-3.536-3.536L9.38 12.55l2.121 2.122 3.536-3.536zM7 5H4v3h16V5h-3v1h-2V5H9v1H7V5z"/></symbol><symbol viewBox="0 0 9.422 18.161" id="icon-fb" xmlns="http://www.w3.org/2000/svg"><path data-name="Контур 59" d="M6.121 18.161V9.889h2.788l.418-3.238H6.121V4.588c0-.935.26-1.573 1.6-1.573h1.7V.128A22.692 22.692 0 006.929.001a3.89 3.89 0 00-4.152 4.267v2.386H.001v3.238h2.778v8.272z"/></symbol><symbol viewBox="0 0 16.592 16.593" id="icon-insta" xmlns="http://www.w3.org/2000/svg"><g data-name="Сгруппировать 33"><path d="M8.296 0c-2.253 0-2.535.009-3.42.05a6.094 6.094 0 00-2.014.385A4.243 4.243 0 00.436 2.861 6.092 6.092 0 00.05 4.875C.01 5.76 0 6.042 0 8.295s.01 2.536.05 3.421a6.091 6.091 0 00.386 2.014 4.242 4.242 0 002.426 2.426 6.1 6.1 0 002.014.386c.885.04 1.167.05 3.42.05s2.536-.01 3.421-.05a6.1 6.1 0 002.014-.386 4.242 4.242 0 002.427-2.426 6.1 6.1 0 00.385-2.014c.04-.885.05-1.167.05-3.421s-.01-2.536-.05-3.42a6.1 6.1 0 00-.385-2.014A4.242 4.242 0 0013.731.435a6.09 6.09 0 00-2.014-.386C10.832.009 10.55 0 8.296 0zm0 1.495c2.215 0 2.478.009 3.352.048a4.593 4.593 0 011.541.286 2.746 2.746 0 011.575 1.575 4.586 4.586 0 01.286 1.54c.04.875.048 1.137.048 3.352s-.008 2.478-.048 3.352a4.59 4.59 0 01-.286 1.541 2.745 2.745 0 01-1.575 1.574 4.589 4.589 0 01-1.541.286c-.874.04-1.137.048-3.352.048s-2.478-.009-3.352-.048a4.59 4.59 0 01-1.541-.286 2.748 2.748 0 01-1.574-1.574 4.6 4.6 0 01-.286-1.541c-.04-.875-.048-1.137-.048-3.352s.008-2.477.048-3.352a4.591 4.591 0 01.286-1.54 2.748 2.748 0 011.574-1.575 4.594 4.594 0 011.541-.286c.875-.04 1.137-.048 3.352-.048"/><path d="M8.296 11.062a2.766 2.766 0 112.766-2.766 2.765 2.765 0 01-2.766 2.766zm0-7.026a4.26 4.26 0 104.26 4.26 4.26 4.26 0 00-4.26-4.26M13.72 3.867a1 1 0 11-1-1 1 1 0 011 1"/></g></symbol><symbol viewBox="0 0 14.595 14.452" id="icon-lin" xmlns="http://www.w3.org/2000/svg"><g data-name="Сгруппировать 41"><g data-name="Сгруппировать 40"><path data-name="Прямоугольник 56" d="M.083 4.815h3.129v9.637H.083z"/><path data-name="Контур 65" d="M1.648 0a1.676 1.676 0 00-.021 3.351A1.676 1.676 0 101.648 0z"/></g><path data-name="Контур 66" d="M10.993 4.589A3.726 3.726 0 008.172 5.82v-1H5.043v9.637h3.129v-5.38a2.141 2.141 0 01.124-.782 1.67 1.67 0 011.585-1.173c1.132 0 1.585.885 1.585 2.182v5.148h3.129v-5.54c.001-2.964-1.539-4.323-3.602-4.323z"/></g></symbol><symbol viewBox="0 0 64 64" id="icon-location" xmlns="http://www.w3.org/2000/svg"><path d="M32 2.5c-10.89 0-19.75 9.35-19.75 20.85 0 11 17.77 36.44 18.52 37.51a1.51 1.51 0 002.46 0c.77-1.07 18.52-26.47 18.52-37.51C51.75 11.85 42.89 2.5 32 2.5zm-9.23 20.85c.5-12.23 18-12.23 18.46 0-.5 12.24-17.96 12.23-18.46 0z"/></symbol><symbol viewBox="0 0 32 32" id="icon-loop" xmlns="http://www.w3.org/2000/svg"><path d="M19.427 21.427a8.5 8.5 0 112-2l5.585 5.585c.55.55.546 1.43 0 1.976l-.024.024a1.399 1.399 0 01-1.976 0l-5.585-5.585zM14.5 21a6.5 6.5 0 100-13 6.5 6.5 0 000 13z" fill-rule="evenodd"/></symbol><symbol viewBox="0 0 15.73 18.026" id="icon-play" xmlns="http://www.w3.org/2000/svg"><path data-name="Контур 4" d="M15.276 8.223a.914.914 0 010 1.579l-6.95 4.05-6.961 4.05a.909.909 0 01-1.366-.778V.898A.909.909 0 011.365.12L8.32 4.17z"/></symbol><symbol viewBox="0 0 151 151" id="icon-play-circle" xmlns="http://www.w3.org/2000/svg"><defs><clipPath id="la"><path data-name="Прямоугольник 238" d="M0 0h151v151H0z"/></clipPath></defs><g data-name="Сгруппировать 459" clip-path="url(#la)"><path data-name="Контур 543" d="M128.887 22.114a75.27 75.27 0 1016.179 24 75.238 75.238 0 00-16.179-24m7.447 79.083a66.257 66.257 0 115.186-25.7 65.79 65.79 0 01-5.186 25.7"/><path data-name="Контур 544" d="M114.791 70.761L75.5 48.076l-16.783-9.69c-4.517-2.608-8.21-.474-8.21 4.74v64.75c0 5.214 3.694 7.347 8.21 4.74l16.783-9.69 39.29-22.684c4.515-2.608 4.515-6.873 0-9.481"/></g></symbol><symbol viewBox="0 0 6.35 6.35" id="icon-suitcase" xmlns="http://www.w3.org/2000/svg"><path d="M2.699 1.096c-.126 0-.24.04-.333.12a.468.468 0 00-.165.352l.002.017H.99c-.102 0-.17.07-.18.171v.598l1.825.69a.484.484 0 01.419-.262l.008-.002h.215l.01.002c.182.004.339.11.418.264l1.842-.73v-.55c-.004-.107-.078-.18-.185-.18H4.148l.002-.018a.468.468 0 00-.164-.353.505.505 0 00-.333-.119h-.954zm0 .358h.954c.068 0 .123.026.155.053s.036.045.036.06c0 .007-.002.013-.003.018h.268a.38.38 0 01-.121.128.61.61 0 01-.335.09h-.954a.61.61 0 01-.335-.09.38.38 0 01-.122-.128h.269c-.001-.005-.004-.01-.004-.017 0-.016.005-.034.037-.061a.245.245 0 01.155-.053zm2.849 1.184l-1.787.708V3.5a.49.49 0 01-.485.49H3.06a.49.49 0 01-.484-.49v-.156L.803 2.672v2.323c0 .092.082.19.186.19h4.373c.103 0 .186-.098.186-.19V2.638zm-2.487.441c-.017 0-.031.006-.046.01-.009.001-.018 0-.026.004-.063.025-.105.084-.111.161a.149.15 0 01-.005.028v.219c0 .111.078.19.188.19h.215c.11 0 .188-.079.188-.19v-.218a.149.15 0 01-.004-.027c-.006-.079-.047-.138-.111-.163a.208.208 0 00-.073-.014h-.215z"/></symbol><symbol viewBox="0 0 16.944 13.768" id="icon-tw" xmlns="http://www.w3.org/2000/svg"><path data-name="white background" d="M15.209 3.427c.01.149.01.3.01.45a9.824 9.824 0 01-9.891 9.891A9.841 9.841 0 01-.001 12.21a7.093 7.093 0 00.827.05 6.98 6.98 0 004.317-1.491 3.481 3.481 0 01-3.248-2.414 3.469 3.469 0 001.57-.06A3.477 3.477 0 01.676 4.887v-.044a3.459 3.459 0 001.578.435A3.481 3.481 0 011.178.636a9.867 9.867 0 007.165 3.632 3.48 3.48 0 015.924-3.17 6.985 6.985 0 002.208-.844 3.489 3.489 0 01-1.528 1.922 6.918 6.918 0 002-.547 7.066 7.066 0 01-1.738 1.798z"/></symbol><symbol viewBox="0 0 20 16" id="icon-twitter" xmlns="http://www.w3.org/2000/svg"><path d="M6.29 16c7.547 0 11.675-6.156 11.675-11.495 0-.175 0-.349-.012-.522A8.265 8.265 0 0020 1.89a8.273 8.273 0 01-2.356.637A4.07 4.07 0 0019.448.293a8.303 8.303 0 01-2.606.98 4.153 4.153 0 00-5.806-.175 4.006 4.006 0 00-1.187 3.86A11.717 11.717 0 011.392.738 4.005 4.005 0 002.663 6.13 4.122 4.122 0 01.8 5.625v.051C.801 7.6 2.178 9.255 4.092 9.636a4.144 4.144 0 01-1.852.069c.537 1.646 2.078 2.773 3.833 2.806A8.315 8.315 0 010 14.185a11.754 11.754 0 006.29 1.812" fill-rule="evenodd"/></symbol><symbol viewBox="0 0 20 14" id="icon-yt" xmlns="http://www.w3.org/2000/svg"><path d="M7.988 9.586V3.974c1.993.938 3.536 1.843 5.36 2.82-1.505.834-3.367 1.77-5.36 2.792m11.103-8.403c-.344-.453-.93-.805-1.553-.922-1.833-.348-13.267-.349-15.099 0-.5.094-.945.32-1.328.673C-.5 2.429.005 10.452.393 11.75c.164.562.375.968.64 1.235.343.352.812.594 1.351.703 1.51.312 9.284.486 15.122.047a2.62 2.62 0 001.39-.712c1.49-1.49 1.388-9.962.195-11.841" fill-rule="evenodd"/></symbol></svg>